G04 #@! TF.GenerationSoftware,KiCad,Pcbnew,(5.1.6)-1*
G04 #@! TF.CreationDate,2020-11-07T12:23:27+01:00*
G04 #@! TF.ProjectId,8-DI-ESP32-PCB,382d4449-2d45-4535-9033-322d5043422e,rev?*
G04 #@! TF.SameCoordinates,Original*
G04 #@! TF.FileFunction,Copper,L2,Inr*
G04 #@! TF.FilePolarity,Positive*
%FSLAX46Y46*%
G04 Gerber Fmt 4.6, Leading zero omitted, Abs format (unit mm)*
G04 Created by KiCad (PCBNEW (5.1.6)-1) date 2020-11-07 12:23:27*
%MOMM*%
%LPD*%
G01*
G04 APERTURE LIST*
G04 #@! TA.AperFunction,ViaPad*
%ADD10O,1.700000X1.700000*%
G04 #@! TD*
G04 #@! TA.AperFunction,ViaPad*
%ADD11R,1.700000X1.700000*%
G04 #@! TD*
G04 #@! TA.AperFunction,ViaPad*
%ADD12C,2.100000*%
G04 #@! TD*
G04 #@! TA.AperFunction,ViaPad*
%ADD13R,2.100000X2.100000*%
G04 #@! TD*
G04 #@! TA.AperFunction,ViaPad*
%ADD14C,2.400000*%
G04 #@! TD*
G04 #@! TA.AperFunction,ViaPad*
%ADD15R,2.400000X2.400000*%
G04 #@! TD*
G04 #@! TA.AperFunction,ViaPad*
%ADD16C,0.800000*%
G04 #@! TD*
G04 #@! TA.AperFunction,Conductor*
%ADD17C,0.254000*%
G04 #@! TD*
G04 APERTURE END LIST*
D10*
X162814000Y-64008000D03*
X160274000Y-64008000D03*
D11*
X157734000Y-64008000D03*
D12*
X188214000Y-107950000D03*
X184404000Y-107950000D03*
D13*
X180594000Y-107950000D03*
D10*
X146304000Y-112776000D03*
D11*
X143764000Y-112776000D03*
D10*
X146304000Y-108204000D03*
D11*
X143764000Y-108204000D03*
D14*
X158242000Y-115824000D03*
D15*
X153162000Y-115824000D03*
D14*
X135890000Y-115824000D03*
D15*
X130810000Y-115824000D03*
D12*
X188214000Y-123444000D03*
X184404000Y-123444000D03*
D13*
X180594000Y-123444000D03*
D12*
X172974000Y-107950000D03*
X169164000Y-107950000D03*
D13*
X165354000Y-107950000D03*
D12*
X172974000Y-123444000D03*
X169164000Y-123444000D03*
D13*
X165354000Y-123444000D03*
D12*
X124714000Y-107950000D03*
X120904000Y-107950000D03*
D13*
X117094000Y-107950000D03*
D12*
X124714000Y-123444000D03*
X120904000Y-123444000D03*
D13*
X117094000Y-123444000D03*
D12*
X109474000Y-107950000D03*
X105664000Y-107950000D03*
D13*
X101854000Y-107950000D03*
D12*
X109474000Y-123444000D03*
X105664000Y-123444000D03*
D13*
X101854000Y-123444000D03*
D16*
X142748000Y-105918000D03*
X149098000Y-128270000D03*
X150114000Y-128270000D03*
X151130000Y-128270000D03*
X152146000Y-128270000D03*
X153162000Y-128270000D03*
X167386000Y-102616000D03*
X176276000Y-61214000D03*
X175260000Y-61214000D03*
X170688000Y-60706000D03*
X176276000Y-60198000D03*
X172720000Y-60706000D03*
X177292000Y-61214000D03*
X175260000Y-60198000D03*
X177292000Y-60198000D03*
X171704000Y-60706000D03*
X190500000Y-64516000D03*
X189484000Y-64516000D03*
X191516000Y-62484000D03*
X190500000Y-62484000D03*
X191516000Y-64516000D03*
X191516000Y-63500000D03*
X190500000Y-63500000D03*
X189484000Y-63500000D03*
X189484000Y-62484000D03*
X180848000Y-80010000D03*
X183388000Y-80010000D03*
X185928000Y-80010000D03*
X190246000Y-82550000D03*
X191262000Y-82550000D03*
X127508000Y-69596000D03*
X126746000Y-68834000D03*
X125984000Y-68072000D03*
X129794000Y-60452000D03*
X128778000Y-60452000D03*
X130810000Y-60452000D03*
X102870000Y-80010000D03*
X105410000Y-80010000D03*
X107950000Y-80010000D03*
X112268000Y-82550000D03*
X113284000Y-82550000D03*
X159004000Y-68326000D03*
X159004000Y-67310000D03*
X159004000Y-66294000D03*
X118872000Y-62992000D03*
X119888000Y-62992000D03*
X119888000Y-64008000D03*
X118872000Y-64008000D03*
X100584000Y-69342000D03*
X100584000Y-70358000D03*
X99568000Y-70358000D03*
X99568000Y-69342000D03*
X125984000Y-88392000D03*
X127000000Y-88392000D03*
X127000000Y-87376000D03*
X125984000Y-87376000D03*
X142240000Y-82804000D03*
X143256000Y-82804000D03*
X144272000Y-82804000D03*
X145288000Y-82804000D03*
X146304000Y-82804000D03*
X147320000Y-82804000D03*
X148336000Y-96012000D03*
X149352000Y-96012000D03*
X149352000Y-97028000D03*
X148336000Y-97028000D03*
X169672000Y-82296000D03*
X170688000Y-82296000D03*
X170688000Y-81280000D03*
X169672000Y-81280000D03*
X166370000Y-64262000D03*
X167386000Y-64262000D03*
X167386000Y-63246000D03*
X166370000Y-63246000D03*
X191516000Y-66548000D03*
X190500000Y-66548000D03*
X189484000Y-66548000D03*
X191516000Y-68580000D03*
X190500000Y-68580000D03*
X189484000Y-68580000D03*
X191516000Y-67564000D03*
X190500000Y-67564000D03*
X189484000Y-67564000D03*
X183642000Y-68834000D03*
X181610000Y-68834000D03*
X182626000Y-68834000D03*
X182626000Y-62230000D03*
X183642000Y-62230000D03*
X111252000Y-75438000D03*
X112268000Y-75438000D03*
X189230000Y-75438000D03*
X190246000Y-75438000D03*
X173990000Y-70104000D03*
X181610000Y-62230000D03*
X131826000Y-68580000D03*
X131826000Y-67564000D03*
X122936000Y-60960000D03*
X122936000Y-61976000D03*
X139326000Y-86106000D03*
X116078000Y-68580000D03*
X118872000Y-74168000D03*
X130810000Y-86106000D03*
X105410000Y-94488000D03*
X112522000Y-94488000D03*
X119634000Y-94488000D03*
X126746000Y-94488000D03*
X109220000Y-87376000D03*
X106680000Y-87376000D03*
X104140000Y-87376000D03*
X101600000Y-87376000D03*
X184658000Y-87376000D03*
X187198000Y-87376000D03*
X182118000Y-87376000D03*
X179578000Y-87376000D03*
X168656000Y-94488000D03*
X175768000Y-94488000D03*
X182880000Y-94488000D03*
X189992000Y-94488000D03*
X133858000Y-98806000D03*
X132842000Y-98806000D03*
X131826000Y-98806000D03*
X122722000Y-92964000D03*
X110490000Y-90424000D03*
X180848000Y-90678000D03*
X164632000Y-92964000D03*
X133858000Y-73660000D03*
X101600000Y-81280000D03*
X133858000Y-74930000D03*
X104140000Y-81280000D03*
X133858000Y-76200000D03*
X106680000Y-81280000D03*
X133858000Y-77470000D03*
X109220000Y-81280000D03*
X151130000Y-71120000D03*
X187198000Y-81280000D03*
X151130000Y-72390000D03*
X184658000Y-81280000D03*
X151130000Y-76200000D03*
X182118000Y-81280000D03*
X151130000Y-78740000D03*
X179578000Y-81280000D03*
D17*
G36*
X112873000Y-92000000D02*
G01*
X112875440Y-92024776D01*
X112882667Y-92048601D01*
X112894403Y-92070557D01*
X112910197Y-92089803D01*
X112929443Y-92105597D01*
X112951399Y-92117333D01*
X112975224Y-92124560D01*
X113000000Y-92127000D01*
X122111708Y-92127000D01*
X122062226Y-92160063D01*
X121918063Y-92304226D01*
X121804795Y-92473744D01*
X121726774Y-92662102D01*
X121687000Y-92862061D01*
X121687000Y-93065939D01*
X121726774Y-93265898D01*
X121804795Y-93454256D01*
X121918063Y-93623774D01*
X122062226Y-93767937D01*
X122231744Y-93881205D01*
X122420102Y-93959226D01*
X122620061Y-93999000D01*
X122823939Y-93999000D01*
X123023898Y-93959226D01*
X123212256Y-93881205D01*
X123381774Y-93767937D01*
X123525937Y-93623774D01*
X123639205Y-93454256D01*
X123717226Y-93265898D01*
X123757000Y-93065939D01*
X123757000Y-92862061D01*
X123717226Y-92662102D01*
X123639205Y-92473744D01*
X123525937Y-92304226D01*
X123381774Y-92160063D01*
X123332292Y-92127000D01*
X132873000Y-92127000D01*
X132873000Y-95000000D01*
X132875440Y-95024776D01*
X132882667Y-95048601D01*
X132894403Y-95070557D01*
X132910197Y-95089803D01*
X132929443Y-95105597D01*
X132951399Y-95117333D01*
X132975224Y-95124560D01*
X133000000Y-95127000D01*
X143873000Y-95127000D01*
X143873000Y-111287928D01*
X142914000Y-111287928D01*
X142789518Y-111300188D01*
X142669820Y-111336498D01*
X142559506Y-111395463D01*
X142462815Y-111474815D01*
X142383463Y-111571506D01*
X142324498Y-111681820D01*
X142288188Y-111801518D01*
X142275928Y-111926000D01*
X142275928Y-113626000D01*
X142288188Y-113750482D01*
X142324498Y-113870180D01*
X142383463Y-113980494D01*
X142462815Y-114077185D01*
X142559506Y-114156537D01*
X142669820Y-114215502D01*
X142789518Y-114251812D01*
X142914000Y-114264072D01*
X143873000Y-114264072D01*
X143873000Y-123000000D01*
X143875440Y-123024776D01*
X143882667Y-123048601D01*
X143894403Y-123070557D01*
X143910197Y-123089803D01*
X143929443Y-123105597D01*
X143951399Y-123117333D01*
X143975224Y-123124560D01*
X144000000Y-123127000D01*
X163000000Y-123127000D01*
X163024776Y-123124560D01*
X163048601Y-123117333D01*
X163070557Y-123105597D01*
X163089803Y-123089803D01*
X163105597Y-123070557D01*
X163117333Y-123048601D01*
X163124560Y-123024776D01*
X163127000Y-123000000D01*
X163127000Y-122394000D01*
X163665928Y-122394000D01*
X163669000Y-123158250D01*
X163827750Y-123317000D01*
X165227000Y-123317000D01*
X165227000Y-121917750D01*
X165481000Y-121917750D01*
X165481000Y-123317000D01*
X166880250Y-123317000D01*
X166919208Y-123278042D01*
X167479000Y-123278042D01*
X167479000Y-123609958D01*
X167543754Y-123935496D01*
X167670772Y-124242147D01*
X167855175Y-124518125D01*
X168089875Y-124752825D01*
X168365853Y-124937228D01*
X168672504Y-125064246D01*
X168998042Y-125129000D01*
X169329958Y-125129000D01*
X169655496Y-125064246D01*
X169962147Y-124937228D01*
X170238125Y-124752825D01*
X170472825Y-124518125D01*
X170657228Y-124242147D01*
X170784246Y-123935496D01*
X170849000Y-123609958D01*
X170849000Y-123278042D01*
X171289000Y-123278042D01*
X171289000Y-123609958D01*
X171353754Y-123935496D01*
X171480772Y-124242147D01*
X171665175Y-124518125D01*
X171899875Y-124752825D01*
X172175853Y-124937228D01*
X172482504Y-125064246D01*
X172808042Y-125129000D01*
X173139958Y-125129000D01*
X173465496Y-125064246D01*
X173772147Y-124937228D01*
X174048125Y-124752825D01*
X174282825Y-124518125D01*
X174298944Y-124494000D01*
X178905928Y-124494000D01*
X178918188Y-124618482D01*
X178954498Y-124738180D01*
X179013463Y-124848494D01*
X179092815Y-124945185D01*
X179189506Y-125024537D01*
X179299820Y-125083502D01*
X179419518Y-125119812D01*
X179544000Y-125132072D01*
X180308250Y-125129000D01*
X180467000Y-124970250D01*
X180467000Y-123571000D01*
X180721000Y-123571000D01*
X180721000Y-124970250D01*
X180879750Y-125129000D01*
X181644000Y-125132072D01*
X181768482Y-125119812D01*
X181888180Y-125083502D01*
X181998494Y-125024537D01*
X182095185Y-124945185D01*
X182174537Y-124848494D01*
X182233502Y-124738180D01*
X182269812Y-124618482D01*
X182282072Y-124494000D01*
X182279000Y-123729750D01*
X182120250Y-123571000D01*
X180721000Y-123571000D01*
X180467000Y-123571000D01*
X179067750Y-123571000D01*
X178909000Y-123729750D01*
X178905928Y-124494000D01*
X174298944Y-124494000D01*
X174467228Y-124242147D01*
X174594246Y-123935496D01*
X174659000Y-123609958D01*
X174659000Y-123278042D01*
X174594246Y-122952504D01*
X174467228Y-122645853D01*
X174298945Y-122394000D01*
X178905928Y-122394000D01*
X178909000Y-123158250D01*
X179067750Y-123317000D01*
X180467000Y-123317000D01*
X180467000Y-121917750D01*
X180721000Y-121917750D01*
X180721000Y-123317000D01*
X182120250Y-123317000D01*
X182159208Y-123278042D01*
X182719000Y-123278042D01*
X182719000Y-123609958D01*
X182783754Y-123935496D01*
X182910772Y-124242147D01*
X183095175Y-124518125D01*
X183329875Y-124752825D01*
X183605853Y-124937228D01*
X183912504Y-125064246D01*
X184238042Y-125129000D01*
X184569958Y-125129000D01*
X184895496Y-125064246D01*
X185202147Y-124937228D01*
X185478125Y-124752825D01*
X185712825Y-124518125D01*
X185897228Y-124242147D01*
X186024246Y-123935496D01*
X186089000Y-123609958D01*
X186089000Y-123278042D01*
X186529000Y-123278042D01*
X186529000Y-123609958D01*
X186593754Y-123935496D01*
X186720772Y-124242147D01*
X186905175Y-124518125D01*
X187139875Y-124752825D01*
X187415853Y-124937228D01*
X187722504Y-125064246D01*
X188048042Y-125129000D01*
X188379958Y-125129000D01*
X188705496Y-125064246D01*
X189012147Y-124937228D01*
X189288125Y-124752825D01*
X189522825Y-124518125D01*
X189707228Y-124242147D01*
X189834246Y-123935496D01*
X189899000Y-123609958D01*
X189899000Y-123278042D01*
X189834246Y-122952504D01*
X189707228Y-122645853D01*
X189522825Y-122369875D01*
X189288125Y-122135175D01*
X189012147Y-121950772D01*
X188705496Y-121823754D01*
X188379958Y-121759000D01*
X188048042Y-121759000D01*
X187722504Y-121823754D01*
X187415853Y-121950772D01*
X187139875Y-122135175D01*
X186905175Y-122369875D01*
X186720772Y-122645853D01*
X186593754Y-122952504D01*
X186529000Y-123278042D01*
X186089000Y-123278042D01*
X186024246Y-122952504D01*
X185897228Y-122645853D01*
X185712825Y-122369875D01*
X185478125Y-122135175D01*
X185202147Y-121950772D01*
X184895496Y-121823754D01*
X184569958Y-121759000D01*
X184238042Y-121759000D01*
X183912504Y-121823754D01*
X183605853Y-121950772D01*
X183329875Y-122135175D01*
X183095175Y-122369875D01*
X182910772Y-122645853D01*
X182783754Y-122952504D01*
X182719000Y-123278042D01*
X182159208Y-123278042D01*
X182279000Y-123158250D01*
X182282072Y-122394000D01*
X182269812Y-122269518D01*
X182233502Y-122149820D01*
X182174537Y-122039506D01*
X182095185Y-121942815D01*
X181998494Y-121863463D01*
X181888180Y-121804498D01*
X181768482Y-121768188D01*
X181644000Y-121755928D01*
X180879750Y-121759000D01*
X180721000Y-121917750D01*
X180467000Y-121917750D01*
X180308250Y-121759000D01*
X179544000Y-121755928D01*
X179419518Y-121768188D01*
X179299820Y-121804498D01*
X179189506Y-121863463D01*
X179092815Y-121942815D01*
X179013463Y-122039506D01*
X178954498Y-122149820D01*
X178918188Y-122269518D01*
X178905928Y-122394000D01*
X174298945Y-122394000D01*
X174282825Y-122369875D01*
X174048125Y-122135175D01*
X173772147Y-121950772D01*
X173465496Y-121823754D01*
X173139958Y-121759000D01*
X172808042Y-121759000D01*
X172482504Y-121823754D01*
X172175853Y-121950772D01*
X171899875Y-122135175D01*
X171665175Y-122369875D01*
X171480772Y-122645853D01*
X171353754Y-122952504D01*
X171289000Y-123278042D01*
X170849000Y-123278042D01*
X170784246Y-122952504D01*
X170657228Y-122645853D01*
X170472825Y-122369875D01*
X170238125Y-122135175D01*
X169962147Y-121950772D01*
X169655496Y-121823754D01*
X169329958Y-121759000D01*
X168998042Y-121759000D01*
X168672504Y-121823754D01*
X168365853Y-121950772D01*
X168089875Y-122135175D01*
X167855175Y-122369875D01*
X167670772Y-122645853D01*
X167543754Y-122952504D01*
X167479000Y-123278042D01*
X166919208Y-123278042D01*
X167039000Y-123158250D01*
X167042072Y-122394000D01*
X167029812Y-122269518D01*
X166993502Y-122149820D01*
X166934537Y-122039506D01*
X166855185Y-121942815D01*
X166758494Y-121863463D01*
X166648180Y-121804498D01*
X166528482Y-121768188D01*
X166404000Y-121755928D01*
X165639750Y-121759000D01*
X165481000Y-121917750D01*
X165227000Y-121917750D01*
X165068250Y-121759000D01*
X164304000Y-121755928D01*
X164179518Y-121768188D01*
X164059820Y-121804498D01*
X163949506Y-121863463D01*
X163852815Y-121942815D01*
X163773463Y-122039506D01*
X163714498Y-122149820D01*
X163678188Y-122269518D01*
X163665928Y-122394000D01*
X163127000Y-122394000D01*
X163127000Y-109000000D01*
X163665928Y-109000000D01*
X163678188Y-109124482D01*
X163714498Y-109244180D01*
X163773463Y-109354494D01*
X163852815Y-109451185D01*
X163949506Y-109530537D01*
X164059820Y-109589502D01*
X164179518Y-109625812D01*
X164304000Y-109638072D01*
X165068250Y-109635000D01*
X165227000Y-109476250D01*
X165227000Y-108077000D01*
X165481000Y-108077000D01*
X165481000Y-109476250D01*
X165639750Y-109635000D01*
X166404000Y-109638072D01*
X166528482Y-109625812D01*
X166648180Y-109589502D01*
X166758494Y-109530537D01*
X166855185Y-109451185D01*
X166934537Y-109354494D01*
X166993502Y-109244180D01*
X167029812Y-109124482D01*
X167042072Y-109000000D01*
X167039000Y-108235750D01*
X166880250Y-108077000D01*
X165481000Y-108077000D01*
X165227000Y-108077000D01*
X163827750Y-108077000D01*
X163669000Y-108235750D01*
X163665928Y-109000000D01*
X163127000Y-109000000D01*
X163127000Y-106900000D01*
X163665928Y-106900000D01*
X163669000Y-107664250D01*
X163827750Y-107823000D01*
X165227000Y-107823000D01*
X165227000Y-106423750D01*
X165481000Y-106423750D01*
X165481000Y-107823000D01*
X166880250Y-107823000D01*
X166919208Y-107784042D01*
X167479000Y-107784042D01*
X167479000Y-108115958D01*
X167543754Y-108441496D01*
X167670772Y-108748147D01*
X167855175Y-109024125D01*
X168089875Y-109258825D01*
X168365853Y-109443228D01*
X168672504Y-109570246D01*
X168998042Y-109635000D01*
X169329958Y-109635000D01*
X169655496Y-109570246D01*
X169962147Y-109443228D01*
X170238125Y-109258825D01*
X170472825Y-109024125D01*
X170657228Y-108748147D01*
X170784246Y-108441496D01*
X170849000Y-108115958D01*
X170849000Y-107784042D01*
X171289000Y-107784042D01*
X171289000Y-108115958D01*
X171353754Y-108441496D01*
X171480772Y-108748147D01*
X171665175Y-109024125D01*
X171899875Y-109258825D01*
X172175853Y-109443228D01*
X172482504Y-109570246D01*
X172808042Y-109635000D01*
X173139958Y-109635000D01*
X173465496Y-109570246D01*
X173772147Y-109443228D01*
X174048125Y-109258825D01*
X174282825Y-109024125D01*
X174298944Y-109000000D01*
X178905928Y-109000000D01*
X178918188Y-109124482D01*
X178954498Y-109244180D01*
X179013463Y-109354494D01*
X179092815Y-109451185D01*
X179189506Y-109530537D01*
X179299820Y-109589502D01*
X179419518Y-109625812D01*
X179544000Y-109638072D01*
X180308250Y-109635000D01*
X180467000Y-109476250D01*
X180467000Y-108077000D01*
X180721000Y-108077000D01*
X180721000Y-109476250D01*
X180879750Y-109635000D01*
X181644000Y-109638072D01*
X181768482Y-109625812D01*
X181888180Y-109589502D01*
X181998494Y-109530537D01*
X182095185Y-109451185D01*
X182174537Y-109354494D01*
X182233502Y-109244180D01*
X182269812Y-109124482D01*
X182282072Y-109000000D01*
X182279000Y-108235750D01*
X182120250Y-108077000D01*
X180721000Y-108077000D01*
X180467000Y-108077000D01*
X179067750Y-108077000D01*
X178909000Y-108235750D01*
X178905928Y-109000000D01*
X174298944Y-109000000D01*
X174467228Y-108748147D01*
X174594246Y-108441496D01*
X174659000Y-108115958D01*
X174659000Y-107784042D01*
X174594246Y-107458504D01*
X174467228Y-107151853D01*
X174298945Y-106900000D01*
X178905928Y-106900000D01*
X178909000Y-107664250D01*
X179067750Y-107823000D01*
X180467000Y-107823000D01*
X180467000Y-106423750D01*
X180721000Y-106423750D01*
X180721000Y-107823000D01*
X182120250Y-107823000D01*
X182159208Y-107784042D01*
X182719000Y-107784042D01*
X182719000Y-108115958D01*
X182783754Y-108441496D01*
X182910772Y-108748147D01*
X183095175Y-109024125D01*
X183329875Y-109258825D01*
X183605853Y-109443228D01*
X183912504Y-109570246D01*
X184238042Y-109635000D01*
X184569958Y-109635000D01*
X184895496Y-109570246D01*
X185202147Y-109443228D01*
X185478125Y-109258825D01*
X185712825Y-109024125D01*
X185897228Y-108748147D01*
X186024246Y-108441496D01*
X186089000Y-108115958D01*
X186089000Y-107784042D01*
X186529000Y-107784042D01*
X186529000Y-108115958D01*
X186593754Y-108441496D01*
X186720772Y-108748147D01*
X186905175Y-109024125D01*
X187139875Y-109258825D01*
X187415853Y-109443228D01*
X187722504Y-109570246D01*
X188048042Y-109635000D01*
X188379958Y-109635000D01*
X188705496Y-109570246D01*
X189012147Y-109443228D01*
X189288125Y-109258825D01*
X189522825Y-109024125D01*
X189707228Y-108748147D01*
X189834246Y-108441496D01*
X189899000Y-108115958D01*
X189899000Y-107784042D01*
X189834246Y-107458504D01*
X189707228Y-107151853D01*
X189522825Y-106875875D01*
X189288125Y-106641175D01*
X189012147Y-106456772D01*
X188705496Y-106329754D01*
X188379958Y-106265000D01*
X188048042Y-106265000D01*
X187722504Y-106329754D01*
X187415853Y-106456772D01*
X187139875Y-106641175D01*
X186905175Y-106875875D01*
X186720772Y-107151853D01*
X186593754Y-107458504D01*
X186529000Y-107784042D01*
X186089000Y-107784042D01*
X186024246Y-107458504D01*
X185897228Y-107151853D01*
X185712825Y-106875875D01*
X185478125Y-106641175D01*
X185202147Y-106456772D01*
X184895496Y-106329754D01*
X184569958Y-106265000D01*
X184238042Y-106265000D01*
X183912504Y-106329754D01*
X183605853Y-106456772D01*
X183329875Y-106641175D01*
X183095175Y-106875875D01*
X182910772Y-107151853D01*
X182783754Y-107458504D01*
X182719000Y-107784042D01*
X182159208Y-107784042D01*
X182279000Y-107664250D01*
X182282072Y-106900000D01*
X182269812Y-106775518D01*
X182233502Y-106655820D01*
X182174537Y-106545506D01*
X182095185Y-106448815D01*
X181998494Y-106369463D01*
X181888180Y-106310498D01*
X181768482Y-106274188D01*
X181644000Y-106261928D01*
X180879750Y-106265000D01*
X180721000Y-106423750D01*
X180467000Y-106423750D01*
X180308250Y-106265000D01*
X179544000Y-106261928D01*
X179419518Y-106274188D01*
X179299820Y-106310498D01*
X179189506Y-106369463D01*
X179092815Y-106448815D01*
X179013463Y-106545506D01*
X178954498Y-106655820D01*
X178918188Y-106775518D01*
X178905928Y-106900000D01*
X174298945Y-106900000D01*
X174282825Y-106875875D01*
X174048125Y-106641175D01*
X173772147Y-106456772D01*
X173465496Y-106329754D01*
X173139958Y-106265000D01*
X172808042Y-106265000D01*
X172482504Y-106329754D01*
X172175853Y-106456772D01*
X171899875Y-106641175D01*
X171665175Y-106875875D01*
X171480772Y-107151853D01*
X171353754Y-107458504D01*
X171289000Y-107784042D01*
X170849000Y-107784042D01*
X170784246Y-107458504D01*
X170657228Y-107151853D01*
X170472825Y-106875875D01*
X170238125Y-106641175D01*
X169962147Y-106456772D01*
X169655496Y-106329754D01*
X169329958Y-106265000D01*
X168998042Y-106265000D01*
X168672504Y-106329754D01*
X168365853Y-106456772D01*
X168089875Y-106641175D01*
X167855175Y-106875875D01*
X167670772Y-107151853D01*
X167543754Y-107458504D01*
X167479000Y-107784042D01*
X166919208Y-107784042D01*
X167039000Y-107664250D01*
X167042072Y-106900000D01*
X167029812Y-106775518D01*
X166993502Y-106655820D01*
X166934537Y-106545506D01*
X166855185Y-106448815D01*
X166758494Y-106369463D01*
X166648180Y-106310498D01*
X166528482Y-106274188D01*
X166404000Y-106261928D01*
X165639750Y-106265000D01*
X165481000Y-106423750D01*
X165227000Y-106423750D01*
X165068250Y-106265000D01*
X164304000Y-106261928D01*
X164179518Y-106274188D01*
X164059820Y-106310498D01*
X163949506Y-106369463D01*
X163852815Y-106448815D01*
X163773463Y-106545506D01*
X163714498Y-106655820D01*
X163678188Y-106775518D01*
X163665928Y-106900000D01*
X163127000Y-106900000D01*
X163127000Y-102514061D01*
X166351000Y-102514061D01*
X166351000Y-102717939D01*
X166390774Y-102917898D01*
X166468795Y-103106256D01*
X166582063Y-103275774D01*
X166726226Y-103419937D01*
X166895744Y-103533205D01*
X167084102Y-103611226D01*
X167284061Y-103651000D01*
X167487939Y-103651000D01*
X167687898Y-103611226D01*
X167876256Y-103533205D01*
X168045774Y-103419937D01*
X168189937Y-103275774D01*
X168303205Y-103106256D01*
X168381226Y-102917898D01*
X168421000Y-102717939D01*
X168421000Y-102514061D01*
X168381226Y-102314102D01*
X168303205Y-102125744D01*
X168189937Y-101956226D01*
X168045774Y-101812063D01*
X167876256Y-101698795D01*
X167687898Y-101620774D01*
X167487939Y-101581000D01*
X167284061Y-101581000D01*
X167084102Y-101620774D01*
X166895744Y-101698795D01*
X166726226Y-101812063D01*
X166582063Y-101956226D01*
X166468795Y-102125744D01*
X166390774Y-102314102D01*
X166351000Y-102514061D01*
X163127000Y-102514061D01*
X163127000Y-92127000D01*
X164021708Y-92127000D01*
X163972226Y-92160063D01*
X163828063Y-92304226D01*
X163714795Y-92473744D01*
X163636774Y-92662102D01*
X163597000Y-92862061D01*
X163597000Y-93065939D01*
X163636774Y-93265898D01*
X163714795Y-93454256D01*
X163828063Y-93623774D01*
X163972226Y-93767937D01*
X164141744Y-93881205D01*
X164330102Y-93959226D01*
X164530061Y-93999000D01*
X164733939Y-93999000D01*
X164933898Y-93959226D01*
X165122256Y-93881205D01*
X165291774Y-93767937D01*
X165435937Y-93623774D01*
X165549205Y-93454256D01*
X165627226Y-93265898D01*
X165667000Y-93065939D01*
X165667000Y-92862061D01*
X165627226Y-92662102D01*
X165549205Y-92473744D01*
X165435937Y-92304226D01*
X165291774Y-92160063D01*
X165242292Y-92127000D01*
X177000000Y-92127000D01*
X177024776Y-92124560D01*
X177048601Y-92117333D01*
X177070557Y-92105597D01*
X177089803Y-92089803D01*
X177105597Y-92070557D01*
X177117333Y-92048601D01*
X177124560Y-92024776D01*
X177127000Y-92000000D01*
X177127000Y-90576061D01*
X179813000Y-90576061D01*
X179813000Y-90779939D01*
X179852774Y-90979898D01*
X179930795Y-91168256D01*
X180044063Y-91337774D01*
X180188226Y-91481937D01*
X180357744Y-91595205D01*
X180546102Y-91673226D01*
X180746061Y-91713000D01*
X180949939Y-91713000D01*
X181149898Y-91673226D01*
X181338256Y-91595205D01*
X181507774Y-91481937D01*
X181651937Y-91337774D01*
X181765205Y-91168256D01*
X181843226Y-90979898D01*
X181883000Y-90779939D01*
X181883000Y-90576061D01*
X181843226Y-90376102D01*
X181765205Y-90187744D01*
X181651937Y-90018226D01*
X181507774Y-89874063D01*
X181338256Y-89760795D01*
X181149898Y-89682774D01*
X180949939Y-89643000D01*
X180746061Y-89643000D01*
X180546102Y-89682774D01*
X180357744Y-89760795D01*
X180188226Y-89874063D01*
X180044063Y-90018226D01*
X179930795Y-90187744D01*
X179852774Y-90376102D01*
X179813000Y-90576061D01*
X177127000Y-90576061D01*
X177127000Y-87127000D01*
X194340001Y-87127000D01*
X194340000Y-127967721D01*
X194311375Y-128259660D01*
X194235965Y-128509429D01*
X194113477Y-128739794D01*
X193948579Y-128941979D01*
X193747546Y-129108288D01*
X193518046Y-129232378D01*
X193268805Y-129309531D01*
X192978911Y-129340000D01*
X97032279Y-129340000D01*
X96740340Y-129311375D01*
X96490571Y-129235965D01*
X96260206Y-129113477D01*
X96058021Y-128948579D01*
X95891712Y-128747546D01*
X95767622Y-128518046D01*
X95690469Y-128268805D01*
X95679881Y-128168061D01*
X148063000Y-128168061D01*
X148063000Y-128371939D01*
X148102774Y-128571898D01*
X148180795Y-128760256D01*
X148294063Y-128929774D01*
X148438226Y-129073937D01*
X148607744Y-129187205D01*
X148796102Y-129265226D01*
X148996061Y-129305000D01*
X149199939Y-129305000D01*
X149399898Y-129265226D01*
X149588256Y-129187205D01*
X149606000Y-129175349D01*
X149623744Y-129187205D01*
X149812102Y-129265226D01*
X150012061Y-129305000D01*
X150215939Y-129305000D01*
X150415898Y-129265226D01*
X150604256Y-129187205D01*
X150622000Y-129175349D01*
X150639744Y-129187205D01*
X150828102Y-129265226D01*
X151028061Y-129305000D01*
X151231939Y-129305000D01*
X151431898Y-129265226D01*
X151620256Y-129187205D01*
X151638000Y-129175349D01*
X151655744Y-129187205D01*
X151844102Y-129265226D01*
X152044061Y-129305000D01*
X152247939Y-129305000D01*
X152447898Y-129265226D01*
X152636256Y-129187205D01*
X152654000Y-129175349D01*
X152671744Y-129187205D01*
X152860102Y-129265226D01*
X153060061Y-129305000D01*
X153263939Y-129305000D01*
X153463898Y-129265226D01*
X153652256Y-129187205D01*
X153821774Y-129073937D01*
X153965937Y-128929774D01*
X154079205Y-128760256D01*
X154157226Y-128571898D01*
X154197000Y-128371939D01*
X154197000Y-128168061D01*
X154157226Y-127968102D01*
X154079205Y-127779744D01*
X153965937Y-127610226D01*
X153821774Y-127466063D01*
X153652256Y-127352795D01*
X153463898Y-127274774D01*
X153263939Y-127235000D01*
X153060061Y-127235000D01*
X152860102Y-127274774D01*
X152671744Y-127352795D01*
X152654000Y-127364651D01*
X152636256Y-127352795D01*
X152447898Y-127274774D01*
X152247939Y-127235000D01*
X152044061Y-127235000D01*
X151844102Y-127274774D01*
X151655744Y-127352795D01*
X151638000Y-127364651D01*
X151620256Y-127352795D01*
X151431898Y-127274774D01*
X151231939Y-127235000D01*
X151028061Y-127235000D01*
X150828102Y-127274774D01*
X150639744Y-127352795D01*
X150622000Y-127364651D01*
X150604256Y-127352795D01*
X150415898Y-127274774D01*
X150215939Y-127235000D01*
X150012061Y-127235000D01*
X149812102Y-127274774D01*
X149623744Y-127352795D01*
X149606000Y-127364651D01*
X149588256Y-127352795D01*
X149399898Y-127274774D01*
X149199939Y-127235000D01*
X148996061Y-127235000D01*
X148796102Y-127274774D01*
X148607744Y-127352795D01*
X148438226Y-127466063D01*
X148294063Y-127610226D01*
X148180795Y-127779744D01*
X148102774Y-127968102D01*
X148063000Y-128168061D01*
X95679881Y-128168061D01*
X95660000Y-127978911D01*
X95660000Y-124494000D01*
X100165928Y-124494000D01*
X100178188Y-124618482D01*
X100214498Y-124738180D01*
X100273463Y-124848494D01*
X100352815Y-124945185D01*
X100449506Y-125024537D01*
X100559820Y-125083502D01*
X100679518Y-125119812D01*
X100804000Y-125132072D01*
X101568250Y-125129000D01*
X101727000Y-124970250D01*
X101727000Y-123571000D01*
X101981000Y-123571000D01*
X101981000Y-124970250D01*
X102139750Y-125129000D01*
X102904000Y-125132072D01*
X103028482Y-125119812D01*
X103148180Y-125083502D01*
X103258494Y-125024537D01*
X103355185Y-124945185D01*
X103434537Y-124848494D01*
X103493502Y-124738180D01*
X103529812Y-124618482D01*
X103542072Y-124494000D01*
X103539000Y-123729750D01*
X103380250Y-123571000D01*
X101981000Y-123571000D01*
X101727000Y-123571000D01*
X100327750Y-123571000D01*
X100169000Y-123729750D01*
X100165928Y-124494000D01*
X95660000Y-124494000D01*
X95660000Y-122394000D01*
X100165928Y-122394000D01*
X100169000Y-123158250D01*
X100327750Y-123317000D01*
X101727000Y-123317000D01*
X101727000Y-121917750D01*
X101981000Y-121917750D01*
X101981000Y-123317000D01*
X103380250Y-123317000D01*
X103419208Y-123278042D01*
X103979000Y-123278042D01*
X103979000Y-123609958D01*
X104043754Y-123935496D01*
X104170772Y-124242147D01*
X104355175Y-124518125D01*
X104589875Y-124752825D01*
X104865853Y-124937228D01*
X105172504Y-125064246D01*
X105498042Y-125129000D01*
X105829958Y-125129000D01*
X106155496Y-125064246D01*
X106462147Y-124937228D01*
X106738125Y-124752825D01*
X106972825Y-124518125D01*
X107157228Y-124242147D01*
X107284246Y-123935496D01*
X107349000Y-123609958D01*
X107349000Y-123278042D01*
X107789000Y-123278042D01*
X107789000Y-123609958D01*
X107853754Y-123935496D01*
X107980772Y-124242147D01*
X108165175Y-124518125D01*
X108399875Y-124752825D01*
X108675853Y-124937228D01*
X108982504Y-125064246D01*
X109308042Y-125129000D01*
X109639958Y-125129000D01*
X109965496Y-125064246D01*
X110272147Y-124937228D01*
X110548125Y-124752825D01*
X110782825Y-124518125D01*
X110798944Y-124494000D01*
X115405928Y-124494000D01*
X115418188Y-124618482D01*
X115454498Y-124738180D01*
X115513463Y-124848494D01*
X115592815Y-124945185D01*
X115689506Y-125024537D01*
X115799820Y-125083502D01*
X115919518Y-125119812D01*
X116044000Y-125132072D01*
X116808250Y-125129000D01*
X116967000Y-124970250D01*
X116967000Y-123571000D01*
X117221000Y-123571000D01*
X117221000Y-124970250D01*
X117379750Y-125129000D01*
X118144000Y-125132072D01*
X118268482Y-125119812D01*
X118388180Y-125083502D01*
X118498494Y-125024537D01*
X118595185Y-124945185D01*
X118674537Y-124848494D01*
X118733502Y-124738180D01*
X118769812Y-124618482D01*
X118782072Y-124494000D01*
X118779000Y-123729750D01*
X118620250Y-123571000D01*
X117221000Y-123571000D01*
X116967000Y-123571000D01*
X115567750Y-123571000D01*
X115409000Y-123729750D01*
X115405928Y-124494000D01*
X110798944Y-124494000D01*
X110967228Y-124242147D01*
X111094246Y-123935496D01*
X111159000Y-123609958D01*
X111159000Y-123278042D01*
X111094246Y-122952504D01*
X110967228Y-122645853D01*
X110798945Y-122394000D01*
X115405928Y-122394000D01*
X115409000Y-123158250D01*
X115567750Y-123317000D01*
X116967000Y-123317000D01*
X116967000Y-121917750D01*
X117221000Y-121917750D01*
X117221000Y-123317000D01*
X118620250Y-123317000D01*
X118659208Y-123278042D01*
X119219000Y-123278042D01*
X119219000Y-123609958D01*
X119283754Y-123935496D01*
X119410772Y-124242147D01*
X119595175Y-124518125D01*
X119829875Y-124752825D01*
X120105853Y-124937228D01*
X120412504Y-125064246D01*
X120738042Y-125129000D01*
X121069958Y-125129000D01*
X121395496Y-125064246D01*
X121702147Y-124937228D01*
X121978125Y-124752825D01*
X122212825Y-124518125D01*
X122397228Y-124242147D01*
X122524246Y-123935496D01*
X122589000Y-123609958D01*
X122589000Y-123278042D01*
X123029000Y-123278042D01*
X123029000Y-123609958D01*
X123093754Y-123935496D01*
X123220772Y-124242147D01*
X123405175Y-124518125D01*
X123639875Y-124752825D01*
X123915853Y-124937228D01*
X124222504Y-125064246D01*
X124548042Y-125129000D01*
X124879958Y-125129000D01*
X125205496Y-125064246D01*
X125512147Y-124937228D01*
X125788125Y-124752825D01*
X126022825Y-124518125D01*
X126038944Y-124494000D01*
X163665928Y-124494000D01*
X163678188Y-124618482D01*
X163714498Y-124738180D01*
X163773463Y-124848494D01*
X163852815Y-124945185D01*
X163949506Y-125024537D01*
X164059820Y-125083502D01*
X164179518Y-125119812D01*
X164304000Y-125132072D01*
X165068250Y-125129000D01*
X165227000Y-124970250D01*
X165227000Y-123571000D01*
X165481000Y-123571000D01*
X165481000Y-124970250D01*
X165639750Y-125129000D01*
X166404000Y-125132072D01*
X166528482Y-125119812D01*
X166648180Y-125083502D01*
X166758494Y-125024537D01*
X166855185Y-124945185D01*
X166934537Y-124848494D01*
X166993502Y-124738180D01*
X167029812Y-124618482D01*
X167042072Y-124494000D01*
X167039000Y-123729750D01*
X166880250Y-123571000D01*
X165481000Y-123571000D01*
X165227000Y-123571000D01*
X163827750Y-123571000D01*
X163669000Y-123729750D01*
X163665928Y-124494000D01*
X126038944Y-124494000D01*
X126207228Y-124242147D01*
X126334246Y-123935496D01*
X126399000Y-123609958D01*
X126399000Y-123278042D01*
X126334246Y-122952504D01*
X126207228Y-122645853D01*
X126022825Y-122369875D01*
X125788125Y-122135175D01*
X125512147Y-121950772D01*
X125205496Y-121823754D01*
X124879958Y-121759000D01*
X124548042Y-121759000D01*
X124222504Y-121823754D01*
X123915853Y-121950772D01*
X123639875Y-122135175D01*
X123405175Y-122369875D01*
X123220772Y-122645853D01*
X123093754Y-122952504D01*
X123029000Y-123278042D01*
X122589000Y-123278042D01*
X122524246Y-122952504D01*
X122397228Y-122645853D01*
X122212825Y-122369875D01*
X121978125Y-122135175D01*
X121702147Y-121950772D01*
X121395496Y-121823754D01*
X121069958Y-121759000D01*
X120738042Y-121759000D01*
X120412504Y-121823754D01*
X120105853Y-121950772D01*
X119829875Y-122135175D01*
X119595175Y-122369875D01*
X119410772Y-122645853D01*
X119283754Y-122952504D01*
X119219000Y-123278042D01*
X118659208Y-123278042D01*
X118779000Y-123158250D01*
X118782072Y-122394000D01*
X118769812Y-122269518D01*
X118733502Y-122149820D01*
X118674537Y-122039506D01*
X118595185Y-121942815D01*
X118498494Y-121863463D01*
X118388180Y-121804498D01*
X118268482Y-121768188D01*
X118144000Y-121755928D01*
X117379750Y-121759000D01*
X117221000Y-121917750D01*
X116967000Y-121917750D01*
X116808250Y-121759000D01*
X116044000Y-121755928D01*
X115919518Y-121768188D01*
X115799820Y-121804498D01*
X115689506Y-121863463D01*
X115592815Y-121942815D01*
X115513463Y-122039506D01*
X115454498Y-122149820D01*
X115418188Y-122269518D01*
X115405928Y-122394000D01*
X110798945Y-122394000D01*
X110782825Y-122369875D01*
X110548125Y-122135175D01*
X110272147Y-121950772D01*
X109965496Y-121823754D01*
X109639958Y-121759000D01*
X109308042Y-121759000D01*
X108982504Y-121823754D01*
X108675853Y-121950772D01*
X108399875Y-122135175D01*
X108165175Y-122369875D01*
X107980772Y-122645853D01*
X107853754Y-122952504D01*
X107789000Y-123278042D01*
X107349000Y-123278042D01*
X107284246Y-122952504D01*
X107157228Y-122645853D01*
X106972825Y-122369875D01*
X106738125Y-122135175D01*
X106462147Y-121950772D01*
X106155496Y-121823754D01*
X105829958Y-121759000D01*
X105498042Y-121759000D01*
X105172504Y-121823754D01*
X104865853Y-121950772D01*
X104589875Y-122135175D01*
X104355175Y-122369875D01*
X104170772Y-122645853D01*
X104043754Y-122952504D01*
X103979000Y-123278042D01*
X103419208Y-123278042D01*
X103539000Y-123158250D01*
X103542072Y-122394000D01*
X103529812Y-122269518D01*
X103493502Y-122149820D01*
X103434537Y-122039506D01*
X103355185Y-121942815D01*
X103258494Y-121863463D01*
X103148180Y-121804498D01*
X103028482Y-121768188D01*
X102904000Y-121755928D01*
X102139750Y-121759000D01*
X101981000Y-121917750D01*
X101727000Y-121917750D01*
X101568250Y-121759000D01*
X100804000Y-121755928D01*
X100679518Y-121768188D01*
X100559820Y-121804498D01*
X100449506Y-121863463D01*
X100352815Y-121942815D01*
X100273463Y-122039506D01*
X100214498Y-122149820D01*
X100178188Y-122269518D01*
X100165928Y-122394000D01*
X95660000Y-122394000D01*
X95660000Y-114624000D01*
X128971928Y-114624000D01*
X128971928Y-117024000D01*
X128984188Y-117148482D01*
X129020498Y-117268180D01*
X129079463Y-117378494D01*
X129158815Y-117475185D01*
X129255506Y-117554537D01*
X129365820Y-117613502D01*
X129485518Y-117649812D01*
X129610000Y-117662072D01*
X132010000Y-117662072D01*
X132134482Y-117649812D01*
X132254180Y-117613502D01*
X132364494Y-117554537D01*
X132461185Y-117475185D01*
X132540537Y-117378494D01*
X132599502Y-117268180D01*
X132635812Y-117148482D01*
X132648072Y-117024000D01*
X132648072Y-115643268D01*
X134055000Y-115643268D01*
X134055000Y-116004732D01*
X134125518Y-116359250D01*
X134263844Y-116693199D01*
X134464662Y-116993744D01*
X134720256Y-117249338D01*
X135020801Y-117450156D01*
X135354750Y-117588482D01*
X135709268Y-117659000D01*
X136070732Y-117659000D01*
X136425250Y-117588482D01*
X136759199Y-117450156D01*
X137059744Y-117249338D01*
X137315338Y-116993744D01*
X137516156Y-116693199D01*
X137654482Y-116359250D01*
X137725000Y-116004732D01*
X137725000Y-115643268D01*
X137654482Y-115288750D01*
X137516156Y-114954801D01*
X137315338Y-114654256D01*
X137059744Y-114398662D01*
X136759199Y-114197844D01*
X136425250Y-114059518D01*
X136070732Y-113989000D01*
X135709268Y-113989000D01*
X135354750Y-114059518D01*
X135020801Y-114197844D01*
X134720256Y-114398662D01*
X134464662Y-114654256D01*
X134263844Y-114954801D01*
X134125518Y-115288750D01*
X134055000Y-115643268D01*
X132648072Y-115643268D01*
X132648072Y-114624000D01*
X132635812Y-114499518D01*
X132599502Y-114379820D01*
X132540537Y-114269506D01*
X132461185Y-114172815D01*
X132364494Y-114093463D01*
X132254180Y-114034498D01*
X132134482Y-113998188D01*
X132010000Y-113985928D01*
X129610000Y-113985928D01*
X129485518Y-113998188D01*
X129365820Y-114034498D01*
X129255506Y-114093463D01*
X129158815Y-114172815D01*
X129079463Y-114269506D01*
X129020498Y-114379820D01*
X128984188Y-114499518D01*
X128971928Y-114624000D01*
X95660000Y-114624000D01*
X95660000Y-109000000D01*
X100165928Y-109000000D01*
X100178188Y-109124482D01*
X100214498Y-109244180D01*
X100273463Y-109354494D01*
X100352815Y-109451185D01*
X100449506Y-109530537D01*
X100559820Y-109589502D01*
X100679518Y-109625812D01*
X100804000Y-109638072D01*
X101568250Y-109635000D01*
X101727000Y-109476250D01*
X101727000Y-108077000D01*
X101981000Y-108077000D01*
X101981000Y-109476250D01*
X102139750Y-109635000D01*
X102904000Y-109638072D01*
X103028482Y-109625812D01*
X103148180Y-109589502D01*
X103258494Y-109530537D01*
X103355185Y-109451185D01*
X103434537Y-109354494D01*
X103493502Y-109244180D01*
X103529812Y-109124482D01*
X103542072Y-109000000D01*
X103539000Y-108235750D01*
X103380250Y-108077000D01*
X101981000Y-108077000D01*
X101727000Y-108077000D01*
X100327750Y-108077000D01*
X100169000Y-108235750D01*
X100165928Y-109000000D01*
X95660000Y-109000000D01*
X95660000Y-106900000D01*
X100165928Y-106900000D01*
X100169000Y-107664250D01*
X100327750Y-107823000D01*
X101727000Y-107823000D01*
X101727000Y-106423750D01*
X101981000Y-106423750D01*
X101981000Y-107823000D01*
X103380250Y-107823000D01*
X103419208Y-107784042D01*
X103979000Y-107784042D01*
X103979000Y-108115958D01*
X104043754Y-108441496D01*
X104170772Y-108748147D01*
X104355175Y-109024125D01*
X104589875Y-109258825D01*
X104865853Y-109443228D01*
X105172504Y-109570246D01*
X105498042Y-109635000D01*
X105829958Y-109635000D01*
X106155496Y-109570246D01*
X106462147Y-109443228D01*
X106738125Y-109258825D01*
X106972825Y-109024125D01*
X107157228Y-108748147D01*
X107284246Y-108441496D01*
X107349000Y-108115958D01*
X107349000Y-107784042D01*
X107789000Y-107784042D01*
X107789000Y-108115958D01*
X107853754Y-108441496D01*
X107980772Y-108748147D01*
X108165175Y-109024125D01*
X108399875Y-109258825D01*
X108675853Y-109443228D01*
X108982504Y-109570246D01*
X109308042Y-109635000D01*
X109639958Y-109635000D01*
X109965496Y-109570246D01*
X110272147Y-109443228D01*
X110548125Y-109258825D01*
X110782825Y-109024125D01*
X110798944Y-109000000D01*
X115405928Y-109000000D01*
X115418188Y-109124482D01*
X115454498Y-109244180D01*
X115513463Y-109354494D01*
X115592815Y-109451185D01*
X115689506Y-109530537D01*
X115799820Y-109589502D01*
X115919518Y-109625812D01*
X116044000Y-109638072D01*
X116808250Y-109635000D01*
X116967000Y-109476250D01*
X116967000Y-108077000D01*
X117221000Y-108077000D01*
X117221000Y-109476250D01*
X117379750Y-109635000D01*
X118144000Y-109638072D01*
X118268482Y-109625812D01*
X118388180Y-109589502D01*
X118498494Y-109530537D01*
X118595185Y-109451185D01*
X118674537Y-109354494D01*
X118733502Y-109244180D01*
X118769812Y-109124482D01*
X118782072Y-109000000D01*
X118779000Y-108235750D01*
X118620250Y-108077000D01*
X117221000Y-108077000D01*
X116967000Y-108077000D01*
X115567750Y-108077000D01*
X115409000Y-108235750D01*
X115405928Y-109000000D01*
X110798944Y-109000000D01*
X110967228Y-108748147D01*
X111094246Y-108441496D01*
X111159000Y-108115958D01*
X111159000Y-107784042D01*
X111094246Y-107458504D01*
X110967228Y-107151853D01*
X110798945Y-106900000D01*
X115405928Y-106900000D01*
X115409000Y-107664250D01*
X115567750Y-107823000D01*
X116967000Y-107823000D01*
X116967000Y-106423750D01*
X117221000Y-106423750D01*
X117221000Y-107823000D01*
X118620250Y-107823000D01*
X118659208Y-107784042D01*
X119219000Y-107784042D01*
X119219000Y-108115958D01*
X119283754Y-108441496D01*
X119410772Y-108748147D01*
X119595175Y-109024125D01*
X119829875Y-109258825D01*
X120105853Y-109443228D01*
X120412504Y-109570246D01*
X120738042Y-109635000D01*
X121069958Y-109635000D01*
X121395496Y-109570246D01*
X121702147Y-109443228D01*
X121978125Y-109258825D01*
X122212825Y-109024125D01*
X122397228Y-108748147D01*
X122524246Y-108441496D01*
X122589000Y-108115958D01*
X122589000Y-107784042D01*
X123029000Y-107784042D01*
X123029000Y-108115958D01*
X123093754Y-108441496D01*
X123220772Y-108748147D01*
X123405175Y-109024125D01*
X123639875Y-109258825D01*
X123915853Y-109443228D01*
X124222504Y-109570246D01*
X124548042Y-109635000D01*
X124879958Y-109635000D01*
X125205496Y-109570246D01*
X125512147Y-109443228D01*
X125788125Y-109258825D01*
X125992950Y-109054000D01*
X142275928Y-109054000D01*
X142288188Y-109178482D01*
X142324498Y-109298180D01*
X142383463Y-109408494D01*
X142462815Y-109505185D01*
X142559506Y-109584537D01*
X142669820Y-109643502D01*
X142789518Y-109679812D01*
X142914000Y-109692072D01*
X143478250Y-109689000D01*
X143637000Y-109530250D01*
X143637000Y-108331000D01*
X142437750Y-108331000D01*
X142279000Y-108489750D01*
X142275928Y-109054000D01*
X125992950Y-109054000D01*
X126022825Y-109024125D01*
X126207228Y-108748147D01*
X126334246Y-108441496D01*
X126399000Y-108115958D01*
X126399000Y-107784042D01*
X126334246Y-107458504D01*
X126207228Y-107151853D01*
X126022825Y-106875875D01*
X125788125Y-106641175D01*
X125512147Y-106456772D01*
X125205496Y-106329754D01*
X124879958Y-106265000D01*
X124548042Y-106265000D01*
X124222504Y-106329754D01*
X123915853Y-106456772D01*
X123639875Y-106641175D01*
X123405175Y-106875875D01*
X123220772Y-107151853D01*
X123093754Y-107458504D01*
X123029000Y-107784042D01*
X122589000Y-107784042D01*
X122524246Y-107458504D01*
X122397228Y-107151853D01*
X122212825Y-106875875D01*
X121978125Y-106641175D01*
X121702147Y-106456772D01*
X121395496Y-106329754D01*
X121069958Y-106265000D01*
X120738042Y-106265000D01*
X120412504Y-106329754D01*
X120105853Y-106456772D01*
X119829875Y-106641175D01*
X119595175Y-106875875D01*
X119410772Y-107151853D01*
X119283754Y-107458504D01*
X119219000Y-107784042D01*
X118659208Y-107784042D01*
X118779000Y-107664250D01*
X118782072Y-106900000D01*
X118769812Y-106775518D01*
X118733502Y-106655820D01*
X118674537Y-106545506D01*
X118595185Y-106448815D01*
X118498494Y-106369463D01*
X118388180Y-106310498D01*
X118268482Y-106274188D01*
X118144000Y-106261928D01*
X117379750Y-106265000D01*
X117221000Y-106423750D01*
X116967000Y-106423750D01*
X116808250Y-106265000D01*
X116044000Y-106261928D01*
X115919518Y-106274188D01*
X115799820Y-106310498D01*
X115689506Y-106369463D01*
X115592815Y-106448815D01*
X115513463Y-106545506D01*
X115454498Y-106655820D01*
X115418188Y-106775518D01*
X115405928Y-106900000D01*
X110798945Y-106900000D01*
X110782825Y-106875875D01*
X110548125Y-106641175D01*
X110272147Y-106456772D01*
X109965496Y-106329754D01*
X109639958Y-106265000D01*
X109308042Y-106265000D01*
X108982504Y-106329754D01*
X108675853Y-106456772D01*
X108399875Y-106641175D01*
X108165175Y-106875875D01*
X107980772Y-107151853D01*
X107853754Y-107458504D01*
X107789000Y-107784042D01*
X107349000Y-107784042D01*
X107284246Y-107458504D01*
X107157228Y-107151853D01*
X106972825Y-106875875D01*
X106738125Y-106641175D01*
X106462147Y-106456772D01*
X106155496Y-106329754D01*
X105829958Y-106265000D01*
X105498042Y-106265000D01*
X105172504Y-106329754D01*
X104865853Y-106456772D01*
X104589875Y-106641175D01*
X104355175Y-106875875D01*
X104170772Y-107151853D01*
X104043754Y-107458504D01*
X103979000Y-107784042D01*
X103419208Y-107784042D01*
X103539000Y-107664250D01*
X103542072Y-106900000D01*
X103529812Y-106775518D01*
X103493502Y-106655820D01*
X103434537Y-106545506D01*
X103355185Y-106448815D01*
X103258494Y-106369463D01*
X103148180Y-106310498D01*
X103028482Y-106274188D01*
X102904000Y-106261928D01*
X102139750Y-106265000D01*
X101981000Y-106423750D01*
X101727000Y-106423750D01*
X101568250Y-106265000D01*
X100804000Y-106261928D01*
X100679518Y-106274188D01*
X100559820Y-106310498D01*
X100449506Y-106369463D01*
X100352815Y-106448815D01*
X100273463Y-106545506D01*
X100214498Y-106655820D01*
X100178188Y-106775518D01*
X100165928Y-106900000D01*
X95660000Y-106900000D01*
X95660000Y-105816061D01*
X141713000Y-105816061D01*
X141713000Y-106019939D01*
X141752774Y-106219898D01*
X141830795Y-106408256D01*
X141944063Y-106577774D01*
X142088226Y-106721937D01*
X142257744Y-106835205D01*
X142446102Y-106913226D01*
X142453125Y-106914623D01*
X142383463Y-106999506D01*
X142324498Y-107109820D01*
X142288188Y-107229518D01*
X142275928Y-107354000D01*
X142279000Y-107918250D01*
X142437750Y-108077000D01*
X143637000Y-108077000D01*
X143637000Y-106877750D01*
X143478250Y-106719000D01*
X143411077Y-106718634D01*
X143551937Y-106577774D01*
X143665205Y-106408256D01*
X143743226Y-106219898D01*
X143783000Y-106019939D01*
X143783000Y-105816061D01*
X143743226Y-105616102D01*
X143665205Y-105427744D01*
X143551937Y-105258226D01*
X143407774Y-105114063D01*
X143238256Y-105000795D01*
X143049898Y-104922774D01*
X142849939Y-104883000D01*
X142646061Y-104883000D01*
X142446102Y-104922774D01*
X142257744Y-105000795D01*
X142088226Y-105114063D01*
X141944063Y-105258226D01*
X141830795Y-105427744D01*
X141752774Y-105616102D01*
X141713000Y-105816061D01*
X95660000Y-105816061D01*
X95660000Y-90322061D01*
X109455000Y-90322061D01*
X109455000Y-90525939D01*
X109494774Y-90725898D01*
X109572795Y-90914256D01*
X109686063Y-91083774D01*
X109830226Y-91227937D01*
X109999744Y-91341205D01*
X110188102Y-91419226D01*
X110388061Y-91459000D01*
X110591939Y-91459000D01*
X110791898Y-91419226D01*
X110980256Y-91341205D01*
X111149774Y-91227937D01*
X111293937Y-91083774D01*
X111407205Y-90914256D01*
X111485226Y-90725898D01*
X111525000Y-90525939D01*
X111525000Y-90322061D01*
X111485226Y-90122102D01*
X111407205Y-89933744D01*
X111293937Y-89764226D01*
X111149774Y-89620063D01*
X110980256Y-89506795D01*
X110791898Y-89428774D01*
X110591939Y-89389000D01*
X110388061Y-89389000D01*
X110188102Y-89428774D01*
X109999744Y-89506795D01*
X109830226Y-89620063D01*
X109686063Y-89764226D01*
X109572795Y-89933744D01*
X109494774Y-90122102D01*
X109455000Y-90322061D01*
X95660000Y-90322061D01*
X95660000Y-87127000D01*
X112873000Y-87127000D01*
X112873000Y-92000000D01*
G37*
X112873000Y-92000000D02*
X112875440Y-92024776D01*
X112882667Y-92048601D01*
X112894403Y-92070557D01*
X112910197Y-92089803D01*
X112929443Y-92105597D01*
X112951399Y-92117333D01*
X112975224Y-92124560D01*
X113000000Y-92127000D01*
X122111708Y-92127000D01*
X122062226Y-92160063D01*
X121918063Y-92304226D01*
X121804795Y-92473744D01*
X121726774Y-92662102D01*
X121687000Y-92862061D01*
X121687000Y-93065939D01*
X121726774Y-93265898D01*
X121804795Y-93454256D01*
X121918063Y-93623774D01*
X122062226Y-93767937D01*
X122231744Y-93881205D01*
X122420102Y-93959226D01*
X122620061Y-93999000D01*
X122823939Y-93999000D01*
X123023898Y-93959226D01*
X123212256Y-93881205D01*
X123381774Y-93767937D01*
X123525937Y-93623774D01*
X123639205Y-93454256D01*
X123717226Y-93265898D01*
X123757000Y-93065939D01*
X123757000Y-92862061D01*
X123717226Y-92662102D01*
X123639205Y-92473744D01*
X123525937Y-92304226D01*
X123381774Y-92160063D01*
X123332292Y-92127000D01*
X132873000Y-92127000D01*
X132873000Y-95000000D01*
X132875440Y-95024776D01*
X132882667Y-95048601D01*
X132894403Y-95070557D01*
X132910197Y-95089803D01*
X132929443Y-95105597D01*
X132951399Y-95117333D01*
X132975224Y-95124560D01*
X133000000Y-95127000D01*
X143873000Y-95127000D01*
X143873000Y-111287928D01*
X142914000Y-111287928D01*
X142789518Y-111300188D01*
X142669820Y-111336498D01*
X142559506Y-111395463D01*
X142462815Y-111474815D01*
X142383463Y-111571506D01*
X142324498Y-111681820D01*
X142288188Y-111801518D01*
X142275928Y-111926000D01*
X142275928Y-113626000D01*
X142288188Y-113750482D01*
X142324498Y-113870180D01*
X142383463Y-113980494D01*
X142462815Y-114077185D01*
X142559506Y-114156537D01*
X142669820Y-114215502D01*
X142789518Y-114251812D01*
X142914000Y-114264072D01*
X143873000Y-114264072D01*
X143873000Y-123000000D01*
X143875440Y-123024776D01*
X143882667Y-123048601D01*
X143894403Y-123070557D01*
X143910197Y-123089803D01*
X143929443Y-123105597D01*
X143951399Y-123117333D01*
X143975224Y-123124560D01*
X144000000Y-123127000D01*
X163000000Y-123127000D01*
X163024776Y-123124560D01*
X163048601Y-123117333D01*
X163070557Y-123105597D01*
X163089803Y-123089803D01*
X163105597Y-123070557D01*
X163117333Y-123048601D01*
X163124560Y-123024776D01*
X163127000Y-123000000D01*
X163127000Y-122394000D01*
X163665928Y-122394000D01*
X163669000Y-123158250D01*
X163827750Y-123317000D01*
X165227000Y-123317000D01*
X165227000Y-121917750D01*
X165481000Y-121917750D01*
X165481000Y-123317000D01*
X166880250Y-123317000D01*
X166919208Y-123278042D01*
X167479000Y-123278042D01*
X167479000Y-123609958D01*
X167543754Y-123935496D01*
X167670772Y-124242147D01*
X167855175Y-124518125D01*
X168089875Y-124752825D01*
X168365853Y-124937228D01*
X168672504Y-125064246D01*
X168998042Y-125129000D01*
X169329958Y-125129000D01*
X169655496Y-125064246D01*
X169962147Y-124937228D01*
X170238125Y-124752825D01*
X170472825Y-124518125D01*
X170657228Y-124242147D01*
X170784246Y-123935496D01*
X170849000Y-123609958D01*
X170849000Y-123278042D01*
X171289000Y-123278042D01*
X171289000Y-123609958D01*
X171353754Y-123935496D01*
X171480772Y-124242147D01*
X171665175Y-124518125D01*
X171899875Y-124752825D01*
X172175853Y-124937228D01*
X172482504Y-125064246D01*
X172808042Y-125129000D01*
X173139958Y-125129000D01*
X173465496Y-125064246D01*
X173772147Y-124937228D01*
X174048125Y-124752825D01*
X174282825Y-124518125D01*
X174298944Y-124494000D01*
X178905928Y-124494000D01*
X178918188Y-124618482D01*
X178954498Y-124738180D01*
X179013463Y-124848494D01*
X179092815Y-124945185D01*
X179189506Y-125024537D01*
X179299820Y-125083502D01*
X179419518Y-125119812D01*
X179544000Y-125132072D01*
X180308250Y-125129000D01*
X180467000Y-124970250D01*
X180467000Y-123571000D01*
X180721000Y-123571000D01*
X180721000Y-124970250D01*
X180879750Y-125129000D01*
X181644000Y-125132072D01*
X181768482Y-125119812D01*
X181888180Y-125083502D01*
X181998494Y-125024537D01*
X182095185Y-124945185D01*
X182174537Y-124848494D01*
X182233502Y-124738180D01*
X182269812Y-124618482D01*
X182282072Y-124494000D01*
X182279000Y-123729750D01*
X182120250Y-123571000D01*
X180721000Y-123571000D01*
X180467000Y-123571000D01*
X179067750Y-123571000D01*
X178909000Y-123729750D01*
X178905928Y-124494000D01*
X174298944Y-124494000D01*
X174467228Y-124242147D01*
X174594246Y-123935496D01*
X174659000Y-123609958D01*
X174659000Y-123278042D01*
X174594246Y-122952504D01*
X174467228Y-122645853D01*
X174298945Y-122394000D01*
X178905928Y-122394000D01*
X178909000Y-123158250D01*
X179067750Y-123317000D01*
X180467000Y-123317000D01*
X180467000Y-121917750D01*
X180721000Y-121917750D01*
X180721000Y-123317000D01*
X182120250Y-123317000D01*
X182159208Y-123278042D01*
X182719000Y-123278042D01*
X182719000Y-123609958D01*
X182783754Y-123935496D01*
X182910772Y-124242147D01*
X183095175Y-124518125D01*
X183329875Y-124752825D01*
X183605853Y-124937228D01*
X183912504Y-125064246D01*
X184238042Y-125129000D01*
X184569958Y-125129000D01*
X184895496Y-125064246D01*
X185202147Y-124937228D01*
X185478125Y-124752825D01*
X185712825Y-124518125D01*
X185897228Y-124242147D01*
X186024246Y-123935496D01*
X186089000Y-123609958D01*
X186089000Y-123278042D01*
X186529000Y-123278042D01*
X186529000Y-123609958D01*
X186593754Y-123935496D01*
X186720772Y-124242147D01*
X186905175Y-124518125D01*
X187139875Y-124752825D01*
X187415853Y-124937228D01*
X187722504Y-125064246D01*
X188048042Y-125129000D01*
X188379958Y-125129000D01*
X188705496Y-125064246D01*
X189012147Y-124937228D01*
X189288125Y-124752825D01*
X189522825Y-124518125D01*
X189707228Y-124242147D01*
X189834246Y-123935496D01*
X189899000Y-123609958D01*
X189899000Y-123278042D01*
X189834246Y-122952504D01*
X189707228Y-122645853D01*
X189522825Y-122369875D01*
X189288125Y-122135175D01*
X189012147Y-121950772D01*
X188705496Y-121823754D01*
X188379958Y-121759000D01*
X188048042Y-121759000D01*
X187722504Y-121823754D01*
X187415853Y-121950772D01*
X187139875Y-122135175D01*
X186905175Y-122369875D01*
X186720772Y-122645853D01*
X186593754Y-122952504D01*
X186529000Y-123278042D01*
X186089000Y-123278042D01*
X186024246Y-122952504D01*
X185897228Y-122645853D01*
X185712825Y-122369875D01*
X185478125Y-122135175D01*
X185202147Y-121950772D01*
X184895496Y-121823754D01*
X184569958Y-121759000D01*
X184238042Y-121759000D01*
X183912504Y-121823754D01*
X183605853Y-121950772D01*
X183329875Y-122135175D01*
X183095175Y-122369875D01*
X182910772Y-122645853D01*
X182783754Y-122952504D01*
X182719000Y-123278042D01*
X182159208Y-123278042D01*
X182279000Y-123158250D01*
X182282072Y-122394000D01*
X182269812Y-122269518D01*
X182233502Y-122149820D01*
X182174537Y-122039506D01*
X182095185Y-121942815D01*
X181998494Y-121863463D01*
X181888180Y-121804498D01*
X181768482Y-121768188D01*
X181644000Y-121755928D01*
X180879750Y-121759000D01*
X180721000Y-121917750D01*
X180467000Y-121917750D01*
X180308250Y-121759000D01*
X179544000Y-121755928D01*
X179419518Y-121768188D01*
X179299820Y-121804498D01*
X179189506Y-121863463D01*
X179092815Y-121942815D01*
X179013463Y-122039506D01*
X178954498Y-122149820D01*
X178918188Y-122269518D01*
X178905928Y-122394000D01*
X174298945Y-122394000D01*
X174282825Y-122369875D01*
X174048125Y-122135175D01*
X173772147Y-121950772D01*
X173465496Y-121823754D01*
X173139958Y-121759000D01*
X172808042Y-121759000D01*
X172482504Y-121823754D01*
X172175853Y-121950772D01*
X171899875Y-122135175D01*
X171665175Y-122369875D01*
X171480772Y-122645853D01*
X171353754Y-122952504D01*
X171289000Y-123278042D01*
X170849000Y-123278042D01*
X170784246Y-122952504D01*
X170657228Y-122645853D01*
X170472825Y-122369875D01*
X170238125Y-122135175D01*
X169962147Y-121950772D01*
X169655496Y-121823754D01*
X169329958Y-121759000D01*
X168998042Y-121759000D01*
X168672504Y-121823754D01*
X168365853Y-121950772D01*
X168089875Y-122135175D01*
X167855175Y-122369875D01*
X167670772Y-122645853D01*
X167543754Y-122952504D01*
X167479000Y-123278042D01*
X166919208Y-123278042D01*
X167039000Y-123158250D01*
X167042072Y-122394000D01*
X167029812Y-122269518D01*
X166993502Y-122149820D01*
X166934537Y-122039506D01*
X166855185Y-121942815D01*
X166758494Y-121863463D01*
X166648180Y-121804498D01*
X166528482Y-121768188D01*
X166404000Y-121755928D01*
X165639750Y-121759000D01*
X165481000Y-121917750D01*
X165227000Y-121917750D01*
X165068250Y-121759000D01*
X164304000Y-121755928D01*
X164179518Y-121768188D01*
X164059820Y-121804498D01*
X163949506Y-121863463D01*
X163852815Y-121942815D01*
X163773463Y-122039506D01*
X163714498Y-122149820D01*
X163678188Y-122269518D01*
X163665928Y-122394000D01*
X163127000Y-122394000D01*
X163127000Y-109000000D01*
X163665928Y-109000000D01*
X163678188Y-109124482D01*
X163714498Y-109244180D01*
X163773463Y-109354494D01*
X163852815Y-109451185D01*
X163949506Y-109530537D01*
X164059820Y-109589502D01*
X164179518Y-109625812D01*
X164304000Y-109638072D01*
X165068250Y-109635000D01*
X165227000Y-109476250D01*
X165227000Y-108077000D01*
X165481000Y-108077000D01*
X165481000Y-109476250D01*
X165639750Y-109635000D01*
X166404000Y-109638072D01*
X166528482Y-109625812D01*
X166648180Y-109589502D01*
X166758494Y-109530537D01*
X166855185Y-109451185D01*
X166934537Y-109354494D01*
X166993502Y-109244180D01*
X167029812Y-109124482D01*
X167042072Y-109000000D01*
X167039000Y-108235750D01*
X166880250Y-108077000D01*
X165481000Y-108077000D01*
X165227000Y-108077000D01*
X163827750Y-108077000D01*
X163669000Y-108235750D01*
X163665928Y-109000000D01*
X163127000Y-109000000D01*
X163127000Y-106900000D01*
X163665928Y-106900000D01*
X163669000Y-107664250D01*
X163827750Y-107823000D01*
X165227000Y-107823000D01*
X165227000Y-106423750D01*
X165481000Y-106423750D01*
X165481000Y-107823000D01*
X166880250Y-107823000D01*
X166919208Y-107784042D01*
X167479000Y-107784042D01*
X167479000Y-108115958D01*
X167543754Y-108441496D01*
X167670772Y-108748147D01*
X167855175Y-109024125D01*
X168089875Y-109258825D01*
X168365853Y-109443228D01*
X168672504Y-109570246D01*
X168998042Y-109635000D01*
X169329958Y-109635000D01*
X169655496Y-109570246D01*
X169962147Y-109443228D01*
X170238125Y-109258825D01*
X170472825Y-109024125D01*
X170657228Y-108748147D01*
X170784246Y-108441496D01*
X170849000Y-108115958D01*
X170849000Y-107784042D01*
X171289000Y-107784042D01*
X171289000Y-108115958D01*
X171353754Y-108441496D01*
X171480772Y-108748147D01*
X171665175Y-109024125D01*
X171899875Y-109258825D01*
X172175853Y-109443228D01*
X172482504Y-109570246D01*
X172808042Y-109635000D01*
X173139958Y-109635000D01*
X173465496Y-109570246D01*
X173772147Y-109443228D01*
X174048125Y-109258825D01*
X174282825Y-109024125D01*
X174298944Y-109000000D01*
X178905928Y-109000000D01*
X178918188Y-109124482D01*
X178954498Y-109244180D01*
X179013463Y-109354494D01*
X179092815Y-109451185D01*
X179189506Y-109530537D01*
X179299820Y-109589502D01*
X179419518Y-109625812D01*
X179544000Y-109638072D01*
X180308250Y-109635000D01*
X180467000Y-109476250D01*
X180467000Y-108077000D01*
X180721000Y-108077000D01*
X180721000Y-109476250D01*
X180879750Y-109635000D01*
X181644000Y-109638072D01*
X181768482Y-109625812D01*
X181888180Y-109589502D01*
X181998494Y-109530537D01*
X182095185Y-109451185D01*
X182174537Y-109354494D01*
X182233502Y-109244180D01*
X182269812Y-109124482D01*
X182282072Y-109000000D01*
X182279000Y-108235750D01*
X182120250Y-108077000D01*
X180721000Y-108077000D01*
X180467000Y-108077000D01*
X179067750Y-108077000D01*
X178909000Y-108235750D01*
X178905928Y-109000000D01*
X174298944Y-109000000D01*
X174467228Y-108748147D01*
X174594246Y-108441496D01*
X174659000Y-108115958D01*
X174659000Y-107784042D01*
X174594246Y-107458504D01*
X174467228Y-107151853D01*
X174298945Y-106900000D01*
X178905928Y-106900000D01*
X178909000Y-107664250D01*
X179067750Y-107823000D01*
X180467000Y-107823000D01*
X180467000Y-106423750D01*
X180721000Y-106423750D01*
X180721000Y-107823000D01*
X182120250Y-107823000D01*
X182159208Y-107784042D01*
X182719000Y-107784042D01*
X182719000Y-108115958D01*
X182783754Y-108441496D01*
X182910772Y-108748147D01*
X183095175Y-109024125D01*
X183329875Y-109258825D01*
X183605853Y-109443228D01*
X183912504Y-109570246D01*
X184238042Y-109635000D01*
X184569958Y-109635000D01*
X184895496Y-109570246D01*
X185202147Y-109443228D01*
X185478125Y-109258825D01*
X185712825Y-109024125D01*
X185897228Y-108748147D01*
X186024246Y-108441496D01*
X186089000Y-108115958D01*
X186089000Y-107784042D01*
X186529000Y-107784042D01*
X186529000Y-108115958D01*
X186593754Y-108441496D01*
X186720772Y-108748147D01*
X186905175Y-109024125D01*
X187139875Y-109258825D01*
X187415853Y-109443228D01*
X187722504Y-109570246D01*
X188048042Y-109635000D01*
X188379958Y-109635000D01*
X188705496Y-109570246D01*
X189012147Y-109443228D01*
X189288125Y-109258825D01*
X189522825Y-109024125D01*
X189707228Y-108748147D01*
X189834246Y-108441496D01*
X189899000Y-108115958D01*
X189899000Y-107784042D01*
X189834246Y-107458504D01*
X189707228Y-107151853D01*
X189522825Y-106875875D01*
X189288125Y-106641175D01*
X189012147Y-106456772D01*
X188705496Y-106329754D01*
X188379958Y-106265000D01*
X188048042Y-106265000D01*
X187722504Y-106329754D01*
X187415853Y-106456772D01*
X187139875Y-106641175D01*
X186905175Y-106875875D01*
X186720772Y-107151853D01*
X186593754Y-107458504D01*
X186529000Y-107784042D01*
X186089000Y-107784042D01*
X186024246Y-107458504D01*
X185897228Y-107151853D01*
X185712825Y-106875875D01*
X185478125Y-106641175D01*
X185202147Y-106456772D01*
X184895496Y-106329754D01*
X184569958Y-106265000D01*
X184238042Y-106265000D01*
X183912504Y-106329754D01*
X183605853Y-106456772D01*
X183329875Y-106641175D01*
X183095175Y-106875875D01*
X182910772Y-107151853D01*
X182783754Y-107458504D01*
X182719000Y-107784042D01*
X182159208Y-107784042D01*
X182279000Y-107664250D01*
X182282072Y-106900000D01*
X182269812Y-106775518D01*
X182233502Y-106655820D01*
X182174537Y-106545506D01*
X182095185Y-106448815D01*
X181998494Y-106369463D01*
X181888180Y-106310498D01*
X181768482Y-106274188D01*
X181644000Y-106261928D01*
X180879750Y-106265000D01*
X180721000Y-106423750D01*
X180467000Y-106423750D01*
X180308250Y-106265000D01*
X179544000Y-106261928D01*
X179419518Y-106274188D01*
X179299820Y-106310498D01*
X179189506Y-106369463D01*
X179092815Y-106448815D01*
X179013463Y-106545506D01*
X178954498Y-106655820D01*
X178918188Y-106775518D01*
X178905928Y-106900000D01*
X174298945Y-106900000D01*
X174282825Y-106875875D01*
X174048125Y-106641175D01*
X173772147Y-106456772D01*
X173465496Y-106329754D01*
X173139958Y-106265000D01*
X172808042Y-106265000D01*
X172482504Y-106329754D01*
X172175853Y-106456772D01*
X171899875Y-106641175D01*
X171665175Y-106875875D01*
X171480772Y-107151853D01*
X171353754Y-107458504D01*
X171289000Y-107784042D01*
X170849000Y-107784042D01*
X170784246Y-107458504D01*
X170657228Y-107151853D01*
X170472825Y-106875875D01*
X170238125Y-106641175D01*
X169962147Y-106456772D01*
X169655496Y-106329754D01*
X169329958Y-106265000D01*
X168998042Y-106265000D01*
X168672504Y-106329754D01*
X168365853Y-106456772D01*
X168089875Y-106641175D01*
X167855175Y-106875875D01*
X167670772Y-107151853D01*
X167543754Y-107458504D01*
X167479000Y-107784042D01*
X166919208Y-107784042D01*
X167039000Y-107664250D01*
X167042072Y-106900000D01*
X167029812Y-106775518D01*
X166993502Y-106655820D01*
X166934537Y-106545506D01*
X166855185Y-106448815D01*
X166758494Y-106369463D01*
X166648180Y-106310498D01*
X166528482Y-106274188D01*
X166404000Y-106261928D01*
X165639750Y-106265000D01*
X165481000Y-106423750D01*
X165227000Y-106423750D01*
X165068250Y-106265000D01*
X164304000Y-106261928D01*
X164179518Y-106274188D01*
X164059820Y-106310498D01*
X163949506Y-106369463D01*
X163852815Y-106448815D01*
X163773463Y-106545506D01*
X163714498Y-106655820D01*
X163678188Y-106775518D01*
X163665928Y-106900000D01*
X163127000Y-106900000D01*
X163127000Y-102514061D01*
X166351000Y-102514061D01*
X166351000Y-102717939D01*
X166390774Y-102917898D01*
X166468795Y-103106256D01*
X166582063Y-103275774D01*
X166726226Y-103419937D01*
X166895744Y-103533205D01*
X167084102Y-103611226D01*
X167284061Y-103651000D01*
X167487939Y-103651000D01*
X167687898Y-103611226D01*
X167876256Y-103533205D01*
X168045774Y-103419937D01*
X168189937Y-103275774D01*
X168303205Y-103106256D01*
X168381226Y-102917898D01*
X168421000Y-102717939D01*
X168421000Y-102514061D01*
X168381226Y-102314102D01*
X168303205Y-102125744D01*
X168189937Y-101956226D01*
X168045774Y-101812063D01*
X167876256Y-101698795D01*
X167687898Y-101620774D01*
X167487939Y-101581000D01*
X167284061Y-101581000D01*
X167084102Y-101620774D01*
X166895744Y-101698795D01*
X166726226Y-101812063D01*
X166582063Y-101956226D01*
X166468795Y-102125744D01*
X166390774Y-102314102D01*
X166351000Y-102514061D01*
X163127000Y-102514061D01*
X163127000Y-92127000D01*
X164021708Y-92127000D01*
X163972226Y-92160063D01*
X163828063Y-92304226D01*
X163714795Y-92473744D01*
X163636774Y-92662102D01*
X163597000Y-92862061D01*
X163597000Y-93065939D01*
X163636774Y-93265898D01*
X163714795Y-93454256D01*
X163828063Y-93623774D01*
X163972226Y-93767937D01*
X164141744Y-93881205D01*
X164330102Y-93959226D01*
X164530061Y-93999000D01*
X164733939Y-93999000D01*
X164933898Y-93959226D01*
X165122256Y-93881205D01*
X165291774Y-93767937D01*
X165435937Y-93623774D01*
X165549205Y-93454256D01*
X165627226Y-93265898D01*
X165667000Y-93065939D01*
X165667000Y-92862061D01*
X165627226Y-92662102D01*
X165549205Y-92473744D01*
X165435937Y-92304226D01*
X165291774Y-92160063D01*
X165242292Y-92127000D01*
X177000000Y-92127000D01*
X177024776Y-92124560D01*
X177048601Y-92117333D01*
X177070557Y-92105597D01*
X177089803Y-92089803D01*
X177105597Y-92070557D01*
X177117333Y-92048601D01*
X177124560Y-92024776D01*
X177127000Y-92000000D01*
X177127000Y-90576061D01*
X179813000Y-90576061D01*
X179813000Y-90779939D01*
X179852774Y-90979898D01*
X179930795Y-91168256D01*
X180044063Y-91337774D01*
X180188226Y-91481937D01*
X180357744Y-91595205D01*
X180546102Y-91673226D01*
X180746061Y-91713000D01*
X180949939Y-91713000D01*
X181149898Y-91673226D01*
X181338256Y-91595205D01*
X181507774Y-91481937D01*
X181651937Y-91337774D01*
X181765205Y-91168256D01*
X181843226Y-90979898D01*
X181883000Y-90779939D01*
X181883000Y-90576061D01*
X181843226Y-90376102D01*
X181765205Y-90187744D01*
X181651937Y-90018226D01*
X181507774Y-89874063D01*
X181338256Y-89760795D01*
X181149898Y-89682774D01*
X180949939Y-89643000D01*
X180746061Y-89643000D01*
X180546102Y-89682774D01*
X180357744Y-89760795D01*
X180188226Y-89874063D01*
X180044063Y-90018226D01*
X179930795Y-90187744D01*
X179852774Y-90376102D01*
X179813000Y-90576061D01*
X177127000Y-90576061D01*
X177127000Y-87127000D01*
X194340001Y-87127000D01*
X194340000Y-127967721D01*
X194311375Y-128259660D01*
X194235965Y-128509429D01*
X194113477Y-128739794D01*
X193948579Y-128941979D01*
X193747546Y-129108288D01*
X193518046Y-129232378D01*
X193268805Y-129309531D01*
X192978911Y-129340000D01*
X97032279Y-129340000D01*
X96740340Y-129311375D01*
X96490571Y-129235965D01*
X96260206Y-129113477D01*
X96058021Y-128948579D01*
X95891712Y-128747546D01*
X95767622Y-128518046D01*
X95690469Y-128268805D01*
X95679881Y-128168061D01*
X148063000Y-128168061D01*
X148063000Y-128371939D01*
X148102774Y-128571898D01*
X148180795Y-128760256D01*
X148294063Y-128929774D01*
X148438226Y-129073937D01*
X148607744Y-129187205D01*
X148796102Y-129265226D01*
X148996061Y-129305000D01*
X149199939Y-129305000D01*
X149399898Y-129265226D01*
X149588256Y-129187205D01*
X149606000Y-129175349D01*
X149623744Y-129187205D01*
X149812102Y-129265226D01*
X150012061Y-129305000D01*
X150215939Y-129305000D01*
X150415898Y-129265226D01*
X150604256Y-129187205D01*
X150622000Y-129175349D01*
X150639744Y-129187205D01*
X150828102Y-129265226D01*
X151028061Y-129305000D01*
X151231939Y-129305000D01*
X151431898Y-129265226D01*
X151620256Y-129187205D01*
X151638000Y-129175349D01*
X151655744Y-129187205D01*
X151844102Y-129265226D01*
X152044061Y-129305000D01*
X152247939Y-129305000D01*
X152447898Y-129265226D01*
X152636256Y-129187205D01*
X152654000Y-129175349D01*
X152671744Y-129187205D01*
X152860102Y-129265226D01*
X153060061Y-129305000D01*
X153263939Y-129305000D01*
X153463898Y-129265226D01*
X153652256Y-129187205D01*
X153821774Y-129073937D01*
X153965937Y-128929774D01*
X154079205Y-128760256D01*
X154157226Y-128571898D01*
X154197000Y-128371939D01*
X154197000Y-128168061D01*
X154157226Y-127968102D01*
X154079205Y-127779744D01*
X153965937Y-127610226D01*
X153821774Y-127466063D01*
X153652256Y-127352795D01*
X153463898Y-127274774D01*
X153263939Y-127235000D01*
X153060061Y-127235000D01*
X152860102Y-127274774D01*
X152671744Y-127352795D01*
X152654000Y-127364651D01*
X152636256Y-127352795D01*
X152447898Y-127274774D01*
X152247939Y-127235000D01*
X152044061Y-127235000D01*
X151844102Y-127274774D01*
X151655744Y-127352795D01*
X151638000Y-127364651D01*
X151620256Y-127352795D01*
X151431898Y-127274774D01*
X151231939Y-127235000D01*
X151028061Y-127235000D01*
X150828102Y-127274774D01*
X150639744Y-127352795D01*
X150622000Y-127364651D01*
X150604256Y-127352795D01*
X150415898Y-127274774D01*
X150215939Y-127235000D01*
X150012061Y-127235000D01*
X149812102Y-127274774D01*
X149623744Y-127352795D01*
X149606000Y-127364651D01*
X149588256Y-127352795D01*
X149399898Y-127274774D01*
X149199939Y-127235000D01*
X148996061Y-127235000D01*
X148796102Y-127274774D01*
X148607744Y-127352795D01*
X148438226Y-127466063D01*
X148294063Y-127610226D01*
X148180795Y-127779744D01*
X148102774Y-127968102D01*
X148063000Y-128168061D01*
X95679881Y-128168061D01*
X95660000Y-127978911D01*
X95660000Y-124494000D01*
X100165928Y-124494000D01*
X100178188Y-124618482D01*
X100214498Y-124738180D01*
X100273463Y-124848494D01*
X100352815Y-124945185D01*
X100449506Y-125024537D01*
X100559820Y-125083502D01*
X100679518Y-125119812D01*
X100804000Y-125132072D01*
X101568250Y-125129000D01*
X101727000Y-124970250D01*
X101727000Y-123571000D01*
X101981000Y-123571000D01*
X101981000Y-124970250D01*
X102139750Y-125129000D01*
X102904000Y-125132072D01*
X103028482Y-125119812D01*
X103148180Y-125083502D01*
X103258494Y-125024537D01*
X103355185Y-124945185D01*
X103434537Y-124848494D01*
X103493502Y-124738180D01*
X103529812Y-124618482D01*
X103542072Y-124494000D01*
X103539000Y-123729750D01*
X103380250Y-123571000D01*
X101981000Y-123571000D01*
X101727000Y-123571000D01*
X100327750Y-123571000D01*
X100169000Y-123729750D01*
X100165928Y-124494000D01*
X95660000Y-124494000D01*
X95660000Y-122394000D01*
X100165928Y-122394000D01*
X100169000Y-123158250D01*
X100327750Y-123317000D01*
X101727000Y-123317000D01*
X101727000Y-121917750D01*
X101981000Y-121917750D01*
X101981000Y-123317000D01*
X103380250Y-123317000D01*
X103419208Y-123278042D01*
X103979000Y-123278042D01*
X103979000Y-123609958D01*
X104043754Y-123935496D01*
X104170772Y-124242147D01*
X104355175Y-124518125D01*
X104589875Y-124752825D01*
X104865853Y-124937228D01*
X105172504Y-125064246D01*
X105498042Y-125129000D01*
X105829958Y-125129000D01*
X106155496Y-125064246D01*
X106462147Y-124937228D01*
X106738125Y-124752825D01*
X106972825Y-124518125D01*
X107157228Y-124242147D01*
X107284246Y-123935496D01*
X107349000Y-123609958D01*
X107349000Y-123278042D01*
X107789000Y-123278042D01*
X107789000Y-123609958D01*
X107853754Y-123935496D01*
X107980772Y-124242147D01*
X108165175Y-124518125D01*
X108399875Y-124752825D01*
X108675853Y-124937228D01*
X108982504Y-125064246D01*
X109308042Y-125129000D01*
X109639958Y-125129000D01*
X109965496Y-125064246D01*
X110272147Y-124937228D01*
X110548125Y-124752825D01*
X110782825Y-124518125D01*
X110798944Y-124494000D01*
X115405928Y-124494000D01*
X115418188Y-124618482D01*
X115454498Y-124738180D01*
X115513463Y-124848494D01*
X115592815Y-124945185D01*
X115689506Y-125024537D01*
X115799820Y-125083502D01*
X115919518Y-125119812D01*
X116044000Y-125132072D01*
X116808250Y-125129000D01*
X116967000Y-124970250D01*
X116967000Y-123571000D01*
X117221000Y-123571000D01*
X117221000Y-124970250D01*
X117379750Y-125129000D01*
X118144000Y-125132072D01*
X118268482Y-125119812D01*
X118388180Y-125083502D01*
X118498494Y-125024537D01*
X118595185Y-124945185D01*
X118674537Y-124848494D01*
X118733502Y-124738180D01*
X118769812Y-124618482D01*
X118782072Y-124494000D01*
X118779000Y-123729750D01*
X118620250Y-123571000D01*
X117221000Y-123571000D01*
X116967000Y-123571000D01*
X115567750Y-123571000D01*
X115409000Y-123729750D01*
X115405928Y-124494000D01*
X110798944Y-124494000D01*
X110967228Y-124242147D01*
X111094246Y-123935496D01*
X111159000Y-123609958D01*
X111159000Y-123278042D01*
X111094246Y-122952504D01*
X110967228Y-122645853D01*
X110798945Y-122394000D01*
X115405928Y-122394000D01*
X115409000Y-123158250D01*
X115567750Y-123317000D01*
X116967000Y-123317000D01*
X116967000Y-121917750D01*
X117221000Y-121917750D01*
X117221000Y-123317000D01*
X118620250Y-123317000D01*
X118659208Y-123278042D01*
X119219000Y-123278042D01*
X119219000Y-123609958D01*
X119283754Y-123935496D01*
X119410772Y-124242147D01*
X119595175Y-124518125D01*
X119829875Y-124752825D01*
X120105853Y-124937228D01*
X120412504Y-125064246D01*
X120738042Y-125129000D01*
X121069958Y-125129000D01*
X121395496Y-125064246D01*
X121702147Y-124937228D01*
X121978125Y-124752825D01*
X122212825Y-124518125D01*
X122397228Y-124242147D01*
X122524246Y-123935496D01*
X122589000Y-123609958D01*
X122589000Y-123278042D01*
X123029000Y-123278042D01*
X123029000Y-123609958D01*
X123093754Y-123935496D01*
X123220772Y-124242147D01*
X123405175Y-124518125D01*
X123639875Y-124752825D01*
X123915853Y-124937228D01*
X124222504Y-125064246D01*
X124548042Y-125129000D01*
X124879958Y-125129000D01*
X125205496Y-125064246D01*
X125512147Y-124937228D01*
X125788125Y-124752825D01*
X126022825Y-124518125D01*
X126038944Y-124494000D01*
X163665928Y-124494000D01*
X163678188Y-124618482D01*
X163714498Y-124738180D01*
X163773463Y-124848494D01*
X163852815Y-124945185D01*
X163949506Y-125024537D01*
X164059820Y-125083502D01*
X164179518Y-125119812D01*
X164304000Y-125132072D01*
X165068250Y-125129000D01*
X165227000Y-124970250D01*
X165227000Y-123571000D01*
X165481000Y-123571000D01*
X165481000Y-124970250D01*
X165639750Y-125129000D01*
X166404000Y-125132072D01*
X166528482Y-125119812D01*
X166648180Y-125083502D01*
X166758494Y-125024537D01*
X166855185Y-124945185D01*
X166934537Y-124848494D01*
X166993502Y-124738180D01*
X167029812Y-124618482D01*
X167042072Y-124494000D01*
X167039000Y-123729750D01*
X166880250Y-123571000D01*
X165481000Y-123571000D01*
X165227000Y-123571000D01*
X163827750Y-123571000D01*
X163669000Y-123729750D01*
X163665928Y-124494000D01*
X126038944Y-124494000D01*
X126207228Y-124242147D01*
X126334246Y-123935496D01*
X126399000Y-123609958D01*
X126399000Y-123278042D01*
X126334246Y-122952504D01*
X126207228Y-122645853D01*
X126022825Y-122369875D01*
X125788125Y-122135175D01*
X125512147Y-121950772D01*
X125205496Y-121823754D01*
X124879958Y-121759000D01*
X124548042Y-121759000D01*
X124222504Y-121823754D01*
X123915853Y-121950772D01*
X123639875Y-122135175D01*
X123405175Y-122369875D01*
X123220772Y-122645853D01*
X123093754Y-122952504D01*
X123029000Y-123278042D01*
X122589000Y-123278042D01*
X122524246Y-122952504D01*
X122397228Y-122645853D01*
X122212825Y-122369875D01*
X121978125Y-122135175D01*
X121702147Y-121950772D01*
X121395496Y-121823754D01*
X121069958Y-121759000D01*
X120738042Y-121759000D01*
X120412504Y-121823754D01*
X120105853Y-121950772D01*
X119829875Y-122135175D01*
X119595175Y-122369875D01*
X119410772Y-122645853D01*
X119283754Y-122952504D01*
X119219000Y-123278042D01*
X118659208Y-123278042D01*
X118779000Y-123158250D01*
X118782072Y-122394000D01*
X118769812Y-122269518D01*
X118733502Y-122149820D01*
X118674537Y-122039506D01*
X118595185Y-121942815D01*
X118498494Y-121863463D01*
X118388180Y-121804498D01*
X118268482Y-121768188D01*
X118144000Y-121755928D01*
X117379750Y-121759000D01*
X117221000Y-121917750D01*
X116967000Y-121917750D01*
X116808250Y-121759000D01*
X116044000Y-121755928D01*
X115919518Y-121768188D01*
X115799820Y-121804498D01*
X115689506Y-121863463D01*
X115592815Y-121942815D01*
X115513463Y-122039506D01*
X115454498Y-122149820D01*
X115418188Y-122269518D01*
X115405928Y-122394000D01*
X110798945Y-122394000D01*
X110782825Y-122369875D01*
X110548125Y-122135175D01*
X110272147Y-121950772D01*
X109965496Y-121823754D01*
X109639958Y-121759000D01*
X109308042Y-121759000D01*
X108982504Y-121823754D01*
X108675853Y-121950772D01*
X108399875Y-122135175D01*
X108165175Y-122369875D01*
X107980772Y-122645853D01*
X107853754Y-122952504D01*
X107789000Y-123278042D01*
X107349000Y-123278042D01*
X107284246Y-122952504D01*
X107157228Y-122645853D01*
X106972825Y-122369875D01*
X106738125Y-122135175D01*
X106462147Y-121950772D01*
X106155496Y-121823754D01*
X105829958Y-121759000D01*
X105498042Y-121759000D01*
X105172504Y-121823754D01*
X104865853Y-121950772D01*
X104589875Y-122135175D01*
X104355175Y-122369875D01*
X104170772Y-122645853D01*
X104043754Y-122952504D01*
X103979000Y-123278042D01*
X103419208Y-123278042D01*
X103539000Y-123158250D01*
X103542072Y-122394000D01*
X103529812Y-122269518D01*
X103493502Y-122149820D01*
X103434537Y-122039506D01*
X103355185Y-121942815D01*
X103258494Y-121863463D01*
X103148180Y-121804498D01*
X103028482Y-121768188D01*
X102904000Y-121755928D01*
X102139750Y-121759000D01*
X101981000Y-121917750D01*
X101727000Y-121917750D01*
X101568250Y-121759000D01*
X100804000Y-121755928D01*
X100679518Y-121768188D01*
X100559820Y-121804498D01*
X100449506Y-121863463D01*
X100352815Y-121942815D01*
X100273463Y-122039506D01*
X100214498Y-122149820D01*
X100178188Y-122269518D01*
X100165928Y-122394000D01*
X95660000Y-122394000D01*
X95660000Y-114624000D01*
X128971928Y-114624000D01*
X128971928Y-117024000D01*
X128984188Y-117148482D01*
X129020498Y-117268180D01*
X129079463Y-117378494D01*
X129158815Y-117475185D01*
X129255506Y-117554537D01*
X129365820Y-117613502D01*
X129485518Y-117649812D01*
X129610000Y-117662072D01*
X132010000Y-117662072D01*
X132134482Y-117649812D01*
X132254180Y-117613502D01*
X132364494Y-117554537D01*
X132461185Y-117475185D01*
X132540537Y-117378494D01*
X132599502Y-117268180D01*
X132635812Y-117148482D01*
X132648072Y-117024000D01*
X132648072Y-115643268D01*
X134055000Y-115643268D01*
X134055000Y-116004732D01*
X134125518Y-116359250D01*
X134263844Y-116693199D01*
X134464662Y-116993744D01*
X134720256Y-117249338D01*
X135020801Y-117450156D01*
X135354750Y-117588482D01*
X135709268Y-117659000D01*
X136070732Y-117659000D01*
X136425250Y-117588482D01*
X136759199Y-117450156D01*
X137059744Y-117249338D01*
X137315338Y-116993744D01*
X137516156Y-116693199D01*
X137654482Y-116359250D01*
X137725000Y-116004732D01*
X137725000Y-115643268D01*
X137654482Y-115288750D01*
X137516156Y-114954801D01*
X137315338Y-114654256D01*
X137059744Y-114398662D01*
X136759199Y-114197844D01*
X136425250Y-114059518D01*
X136070732Y-113989000D01*
X135709268Y-113989000D01*
X135354750Y-114059518D01*
X135020801Y-114197844D01*
X134720256Y-114398662D01*
X134464662Y-114654256D01*
X134263844Y-114954801D01*
X134125518Y-115288750D01*
X134055000Y-115643268D01*
X132648072Y-115643268D01*
X132648072Y-114624000D01*
X132635812Y-114499518D01*
X132599502Y-114379820D01*
X132540537Y-114269506D01*
X132461185Y-114172815D01*
X132364494Y-114093463D01*
X132254180Y-114034498D01*
X132134482Y-113998188D01*
X132010000Y-113985928D01*
X129610000Y-113985928D01*
X129485518Y-113998188D01*
X129365820Y-114034498D01*
X129255506Y-114093463D01*
X129158815Y-114172815D01*
X129079463Y-114269506D01*
X129020498Y-114379820D01*
X128984188Y-114499518D01*
X128971928Y-114624000D01*
X95660000Y-114624000D01*
X95660000Y-109000000D01*
X100165928Y-109000000D01*
X100178188Y-109124482D01*
X100214498Y-109244180D01*
X100273463Y-109354494D01*
X100352815Y-109451185D01*
X100449506Y-109530537D01*
X100559820Y-109589502D01*
X100679518Y-109625812D01*
X100804000Y-109638072D01*
X101568250Y-109635000D01*
X101727000Y-109476250D01*
X101727000Y-108077000D01*
X101981000Y-108077000D01*
X101981000Y-109476250D01*
X102139750Y-109635000D01*
X102904000Y-109638072D01*
X103028482Y-109625812D01*
X103148180Y-109589502D01*
X103258494Y-109530537D01*
X103355185Y-109451185D01*
X103434537Y-109354494D01*
X103493502Y-109244180D01*
X103529812Y-109124482D01*
X103542072Y-109000000D01*
X103539000Y-108235750D01*
X103380250Y-108077000D01*
X101981000Y-108077000D01*
X101727000Y-108077000D01*
X100327750Y-108077000D01*
X100169000Y-108235750D01*
X100165928Y-109000000D01*
X95660000Y-109000000D01*
X95660000Y-106900000D01*
X100165928Y-106900000D01*
X100169000Y-107664250D01*
X100327750Y-107823000D01*
X101727000Y-107823000D01*
X101727000Y-106423750D01*
X101981000Y-106423750D01*
X101981000Y-107823000D01*
X103380250Y-107823000D01*
X103419208Y-107784042D01*
X103979000Y-107784042D01*
X103979000Y-108115958D01*
X104043754Y-108441496D01*
X104170772Y-108748147D01*
X104355175Y-109024125D01*
X104589875Y-109258825D01*
X104865853Y-109443228D01*
X105172504Y-109570246D01*
X105498042Y-109635000D01*
X105829958Y-109635000D01*
X106155496Y-109570246D01*
X106462147Y-109443228D01*
X106738125Y-109258825D01*
X106972825Y-109024125D01*
X107157228Y-108748147D01*
X107284246Y-108441496D01*
X107349000Y-108115958D01*
X107349000Y-107784042D01*
X107789000Y-107784042D01*
X107789000Y-108115958D01*
X107853754Y-108441496D01*
X107980772Y-108748147D01*
X108165175Y-109024125D01*
X108399875Y-109258825D01*
X108675853Y-109443228D01*
X108982504Y-109570246D01*
X109308042Y-109635000D01*
X109639958Y-109635000D01*
X109965496Y-109570246D01*
X110272147Y-109443228D01*
X110548125Y-109258825D01*
X110782825Y-109024125D01*
X110798944Y-109000000D01*
X115405928Y-109000000D01*
X115418188Y-109124482D01*
X115454498Y-109244180D01*
X115513463Y-109354494D01*
X115592815Y-109451185D01*
X115689506Y-109530537D01*
X115799820Y-109589502D01*
X115919518Y-109625812D01*
X116044000Y-109638072D01*
X116808250Y-109635000D01*
X116967000Y-109476250D01*
X116967000Y-108077000D01*
X117221000Y-108077000D01*
X117221000Y-109476250D01*
X117379750Y-109635000D01*
X118144000Y-109638072D01*
X118268482Y-109625812D01*
X118388180Y-109589502D01*
X118498494Y-109530537D01*
X118595185Y-109451185D01*
X118674537Y-109354494D01*
X118733502Y-109244180D01*
X118769812Y-109124482D01*
X118782072Y-109000000D01*
X118779000Y-108235750D01*
X118620250Y-108077000D01*
X117221000Y-108077000D01*
X116967000Y-108077000D01*
X115567750Y-108077000D01*
X115409000Y-108235750D01*
X115405928Y-109000000D01*
X110798944Y-109000000D01*
X110967228Y-108748147D01*
X111094246Y-108441496D01*
X111159000Y-108115958D01*
X111159000Y-107784042D01*
X111094246Y-107458504D01*
X110967228Y-107151853D01*
X110798945Y-106900000D01*
X115405928Y-106900000D01*
X115409000Y-107664250D01*
X115567750Y-107823000D01*
X116967000Y-107823000D01*
X116967000Y-106423750D01*
X117221000Y-106423750D01*
X117221000Y-107823000D01*
X118620250Y-107823000D01*
X118659208Y-107784042D01*
X119219000Y-107784042D01*
X119219000Y-108115958D01*
X119283754Y-108441496D01*
X119410772Y-108748147D01*
X119595175Y-109024125D01*
X119829875Y-109258825D01*
X120105853Y-109443228D01*
X120412504Y-109570246D01*
X120738042Y-109635000D01*
X121069958Y-109635000D01*
X121395496Y-109570246D01*
X121702147Y-109443228D01*
X121978125Y-109258825D01*
X122212825Y-109024125D01*
X122397228Y-108748147D01*
X122524246Y-108441496D01*
X122589000Y-108115958D01*
X122589000Y-107784042D01*
X123029000Y-107784042D01*
X123029000Y-108115958D01*
X123093754Y-108441496D01*
X123220772Y-108748147D01*
X123405175Y-109024125D01*
X123639875Y-109258825D01*
X123915853Y-109443228D01*
X124222504Y-109570246D01*
X124548042Y-109635000D01*
X124879958Y-109635000D01*
X125205496Y-109570246D01*
X125512147Y-109443228D01*
X125788125Y-109258825D01*
X125992950Y-109054000D01*
X142275928Y-109054000D01*
X142288188Y-109178482D01*
X142324498Y-109298180D01*
X142383463Y-109408494D01*
X142462815Y-109505185D01*
X142559506Y-109584537D01*
X142669820Y-109643502D01*
X142789518Y-109679812D01*
X142914000Y-109692072D01*
X143478250Y-109689000D01*
X143637000Y-109530250D01*
X143637000Y-108331000D01*
X142437750Y-108331000D01*
X142279000Y-108489750D01*
X142275928Y-109054000D01*
X125992950Y-109054000D01*
X126022825Y-109024125D01*
X126207228Y-108748147D01*
X126334246Y-108441496D01*
X126399000Y-108115958D01*
X126399000Y-107784042D01*
X126334246Y-107458504D01*
X126207228Y-107151853D01*
X126022825Y-106875875D01*
X125788125Y-106641175D01*
X125512147Y-106456772D01*
X125205496Y-106329754D01*
X124879958Y-106265000D01*
X124548042Y-106265000D01*
X124222504Y-106329754D01*
X123915853Y-106456772D01*
X123639875Y-106641175D01*
X123405175Y-106875875D01*
X123220772Y-107151853D01*
X123093754Y-107458504D01*
X123029000Y-107784042D01*
X122589000Y-107784042D01*
X122524246Y-107458504D01*
X122397228Y-107151853D01*
X122212825Y-106875875D01*
X121978125Y-106641175D01*
X121702147Y-106456772D01*
X121395496Y-106329754D01*
X121069958Y-106265000D01*
X120738042Y-106265000D01*
X120412504Y-106329754D01*
X120105853Y-106456772D01*
X119829875Y-106641175D01*
X119595175Y-106875875D01*
X119410772Y-107151853D01*
X119283754Y-107458504D01*
X119219000Y-107784042D01*
X118659208Y-107784042D01*
X118779000Y-107664250D01*
X118782072Y-106900000D01*
X118769812Y-106775518D01*
X118733502Y-106655820D01*
X118674537Y-106545506D01*
X118595185Y-106448815D01*
X118498494Y-106369463D01*
X118388180Y-106310498D01*
X118268482Y-106274188D01*
X118144000Y-106261928D01*
X117379750Y-106265000D01*
X117221000Y-106423750D01*
X116967000Y-106423750D01*
X116808250Y-106265000D01*
X116044000Y-106261928D01*
X115919518Y-106274188D01*
X115799820Y-106310498D01*
X115689506Y-106369463D01*
X115592815Y-106448815D01*
X115513463Y-106545506D01*
X115454498Y-106655820D01*
X115418188Y-106775518D01*
X115405928Y-106900000D01*
X110798945Y-106900000D01*
X110782825Y-106875875D01*
X110548125Y-106641175D01*
X110272147Y-106456772D01*
X109965496Y-106329754D01*
X109639958Y-106265000D01*
X109308042Y-106265000D01*
X108982504Y-106329754D01*
X108675853Y-106456772D01*
X108399875Y-106641175D01*
X108165175Y-106875875D01*
X107980772Y-107151853D01*
X107853754Y-107458504D01*
X107789000Y-107784042D01*
X107349000Y-107784042D01*
X107284246Y-107458504D01*
X107157228Y-107151853D01*
X106972825Y-106875875D01*
X106738125Y-106641175D01*
X106462147Y-106456772D01*
X106155496Y-106329754D01*
X105829958Y-106265000D01*
X105498042Y-106265000D01*
X105172504Y-106329754D01*
X104865853Y-106456772D01*
X104589875Y-106641175D01*
X104355175Y-106875875D01*
X104170772Y-107151853D01*
X104043754Y-107458504D01*
X103979000Y-107784042D01*
X103419208Y-107784042D01*
X103539000Y-107664250D01*
X103542072Y-106900000D01*
X103529812Y-106775518D01*
X103493502Y-106655820D01*
X103434537Y-106545506D01*
X103355185Y-106448815D01*
X103258494Y-106369463D01*
X103148180Y-106310498D01*
X103028482Y-106274188D01*
X102904000Y-106261928D01*
X102139750Y-106265000D01*
X101981000Y-106423750D01*
X101727000Y-106423750D01*
X101568250Y-106265000D01*
X100804000Y-106261928D01*
X100679518Y-106274188D01*
X100559820Y-106310498D01*
X100449506Y-106369463D01*
X100352815Y-106448815D01*
X100273463Y-106545506D01*
X100214498Y-106655820D01*
X100178188Y-106775518D01*
X100165928Y-106900000D01*
X95660000Y-106900000D01*
X95660000Y-105816061D01*
X141713000Y-105816061D01*
X141713000Y-106019939D01*
X141752774Y-106219898D01*
X141830795Y-106408256D01*
X141944063Y-106577774D01*
X142088226Y-106721937D01*
X142257744Y-106835205D01*
X142446102Y-106913226D01*
X142453125Y-106914623D01*
X142383463Y-106999506D01*
X142324498Y-107109820D01*
X142288188Y-107229518D01*
X142275928Y-107354000D01*
X142279000Y-107918250D01*
X142437750Y-108077000D01*
X143637000Y-108077000D01*
X143637000Y-106877750D01*
X143478250Y-106719000D01*
X143411077Y-106718634D01*
X143551937Y-106577774D01*
X143665205Y-106408256D01*
X143743226Y-106219898D01*
X143783000Y-106019939D01*
X143783000Y-105816061D01*
X143743226Y-105616102D01*
X143665205Y-105427744D01*
X143551937Y-105258226D01*
X143407774Y-105114063D01*
X143238256Y-105000795D01*
X143049898Y-104922774D01*
X142849939Y-104883000D01*
X142646061Y-104883000D01*
X142446102Y-104922774D01*
X142257744Y-105000795D01*
X142088226Y-105114063D01*
X141944063Y-105258226D01*
X141830795Y-105427744D01*
X141752774Y-105616102D01*
X141713000Y-105816061D01*
X95660000Y-105816061D01*
X95660000Y-90322061D01*
X109455000Y-90322061D01*
X109455000Y-90525939D01*
X109494774Y-90725898D01*
X109572795Y-90914256D01*
X109686063Y-91083774D01*
X109830226Y-91227937D01*
X109999744Y-91341205D01*
X110188102Y-91419226D01*
X110388061Y-91459000D01*
X110591939Y-91459000D01*
X110791898Y-91419226D01*
X110980256Y-91341205D01*
X111149774Y-91227937D01*
X111293937Y-91083774D01*
X111407205Y-90914256D01*
X111485226Y-90725898D01*
X111525000Y-90525939D01*
X111525000Y-90322061D01*
X111485226Y-90122102D01*
X111407205Y-89933744D01*
X111293937Y-89764226D01*
X111149774Y-89620063D01*
X110980256Y-89506795D01*
X110791898Y-89428774D01*
X110591939Y-89389000D01*
X110388061Y-89389000D01*
X110188102Y-89428774D01*
X109999744Y-89506795D01*
X109830226Y-89620063D01*
X109686063Y-89764226D01*
X109572795Y-89933744D01*
X109494774Y-90122102D01*
X109455000Y-90322061D01*
X95660000Y-90322061D01*
X95660000Y-87127000D01*
X112873000Y-87127000D01*
X112873000Y-92000000D01*
G36*
X134873000Y-70000000D02*
G01*
X134875440Y-70024776D01*
X134882667Y-70048601D01*
X134894403Y-70070557D01*
X134910197Y-70089803D01*
X134929443Y-70105597D01*
X134951399Y-70117333D01*
X134975224Y-70124560D01*
X135000000Y-70127000D01*
X150822728Y-70127000D01*
X150639744Y-70202795D01*
X150470226Y-70316063D01*
X150326063Y-70460226D01*
X150212795Y-70629744D01*
X150134774Y-70818102D01*
X150095000Y-71018061D01*
X150095000Y-71221939D01*
X150134774Y-71421898D01*
X150212795Y-71610256D01*
X150309510Y-71755000D01*
X150212795Y-71899744D01*
X150134774Y-72088102D01*
X150095000Y-72288061D01*
X150095000Y-72491939D01*
X150134774Y-72691898D01*
X150212795Y-72880256D01*
X150326063Y-73049774D01*
X150470226Y-73193937D01*
X150639744Y-73307205D01*
X150828102Y-73385226D01*
X151028061Y-73425000D01*
X151231939Y-73425000D01*
X151431898Y-73385226D01*
X151620256Y-73307205D01*
X151789774Y-73193937D01*
X151933937Y-73049774D01*
X152047205Y-72880256D01*
X152125226Y-72691898D01*
X152165000Y-72491939D01*
X152165000Y-72288061D01*
X152125226Y-72088102D01*
X152047205Y-71899744D01*
X151950490Y-71755000D01*
X152047205Y-71610256D01*
X152125226Y-71421898D01*
X152165000Y-71221939D01*
X152165000Y-71018061D01*
X152125226Y-70818102D01*
X152047205Y-70629744D01*
X151933937Y-70460226D01*
X151789774Y-70316063D01*
X151620256Y-70202795D01*
X151437272Y-70127000D01*
X155000000Y-70127000D01*
X155024776Y-70124560D01*
X155048601Y-70117333D01*
X155070557Y-70105597D01*
X155089803Y-70089803D01*
X155105597Y-70070557D01*
X155117333Y-70048601D01*
X155124560Y-70024776D01*
X155127000Y-70000000D01*
X155127000Y-63158000D01*
X156245928Y-63158000D01*
X156245928Y-64858000D01*
X156258188Y-64982482D01*
X156294498Y-65102180D01*
X156353463Y-65212494D01*
X156432815Y-65309185D01*
X156529506Y-65388537D01*
X156639820Y-65447502D01*
X156759518Y-65483812D01*
X156884000Y-65496072D01*
X158338217Y-65496072D01*
X158200063Y-65634226D01*
X158086795Y-65803744D01*
X158008774Y-65992102D01*
X157969000Y-66192061D01*
X157969000Y-66395939D01*
X158008774Y-66595898D01*
X158086795Y-66784256D01*
X158098651Y-66802000D01*
X158086795Y-66819744D01*
X158008774Y-67008102D01*
X157969000Y-67208061D01*
X157969000Y-67411939D01*
X158008774Y-67611898D01*
X158086795Y-67800256D01*
X158098651Y-67818000D01*
X158086795Y-67835744D01*
X158008774Y-68024102D01*
X157969000Y-68224061D01*
X157969000Y-68427939D01*
X158008774Y-68627898D01*
X158086795Y-68816256D01*
X158200063Y-68985774D01*
X158344226Y-69129937D01*
X158513744Y-69243205D01*
X158702102Y-69321226D01*
X158902061Y-69361000D01*
X159105939Y-69361000D01*
X159305898Y-69321226D01*
X159494256Y-69243205D01*
X159663774Y-69129937D01*
X159807937Y-68985774D01*
X159921205Y-68816256D01*
X159999226Y-68627898D01*
X160039000Y-68427939D01*
X160039000Y-68224061D01*
X159999226Y-68024102D01*
X159921205Y-67835744D01*
X159909349Y-67818000D01*
X159921205Y-67800256D01*
X159999226Y-67611898D01*
X160039000Y-67411939D01*
X160039000Y-67208061D01*
X159999226Y-67008102D01*
X159921205Y-66819744D01*
X159909349Y-66802000D01*
X159921205Y-66784256D01*
X159999226Y-66595898D01*
X160039000Y-66395939D01*
X160039000Y-66192061D01*
X159999226Y-65992102D01*
X159921205Y-65803744D01*
X159807937Y-65634226D01*
X159663774Y-65490063D01*
X159494256Y-65376795D01*
X159305898Y-65298774D01*
X159105939Y-65259000D01*
X159076371Y-65259000D01*
X159114537Y-65212494D01*
X159173502Y-65102180D01*
X159195513Y-65029620D01*
X159327368Y-65161475D01*
X159570589Y-65323990D01*
X159840842Y-65435932D01*
X160127740Y-65493000D01*
X160420260Y-65493000D01*
X160707158Y-65435932D01*
X160977411Y-65323990D01*
X161220632Y-65161475D01*
X161427475Y-64954632D01*
X161544000Y-64780240D01*
X161660525Y-64954632D01*
X161867368Y-65161475D01*
X162110589Y-65323990D01*
X162380842Y-65435932D01*
X162667740Y-65493000D01*
X162960260Y-65493000D01*
X163247158Y-65435932D01*
X163517411Y-65323990D01*
X163760632Y-65161475D01*
X163967475Y-64954632D01*
X164129990Y-64711411D01*
X164241932Y-64441158D01*
X164299000Y-64154260D01*
X164299000Y-63861740D01*
X164241932Y-63574842D01*
X164129990Y-63304589D01*
X164022729Y-63144061D01*
X165335000Y-63144061D01*
X165335000Y-63347939D01*
X165374774Y-63547898D01*
X165452795Y-63736256D01*
X165464651Y-63754000D01*
X165452795Y-63771744D01*
X165374774Y-63960102D01*
X165335000Y-64160061D01*
X165335000Y-64363939D01*
X165374774Y-64563898D01*
X165452795Y-64752256D01*
X165566063Y-64921774D01*
X165710226Y-65065937D01*
X165879744Y-65179205D01*
X166068102Y-65257226D01*
X166268061Y-65297000D01*
X166471939Y-65297000D01*
X166671898Y-65257226D01*
X166860256Y-65179205D01*
X166878000Y-65167349D01*
X166895744Y-65179205D01*
X167084102Y-65257226D01*
X167284061Y-65297000D01*
X167487939Y-65297000D01*
X167687898Y-65257226D01*
X167876256Y-65179205D01*
X168045774Y-65065937D01*
X168189937Y-64921774D01*
X168303205Y-64752256D01*
X168381226Y-64563898D01*
X168421000Y-64363939D01*
X168421000Y-64160061D01*
X168381226Y-63960102D01*
X168303205Y-63771744D01*
X168291349Y-63754000D01*
X168303205Y-63736256D01*
X168381226Y-63547898D01*
X168421000Y-63347939D01*
X168421000Y-63144061D01*
X168381226Y-62944102D01*
X168303205Y-62755744D01*
X168189937Y-62586226D01*
X168045774Y-62442063D01*
X167955975Y-62382061D01*
X188449000Y-62382061D01*
X188449000Y-62585939D01*
X188488774Y-62785898D01*
X188566795Y-62974256D01*
X188578651Y-62992000D01*
X188566795Y-63009744D01*
X188488774Y-63198102D01*
X188449000Y-63398061D01*
X188449000Y-63601939D01*
X188488774Y-63801898D01*
X188566795Y-63990256D01*
X188578651Y-64008000D01*
X188566795Y-64025744D01*
X188488774Y-64214102D01*
X188449000Y-64414061D01*
X188449000Y-64617939D01*
X188488774Y-64817898D01*
X188566795Y-65006256D01*
X188680063Y-65175774D01*
X188824226Y-65319937D01*
X188993744Y-65433205D01*
X189182102Y-65511226D01*
X189382061Y-65551000D01*
X189585939Y-65551000D01*
X189785898Y-65511226D01*
X189974256Y-65433205D01*
X189992000Y-65421349D01*
X190009744Y-65433205D01*
X190198102Y-65511226D01*
X190398061Y-65551000D01*
X190601939Y-65551000D01*
X190801898Y-65511226D01*
X190990256Y-65433205D01*
X191008000Y-65421349D01*
X191025744Y-65433205D01*
X191214102Y-65511226D01*
X191414061Y-65551000D01*
X191617939Y-65551000D01*
X191817898Y-65511226D01*
X192006256Y-65433205D01*
X192175774Y-65319937D01*
X192319937Y-65175774D01*
X192433205Y-65006256D01*
X192511226Y-64817898D01*
X192551000Y-64617939D01*
X192551000Y-64414061D01*
X192511226Y-64214102D01*
X192433205Y-64025744D01*
X192421349Y-64008000D01*
X192433205Y-63990256D01*
X192511226Y-63801898D01*
X192551000Y-63601939D01*
X192551000Y-63398061D01*
X192511226Y-63198102D01*
X192433205Y-63009744D01*
X192421349Y-62992000D01*
X192433205Y-62974256D01*
X192511226Y-62785898D01*
X192551000Y-62585939D01*
X192551000Y-62382061D01*
X192511226Y-62182102D01*
X192433205Y-61993744D01*
X192319937Y-61824226D01*
X192175774Y-61680063D01*
X192006256Y-61566795D01*
X191817898Y-61488774D01*
X191617939Y-61449000D01*
X191414061Y-61449000D01*
X191214102Y-61488774D01*
X191025744Y-61566795D01*
X191008000Y-61578651D01*
X190990256Y-61566795D01*
X190801898Y-61488774D01*
X190601939Y-61449000D01*
X190398061Y-61449000D01*
X190198102Y-61488774D01*
X190009744Y-61566795D01*
X189992000Y-61578651D01*
X189974256Y-61566795D01*
X189785898Y-61488774D01*
X189585939Y-61449000D01*
X189382061Y-61449000D01*
X189182102Y-61488774D01*
X188993744Y-61566795D01*
X188824226Y-61680063D01*
X188680063Y-61824226D01*
X188566795Y-61993744D01*
X188488774Y-62182102D01*
X188449000Y-62382061D01*
X167955975Y-62382061D01*
X167876256Y-62328795D01*
X167687898Y-62250774D01*
X167487939Y-62211000D01*
X167284061Y-62211000D01*
X167084102Y-62250774D01*
X166895744Y-62328795D01*
X166878000Y-62340651D01*
X166860256Y-62328795D01*
X166671898Y-62250774D01*
X166471939Y-62211000D01*
X166268061Y-62211000D01*
X166068102Y-62250774D01*
X165879744Y-62328795D01*
X165710226Y-62442063D01*
X165566063Y-62586226D01*
X165452795Y-62755744D01*
X165374774Y-62944102D01*
X165335000Y-63144061D01*
X164022729Y-63144061D01*
X163967475Y-63061368D01*
X163760632Y-62854525D01*
X163517411Y-62692010D01*
X163247158Y-62580068D01*
X162960260Y-62523000D01*
X162667740Y-62523000D01*
X162380842Y-62580068D01*
X162110589Y-62692010D01*
X161867368Y-62854525D01*
X161660525Y-63061368D01*
X161544000Y-63235760D01*
X161427475Y-63061368D01*
X161220632Y-62854525D01*
X160977411Y-62692010D01*
X160707158Y-62580068D01*
X160420260Y-62523000D01*
X160127740Y-62523000D01*
X159840842Y-62580068D01*
X159570589Y-62692010D01*
X159327368Y-62854525D01*
X159195513Y-62986380D01*
X159173502Y-62913820D01*
X159114537Y-62803506D01*
X159035185Y-62706815D01*
X158938494Y-62627463D01*
X158828180Y-62568498D01*
X158708482Y-62532188D01*
X158584000Y-62519928D01*
X156884000Y-62519928D01*
X156759518Y-62532188D01*
X156639820Y-62568498D01*
X156529506Y-62627463D01*
X156432815Y-62706815D01*
X156353463Y-62803506D01*
X156294498Y-62913820D01*
X156258188Y-63033518D01*
X156245928Y-63158000D01*
X155127000Y-63158000D01*
X155127000Y-60604061D01*
X169653000Y-60604061D01*
X169653000Y-60807939D01*
X169692774Y-61007898D01*
X169770795Y-61196256D01*
X169884063Y-61365774D01*
X170028226Y-61509937D01*
X170197744Y-61623205D01*
X170386102Y-61701226D01*
X170586061Y-61741000D01*
X170789939Y-61741000D01*
X170989898Y-61701226D01*
X171178256Y-61623205D01*
X171196000Y-61611349D01*
X171213744Y-61623205D01*
X171402102Y-61701226D01*
X171602061Y-61741000D01*
X171805939Y-61741000D01*
X172005898Y-61701226D01*
X172194256Y-61623205D01*
X172212000Y-61611349D01*
X172229744Y-61623205D01*
X172418102Y-61701226D01*
X172618061Y-61741000D01*
X172821939Y-61741000D01*
X173021898Y-61701226D01*
X173210256Y-61623205D01*
X173379774Y-61509937D01*
X173523937Y-61365774D01*
X173637205Y-61196256D01*
X173715226Y-61007898D01*
X173755000Y-60807939D01*
X173755000Y-60604061D01*
X173715226Y-60404102D01*
X173637205Y-60215744D01*
X173557236Y-60096061D01*
X174225000Y-60096061D01*
X174225000Y-60299939D01*
X174264774Y-60499898D01*
X174342795Y-60688256D01*
X174354651Y-60706000D01*
X174342795Y-60723744D01*
X174264774Y-60912102D01*
X174225000Y-61112061D01*
X174225000Y-61315939D01*
X174264774Y-61515898D01*
X174342795Y-61704256D01*
X174456063Y-61873774D01*
X174600226Y-62017937D01*
X174769744Y-62131205D01*
X174958102Y-62209226D01*
X175158061Y-62249000D01*
X175361939Y-62249000D01*
X175561898Y-62209226D01*
X175750256Y-62131205D01*
X175768000Y-62119349D01*
X175785744Y-62131205D01*
X175974102Y-62209226D01*
X176174061Y-62249000D01*
X176377939Y-62249000D01*
X176577898Y-62209226D01*
X176766256Y-62131205D01*
X176784000Y-62119349D01*
X176801744Y-62131205D01*
X176990102Y-62209226D01*
X177190061Y-62249000D01*
X177393939Y-62249000D01*
X177593898Y-62209226D01*
X177782256Y-62131205D01*
X177951774Y-62017937D01*
X178095937Y-61873774D01*
X178209205Y-61704256D01*
X178287226Y-61515898D01*
X178327000Y-61315939D01*
X178327000Y-61112061D01*
X178287226Y-60912102D01*
X178209205Y-60723744D01*
X178197349Y-60706000D01*
X178209205Y-60688256D01*
X178287226Y-60499898D01*
X178327000Y-60299939D01*
X178327000Y-60096061D01*
X178287226Y-59896102D01*
X178209205Y-59707744D01*
X178095937Y-59538226D01*
X177951774Y-59394063D01*
X177782256Y-59280795D01*
X177593898Y-59202774D01*
X177393939Y-59163000D01*
X177190061Y-59163000D01*
X176990102Y-59202774D01*
X176801744Y-59280795D01*
X176784000Y-59292651D01*
X176766256Y-59280795D01*
X176577898Y-59202774D01*
X176377939Y-59163000D01*
X176174061Y-59163000D01*
X175974102Y-59202774D01*
X175785744Y-59280795D01*
X175768000Y-59292651D01*
X175750256Y-59280795D01*
X175561898Y-59202774D01*
X175361939Y-59163000D01*
X175158061Y-59163000D01*
X174958102Y-59202774D01*
X174769744Y-59280795D01*
X174600226Y-59394063D01*
X174456063Y-59538226D01*
X174342795Y-59707744D01*
X174264774Y-59896102D01*
X174225000Y-60096061D01*
X173557236Y-60096061D01*
X173523937Y-60046226D01*
X173379774Y-59902063D01*
X173210256Y-59788795D01*
X173021898Y-59710774D01*
X172821939Y-59671000D01*
X172618061Y-59671000D01*
X172418102Y-59710774D01*
X172229744Y-59788795D01*
X172212000Y-59800651D01*
X172194256Y-59788795D01*
X172005898Y-59710774D01*
X171805939Y-59671000D01*
X171602061Y-59671000D01*
X171402102Y-59710774D01*
X171213744Y-59788795D01*
X171196000Y-59800651D01*
X171178256Y-59788795D01*
X170989898Y-59710774D01*
X170789939Y-59671000D01*
X170586061Y-59671000D01*
X170386102Y-59710774D01*
X170197744Y-59788795D01*
X170028226Y-59902063D01*
X169884063Y-60046226D01*
X169770795Y-60215744D01*
X169692774Y-60404102D01*
X169653000Y-60604061D01*
X155127000Y-60604061D01*
X155127000Y-58660000D01*
X192967721Y-58660000D01*
X193259659Y-58688625D01*
X193509429Y-58764035D01*
X193739792Y-58886522D01*
X193941980Y-59051422D01*
X194108286Y-59252450D01*
X194232378Y-59481954D01*
X194309531Y-59731195D01*
X194340001Y-60021098D01*
X194340001Y-83873000D01*
X175000000Y-83873000D01*
X174975224Y-83875440D01*
X174951399Y-83882667D01*
X174929443Y-83894403D01*
X174910197Y-83910197D01*
X174894403Y-83929443D01*
X174882667Y-83951399D01*
X174875440Y-83975224D01*
X174873000Y-84000000D01*
X174873000Y-89873000D01*
X161000000Y-89873000D01*
X160975224Y-89875440D01*
X160951399Y-89882667D01*
X160929443Y-89894403D01*
X160910197Y-89910197D01*
X160894403Y-89929443D01*
X160882667Y-89951399D01*
X160875440Y-89975224D01*
X160873000Y-90000000D01*
X160873000Y-120873000D01*
X146127000Y-120873000D01*
X146127000Y-114624000D01*
X151323928Y-114624000D01*
X151323928Y-117024000D01*
X151336188Y-117148482D01*
X151372498Y-117268180D01*
X151431463Y-117378494D01*
X151510815Y-117475185D01*
X151607506Y-117554537D01*
X151717820Y-117613502D01*
X151837518Y-117649812D01*
X151962000Y-117662072D01*
X154362000Y-117662072D01*
X154486482Y-117649812D01*
X154606180Y-117613502D01*
X154716494Y-117554537D01*
X154813185Y-117475185D01*
X154892537Y-117378494D01*
X154951502Y-117268180D01*
X154987812Y-117148482D01*
X155000072Y-117024000D01*
X155000072Y-115643268D01*
X156407000Y-115643268D01*
X156407000Y-116004732D01*
X156477518Y-116359250D01*
X156615844Y-116693199D01*
X156816662Y-116993744D01*
X157072256Y-117249338D01*
X157372801Y-117450156D01*
X157706750Y-117588482D01*
X158061268Y-117659000D01*
X158422732Y-117659000D01*
X158777250Y-117588482D01*
X159111199Y-117450156D01*
X159411744Y-117249338D01*
X159667338Y-116993744D01*
X159868156Y-116693199D01*
X160006482Y-116359250D01*
X160077000Y-116004732D01*
X160077000Y-115643268D01*
X160006482Y-115288750D01*
X159868156Y-114954801D01*
X159667338Y-114654256D01*
X159411744Y-114398662D01*
X159111199Y-114197844D01*
X158777250Y-114059518D01*
X158422732Y-113989000D01*
X158061268Y-113989000D01*
X157706750Y-114059518D01*
X157372801Y-114197844D01*
X157072256Y-114398662D01*
X156816662Y-114654256D01*
X156615844Y-114954801D01*
X156477518Y-115288750D01*
X156407000Y-115643268D01*
X155000072Y-115643268D01*
X155000072Y-114624000D01*
X154987812Y-114499518D01*
X154951502Y-114379820D01*
X154892537Y-114269506D01*
X154813185Y-114172815D01*
X154716494Y-114093463D01*
X154606180Y-114034498D01*
X154486482Y-113998188D01*
X154362000Y-113985928D01*
X151962000Y-113985928D01*
X151837518Y-113998188D01*
X151717820Y-114034498D01*
X151607506Y-114093463D01*
X151510815Y-114172815D01*
X151431463Y-114269506D01*
X151372498Y-114379820D01*
X151336188Y-114499518D01*
X151323928Y-114624000D01*
X146127000Y-114624000D01*
X146127000Y-114254885D01*
X146157740Y-114261000D01*
X146450260Y-114261000D01*
X146737158Y-114203932D01*
X147007411Y-114091990D01*
X147250632Y-113929475D01*
X147457475Y-113722632D01*
X147619990Y-113479411D01*
X147731932Y-113209158D01*
X147789000Y-112922260D01*
X147789000Y-112629740D01*
X147731932Y-112342842D01*
X147619990Y-112072589D01*
X147457475Y-111829368D01*
X147250632Y-111622525D01*
X147007411Y-111460010D01*
X146737158Y-111348068D01*
X146450260Y-111291000D01*
X146157740Y-111291000D01*
X146127000Y-111297115D01*
X146127000Y-109682885D01*
X146157740Y-109689000D01*
X146450260Y-109689000D01*
X146737158Y-109631932D01*
X147007411Y-109519990D01*
X147250632Y-109357475D01*
X147457475Y-109150632D01*
X147619990Y-108907411D01*
X147731932Y-108637158D01*
X147789000Y-108350260D01*
X147789000Y-108057740D01*
X147731932Y-107770842D01*
X147619990Y-107500589D01*
X147457475Y-107257368D01*
X147250632Y-107050525D01*
X147007411Y-106888010D01*
X146737158Y-106776068D01*
X146450260Y-106719000D01*
X146157740Y-106719000D01*
X146127000Y-106725115D01*
X146127000Y-95910061D01*
X147301000Y-95910061D01*
X147301000Y-96113939D01*
X147340774Y-96313898D01*
X147418795Y-96502256D01*
X147430651Y-96520000D01*
X147418795Y-96537744D01*
X147340774Y-96726102D01*
X147301000Y-96926061D01*
X147301000Y-97129939D01*
X147340774Y-97329898D01*
X147418795Y-97518256D01*
X147532063Y-97687774D01*
X147676226Y-97831937D01*
X147845744Y-97945205D01*
X148034102Y-98023226D01*
X148234061Y-98063000D01*
X148437939Y-98063000D01*
X148637898Y-98023226D01*
X148826256Y-97945205D01*
X148844000Y-97933349D01*
X148861744Y-97945205D01*
X149050102Y-98023226D01*
X149250061Y-98063000D01*
X149453939Y-98063000D01*
X149653898Y-98023226D01*
X149842256Y-97945205D01*
X150011774Y-97831937D01*
X150155937Y-97687774D01*
X150269205Y-97518256D01*
X150347226Y-97329898D01*
X150387000Y-97129939D01*
X150387000Y-96926061D01*
X150347226Y-96726102D01*
X150269205Y-96537744D01*
X150257349Y-96520000D01*
X150269205Y-96502256D01*
X150347226Y-96313898D01*
X150387000Y-96113939D01*
X150387000Y-95910061D01*
X150347226Y-95710102D01*
X150269205Y-95521744D01*
X150155937Y-95352226D01*
X150011774Y-95208063D01*
X149842256Y-95094795D01*
X149653898Y-95016774D01*
X149453939Y-94977000D01*
X149250061Y-94977000D01*
X149050102Y-95016774D01*
X148861744Y-95094795D01*
X148844000Y-95106651D01*
X148826256Y-95094795D01*
X148637898Y-95016774D01*
X148437939Y-94977000D01*
X148234061Y-94977000D01*
X148034102Y-95016774D01*
X147845744Y-95094795D01*
X147676226Y-95208063D01*
X147532063Y-95352226D01*
X147418795Y-95521744D01*
X147340774Y-95710102D01*
X147301000Y-95910061D01*
X146127000Y-95910061D01*
X146127000Y-90000000D01*
X146124560Y-89975224D01*
X146117333Y-89951399D01*
X146105597Y-89929443D01*
X146089803Y-89910197D01*
X146070557Y-89894403D01*
X146048601Y-89882667D01*
X146024776Y-89875440D01*
X146000000Y-89873000D01*
X115127000Y-89873000D01*
X115127000Y-87274061D01*
X124949000Y-87274061D01*
X124949000Y-87477939D01*
X124988774Y-87677898D01*
X125066795Y-87866256D01*
X125078651Y-87884000D01*
X125066795Y-87901744D01*
X124988774Y-88090102D01*
X124949000Y-88290061D01*
X124949000Y-88493939D01*
X124988774Y-88693898D01*
X125066795Y-88882256D01*
X125180063Y-89051774D01*
X125324226Y-89195937D01*
X125493744Y-89309205D01*
X125682102Y-89387226D01*
X125882061Y-89427000D01*
X126085939Y-89427000D01*
X126285898Y-89387226D01*
X126474256Y-89309205D01*
X126492000Y-89297349D01*
X126509744Y-89309205D01*
X126698102Y-89387226D01*
X126898061Y-89427000D01*
X127101939Y-89427000D01*
X127301898Y-89387226D01*
X127490256Y-89309205D01*
X127659774Y-89195937D01*
X127803937Y-89051774D01*
X127917205Y-88882256D01*
X127995226Y-88693898D01*
X128035000Y-88493939D01*
X128035000Y-88290061D01*
X127995226Y-88090102D01*
X127917205Y-87901744D01*
X127905349Y-87884000D01*
X127917205Y-87866256D01*
X127995226Y-87677898D01*
X128035000Y-87477939D01*
X128035000Y-87274061D01*
X127995226Y-87074102D01*
X127917205Y-86885744D01*
X127803937Y-86716226D01*
X127659774Y-86572063D01*
X127490256Y-86458795D01*
X127301898Y-86380774D01*
X127101939Y-86341000D01*
X126898061Y-86341000D01*
X126698102Y-86380774D01*
X126509744Y-86458795D01*
X126492000Y-86470651D01*
X126474256Y-86458795D01*
X126285898Y-86380774D01*
X126085939Y-86341000D01*
X125882061Y-86341000D01*
X125682102Y-86380774D01*
X125493744Y-86458795D01*
X125324226Y-86572063D01*
X125180063Y-86716226D01*
X125066795Y-86885744D01*
X124988774Y-87074102D01*
X124949000Y-87274061D01*
X115127000Y-87274061D01*
X115127000Y-86004061D01*
X129775000Y-86004061D01*
X129775000Y-86207939D01*
X129814774Y-86407898D01*
X129892795Y-86596256D01*
X130006063Y-86765774D01*
X130150226Y-86909937D01*
X130319744Y-87023205D01*
X130508102Y-87101226D01*
X130708061Y-87141000D01*
X130911939Y-87141000D01*
X131111898Y-87101226D01*
X131300256Y-87023205D01*
X131469774Y-86909937D01*
X131613937Y-86765774D01*
X131727205Y-86596256D01*
X131805226Y-86407898D01*
X131845000Y-86207939D01*
X131845000Y-86004061D01*
X138291000Y-86004061D01*
X138291000Y-86207939D01*
X138330774Y-86407898D01*
X138408795Y-86596256D01*
X138522063Y-86765774D01*
X138666226Y-86909937D01*
X138835744Y-87023205D01*
X139024102Y-87101226D01*
X139224061Y-87141000D01*
X139427939Y-87141000D01*
X139627898Y-87101226D01*
X139816256Y-87023205D01*
X139985774Y-86909937D01*
X140129937Y-86765774D01*
X140243205Y-86596256D01*
X140321226Y-86407898D01*
X140361000Y-86207939D01*
X140361000Y-86004061D01*
X140321226Y-85804102D01*
X140243205Y-85615744D01*
X140129937Y-85446226D01*
X139985774Y-85302063D01*
X139816256Y-85188795D01*
X139627898Y-85110774D01*
X139427939Y-85071000D01*
X139224061Y-85071000D01*
X139024102Y-85110774D01*
X138835744Y-85188795D01*
X138666226Y-85302063D01*
X138522063Y-85446226D01*
X138408795Y-85615744D01*
X138330774Y-85804102D01*
X138291000Y-86004061D01*
X131845000Y-86004061D01*
X131805226Y-85804102D01*
X131727205Y-85615744D01*
X131613937Y-85446226D01*
X131469774Y-85302063D01*
X131300256Y-85188795D01*
X131111898Y-85110774D01*
X130911939Y-85071000D01*
X130708061Y-85071000D01*
X130508102Y-85110774D01*
X130319744Y-85188795D01*
X130150226Y-85302063D01*
X130006063Y-85446226D01*
X129892795Y-85615744D01*
X129814774Y-85804102D01*
X129775000Y-86004061D01*
X115127000Y-86004061D01*
X115127000Y-84000000D01*
X115124560Y-83975224D01*
X115117333Y-83951399D01*
X115105597Y-83929443D01*
X115089803Y-83910197D01*
X115070557Y-83894403D01*
X115048601Y-83882667D01*
X115024776Y-83875440D01*
X115000000Y-83873000D01*
X95660000Y-83873000D01*
X95660000Y-82448061D01*
X111233000Y-82448061D01*
X111233000Y-82651939D01*
X111272774Y-82851898D01*
X111350795Y-83040256D01*
X111464063Y-83209774D01*
X111608226Y-83353937D01*
X111777744Y-83467205D01*
X111966102Y-83545226D01*
X112166061Y-83585000D01*
X112369939Y-83585000D01*
X112569898Y-83545226D01*
X112758256Y-83467205D01*
X112776000Y-83455349D01*
X112793744Y-83467205D01*
X112982102Y-83545226D01*
X113182061Y-83585000D01*
X113385939Y-83585000D01*
X113585898Y-83545226D01*
X113774256Y-83467205D01*
X113943774Y-83353937D01*
X114087937Y-83209774D01*
X114201205Y-83040256D01*
X114279226Y-82851898D01*
X114309030Y-82702061D01*
X141205000Y-82702061D01*
X141205000Y-82905939D01*
X141244774Y-83105898D01*
X141322795Y-83294256D01*
X141436063Y-83463774D01*
X141580226Y-83607937D01*
X141749744Y-83721205D01*
X141938102Y-83799226D01*
X142138061Y-83839000D01*
X142341939Y-83839000D01*
X142541898Y-83799226D01*
X142730256Y-83721205D01*
X142748000Y-83709349D01*
X142765744Y-83721205D01*
X142954102Y-83799226D01*
X143154061Y-83839000D01*
X143357939Y-83839000D01*
X143557898Y-83799226D01*
X143746256Y-83721205D01*
X143764000Y-83709349D01*
X143781744Y-83721205D01*
X143970102Y-83799226D01*
X144170061Y-83839000D01*
X144373939Y-83839000D01*
X144573898Y-83799226D01*
X144762256Y-83721205D01*
X144780000Y-83709349D01*
X144797744Y-83721205D01*
X144986102Y-83799226D01*
X145186061Y-83839000D01*
X145389939Y-83839000D01*
X145589898Y-83799226D01*
X145778256Y-83721205D01*
X145796000Y-83709349D01*
X145813744Y-83721205D01*
X146002102Y-83799226D01*
X146202061Y-83839000D01*
X146405939Y-83839000D01*
X146605898Y-83799226D01*
X146794256Y-83721205D01*
X146812000Y-83709349D01*
X146829744Y-83721205D01*
X147018102Y-83799226D01*
X147218061Y-83839000D01*
X147421939Y-83839000D01*
X147621898Y-83799226D01*
X147810256Y-83721205D01*
X147979774Y-83607937D01*
X148123937Y-83463774D01*
X148237205Y-83294256D01*
X148315226Y-83105898D01*
X148355000Y-82905939D01*
X148355000Y-82702061D01*
X148315226Y-82502102D01*
X148237205Y-82313744D01*
X148123937Y-82144226D01*
X147979774Y-82000063D01*
X147810256Y-81886795D01*
X147621898Y-81808774D01*
X147421939Y-81769000D01*
X147218061Y-81769000D01*
X147018102Y-81808774D01*
X146829744Y-81886795D01*
X146812000Y-81898651D01*
X146794256Y-81886795D01*
X146605898Y-81808774D01*
X146405939Y-81769000D01*
X146202061Y-81769000D01*
X146002102Y-81808774D01*
X145813744Y-81886795D01*
X145796000Y-81898651D01*
X145778256Y-81886795D01*
X145589898Y-81808774D01*
X145389939Y-81769000D01*
X145186061Y-81769000D01*
X144986102Y-81808774D01*
X144797744Y-81886795D01*
X144780000Y-81898651D01*
X144762256Y-81886795D01*
X144573898Y-81808774D01*
X144373939Y-81769000D01*
X144170061Y-81769000D01*
X143970102Y-81808774D01*
X143781744Y-81886795D01*
X143764000Y-81898651D01*
X143746256Y-81886795D01*
X143557898Y-81808774D01*
X143357939Y-81769000D01*
X143154061Y-81769000D01*
X142954102Y-81808774D01*
X142765744Y-81886795D01*
X142748000Y-81898651D01*
X142730256Y-81886795D01*
X142541898Y-81808774D01*
X142341939Y-81769000D01*
X142138061Y-81769000D01*
X141938102Y-81808774D01*
X141749744Y-81886795D01*
X141580226Y-82000063D01*
X141436063Y-82144226D01*
X141322795Y-82313744D01*
X141244774Y-82502102D01*
X141205000Y-82702061D01*
X114309030Y-82702061D01*
X114319000Y-82651939D01*
X114319000Y-82448061D01*
X114279226Y-82248102D01*
X114201205Y-82059744D01*
X114087937Y-81890226D01*
X113943774Y-81746063D01*
X113774256Y-81632795D01*
X113585898Y-81554774D01*
X113385939Y-81515000D01*
X113182061Y-81515000D01*
X112982102Y-81554774D01*
X112793744Y-81632795D01*
X112776000Y-81644651D01*
X112758256Y-81632795D01*
X112569898Y-81554774D01*
X112369939Y-81515000D01*
X112166061Y-81515000D01*
X111966102Y-81554774D01*
X111777744Y-81632795D01*
X111608226Y-81746063D01*
X111464063Y-81890226D01*
X111350795Y-82059744D01*
X111272774Y-82248102D01*
X111233000Y-82448061D01*
X95660000Y-82448061D01*
X95660000Y-81178061D01*
X100565000Y-81178061D01*
X100565000Y-81381939D01*
X100604774Y-81581898D01*
X100682795Y-81770256D01*
X100796063Y-81939774D01*
X100940226Y-82083937D01*
X101109744Y-82197205D01*
X101298102Y-82275226D01*
X101498061Y-82315000D01*
X101701939Y-82315000D01*
X101901898Y-82275226D01*
X102090256Y-82197205D01*
X102259774Y-82083937D01*
X102403937Y-81939774D01*
X102517205Y-81770256D01*
X102595226Y-81581898D01*
X102635000Y-81381939D01*
X102635000Y-81178061D01*
X102601961Y-81011961D01*
X102768061Y-81045000D01*
X102971939Y-81045000D01*
X103138039Y-81011961D01*
X103105000Y-81178061D01*
X103105000Y-81381939D01*
X103144774Y-81581898D01*
X103222795Y-81770256D01*
X103336063Y-81939774D01*
X103480226Y-82083937D01*
X103649744Y-82197205D01*
X103838102Y-82275226D01*
X104038061Y-82315000D01*
X104241939Y-82315000D01*
X104441898Y-82275226D01*
X104630256Y-82197205D01*
X104799774Y-82083937D01*
X104943937Y-81939774D01*
X105057205Y-81770256D01*
X105135226Y-81581898D01*
X105175000Y-81381939D01*
X105175000Y-81178061D01*
X105141961Y-81011961D01*
X105308061Y-81045000D01*
X105511939Y-81045000D01*
X105678039Y-81011961D01*
X105645000Y-81178061D01*
X105645000Y-81381939D01*
X105684774Y-81581898D01*
X105762795Y-81770256D01*
X105876063Y-81939774D01*
X106020226Y-82083937D01*
X106189744Y-82197205D01*
X106378102Y-82275226D01*
X106578061Y-82315000D01*
X106781939Y-82315000D01*
X106981898Y-82275226D01*
X107170256Y-82197205D01*
X107339774Y-82083937D01*
X107483937Y-81939774D01*
X107597205Y-81770256D01*
X107675226Y-81581898D01*
X107715000Y-81381939D01*
X107715000Y-81178061D01*
X107681961Y-81011961D01*
X107848061Y-81045000D01*
X108051939Y-81045000D01*
X108218039Y-81011961D01*
X108185000Y-81178061D01*
X108185000Y-81381939D01*
X108224774Y-81581898D01*
X108302795Y-81770256D01*
X108416063Y-81939774D01*
X108560226Y-82083937D01*
X108729744Y-82197205D01*
X108918102Y-82275226D01*
X109118061Y-82315000D01*
X109321939Y-82315000D01*
X109521898Y-82275226D01*
X109710256Y-82197205D01*
X109879774Y-82083937D01*
X110023937Y-81939774D01*
X110137205Y-81770256D01*
X110215226Y-81581898D01*
X110255000Y-81381939D01*
X110255000Y-81178061D01*
X168637000Y-81178061D01*
X168637000Y-81381939D01*
X168676774Y-81581898D01*
X168754795Y-81770256D01*
X168766651Y-81788000D01*
X168754795Y-81805744D01*
X168676774Y-81994102D01*
X168637000Y-82194061D01*
X168637000Y-82397939D01*
X168676774Y-82597898D01*
X168754795Y-82786256D01*
X168868063Y-82955774D01*
X169012226Y-83099937D01*
X169181744Y-83213205D01*
X169370102Y-83291226D01*
X169570061Y-83331000D01*
X169773939Y-83331000D01*
X169973898Y-83291226D01*
X170162256Y-83213205D01*
X170180000Y-83201349D01*
X170197744Y-83213205D01*
X170386102Y-83291226D01*
X170586061Y-83331000D01*
X170789939Y-83331000D01*
X170989898Y-83291226D01*
X171178256Y-83213205D01*
X171347774Y-83099937D01*
X171491937Y-82955774D01*
X171605205Y-82786256D01*
X171683226Y-82597898D01*
X171713030Y-82448061D01*
X189211000Y-82448061D01*
X189211000Y-82651939D01*
X189250774Y-82851898D01*
X189328795Y-83040256D01*
X189442063Y-83209774D01*
X189586226Y-83353937D01*
X189755744Y-83467205D01*
X189944102Y-83545226D01*
X190144061Y-83585000D01*
X190347939Y-83585000D01*
X190547898Y-83545226D01*
X190736256Y-83467205D01*
X190754000Y-83455349D01*
X190771744Y-83467205D01*
X190960102Y-83545226D01*
X191160061Y-83585000D01*
X191363939Y-83585000D01*
X191563898Y-83545226D01*
X191752256Y-83467205D01*
X191921774Y-83353937D01*
X192065937Y-83209774D01*
X192179205Y-83040256D01*
X192257226Y-82851898D01*
X192297000Y-82651939D01*
X192297000Y-82448061D01*
X192257226Y-82248102D01*
X192179205Y-82059744D01*
X192065937Y-81890226D01*
X191921774Y-81746063D01*
X191752256Y-81632795D01*
X191563898Y-81554774D01*
X191363939Y-81515000D01*
X191160061Y-81515000D01*
X190960102Y-81554774D01*
X190771744Y-81632795D01*
X190754000Y-81644651D01*
X190736256Y-81632795D01*
X190547898Y-81554774D01*
X190347939Y-81515000D01*
X190144061Y-81515000D01*
X189944102Y-81554774D01*
X189755744Y-81632795D01*
X189586226Y-81746063D01*
X189442063Y-81890226D01*
X189328795Y-82059744D01*
X189250774Y-82248102D01*
X189211000Y-82448061D01*
X171713030Y-82448061D01*
X171723000Y-82397939D01*
X171723000Y-82194061D01*
X171683226Y-81994102D01*
X171605205Y-81805744D01*
X171593349Y-81788000D01*
X171605205Y-81770256D01*
X171683226Y-81581898D01*
X171723000Y-81381939D01*
X171723000Y-81178061D01*
X178543000Y-81178061D01*
X178543000Y-81381939D01*
X178582774Y-81581898D01*
X178660795Y-81770256D01*
X178774063Y-81939774D01*
X178918226Y-82083937D01*
X179087744Y-82197205D01*
X179276102Y-82275226D01*
X179476061Y-82315000D01*
X179679939Y-82315000D01*
X179879898Y-82275226D01*
X180068256Y-82197205D01*
X180237774Y-82083937D01*
X180381937Y-81939774D01*
X180495205Y-81770256D01*
X180573226Y-81581898D01*
X180613000Y-81381939D01*
X180613000Y-81178061D01*
X180579961Y-81011961D01*
X180746061Y-81045000D01*
X180949939Y-81045000D01*
X181116039Y-81011961D01*
X181083000Y-81178061D01*
X181083000Y-81381939D01*
X181122774Y-81581898D01*
X181200795Y-81770256D01*
X181314063Y-81939774D01*
X181458226Y-82083937D01*
X181627744Y-82197205D01*
X181816102Y-82275226D01*
X182016061Y-82315000D01*
X182219939Y-82315000D01*
X182419898Y-82275226D01*
X182608256Y-82197205D01*
X182777774Y-82083937D01*
X182921937Y-81939774D01*
X183035205Y-81770256D01*
X183113226Y-81581898D01*
X183153000Y-81381939D01*
X183153000Y-81178061D01*
X183119961Y-81011961D01*
X183286061Y-81045000D01*
X183489939Y-81045000D01*
X183656039Y-81011961D01*
X183623000Y-81178061D01*
X183623000Y-81381939D01*
X183662774Y-81581898D01*
X183740795Y-81770256D01*
X183854063Y-81939774D01*
X183998226Y-82083937D01*
X184167744Y-82197205D01*
X184356102Y-82275226D01*
X184556061Y-82315000D01*
X184759939Y-82315000D01*
X184959898Y-82275226D01*
X185148256Y-82197205D01*
X185317774Y-82083937D01*
X185461937Y-81939774D01*
X185575205Y-81770256D01*
X185653226Y-81581898D01*
X185693000Y-81381939D01*
X185693000Y-81178061D01*
X185659961Y-81011961D01*
X185826061Y-81045000D01*
X186029939Y-81045000D01*
X186196039Y-81011961D01*
X186163000Y-81178061D01*
X186163000Y-81381939D01*
X186202774Y-81581898D01*
X186280795Y-81770256D01*
X186394063Y-81939774D01*
X186538226Y-82083937D01*
X186707744Y-82197205D01*
X186896102Y-82275226D01*
X187096061Y-82315000D01*
X187299939Y-82315000D01*
X187499898Y-82275226D01*
X187688256Y-82197205D01*
X187857774Y-82083937D01*
X188001937Y-81939774D01*
X188115205Y-81770256D01*
X188193226Y-81581898D01*
X188233000Y-81381939D01*
X188233000Y-81178061D01*
X188193226Y-80978102D01*
X188115205Y-80789744D01*
X188001937Y-80620226D01*
X187857774Y-80476063D01*
X187688256Y-80362795D01*
X187499898Y-80284774D01*
X187299939Y-80245000D01*
X187096061Y-80245000D01*
X186929961Y-80278039D01*
X186963000Y-80111939D01*
X186963000Y-79908061D01*
X186923226Y-79708102D01*
X186845205Y-79519744D01*
X186731937Y-79350226D01*
X186587774Y-79206063D01*
X186418256Y-79092795D01*
X186229898Y-79014774D01*
X186029939Y-78975000D01*
X185826061Y-78975000D01*
X185626102Y-79014774D01*
X185437744Y-79092795D01*
X185268226Y-79206063D01*
X185124063Y-79350226D01*
X185010795Y-79519744D01*
X184932774Y-79708102D01*
X184893000Y-79908061D01*
X184893000Y-80111939D01*
X184926039Y-80278039D01*
X184759939Y-80245000D01*
X184556061Y-80245000D01*
X184389961Y-80278039D01*
X184423000Y-80111939D01*
X184423000Y-79908061D01*
X184383226Y-79708102D01*
X184305205Y-79519744D01*
X184191937Y-79350226D01*
X184047774Y-79206063D01*
X183878256Y-79092795D01*
X183689898Y-79014774D01*
X183489939Y-78975000D01*
X183286061Y-78975000D01*
X183086102Y-79014774D01*
X182897744Y-79092795D01*
X182728226Y-79206063D01*
X182584063Y-79350226D01*
X182470795Y-79519744D01*
X182392774Y-79708102D01*
X182353000Y-79908061D01*
X182353000Y-80111939D01*
X182386039Y-80278039D01*
X182219939Y-80245000D01*
X182016061Y-80245000D01*
X181849961Y-80278039D01*
X181883000Y-80111939D01*
X181883000Y-79908061D01*
X181843226Y-79708102D01*
X181765205Y-79519744D01*
X181651937Y-79350226D01*
X181507774Y-79206063D01*
X181338256Y-79092795D01*
X181149898Y-79014774D01*
X180949939Y-78975000D01*
X180746061Y-78975000D01*
X180546102Y-79014774D01*
X180357744Y-79092795D01*
X180188226Y-79206063D01*
X180044063Y-79350226D01*
X179930795Y-79519744D01*
X179852774Y-79708102D01*
X179813000Y-79908061D01*
X179813000Y-80111939D01*
X179846039Y-80278039D01*
X179679939Y-80245000D01*
X179476061Y-80245000D01*
X179276102Y-80284774D01*
X179087744Y-80362795D01*
X178918226Y-80476063D01*
X178774063Y-80620226D01*
X178660795Y-80789744D01*
X178582774Y-80978102D01*
X178543000Y-81178061D01*
X171723000Y-81178061D01*
X171683226Y-80978102D01*
X171605205Y-80789744D01*
X171491937Y-80620226D01*
X171347774Y-80476063D01*
X171178256Y-80362795D01*
X170989898Y-80284774D01*
X170789939Y-80245000D01*
X170586061Y-80245000D01*
X170386102Y-80284774D01*
X170197744Y-80362795D01*
X170180000Y-80374651D01*
X170162256Y-80362795D01*
X169973898Y-80284774D01*
X169773939Y-80245000D01*
X169570061Y-80245000D01*
X169370102Y-80284774D01*
X169181744Y-80362795D01*
X169012226Y-80476063D01*
X168868063Y-80620226D01*
X168754795Y-80789744D01*
X168676774Y-80978102D01*
X168637000Y-81178061D01*
X110255000Y-81178061D01*
X110215226Y-80978102D01*
X110137205Y-80789744D01*
X110023937Y-80620226D01*
X109879774Y-80476063D01*
X109710256Y-80362795D01*
X109521898Y-80284774D01*
X109321939Y-80245000D01*
X109118061Y-80245000D01*
X108951961Y-80278039D01*
X108985000Y-80111939D01*
X108985000Y-79908061D01*
X108945226Y-79708102D01*
X108867205Y-79519744D01*
X108753937Y-79350226D01*
X108609774Y-79206063D01*
X108440256Y-79092795D01*
X108251898Y-79014774D01*
X108051939Y-78975000D01*
X107848061Y-78975000D01*
X107648102Y-79014774D01*
X107459744Y-79092795D01*
X107290226Y-79206063D01*
X107146063Y-79350226D01*
X107032795Y-79519744D01*
X106954774Y-79708102D01*
X106915000Y-79908061D01*
X106915000Y-80111939D01*
X106948039Y-80278039D01*
X106781939Y-80245000D01*
X106578061Y-80245000D01*
X106411961Y-80278039D01*
X106445000Y-80111939D01*
X106445000Y-79908061D01*
X106405226Y-79708102D01*
X106327205Y-79519744D01*
X106213937Y-79350226D01*
X106069774Y-79206063D01*
X105900256Y-79092795D01*
X105711898Y-79014774D01*
X105511939Y-78975000D01*
X105308061Y-78975000D01*
X105108102Y-79014774D01*
X104919744Y-79092795D01*
X104750226Y-79206063D01*
X104606063Y-79350226D01*
X104492795Y-79519744D01*
X104414774Y-79708102D01*
X104375000Y-79908061D01*
X104375000Y-80111939D01*
X104408039Y-80278039D01*
X104241939Y-80245000D01*
X104038061Y-80245000D01*
X103871961Y-80278039D01*
X103905000Y-80111939D01*
X103905000Y-79908061D01*
X103865226Y-79708102D01*
X103787205Y-79519744D01*
X103673937Y-79350226D01*
X103529774Y-79206063D01*
X103360256Y-79092795D01*
X103171898Y-79014774D01*
X102971939Y-78975000D01*
X102768061Y-78975000D01*
X102568102Y-79014774D01*
X102379744Y-79092795D01*
X102210226Y-79206063D01*
X102066063Y-79350226D01*
X101952795Y-79519744D01*
X101874774Y-79708102D01*
X101835000Y-79908061D01*
X101835000Y-80111939D01*
X101868039Y-80278039D01*
X101701939Y-80245000D01*
X101498061Y-80245000D01*
X101298102Y-80284774D01*
X101109744Y-80362795D01*
X100940226Y-80476063D01*
X100796063Y-80620226D01*
X100682795Y-80789744D01*
X100604774Y-80978102D01*
X100565000Y-81178061D01*
X95660000Y-81178061D01*
X95660000Y-78638061D01*
X150095000Y-78638061D01*
X150095000Y-78841939D01*
X150134774Y-79041898D01*
X150212795Y-79230256D01*
X150326063Y-79399774D01*
X150470226Y-79543937D01*
X150639744Y-79657205D01*
X150828102Y-79735226D01*
X151028061Y-79775000D01*
X151231939Y-79775000D01*
X151431898Y-79735226D01*
X151620256Y-79657205D01*
X151789774Y-79543937D01*
X151933937Y-79399774D01*
X152047205Y-79230256D01*
X152125226Y-79041898D01*
X152165000Y-78841939D01*
X152165000Y-78638061D01*
X152125226Y-78438102D01*
X152047205Y-78249744D01*
X151933937Y-78080226D01*
X151789774Y-77936063D01*
X151620256Y-77822795D01*
X151431898Y-77744774D01*
X151231939Y-77705000D01*
X151028061Y-77705000D01*
X150828102Y-77744774D01*
X150639744Y-77822795D01*
X150470226Y-77936063D01*
X150326063Y-78080226D01*
X150212795Y-78249744D01*
X150134774Y-78438102D01*
X150095000Y-78638061D01*
X95660000Y-78638061D01*
X95660000Y-74066061D01*
X117837000Y-74066061D01*
X117837000Y-74269939D01*
X117876774Y-74469898D01*
X117954795Y-74658256D01*
X118068063Y-74827774D01*
X118212226Y-74971937D01*
X118381744Y-75085205D01*
X118570102Y-75163226D01*
X118770061Y-75203000D01*
X118973939Y-75203000D01*
X119173898Y-75163226D01*
X119362256Y-75085205D01*
X119531774Y-74971937D01*
X119675937Y-74827774D01*
X119789205Y-74658256D01*
X119867226Y-74469898D01*
X119907000Y-74269939D01*
X119907000Y-74066061D01*
X119867226Y-73866102D01*
X119789205Y-73677744D01*
X119709236Y-73558061D01*
X132823000Y-73558061D01*
X132823000Y-73761939D01*
X132862774Y-73961898D01*
X132940795Y-74150256D01*
X133037510Y-74295000D01*
X132940795Y-74439744D01*
X132862774Y-74628102D01*
X132823000Y-74828061D01*
X132823000Y-75031939D01*
X132862774Y-75231898D01*
X132940795Y-75420256D01*
X133037510Y-75565000D01*
X132940795Y-75709744D01*
X132862774Y-75898102D01*
X132823000Y-76098061D01*
X132823000Y-76301939D01*
X132862774Y-76501898D01*
X132940795Y-76690256D01*
X133037510Y-76835000D01*
X132940795Y-76979744D01*
X132862774Y-77168102D01*
X132823000Y-77368061D01*
X132823000Y-77571939D01*
X132862774Y-77771898D01*
X132940795Y-77960256D01*
X133054063Y-78129774D01*
X133198226Y-78273937D01*
X133367744Y-78387205D01*
X133556102Y-78465226D01*
X133756061Y-78505000D01*
X133959939Y-78505000D01*
X134159898Y-78465226D01*
X134348256Y-78387205D01*
X134517774Y-78273937D01*
X134661937Y-78129774D01*
X134775205Y-77960256D01*
X134853226Y-77771898D01*
X134893000Y-77571939D01*
X134893000Y-77368061D01*
X134853226Y-77168102D01*
X134775205Y-76979744D01*
X134678490Y-76835000D01*
X134775205Y-76690256D01*
X134853226Y-76501898D01*
X134893000Y-76301939D01*
X134893000Y-76098061D01*
X150095000Y-76098061D01*
X150095000Y-76301939D01*
X150134774Y-76501898D01*
X150212795Y-76690256D01*
X150326063Y-76859774D01*
X150470226Y-77003937D01*
X150639744Y-77117205D01*
X150828102Y-77195226D01*
X151028061Y-77235000D01*
X151231939Y-77235000D01*
X151431898Y-77195226D01*
X151620256Y-77117205D01*
X151789774Y-77003937D01*
X151933937Y-76859774D01*
X152047205Y-76690256D01*
X152125226Y-76501898D01*
X152165000Y-76301939D01*
X152165000Y-76098061D01*
X152125226Y-75898102D01*
X152047205Y-75709744D01*
X151933937Y-75540226D01*
X151789774Y-75396063D01*
X151620256Y-75282795D01*
X151431898Y-75204774D01*
X151231939Y-75165000D01*
X151028061Y-75165000D01*
X150828102Y-75204774D01*
X150639744Y-75282795D01*
X150470226Y-75396063D01*
X150326063Y-75540226D01*
X150212795Y-75709744D01*
X150134774Y-75898102D01*
X150095000Y-76098061D01*
X134893000Y-76098061D01*
X134853226Y-75898102D01*
X134775205Y-75709744D01*
X134678490Y-75565000D01*
X134775205Y-75420256D01*
X134853226Y-75231898D01*
X134893000Y-75031939D01*
X134893000Y-74828061D01*
X134853226Y-74628102D01*
X134775205Y-74439744D01*
X134678490Y-74295000D01*
X134775205Y-74150256D01*
X134853226Y-73961898D01*
X134893000Y-73761939D01*
X134893000Y-73558061D01*
X134853226Y-73358102D01*
X134775205Y-73169744D01*
X134661937Y-73000226D01*
X134517774Y-72856063D01*
X134348256Y-72742795D01*
X134159898Y-72664774D01*
X133959939Y-72625000D01*
X133756061Y-72625000D01*
X133556102Y-72664774D01*
X133367744Y-72742795D01*
X133198226Y-72856063D01*
X133054063Y-73000226D01*
X132940795Y-73169744D01*
X132862774Y-73358102D01*
X132823000Y-73558061D01*
X119709236Y-73558061D01*
X119675937Y-73508226D01*
X119531774Y-73364063D01*
X119362256Y-73250795D01*
X119173898Y-73172774D01*
X118973939Y-73133000D01*
X118770061Y-73133000D01*
X118570102Y-73172774D01*
X118381744Y-73250795D01*
X118212226Y-73364063D01*
X118068063Y-73508226D01*
X117954795Y-73677744D01*
X117876774Y-73866102D01*
X117837000Y-74066061D01*
X95660000Y-74066061D01*
X95660000Y-69240061D01*
X98533000Y-69240061D01*
X98533000Y-69443939D01*
X98572774Y-69643898D01*
X98650795Y-69832256D01*
X98662651Y-69850000D01*
X98650795Y-69867744D01*
X98572774Y-70056102D01*
X98533000Y-70256061D01*
X98533000Y-70459939D01*
X98572774Y-70659898D01*
X98650795Y-70848256D01*
X98764063Y-71017774D01*
X98908226Y-71161937D01*
X99077744Y-71275205D01*
X99266102Y-71353226D01*
X99466061Y-71393000D01*
X99669939Y-71393000D01*
X99869898Y-71353226D01*
X100058256Y-71275205D01*
X100076000Y-71263349D01*
X100093744Y-71275205D01*
X100282102Y-71353226D01*
X100482061Y-71393000D01*
X100685939Y-71393000D01*
X100885898Y-71353226D01*
X101074256Y-71275205D01*
X101243774Y-71161937D01*
X101387937Y-71017774D01*
X101501205Y-70848256D01*
X101579226Y-70659898D01*
X101619000Y-70459939D01*
X101619000Y-70256061D01*
X101579226Y-70056102D01*
X101501205Y-69867744D01*
X101489349Y-69850000D01*
X101501205Y-69832256D01*
X101579226Y-69643898D01*
X101619000Y-69443939D01*
X101619000Y-69240061D01*
X101579226Y-69040102D01*
X101501205Y-68851744D01*
X101387937Y-68682226D01*
X101243774Y-68538063D01*
X101153975Y-68478061D01*
X115043000Y-68478061D01*
X115043000Y-68681939D01*
X115082774Y-68881898D01*
X115160795Y-69070256D01*
X115274063Y-69239774D01*
X115418226Y-69383937D01*
X115587744Y-69497205D01*
X115776102Y-69575226D01*
X115976061Y-69615000D01*
X116179939Y-69615000D01*
X116379898Y-69575226D01*
X116568256Y-69497205D01*
X116737774Y-69383937D01*
X116881937Y-69239774D01*
X116995205Y-69070256D01*
X117073226Y-68881898D01*
X117113000Y-68681939D01*
X117113000Y-68478061D01*
X117073226Y-68278102D01*
X116995205Y-68089744D01*
X116915236Y-67970061D01*
X124949000Y-67970061D01*
X124949000Y-68173939D01*
X124988774Y-68373898D01*
X125066795Y-68562256D01*
X125180063Y-68731774D01*
X125324226Y-68875937D01*
X125493744Y-68989205D01*
X125682102Y-69067226D01*
X125739381Y-69078619D01*
X125750774Y-69135898D01*
X125828795Y-69324256D01*
X125942063Y-69493774D01*
X126086226Y-69637937D01*
X126255744Y-69751205D01*
X126444102Y-69829226D01*
X126501381Y-69840619D01*
X126512774Y-69897898D01*
X126590795Y-70086256D01*
X126704063Y-70255774D01*
X126848226Y-70399937D01*
X127017744Y-70513205D01*
X127206102Y-70591226D01*
X127406061Y-70631000D01*
X127609939Y-70631000D01*
X127809898Y-70591226D01*
X127998256Y-70513205D01*
X128167774Y-70399937D01*
X128311937Y-70255774D01*
X128425205Y-70086256D01*
X128503226Y-69897898D01*
X128543000Y-69697939D01*
X128543000Y-69494061D01*
X128503226Y-69294102D01*
X128425205Y-69105744D01*
X128311937Y-68936226D01*
X128167774Y-68792063D01*
X127998256Y-68678795D01*
X127809898Y-68600774D01*
X127752619Y-68589381D01*
X127741226Y-68532102D01*
X127663205Y-68343744D01*
X127549937Y-68174226D01*
X127405774Y-68030063D01*
X127236256Y-67916795D01*
X127047898Y-67838774D01*
X126990619Y-67827381D01*
X126979226Y-67770102D01*
X126901205Y-67581744D01*
X126787937Y-67412226D01*
X126643774Y-67268063D01*
X126474256Y-67154795D01*
X126285898Y-67076774D01*
X126085939Y-67037000D01*
X125882061Y-67037000D01*
X125682102Y-67076774D01*
X125493744Y-67154795D01*
X125324226Y-67268063D01*
X125180063Y-67412226D01*
X125066795Y-67581744D01*
X124988774Y-67770102D01*
X124949000Y-67970061D01*
X116915236Y-67970061D01*
X116881937Y-67920226D01*
X116737774Y-67776063D01*
X116568256Y-67662795D01*
X116379898Y-67584774D01*
X116179939Y-67545000D01*
X115976061Y-67545000D01*
X115776102Y-67584774D01*
X115587744Y-67662795D01*
X115418226Y-67776063D01*
X115274063Y-67920226D01*
X115160795Y-68089744D01*
X115082774Y-68278102D01*
X115043000Y-68478061D01*
X101153975Y-68478061D01*
X101074256Y-68424795D01*
X100885898Y-68346774D01*
X100685939Y-68307000D01*
X100482061Y-68307000D01*
X100282102Y-68346774D01*
X100093744Y-68424795D01*
X100076000Y-68436651D01*
X100058256Y-68424795D01*
X99869898Y-68346774D01*
X99669939Y-68307000D01*
X99466061Y-68307000D01*
X99266102Y-68346774D01*
X99077744Y-68424795D01*
X98908226Y-68538063D01*
X98764063Y-68682226D01*
X98650795Y-68851744D01*
X98572774Y-69040102D01*
X98533000Y-69240061D01*
X95660000Y-69240061D01*
X95660000Y-62890061D01*
X117837000Y-62890061D01*
X117837000Y-63093939D01*
X117876774Y-63293898D01*
X117954795Y-63482256D01*
X117966651Y-63500000D01*
X117954795Y-63517744D01*
X117876774Y-63706102D01*
X117837000Y-63906061D01*
X117837000Y-64109939D01*
X117876774Y-64309898D01*
X117954795Y-64498256D01*
X118068063Y-64667774D01*
X118212226Y-64811937D01*
X118381744Y-64925205D01*
X118570102Y-65003226D01*
X118770061Y-65043000D01*
X118973939Y-65043000D01*
X119173898Y-65003226D01*
X119362256Y-64925205D01*
X119380000Y-64913349D01*
X119397744Y-64925205D01*
X119586102Y-65003226D01*
X119786061Y-65043000D01*
X119989939Y-65043000D01*
X120189898Y-65003226D01*
X120378256Y-64925205D01*
X120547774Y-64811937D01*
X120691937Y-64667774D01*
X120805205Y-64498256D01*
X120883226Y-64309898D01*
X120923000Y-64109939D01*
X120923000Y-63906061D01*
X120883226Y-63706102D01*
X120805205Y-63517744D01*
X120793349Y-63500000D01*
X120805205Y-63482256D01*
X120883226Y-63293898D01*
X120923000Y-63093939D01*
X120923000Y-62890061D01*
X120883226Y-62690102D01*
X120805205Y-62501744D01*
X120691937Y-62332226D01*
X120547774Y-62188063D01*
X120378256Y-62074795D01*
X120189898Y-61996774D01*
X119989939Y-61957000D01*
X119786061Y-61957000D01*
X119586102Y-61996774D01*
X119397744Y-62074795D01*
X119380000Y-62086651D01*
X119362256Y-62074795D01*
X119173898Y-61996774D01*
X118973939Y-61957000D01*
X118770061Y-61957000D01*
X118570102Y-61996774D01*
X118381744Y-62074795D01*
X118212226Y-62188063D01*
X118068063Y-62332226D01*
X117954795Y-62501744D01*
X117876774Y-62690102D01*
X117837000Y-62890061D01*
X95660000Y-62890061D01*
X95660000Y-61032279D01*
X95707670Y-60546107D01*
X95766859Y-60350061D01*
X127743000Y-60350061D01*
X127743000Y-60553939D01*
X127782774Y-60753898D01*
X127860795Y-60942256D01*
X127974063Y-61111774D01*
X128118226Y-61255937D01*
X128287744Y-61369205D01*
X128476102Y-61447226D01*
X128676061Y-61487000D01*
X128879939Y-61487000D01*
X129079898Y-61447226D01*
X129268256Y-61369205D01*
X129286000Y-61357349D01*
X129303744Y-61369205D01*
X129492102Y-61447226D01*
X129692061Y-61487000D01*
X129895939Y-61487000D01*
X130095898Y-61447226D01*
X130284256Y-61369205D01*
X130302000Y-61357349D01*
X130319744Y-61369205D01*
X130508102Y-61447226D01*
X130708061Y-61487000D01*
X130911939Y-61487000D01*
X131111898Y-61447226D01*
X131300256Y-61369205D01*
X131469774Y-61255937D01*
X131613937Y-61111774D01*
X131727205Y-60942256D01*
X131805226Y-60753898D01*
X131845000Y-60553939D01*
X131845000Y-60350061D01*
X131805226Y-60150102D01*
X131727205Y-59961744D01*
X131613937Y-59792226D01*
X131469774Y-59648063D01*
X131300256Y-59534795D01*
X131111898Y-59456774D01*
X130911939Y-59417000D01*
X130708061Y-59417000D01*
X130508102Y-59456774D01*
X130319744Y-59534795D01*
X130302000Y-59546651D01*
X130284256Y-59534795D01*
X130095898Y-59456774D01*
X129895939Y-59417000D01*
X129692061Y-59417000D01*
X129492102Y-59456774D01*
X129303744Y-59534795D01*
X129286000Y-59546651D01*
X129268256Y-59534795D01*
X129079898Y-59456774D01*
X128879939Y-59417000D01*
X128676061Y-59417000D01*
X128476102Y-59456774D01*
X128287744Y-59534795D01*
X128118226Y-59648063D01*
X127974063Y-59792226D01*
X127860795Y-59961744D01*
X127782774Y-60150102D01*
X127743000Y-60350061D01*
X95766859Y-60350061D01*
X95839489Y-60109502D01*
X96053600Y-59706815D01*
X96341848Y-59353388D01*
X96693261Y-59062673D01*
X97094439Y-58845758D01*
X97530113Y-58710894D01*
X98014344Y-58660000D01*
X134873000Y-58660000D01*
X134873000Y-70000000D01*
G37*
X134873000Y-70000000D02*
X134875440Y-70024776D01*
X134882667Y-70048601D01*
X134894403Y-70070557D01*
X134910197Y-70089803D01*
X134929443Y-70105597D01*
X134951399Y-70117333D01*
X134975224Y-70124560D01*
X135000000Y-70127000D01*
X150822728Y-70127000D01*
X150639744Y-70202795D01*
X150470226Y-70316063D01*
X150326063Y-70460226D01*
X150212795Y-70629744D01*
X150134774Y-70818102D01*
X150095000Y-71018061D01*
X150095000Y-71221939D01*
X150134774Y-71421898D01*
X150212795Y-71610256D01*
X150309510Y-71755000D01*
X150212795Y-71899744D01*
X150134774Y-72088102D01*
X150095000Y-72288061D01*
X150095000Y-72491939D01*
X150134774Y-72691898D01*
X150212795Y-72880256D01*
X150326063Y-73049774D01*
X150470226Y-73193937D01*
X150639744Y-73307205D01*
X150828102Y-73385226D01*
X151028061Y-73425000D01*
X151231939Y-73425000D01*
X151431898Y-73385226D01*
X151620256Y-73307205D01*
X151789774Y-73193937D01*
X151933937Y-73049774D01*
X152047205Y-72880256D01*
X152125226Y-72691898D01*
X152165000Y-72491939D01*
X152165000Y-72288061D01*
X152125226Y-72088102D01*
X152047205Y-71899744D01*
X151950490Y-71755000D01*
X152047205Y-71610256D01*
X152125226Y-71421898D01*
X152165000Y-71221939D01*
X152165000Y-71018061D01*
X152125226Y-70818102D01*
X152047205Y-70629744D01*
X151933937Y-70460226D01*
X151789774Y-70316063D01*
X151620256Y-70202795D01*
X151437272Y-70127000D01*
X155000000Y-70127000D01*
X155024776Y-70124560D01*
X155048601Y-70117333D01*
X155070557Y-70105597D01*
X155089803Y-70089803D01*
X155105597Y-70070557D01*
X155117333Y-70048601D01*
X155124560Y-70024776D01*
X155127000Y-70000000D01*
X155127000Y-63158000D01*
X156245928Y-63158000D01*
X156245928Y-64858000D01*
X156258188Y-64982482D01*
X156294498Y-65102180D01*
X156353463Y-65212494D01*
X156432815Y-65309185D01*
X156529506Y-65388537D01*
X156639820Y-65447502D01*
X156759518Y-65483812D01*
X156884000Y-65496072D01*
X158338217Y-65496072D01*
X158200063Y-65634226D01*
X158086795Y-65803744D01*
X158008774Y-65992102D01*
X157969000Y-66192061D01*
X157969000Y-66395939D01*
X158008774Y-66595898D01*
X158086795Y-66784256D01*
X158098651Y-66802000D01*
X158086795Y-66819744D01*
X158008774Y-67008102D01*
X157969000Y-67208061D01*
X157969000Y-67411939D01*
X158008774Y-67611898D01*
X158086795Y-67800256D01*
X158098651Y-67818000D01*
X158086795Y-67835744D01*
X158008774Y-68024102D01*
X157969000Y-68224061D01*
X157969000Y-68427939D01*
X158008774Y-68627898D01*
X158086795Y-68816256D01*
X158200063Y-68985774D01*
X158344226Y-69129937D01*
X158513744Y-69243205D01*
X158702102Y-69321226D01*
X158902061Y-69361000D01*
X159105939Y-69361000D01*
X159305898Y-69321226D01*
X159494256Y-69243205D01*
X159663774Y-69129937D01*
X159807937Y-68985774D01*
X159921205Y-68816256D01*
X159999226Y-68627898D01*
X160039000Y-68427939D01*
X160039000Y-68224061D01*
X159999226Y-68024102D01*
X159921205Y-67835744D01*
X159909349Y-67818000D01*
X159921205Y-67800256D01*
X159999226Y-67611898D01*
X160039000Y-67411939D01*
X160039000Y-67208061D01*
X159999226Y-67008102D01*
X159921205Y-66819744D01*
X159909349Y-66802000D01*
X159921205Y-66784256D01*
X159999226Y-66595898D01*
X160039000Y-66395939D01*
X160039000Y-66192061D01*
X159999226Y-65992102D01*
X159921205Y-65803744D01*
X159807937Y-65634226D01*
X159663774Y-65490063D01*
X159494256Y-65376795D01*
X159305898Y-65298774D01*
X159105939Y-65259000D01*
X159076371Y-65259000D01*
X159114537Y-65212494D01*
X159173502Y-65102180D01*
X159195513Y-65029620D01*
X159327368Y-65161475D01*
X159570589Y-65323990D01*
X159840842Y-65435932D01*
X160127740Y-65493000D01*
X160420260Y-65493000D01*
X160707158Y-65435932D01*
X160977411Y-65323990D01*
X161220632Y-65161475D01*
X161427475Y-64954632D01*
X161544000Y-64780240D01*
X161660525Y-64954632D01*
X161867368Y-65161475D01*
X162110589Y-65323990D01*
X162380842Y-65435932D01*
X162667740Y-65493000D01*
X162960260Y-65493000D01*
X163247158Y-65435932D01*
X163517411Y-65323990D01*
X163760632Y-65161475D01*
X163967475Y-64954632D01*
X164129990Y-64711411D01*
X164241932Y-64441158D01*
X164299000Y-64154260D01*
X164299000Y-63861740D01*
X164241932Y-63574842D01*
X164129990Y-63304589D01*
X164022729Y-63144061D01*
X165335000Y-63144061D01*
X165335000Y-63347939D01*
X165374774Y-63547898D01*
X165452795Y-63736256D01*
X165464651Y-63754000D01*
X165452795Y-63771744D01*
X165374774Y-63960102D01*
X165335000Y-64160061D01*
X165335000Y-64363939D01*
X165374774Y-64563898D01*
X165452795Y-64752256D01*
X165566063Y-64921774D01*
X165710226Y-65065937D01*
X165879744Y-65179205D01*
X166068102Y-65257226D01*
X166268061Y-65297000D01*
X166471939Y-65297000D01*
X166671898Y-65257226D01*
X166860256Y-65179205D01*
X166878000Y-65167349D01*
X166895744Y-65179205D01*
X167084102Y-65257226D01*
X167284061Y-65297000D01*
X167487939Y-65297000D01*
X167687898Y-65257226D01*
X167876256Y-65179205D01*
X168045774Y-65065937D01*
X168189937Y-64921774D01*
X168303205Y-64752256D01*
X168381226Y-64563898D01*
X168421000Y-64363939D01*
X168421000Y-64160061D01*
X168381226Y-63960102D01*
X168303205Y-63771744D01*
X168291349Y-63754000D01*
X168303205Y-63736256D01*
X168381226Y-63547898D01*
X168421000Y-63347939D01*
X168421000Y-63144061D01*
X168381226Y-62944102D01*
X168303205Y-62755744D01*
X168189937Y-62586226D01*
X168045774Y-62442063D01*
X167955975Y-62382061D01*
X188449000Y-62382061D01*
X188449000Y-62585939D01*
X188488774Y-62785898D01*
X188566795Y-62974256D01*
X188578651Y-62992000D01*
X188566795Y-63009744D01*
X188488774Y-63198102D01*
X188449000Y-63398061D01*
X188449000Y-63601939D01*
X188488774Y-63801898D01*
X188566795Y-63990256D01*
X188578651Y-64008000D01*
X188566795Y-64025744D01*
X188488774Y-64214102D01*
X188449000Y-64414061D01*
X188449000Y-64617939D01*
X188488774Y-64817898D01*
X188566795Y-65006256D01*
X188680063Y-65175774D01*
X188824226Y-65319937D01*
X188993744Y-65433205D01*
X189182102Y-65511226D01*
X189382061Y-65551000D01*
X189585939Y-65551000D01*
X189785898Y-65511226D01*
X189974256Y-65433205D01*
X189992000Y-65421349D01*
X190009744Y-65433205D01*
X190198102Y-65511226D01*
X190398061Y-65551000D01*
X190601939Y-65551000D01*
X190801898Y-65511226D01*
X190990256Y-65433205D01*
X191008000Y-65421349D01*
X191025744Y-65433205D01*
X191214102Y-65511226D01*
X191414061Y-65551000D01*
X191617939Y-65551000D01*
X191817898Y-65511226D01*
X192006256Y-65433205D01*
X192175774Y-65319937D01*
X192319937Y-65175774D01*
X192433205Y-65006256D01*
X192511226Y-64817898D01*
X192551000Y-64617939D01*
X192551000Y-64414061D01*
X192511226Y-64214102D01*
X192433205Y-64025744D01*
X192421349Y-64008000D01*
X192433205Y-63990256D01*
X192511226Y-63801898D01*
X192551000Y-63601939D01*
X192551000Y-63398061D01*
X192511226Y-63198102D01*
X192433205Y-63009744D01*
X192421349Y-62992000D01*
X192433205Y-62974256D01*
X192511226Y-62785898D01*
X192551000Y-62585939D01*
X192551000Y-62382061D01*
X192511226Y-62182102D01*
X192433205Y-61993744D01*
X192319937Y-61824226D01*
X192175774Y-61680063D01*
X192006256Y-61566795D01*
X191817898Y-61488774D01*
X191617939Y-61449000D01*
X191414061Y-61449000D01*
X191214102Y-61488774D01*
X191025744Y-61566795D01*
X191008000Y-61578651D01*
X190990256Y-61566795D01*
X190801898Y-61488774D01*
X190601939Y-61449000D01*
X190398061Y-61449000D01*
X190198102Y-61488774D01*
X190009744Y-61566795D01*
X189992000Y-61578651D01*
X189974256Y-61566795D01*
X189785898Y-61488774D01*
X189585939Y-61449000D01*
X189382061Y-61449000D01*
X189182102Y-61488774D01*
X188993744Y-61566795D01*
X188824226Y-61680063D01*
X188680063Y-61824226D01*
X188566795Y-61993744D01*
X188488774Y-62182102D01*
X188449000Y-62382061D01*
X167955975Y-62382061D01*
X167876256Y-62328795D01*
X167687898Y-62250774D01*
X167487939Y-62211000D01*
X167284061Y-62211000D01*
X167084102Y-62250774D01*
X166895744Y-62328795D01*
X166878000Y-62340651D01*
X166860256Y-62328795D01*
X166671898Y-62250774D01*
X166471939Y-62211000D01*
X166268061Y-62211000D01*
X166068102Y-62250774D01*
X165879744Y-62328795D01*
X165710226Y-62442063D01*
X165566063Y-62586226D01*
X165452795Y-62755744D01*
X165374774Y-62944102D01*
X165335000Y-63144061D01*
X164022729Y-63144061D01*
X163967475Y-63061368D01*
X163760632Y-62854525D01*
X163517411Y-62692010D01*
X163247158Y-62580068D01*
X162960260Y-62523000D01*
X162667740Y-62523000D01*
X162380842Y-62580068D01*
X162110589Y-62692010D01*
X161867368Y-62854525D01*
X161660525Y-63061368D01*
X161544000Y-63235760D01*
X161427475Y-63061368D01*
X161220632Y-62854525D01*
X160977411Y-62692010D01*
X160707158Y-62580068D01*
X160420260Y-62523000D01*
X160127740Y-62523000D01*
X159840842Y-62580068D01*
X159570589Y-62692010D01*
X159327368Y-62854525D01*
X159195513Y-62986380D01*
X159173502Y-62913820D01*
X159114537Y-62803506D01*
X159035185Y-62706815D01*
X158938494Y-62627463D01*
X158828180Y-62568498D01*
X158708482Y-62532188D01*
X158584000Y-62519928D01*
X156884000Y-62519928D01*
X156759518Y-62532188D01*
X156639820Y-62568498D01*
X156529506Y-62627463D01*
X156432815Y-62706815D01*
X156353463Y-62803506D01*
X156294498Y-62913820D01*
X156258188Y-63033518D01*
X156245928Y-63158000D01*
X155127000Y-63158000D01*
X155127000Y-60604061D01*
X169653000Y-60604061D01*
X169653000Y-60807939D01*
X169692774Y-61007898D01*
X169770795Y-61196256D01*
X169884063Y-61365774D01*
X170028226Y-61509937D01*
X170197744Y-61623205D01*
X170386102Y-61701226D01*
X170586061Y-61741000D01*
X170789939Y-61741000D01*
X170989898Y-61701226D01*
X171178256Y-61623205D01*
X171196000Y-61611349D01*
X171213744Y-61623205D01*
X171402102Y-61701226D01*
X171602061Y-61741000D01*
X171805939Y-61741000D01*
X172005898Y-61701226D01*
X172194256Y-61623205D01*
X172212000Y-61611349D01*
X172229744Y-61623205D01*
X172418102Y-61701226D01*
X172618061Y-61741000D01*
X172821939Y-61741000D01*
X173021898Y-61701226D01*
X173210256Y-61623205D01*
X173379774Y-61509937D01*
X173523937Y-61365774D01*
X173637205Y-61196256D01*
X173715226Y-61007898D01*
X173755000Y-60807939D01*
X173755000Y-60604061D01*
X173715226Y-60404102D01*
X173637205Y-60215744D01*
X173557236Y-60096061D01*
X174225000Y-60096061D01*
X174225000Y-60299939D01*
X174264774Y-60499898D01*
X174342795Y-60688256D01*
X174354651Y-60706000D01*
X174342795Y-60723744D01*
X174264774Y-60912102D01*
X174225000Y-61112061D01*
X174225000Y-61315939D01*
X174264774Y-61515898D01*
X174342795Y-61704256D01*
X174456063Y-61873774D01*
X174600226Y-62017937D01*
X174769744Y-62131205D01*
X174958102Y-62209226D01*
X175158061Y-62249000D01*
X175361939Y-62249000D01*
X175561898Y-62209226D01*
X175750256Y-62131205D01*
X175768000Y-62119349D01*
X175785744Y-62131205D01*
X175974102Y-62209226D01*
X176174061Y-62249000D01*
X176377939Y-62249000D01*
X176577898Y-62209226D01*
X176766256Y-62131205D01*
X176784000Y-62119349D01*
X176801744Y-62131205D01*
X176990102Y-62209226D01*
X177190061Y-62249000D01*
X177393939Y-62249000D01*
X177593898Y-62209226D01*
X177782256Y-62131205D01*
X177951774Y-62017937D01*
X178095937Y-61873774D01*
X178209205Y-61704256D01*
X178287226Y-61515898D01*
X178327000Y-61315939D01*
X178327000Y-61112061D01*
X178287226Y-60912102D01*
X178209205Y-60723744D01*
X178197349Y-60706000D01*
X178209205Y-60688256D01*
X178287226Y-60499898D01*
X178327000Y-60299939D01*
X178327000Y-60096061D01*
X178287226Y-59896102D01*
X178209205Y-59707744D01*
X178095937Y-59538226D01*
X177951774Y-59394063D01*
X177782256Y-59280795D01*
X177593898Y-59202774D01*
X177393939Y-59163000D01*
X177190061Y-59163000D01*
X176990102Y-59202774D01*
X176801744Y-59280795D01*
X176784000Y-59292651D01*
X176766256Y-59280795D01*
X176577898Y-59202774D01*
X176377939Y-59163000D01*
X176174061Y-59163000D01*
X175974102Y-59202774D01*
X175785744Y-59280795D01*
X175768000Y-59292651D01*
X175750256Y-59280795D01*
X175561898Y-59202774D01*
X175361939Y-59163000D01*
X175158061Y-59163000D01*
X174958102Y-59202774D01*
X174769744Y-59280795D01*
X174600226Y-59394063D01*
X174456063Y-59538226D01*
X174342795Y-59707744D01*
X174264774Y-59896102D01*
X174225000Y-60096061D01*
X173557236Y-60096061D01*
X173523937Y-60046226D01*
X173379774Y-59902063D01*
X173210256Y-59788795D01*
X173021898Y-59710774D01*
X172821939Y-59671000D01*
X172618061Y-59671000D01*
X172418102Y-59710774D01*
X172229744Y-59788795D01*
X172212000Y-59800651D01*
X172194256Y-59788795D01*
X172005898Y-59710774D01*
X171805939Y-59671000D01*
X171602061Y-59671000D01*
X171402102Y-59710774D01*
X171213744Y-59788795D01*
X171196000Y-59800651D01*
X171178256Y-59788795D01*
X170989898Y-59710774D01*
X170789939Y-59671000D01*
X170586061Y-59671000D01*
X170386102Y-59710774D01*
X170197744Y-59788795D01*
X170028226Y-59902063D01*
X169884063Y-60046226D01*
X169770795Y-60215744D01*
X169692774Y-60404102D01*
X169653000Y-60604061D01*
X155127000Y-60604061D01*
X155127000Y-58660000D01*
X192967721Y-58660000D01*
X193259659Y-58688625D01*
X193509429Y-58764035D01*
X193739792Y-58886522D01*
X193941980Y-59051422D01*
X194108286Y-59252450D01*
X194232378Y-59481954D01*
X194309531Y-59731195D01*
X194340001Y-60021098D01*
X194340001Y-83873000D01*
X175000000Y-83873000D01*
X174975224Y-83875440D01*
X174951399Y-83882667D01*
X174929443Y-83894403D01*
X174910197Y-83910197D01*
X174894403Y-83929443D01*
X174882667Y-83951399D01*
X174875440Y-83975224D01*
X174873000Y-84000000D01*
X174873000Y-89873000D01*
X161000000Y-89873000D01*
X160975224Y-89875440D01*
X160951399Y-89882667D01*
X160929443Y-89894403D01*
X160910197Y-89910197D01*
X160894403Y-89929443D01*
X160882667Y-89951399D01*
X160875440Y-89975224D01*
X160873000Y-90000000D01*
X160873000Y-120873000D01*
X146127000Y-120873000D01*
X146127000Y-114624000D01*
X151323928Y-114624000D01*
X151323928Y-117024000D01*
X151336188Y-117148482D01*
X151372498Y-117268180D01*
X151431463Y-117378494D01*
X151510815Y-117475185D01*
X151607506Y-117554537D01*
X151717820Y-117613502D01*
X151837518Y-117649812D01*
X151962000Y-117662072D01*
X154362000Y-117662072D01*
X154486482Y-117649812D01*
X154606180Y-117613502D01*
X154716494Y-117554537D01*
X154813185Y-117475185D01*
X154892537Y-117378494D01*
X154951502Y-117268180D01*
X154987812Y-117148482D01*
X155000072Y-117024000D01*
X155000072Y-115643268D01*
X156407000Y-115643268D01*
X156407000Y-116004732D01*
X156477518Y-116359250D01*
X156615844Y-116693199D01*
X156816662Y-116993744D01*
X157072256Y-117249338D01*
X157372801Y-117450156D01*
X157706750Y-117588482D01*
X158061268Y-117659000D01*
X158422732Y-117659000D01*
X158777250Y-117588482D01*
X159111199Y-117450156D01*
X159411744Y-117249338D01*
X159667338Y-116993744D01*
X159868156Y-116693199D01*
X160006482Y-116359250D01*
X160077000Y-116004732D01*
X160077000Y-115643268D01*
X160006482Y-115288750D01*
X159868156Y-114954801D01*
X159667338Y-114654256D01*
X159411744Y-114398662D01*
X159111199Y-114197844D01*
X158777250Y-114059518D01*
X158422732Y-113989000D01*
X158061268Y-113989000D01*
X157706750Y-114059518D01*
X157372801Y-114197844D01*
X157072256Y-114398662D01*
X156816662Y-114654256D01*
X156615844Y-114954801D01*
X156477518Y-115288750D01*
X156407000Y-115643268D01*
X155000072Y-115643268D01*
X155000072Y-114624000D01*
X154987812Y-114499518D01*
X154951502Y-114379820D01*
X154892537Y-114269506D01*
X154813185Y-114172815D01*
X154716494Y-114093463D01*
X154606180Y-114034498D01*
X154486482Y-113998188D01*
X154362000Y-113985928D01*
X151962000Y-113985928D01*
X151837518Y-113998188D01*
X151717820Y-114034498D01*
X151607506Y-114093463D01*
X151510815Y-114172815D01*
X151431463Y-114269506D01*
X151372498Y-114379820D01*
X151336188Y-114499518D01*
X151323928Y-114624000D01*
X146127000Y-114624000D01*
X146127000Y-114254885D01*
X146157740Y-114261000D01*
X146450260Y-114261000D01*
X146737158Y-114203932D01*
X147007411Y-114091990D01*
X147250632Y-113929475D01*
X147457475Y-113722632D01*
X147619990Y-113479411D01*
X147731932Y-113209158D01*
X147789000Y-112922260D01*
X147789000Y-112629740D01*
X147731932Y-112342842D01*
X147619990Y-112072589D01*
X147457475Y-111829368D01*
X147250632Y-111622525D01*
X147007411Y-111460010D01*
X146737158Y-111348068D01*
X146450260Y-111291000D01*
X146157740Y-111291000D01*
X146127000Y-111297115D01*
X146127000Y-109682885D01*
X146157740Y-109689000D01*
X146450260Y-109689000D01*
X146737158Y-109631932D01*
X147007411Y-109519990D01*
X147250632Y-109357475D01*
X147457475Y-109150632D01*
X147619990Y-108907411D01*
X147731932Y-108637158D01*
X147789000Y-108350260D01*
X147789000Y-108057740D01*
X147731932Y-107770842D01*
X147619990Y-107500589D01*
X147457475Y-107257368D01*
X147250632Y-107050525D01*
X147007411Y-106888010D01*
X146737158Y-106776068D01*
X146450260Y-106719000D01*
X146157740Y-106719000D01*
X146127000Y-106725115D01*
X146127000Y-95910061D01*
X147301000Y-95910061D01*
X147301000Y-96113939D01*
X147340774Y-96313898D01*
X147418795Y-96502256D01*
X147430651Y-96520000D01*
X147418795Y-96537744D01*
X147340774Y-96726102D01*
X147301000Y-96926061D01*
X147301000Y-97129939D01*
X147340774Y-97329898D01*
X147418795Y-97518256D01*
X147532063Y-97687774D01*
X147676226Y-97831937D01*
X147845744Y-97945205D01*
X148034102Y-98023226D01*
X148234061Y-98063000D01*
X148437939Y-98063000D01*
X148637898Y-98023226D01*
X148826256Y-97945205D01*
X148844000Y-97933349D01*
X148861744Y-97945205D01*
X149050102Y-98023226D01*
X149250061Y-98063000D01*
X149453939Y-98063000D01*
X149653898Y-98023226D01*
X149842256Y-97945205D01*
X150011774Y-97831937D01*
X150155937Y-97687774D01*
X150269205Y-97518256D01*
X150347226Y-97329898D01*
X150387000Y-97129939D01*
X150387000Y-96926061D01*
X150347226Y-96726102D01*
X150269205Y-96537744D01*
X150257349Y-96520000D01*
X150269205Y-96502256D01*
X150347226Y-96313898D01*
X150387000Y-96113939D01*
X150387000Y-95910061D01*
X150347226Y-95710102D01*
X150269205Y-95521744D01*
X150155937Y-95352226D01*
X150011774Y-95208063D01*
X149842256Y-95094795D01*
X149653898Y-95016774D01*
X149453939Y-94977000D01*
X149250061Y-94977000D01*
X149050102Y-95016774D01*
X148861744Y-95094795D01*
X148844000Y-95106651D01*
X148826256Y-95094795D01*
X148637898Y-95016774D01*
X148437939Y-94977000D01*
X148234061Y-94977000D01*
X148034102Y-95016774D01*
X147845744Y-95094795D01*
X147676226Y-95208063D01*
X147532063Y-95352226D01*
X147418795Y-95521744D01*
X147340774Y-95710102D01*
X147301000Y-95910061D01*
X146127000Y-95910061D01*
X146127000Y-90000000D01*
X146124560Y-89975224D01*
X146117333Y-89951399D01*
X146105597Y-89929443D01*
X146089803Y-89910197D01*
X146070557Y-89894403D01*
X146048601Y-89882667D01*
X146024776Y-89875440D01*
X146000000Y-89873000D01*
X115127000Y-89873000D01*
X115127000Y-87274061D01*
X124949000Y-87274061D01*
X124949000Y-87477939D01*
X124988774Y-87677898D01*
X125066795Y-87866256D01*
X125078651Y-87884000D01*
X125066795Y-87901744D01*
X124988774Y-88090102D01*
X124949000Y-88290061D01*
X124949000Y-88493939D01*
X124988774Y-88693898D01*
X125066795Y-88882256D01*
X125180063Y-89051774D01*
X125324226Y-89195937D01*
X125493744Y-89309205D01*
X125682102Y-89387226D01*
X125882061Y-89427000D01*
X126085939Y-89427000D01*
X126285898Y-89387226D01*
X126474256Y-89309205D01*
X126492000Y-89297349D01*
X126509744Y-89309205D01*
X126698102Y-89387226D01*
X126898061Y-89427000D01*
X127101939Y-89427000D01*
X127301898Y-89387226D01*
X127490256Y-89309205D01*
X127659774Y-89195937D01*
X127803937Y-89051774D01*
X127917205Y-88882256D01*
X127995226Y-88693898D01*
X128035000Y-88493939D01*
X128035000Y-88290061D01*
X127995226Y-88090102D01*
X127917205Y-87901744D01*
X127905349Y-87884000D01*
X127917205Y-87866256D01*
X127995226Y-87677898D01*
X128035000Y-87477939D01*
X128035000Y-87274061D01*
X127995226Y-87074102D01*
X127917205Y-86885744D01*
X127803937Y-86716226D01*
X127659774Y-86572063D01*
X127490256Y-86458795D01*
X127301898Y-86380774D01*
X127101939Y-86341000D01*
X126898061Y-86341000D01*
X126698102Y-86380774D01*
X126509744Y-86458795D01*
X126492000Y-86470651D01*
X126474256Y-86458795D01*
X126285898Y-86380774D01*
X126085939Y-86341000D01*
X125882061Y-86341000D01*
X125682102Y-86380774D01*
X125493744Y-86458795D01*
X125324226Y-86572063D01*
X125180063Y-86716226D01*
X125066795Y-86885744D01*
X124988774Y-87074102D01*
X124949000Y-87274061D01*
X115127000Y-87274061D01*
X115127000Y-86004061D01*
X129775000Y-86004061D01*
X129775000Y-86207939D01*
X129814774Y-86407898D01*
X129892795Y-86596256D01*
X130006063Y-86765774D01*
X130150226Y-86909937D01*
X130319744Y-87023205D01*
X130508102Y-87101226D01*
X130708061Y-87141000D01*
X130911939Y-87141000D01*
X131111898Y-87101226D01*
X131300256Y-87023205D01*
X131469774Y-86909937D01*
X131613937Y-86765774D01*
X131727205Y-86596256D01*
X131805226Y-86407898D01*
X131845000Y-86207939D01*
X131845000Y-86004061D01*
X138291000Y-86004061D01*
X138291000Y-86207939D01*
X138330774Y-86407898D01*
X138408795Y-86596256D01*
X138522063Y-86765774D01*
X138666226Y-86909937D01*
X138835744Y-87023205D01*
X139024102Y-87101226D01*
X139224061Y-87141000D01*
X139427939Y-87141000D01*
X139627898Y-87101226D01*
X139816256Y-87023205D01*
X139985774Y-86909937D01*
X140129937Y-86765774D01*
X140243205Y-86596256D01*
X140321226Y-86407898D01*
X140361000Y-86207939D01*
X140361000Y-86004061D01*
X140321226Y-85804102D01*
X140243205Y-85615744D01*
X140129937Y-85446226D01*
X139985774Y-85302063D01*
X139816256Y-85188795D01*
X139627898Y-85110774D01*
X139427939Y-85071000D01*
X139224061Y-85071000D01*
X139024102Y-85110774D01*
X138835744Y-85188795D01*
X138666226Y-85302063D01*
X138522063Y-85446226D01*
X138408795Y-85615744D01*
X138330774Y-85804102D01*
X138291000Y-86004061D01*
X131845000Y-86004061D01*
X131805226Y-85804102D01*
X131727205Y-85615744D01*
X131613937Y-85446226D01*
X131469774Y-85302063D01*
X131300256Y-85188795D01*
X131111898Y-85110774D01*
X130911939Y-85071000D01*
X130708061Y-85071000D01*
X130508102Y-85110774D01*
X130319744Y-85188795D01*
X130150226Y-85302063D01*
X130006063Y-85446226D01*
X129892795Y-85615744D01*
X129814774Y-85804102D01*
X129775000Y-86004061D01*
X115127000Y-86004061D01*
X115127000Y-84000000D01*
X115124560Y-83975224D01*
X115117333Y-83951399D01*
X115105597Y-83929443D01*
X115089803Y-83910197D01*
X115070557Y-83894403D01*
X115048601Y-83882667D01*
X115024776Y-83875440D01*
X115000000Y-83873000D01*
X95660000Y-83873000D01*
X95660000Y-82448061D01*
X111233000Y-82448061D01*
X111233000Y-82651939D01*
X111272774Y-82851898D01*
X111350795Y-83040256D01*
X111464063Y-83209774D01*
X111608226Y-83353937D01*
X111777744Y-83467205D01*
X111966102Y-83545226D01*
X112166061Y-83585000D01*
X112369939Y-83585000D01*
X112569898Y-83545226D01*
X112758256Y-83467205D01*
X112776000Y-83455349D01*
X112793744Y-83467205D01*
X112982102Y-83545226D01*
X113182061Y-83585000D01*
X113385939Y-83585000D01*
X113585898Y-83545226D01*
X113774256Y-83467205D01*
X113943774Y-83353937D01*
X114087937Y-83209774D01*
X114201205Y-83040256D01*
X114279226Y-82851898D01*
X114309030Y-82702061D01*
X141205000Y-82702061D01*
X141205000Y-82905939D01*
X141244774Y-83105898D01*
X141322795Y-83294256D01*
X141436063Y-83463774D01*
X141580226Y-83607937D01*
X141749744Y-83721205D01*
X141938102Y-83799226D01*
X142138061Y-83839000D01*
X142341939Y-83839000D01*
X142541898Y-83799226D01*
X142730256Y-83721205D01*
X142748000Y-83709349D01*
X142765744Y-83721205D01*
X142954102Y-83799226D01*
X143154061Y-83839000D01*
X143357939Y-83839000D01*
X143557898Y-83799226D01*
X143746256Y-83721205D01*
X143764000Y-83709349D01*
X143781744Y-83721205D01*
X143970102Y-83799226D01*
X144170061Y-83839000D01*
X144373939Y-83839000D01*
X144573898Y-83799226D01*
X144762256Y-83721205D01*
X144780000Y-83709349D01*
X144797744Y-83721205D01*
X144986102Y-83799226D01*
X145186061Y-83839000D01*
X145389939Y-83839000D01*
X145589898Y-83799226D01*
X145778256Y-83721205D01*
X145796000Y-83709349D01*
X145813744Y-83721205D01*
X146002102Y-83799226D01*
X146202061Y-83839000D01*
X146405939Y-83839000D01*
X146605898Y-83799226D01*
X146794256Y-83721205D01*
X146812000Y-83709349D01*
X146829744Y-83721205D01*
X147018102Y-83799226D01*
X147218061Y-83839000D01*
X147421939Y-83839000D01*
X147621898Y-83799226D01*
X147810256Y-83721205D01*
X147979774Y-83607937D01*
X148123937Y-83463774D01*
X148237205Y-83294256D01*
X148315226Y-83105898D01*
X148355000Y-82905939D01*
X148355000Y-82702061D01*
X148315226Y-82502102D01*
X148237205Y-82313744D01*
X148123937Y-82144226D01*
X147979774Y-82000063D01*
X147810256Y-81886795D01*
X147621898Y-81808774D01*
X147421939Y-81769000D01*
X147218061Y-81769000D01*
X147018102Y-81808774D01*
X146829744Y-81886795D01*
X146812000Y-81898651D01*
X146794256Y-81886795D01*
X146605898Y-81808774D01*
X146405939Y-81769000D01*
X146202061Y-81769000D01*
X146002102Y-81808774D01*
X145813744Y-81886795D01*
X145796000Y-81898651D01*
X145778256Y-81886795D01*
X145589898Y-81808774D01*
X145389939Y-81769000D01*
X145186061Y-81769000D01*
X144986102Y-81808774D01*
X144797744Y-81886795D01*
X144780000Y-81898651D01*
X144762256Y-81886795D01*
X144573898Y-81808774D01*
X144373939Y-81769000D01*
X144170061Y-81769000D01*
X143970102Y-81808774D01*
X143781744Y-81886795D01*
X143764000Y-81898651D01*
X143746256Y-81886795D01*
X143557898Y-81808774D01*
X143357939Y-81769000D01*
X143154061Y-81769000D01*
X142954102Y-81808774D01*
X142765744Y-81886795D01*
X142748000Y-81898651D01*
X142730256Y-81886795D01*
X142541898Y-81808774D01*
X142341939Y-81769000D01*
X142138061Y-81769000D01*
X141938102Y-81808774D01*
X141749744Y-81886795D01*
X141580226Y-82000063D01*
X141436063Y-82144226D01*
X141322795Y-82313744D01*
X141244774Y-82502102D01*
X141205000Y-82702061D01*
X114309030Y-82702061D01*
X114319000Y-82651939D01*
X114319000Y-82448061D01*
X114279226Y-82248102D01*
X114201205Y-82059744D01*
X114087937Y-81890226D01*
X113943774Y-81746063D01*
X113774256Y-81632795D01*
X113585898Y-81554774D01*
X113385939Y-81515000D01*
X113182061Y-81515000D01*
X112982102Y-81554774D01*
X112793744Y-81632795D01*
X112776000Y-81644651D01*
X112758256Y-81632795D01*
X112569898Y-81554774D01*
X112369939Y-81515000D01*
X112166061Y-81515000D01*
X111966102Y-81554774D01*
X111777744Y-81632795D01*
X111608226Y-81746063D01*
X111464063Y-81890226D01*
X111350795Y-82059744D01*
X111272774Y-82248102D01*
X111233000Y-82448061D01*
X95660000Y-82448061D01*
X95660000Y-81178061D01*
X100565000Y-81178061D01*
X100565000Y-81381939D01*
X100604774Y-81581898D01*
X100682795Y-81770256D01*
X100796063Y-81939774D01*
X100940226Y-82083937D01*
X101109744Y-82197205D01*
X101298102Y-82275226D01*
X101498061Y-82315000D01*
X101701939Y-82315000D01*
X101901898Y-82275226D01*
X102090256Y-82197205D01*
X102259774Y-82083937D01*
X102403937Y-81939774D01*
X102517205Y-81770256D01*
X102595226Y-81581898D01*
X102635000Y-81381939D01*
X102635000Y-81178061D01*
X102601961Y-81011961D01*
X102768061Y-81045000D01*
X102971939Y-81045000D01*
X103138039Y-81011961D01*
X103105000Y-81178061D01*
X103105000Y-81381939D01*
X103144774Y-81581898D01*
X103222795Y-81770256D01*
X103336063Y-81939774D01*
X103480226Y-82083937D01*
X103649744Y-82197205D01*
X103838102Y-82275226D01*
X104038061Y-82315000D01*
X104241939Y-82315000D01*
X104441898Y-82275226D01*
X104630256Y-82197205D01*
X104799774Y-82083937D01*
X104943937Y-81939774D01*
X105057205Y-81770256D01*
X105135226Y-81581898D01*
X105175000Y-81381939D01*
X105175000Y-81178061D01*
X105141961Y-81011961D01*
X105308061Y-81045000D01*
X105511939Y-81045000D01*
X105678039Y-81011961D01*
X105645000Y-81178061D01*
X105645000Y-81381939D01*
X105684774Y-81581898D01*
X105762795Y-81770256D01*
X105876063Y-81939774D01*
X106020226Y-82083937D01*
X106189744Y-82197205D01*
X106378102Y-82275226D01*
X106578061Y-82315000D01*
X106781939Y-82315000D01*
X106981898Y-82275226D01*
X107170256Y-82197205D01*
X107339774Y-82083937D01*
X107483937Y-81939774D01*
X107597205Y-81770256D01*
X107675226Y-81581898D01*
X107715000Y-81381939D01*
X107715000Y-81178061D01*
X107681961Y-81011961D01*
X107848061Y-81045000D01*
X108051939Y-81045000D01*
X108218039Y-81011961D01*
X108185000Y-81178061D01*
X108185000Y-81381939D01*
X108224774Y-81581898D01*
X108302795Y-81770256D01*
X108416063Y-81939774D01*
X108560226Y-82083937D01*
X108729744Y-82197205D01*
X108918102Y-82275226D01*
X109118061Y-82315000D01*
X109321939Y-82315000D01*
X109521898Y-82275226D01*
X109710256Y-82197205D01*
X109879774Y-82083937D01*
X110023937Y-81939774D01*
X110137205Y-81770256D01*
X110215226Y-81581898D01*
X110255000Y-81381939D01*
X110255000Y-81178061D01*
X168637000Y-81178061D01*
X168637000Y-81381939D01*
X168676774Y-81581898D01*
X168754795Y-81770256D01*
X168766651Y-81788000D01*
X168754795Y-81805744D01*
X168676774Y-81994102D01*
X168637000Y-82194061D01*
X168637000Y-82397939D01*
X168676774Y-82597898D01*
X168754795Y-82786256D01*
X168868063Y-82955774D01*
X169012226Y-83099937D01*
X169181744Y-83213205D01*
X169370102Y-83291226D01*
X169570061Y-83331000D01*
X169773939Y-83331000D01*
X169973898Y-83291226D01*
X170162256Y-83213205D01*
X170180000Y-83201349D01*
X170197744Y-83213205D01*
X170386102Y-83291226D01*
X170586061Y-83331000D01*
X170789939Y-83331000D01*
X170989898Y-83291226D01*
X171178256Y-83213205D01*
X171347774Y-83099937D01*
X171491937Y-82955774D01*
X171605205Y-82786256D01*
X171683226Y-82597898D01*
X171713030Y-82448061D01*
X189211000Y-82448061D01*
X189211000Y-82651939D01*
X189250774Y-82851898D01*
X189328795Y-83040256D01*
X189442063Y-83209774D01*
X189586226Y-83353937D01*
X189755744Y-83467205D01*
X189944102Y-83545226D01*
X190144061Y-83585000D01*
X190347939Y-83585000D01*
X190547898Y-83545226D01*
X190736256Y-83467205D01*
X190754000Y-83455349D01*
X190771744Y-83467205D01*
X190960102Y-83545226D01*
X191160061Y-83585000D01*
X191363939Y-83585000D01*
X191563898Y-83545226D01*
X191752256Y-83467205D01*
X191921774Y-83353937D01*
X192065937Y-83209774D01*
X192179205Y-83040256D01*
X192257226Y-82851898D01*
X192297000Y-82651939D01*
X192297000Y-82448061D01*
X192257226Y-82248102D01*
X192179205Y-82059744D01*
X192065937Y-81890226D01*
X191921774Y-81746063D01*
X191752256Y-81632795D01*
X191563898Y-81554774D01*
X191363939Y-81515000D01*
X191160061Y-81515000D01*
X190960102Y-81554774D01*
X190771744Y-81632795D01*
X190754000Y-81644651D01*
X190736256Y-81632795D01*
X190547898Y-81554774D01*
X190347939Y-81515000D01*
X190144061Y-81515000D01*
X189944102Y-81554774D01*
X189755744Y-81632795D01*
X189586226Y-81746063D01*
X189442063Y-81890226D01*
X189328795Y-82059744D01*
X189250774Y-82248102D01*
X189211000Y-82448061D01*
X171713030Y-82448061D01*
X171723000Y-82397939D01*
X171723000Y-82194061D01*
X171683226Y-81994102D01*
X171605205Y-81805744D01*
X171593349Y-81788000D01*
X171605205Y-81770256D01*
X171683226Y-81581898D01*
X171723000Y-81381939D01*
X171723000Y-81178061D01*
X178543000Y-81178061D01*
X178543000Y-81381939D01*
X178582774Y-81581898D01*
X178660795Y-81770256D01*
X178774063Y-81939774D01*
X178918226Y-82083937D01*
X179087744Y-82197205D01*
X179276102Y-82275226D01*
X179476061Y-82315000D01*
X179679939Y-82315000D01*
X179879898Y-82275226D01*
X180068256Y-82197205D01*
X180237774Y-82083937D01*
X180381937Y-81939774D01*
X180495205Y-81770256D01*
X180573226Y-81581898D01*
X180613000Y-81381939D01*
X180613000Y-81178061D01*
X180579961Y-81011961D01*
X180746061Y-81045000D01*
X180949939Y-81045000D01*
X181116039Y-81011961D01*
X181083000Y-81178061D01*
X181083000Y-81381939D01*
X181122774Y-81581898D01*
X181200795Y-81770256D01*
X181314063Y-81939774D01*
X181458226Y-82083937D01*
X181627744Y-82197205D01*
X181816102Y-82275226D01*
X182016061Y-82315000D01*
X182219939Y-82315000D01*
X182419898Y-82275226D01*
X182608256Y-82197205D01*
X182777774Y-82083937D01*
X182921937Y-81939774D01*
X183035205Y-81770256D01*
X183113226Y-81581898D01*
X183153000Y-81381939D01*
X183153000Y-81178061D01*
X183119961Y-81011961D01*
X183286061Y-81045000D01*
X183489939Y-81045000D01*
X183656039Y-81011961D01*
X183623000Y-81178061D01*
X183623000Y-81381939D01*
X183662774Y-81581898D01*
X183740795Y-81770256D01*
X183854063Y-81939774D01*
X183998226Y-82083937D01*
X184167744Y-82197205D01*
X184356102Y-82275226D01*
X184556061Y-82315000D01*
X184759939Y-82315000D01*
X184959898Y-82275226D01*
X185148256Y-82197205D01*
X185317774Y-82083937D01*
X185461937Y-81939774D01*
X185575205Y-81770256D01*
X185653226Y-81581898D01*
X185693000Y-81381939D01*
X185693000Y-81178061D01*
X185659961Y-81011961D01*
X185826061Y-81045000D01*
X186029939Y-81045000D01*
X186196039Y-81011961D01*
X186163000Y-81178061D01*
X186163000Y-81381939D01*
X186202774Y-81581898D01*
X186280795Y-81770256D01*
X186394063Y-81939774D01*
X186538226Y-82083937D01*
X186707744Y-82197205D01*
X186896102Y-82275226D01*
X187096061Y-82315000D01*
X187299939Y-82315000D01*
X187499898Y-82275226D01*
X187688256Y-82197205D01*
X187857774Y-82083937D01*
X188001937Y-81939774D01*
X188115205Y-81770256D01*
X188193226Y-81581898D01*
X188233000Y-81381939D01*
X188233000Y-81178061D01*
X188193226Y-80978102D01*
X188115205Y-80789744D01*
X188001937Y-80620226D01*
X187857774Y-80476063D01*
X187688256Y-80362795D01*
X187499898Y-80284774D01*
X187299939Y-80245000D01*
X187096061Y-80245000D01*
X186929961Y-80278039D01*
X186963000Y-80111939D01*
X186963000Y-79908061D01*
X186923226Y-79708102D01*
X186845205Y-79519744D01*
X186731937Y-79350226D01*
X186587774Y-79206063D01*
X186418256Y-79092795D01*
X186229898Y-79014774D01*
X186029939Y-78975000D01*
X185826061Y-78975000D01*
X185626102Y-79014774D01*
X185437744Y-79092795D01*
X185268226Y-79206063D01*
X185124063Y-79350226D01*
X185010795Y-79519744D01*
X184932774Y-79708102D01*
X184893000Y-79908061D01*
X184893000Y-80111939D01*
X184926039Y-80278039D01*
X184759939Y-80245000D01*
X184556061Y-80245000D01*
X184389961Y-80278039D01*
X184423000Y-80111939D01*
X184423000Y-79908061D01*
X184383226Y-79708102D01*
X184305205Y-79519744D01*
X184191937Y-79350226D01*
X184047774Y-79206063D01*
X183878256Y-79092795D01*
X183689898Y-79014774D01*
X183489939Y-78975000D01*
X183286061Y-78975000D01*
X183086102Y-79014774D01*
X182897744Y-79092795D01*
X182728226Y-79206063D01*
X182584063Y-79350226D01*
X182470795Y-79519744D01*
X182392774Y-79708102D01*
X182353000Y-79908061D01*
X182353000Y-80111939D01*
X182386039Y-80278039D01*
X182219939Y-80245000D01*
X182016061Y-80245000D01*
X181849961Y-80278039D01*
X181883000Y-80111939D01*
X181883000Y-79908061D01*
X181843226Y-79708102D01*
X181765205Y-79519744D01*
X181651937Y-79350226D01*
X181507774Y-79206063D01*
X181338256Y-79092795D01*
X181149898Y-79014774D01*
X180949939Y-78975000D01*
X180746061Y-78975000D01*
X180546102Y-79014774D01*
X180357744Y-79092795D01*
X180188226Y-79206063D01*
X180044063Y-79350226D01*
X179930795Y-79519744D01*
X179852774Y-79708102D01*
X179813000Y-79908061D01*
X179813000Y-80111939D01*
X179846039Y-80278039D01*
X179679939Y-80245000D01*
X179476061Y-80245000D01*
X179276102Y-80284774D01*
X179087744Y-80362795D01*
X178918226Y-80476063D01*
X178774063Y-80620226D01*
X178660795Y-80789744D01*
X178582774Y-80978102D01*
X178543000Y-81178061D01*
X171723000Y-81178061D01*
X171683226Y-80978102D01*
X171605205Y-80789744D01*
X171491937Y-80620226D01*
X171347774Y-80476063D01*
X171178256Y-80362795D01*
X170989898Y-80284774D01*
X170789939Y-80245000D01*
X170586061Y-80245000D01*
X170386102Y-80284774D01*
X170197744Y-80362795D01*
X170180000Y-80374651D01*
X170162256Y-80362795D01*
X169973898Y-80284774D01*
X169773939Y-80245000D01*
X169570061Y-80245000D01*
X169370102Y-80284774D01*
X169181744Y-80362795D01*
X169012226Y-80476063D01*
X168868063Y-80620226D01*
X168754795Y-80789744D01*
X168676774Y-80978102D01*
X168637000Y-81178061D01*
X110255000Y-81178061D01*
X110215226Y-80978102D01*
X110137205Y-80789744D01*
X110023937Y-80620226D01*
X109879774Y-80476063D01*
X109710256Y-80362795D01*
X109521898Y-80284774D01*
X109321939Y-80245000D01*
X109118061Y-80245000D01*
X108951961Y-80278039D01*
X108985000Y-80111939D01*
X108985000Y-79908061D01*
X108945226Y-79708102D01*
X108867205Y-79519744D01*
X108753937Y-79350226D01*
X108609774Y-79206063D01*
X108440256Y-79092795D01*
X108251898Y-79014774D01*
X108051939Y-78975000D01*
X107848061Y-78975000D01*
X107648102Y-79014774D01*
X107459744Y-79092795D01*
X107290226Y-79206063D01*
X107146063Y-79350226D01*
X107032795Y-79519744D01*
X106954774Y-79708102D01*
X106915000Y-79908061D01*
X106915000Y-80111939D01*
X106948039Y-80278039D01*
X106781939Y-80245000D01*
X106578061Y-80245000D01*
X106411961Y-80278039D01*
X106445000Y-80111939D01*
X106445000Y-79908061D01*
X106405226Y-79708102D01*
X106327205Y-79519744D01*
X106213937Y-79350226D01*
X106069774Y-79206063D01*
X105900256Y-79092795D01*
X105711898Y-79014774D01*
X105511939Y-78975000D01*
X105308061Y-78975000D01*
X105108102Y-79014774D01*
X104919744Y-79092795D01*
X104750226Y-79206063D01*
X104606063Y-79350226D01*
X104492795Y-79519744D01*
X104414774Y-79708102D01*
X104375000Y-79908061D01*
X104375000Y-80111939D01*
X104408039Y-80278039D01*
X104241939Y-80245000D01*
X104038061Y-80245000D01*
X103871961Y-80278039D01*
X103905000Y-80111939D01*
X103905000Y-79908061D01*
X103865226Y-79708102D01*
X103787205Y-79519744D01*
X103673937Y-79350226D01*
X103529774Y-79206063D01*
X103360256Y-79092795D01*
X103171898Y-79014774D01*
X102971939Y-78975000D01*
X102768061Y-78975000D01*
X102568102Y-79014774D01*
X102379744Y-79092795D01*
X102210226Y-79206063D01*
X102066063Y-79350226D01*
X101952795Y-79519744D01*
X101874774Y-79708102D01*
X101835000Y-79908061D01*
X101835000Y-80111939D01*
X101868039Y-80278039D01*
X101701939Y-80245000D01*
X101498061Y-80245000D01*
X101298102Y-80284774D01*
X101109744Y-80362795D01*
X100940226Y-80476063D01*
X100796063Y-80620226D01*
X100682795Y-80789744D01*
X100604774Y-80978102D01*
X100565000Y-81178061D01*
X95660000Y-81178061D01*
X95660000Y-78638061D01*
X150095000Y-78638061D01*
X150095000Y-78841939D01*
X150134774Y-79041898D01*
X150212795Y-79230256D01*
X150326063Y-79399774D01*
X150470226Y-79543937D01*
X150639744Y-79657205D01*
X150828102Y-79735226D01*
X151028061Y-79775000D01*
X151231939Y-79775000D01*
X151431898Y-79735226D01*
X151620256Y-79657205D01*
X151789774Y-79543937D01*
X151933937Y-79399774D01*
X152047205Y-79230256D01*
X152125226Y-79041898D01*
X152165000Y-78841939D01*
X152165000Y-78638061D01*
X152125226Y-78438102D01*
X152047205Y-78249744D01*
X151933937Y-78080226D01*
X151789774Y-77936063D01*
X151620256Y-77822795D01*
X151431898Y-77744774D01*
X151231939Y-77705000D01*
X151028061Y-77705000D01*
X150828102Y-77744774D01*
X150639744Y-77822795D01*
X150470226Y-77936063D01*
X150326063Y-78080226D01*
X150212795Y-78249744D01*
X150134774Y-78438102D01*
X150095000Y-78638061D01*
X95660000Y-78638061D01*
X95660000Y-74066061D01*
X117837000Y-74066061D01*
X117837000Y-74269939D01*
X117876774Y-74469898D01*
X117954795Y-74658256D01*
X118068063Y-74827774D01*
X118212226Y-74971937D01*
X118381744Y-75085205D01*
X118570102Y-75163226D01*
X118770061Y-75203000D01*
X118973939Y-75203000D01*
X119173898Y-75163226D01*
X119362256Y-75085205D01*
X119531774Y-74971937D01*
X119675937Y-74827774D01*
X119789205Y-74658256D01*
X119867226Y-74469898D01*
X119907000Y-74269939D01*
X119907000Y-74066061D01*
X119867226Y-73866102D01*
X119789205Y-73677744D01*
X119709236Y-73558061D01*
X132823000Y-73558061D01*
X132823000Y-73761939D01*
X132862774Y-73961898D01*
X132940795Y-74150256D01*
X133037510Y-74295000D01*
X132940795Y-74439744D01*
X132862774Y-74628102D01*
X132823000Y-74828061D01*
X132823000Y-75031939D01*
X132862774Y-75231898D01*
X132940795Y-75420256D01*
X133037510Y-75565000D01*
X132940795Y-75709744D01*
X132862774Y-75898102D01*
X132823000Y-76098061D01*
X132823000Y-76301939D01*
X132862774Y-76501898D01*
X132940795Y-76690256D01*
X133037510Y-76835000D01*
X132940795Y-76979744D01*
X132862774Y-77168102D01*
X132823000Y-77368061D01*
X132823000Y-77571939D01*
X132862774Y-77771898D01*
X132940795Y-77960256D01*
X133054063Y-78129774D01*
X133198226Y-78273937D01*
X133367744Y-78387205D01*
X133556102Y-78465226D01*
X133756061Y-78505000D01*
X133959939Y-78505000D01*
X134159898Y-78465226D01*
X134348256Y-78387205D01*
X134517774Y-78273937D01*
X134661937Y-78129774D01*
X134775205Y-77960256D01*
X134853226Y-77771898D01*
X134893000Y-77571939D01*
X134893000Y-77368061D01*
X134853226Y-77168102D01*
X134775205Y-76979744D01*
X134678490Y-76835000D01*
X134775205Y-76690256D01*
X134853226Y-76501898D01*
X134893000Y-76301939D01*
X134893000Y-76098061D01*
X150095000Y-76098061D01*
X150095000Y-76301939D01*
X150134774Y-76501898D01*
X150212795Y-76690256D01*
X150326063Y-76859774D01*
X150470226Y-77003937D01*
X150639744Y-77117205D01*
X150828102Y-77195226D01*
X151028061Y-77235000D01*
X151231939Y-77235000D01*
X151431898Y-77195226D01*
X151620256Y-77117205D01*
X151789774Y-77003937D01*
X151933937Y-76859774D01*
X152047205Y-76690256D01*
X152125226Y-76501898D01*
X152165000Y-76301939D01*
X152165000Y-76098061D01*
X152125226Y-75898102D01*
X152047205Y-75709744D01*
X151933937Y-75540226D01*
X151789774Y-75396063D01*
X151620256Y-75282795D01*
X151431898Y-75204774D01*
X151231939Y-75165000D01*
X151028061Y-75165000D01*
X150828102Y-75204774D01*
X150639744Y-75282795D01*
X150470226Y-75396063D01*
X150326063Y-75540226D01*
X150212795Y-75709744D01*
X150134774Y-75898102D01*
X150095000Y-76098061D01*
X134893000Y-76098061D01*
X134853226Y-75898102D01*
X134775205Y-75709744D01*
X134678490Y-75565000D01*
X134775205Y-75420256D01*
X134853226Y-75231898D01*
X134893000Y-75031939D01*
X134893000Y-74828061D01*
X134853226Y-74628102D01*
X134775205Y-74439744D01*
X134678490Y-74295000D01*
X134775205Y-74150256D01*
X134853226Y-73961898D01*
X134893000Y-73761939D01*
X134893000Y-73558061D01*
X134853226Y-73358102D01*
X134775205Y-73169744D01*
X134661937Y-73000226D01*
X134517774Y-72856063D01*
X134348256Y-72742795D01*
X134159898Y-72664774D01*
X133959939Y-72625000D01*
X133756061Y-72625000D01*
X133556102Y-72664774D01*
X133367744Y-72742795D01*
X133198226Y-72856063D01*
X133054063Y-73000226D01*
X132940795Y-73169744D01*
X132862774Y-73358102D01*
X132823000Y-73558061D01*
X119709236Y-73558061D01*
X119675937Y-73508226D01*
X119531774Y-73364063D01*
X119362256Y-73250795D01*
X119173898Y-73172774D01*
X118973939Y-73133000D01*
X118770061Y-73133000D01*
X118570102Y-73172774D01*
X118381744Y-73250795D01*
X118212226Y-73364063D01*
X118068063Y-73508226D01*
X117954795Y-73677744D01*
X117876774Y-73866102D01*
X117837000Y-74066061D01*
X95660000Y-74066061D01*
X95660000Y-69240061D01*
X98533000Y-69240061D01*
X98533000Y-69443939D01*
X98572774Y-69643898D01*
X98650795Y-69832256D01*
X98662651Y-69850000D01*
X98650795Y-69867744D01*
X98572774Y-70056102D01*
X98533000Y-70256061D01*
X98533000Y-70459939D01*
X98572774Y-70659898D01*
X98650795Y-70848256D01*
X98764063Y-71017774D01*
X98908226Y-71161937D01*
X99077744Y-71275205D01*
X99266102Y-71353226D01*
X99466061Y-71393000D01*
X99669939Y-71393000D01*
X99869898Y-71353226D01*
X100058256Y-71275205D01*
X100076000Y-71263349D01*
X100093744Y-71275205D01*
X100282102Y-71353226D01*
X100482061Y-71393000D01*
X100685939Y-71393000D01*
X100885898Y-71353226D01*
X101074256Y-71275205D01*
X101243774Y-71161937D01*
X101387937Y-71017774D01*
X101501205Y-70848256D01*
X101579226Y-70659898D01*
X101619000Y-70459939D01*
X101619000Y-70256061D01*
X101579226Y-70056102D01*
X101501205Y-69867744D01*
X101489349Y-69850000D01*
X101501205Y-69832256D01*
X101579226Y-69643898D01*
X101619000Y-69443939D01*
X101619000Y-69240061D01*
X101579226Y-69040102D01*
X101501205Y-68851744D01*
X101387937Y-68682226D01*
X101243774Y-68538063D01*
X101153975Y-68478061D01*
X115043000Y-68478061D01*
X115043000Y-68681939D01*
X115082774Y-68881898D01*
X115160795Y-69070256D01*
X115274063Y-69239774D01*
X115418226Y-69383937D01*
X115587744Y-69497205D01*
X115776102Y-69575226D01*
X115976061Y-69615000D01*
X116179939Y-69615000D01*
X116379898Y-69575226D01*
X116568256Y-69497205D01*
X116737774Y-69383937D01*
X116881937Y-69239774D01*
X116995205Y-69070256D01*
X117073226Y-68881898D01*
X117113000Y-68681939D01*
X117113000Y-68478061D01*
X117073226Y-68278102D01*
X116995205Y-68089744D01*
X116915236Y-67970061D01*
X124949000Y-67970061D01*
X124949000Y-68173939D01*
X124988774Y-68373898D01*
X125066795Y-68562256D01*
X125180063Y-68731774D01*
X125324226Y-68875937D01*
X125493744Y-68989205D01*
X125682102Y-69067226D01*
X125739381Y-69078619D01*
X125750774Y-69135898D01*
X125828795Y-69324256D01*
X125942063Y-69493774D01*
X126086226Y-69637937D01*
X126255744Y-69751205D01*
X126444102Y-69829226D01*
X126501381Y-69840619D01*
X126512774Y-69897898D01*
X126590795Y-70086256D01*
X126704063Y-70255774D01*
X126848226Y-70399937D01*
X127017744Y-70513205D01*
X127206102Y-70591226D01*
X127406061Y-70631000D01*
X127609939Y-70631000D01*
X127809898Y-70591226D01*
X127998256Y-70513205D01*
X128167774Y-70399937D01*
X128311937Y-70255774D01*
X128425205Y-70086256D01*
X128503226Y-69897898D01*
X128543000Y-69697939D01*
X128543000Y-69494061D01*
X128503226Y-69294102D01*
X128425205Y-69105744D01*
X128311937Y-68936226D01*
X128167774Y-68792063D01*
X127998256Y-68678795D01*
X127809898Y-68600774D01*
X127752619Y-68589381D01*
X127741226Y-68532102D01*
X127663205Y-68343744D01*
X127549937Y-68174226D01*
X127405774Y-68030063D01*
X127236256Y-67916795D01*
X127047898Y-67838774D01*
X126990619Y-67827381D01*
X126979226Y-67770102D01*
X126901205Y-67581744D01*
X126787937Y-67412226D01*
X126643774Y-67268063D01*
X126474256Y-67154795D01*
X126285898Y-67076774D01*
X126085939Y-67037000D01*
X125882061Y-67037000D01*
X125682102Y-67076774D01*
X125493744Y-67154795D01*
X125324226Y-67268063D01*
X125180063Y-67412226D01*
X125066795Y-67581744D01*
X124988774Y-67770102D01*
X124949000Y-67970061D01*
X116915236Y-67970061D01*
X116881937Y-67920226D01*
X116737774Y-67776063D01*
X116568256Y-67662795D01*
X116379898Y-67584774D01*
X116179939Y-67545000D01*
X115976061Y-67545000D01*
X115776102Y-67584774D01*
X115587744Y-67662795D01*
X115418226Y-67776063D01*
X115274063Y-67920226D01*
X115160795Y-68089744D01*
X115082774Y-68278102D01*
X115043000Y-68478061D01*
X101153975Y-68478061D01*
X101074256Y-68424795D01*
X100885898Y-68346774D01*
X100685939Y-68307000D01*
X100482061Y-68307000D01*
X100282102Y-68346774D01*
X100093744Y-68424795D01*
X100076000Y-68436651D01*
X100058256Y-68424795D01*
X99869898Y-68346774D01*
X99669939Y-68307000D01*
X99466061Y-68307000D01*
X99266102Y-68346774D01*
X99077744Y-68424795D01*
X98908226Y-68538063D01*
X98764063Y-68682226D01*
X98650795Y-68851744D01*
X98572774Y-69040102D01*
X98533000Y-69240061D01*
X95660000Y-69240061D01*
X95660000Y-62890061D01*
X117837000Y-62890061D01*
X117837000Y-63093939D01*
X117876774Y-63293898D01*
X117954795Y-63482256D01*
X117966651Y-63500000D01*
X117954795Y-63517744D01*
X117876774Y-63706102D01*
X117837000Y-63906061D01*
X117837000Y-64109939D01*
X117876774Y-64309898D01*
X117954795Y-64498256D01*
X118068063Y-64667774D01*
X118212226Y-64811937D01*
X118381744Y-64925205D01*
X118570102Y-65003226D01*
X118770061Y-65043000D01*
X118973939Y-65043000D01*
X119173898Y-65003226D01*
X119362256Y-64925205D01*
X119380000Y-64913349D01*
X119397744Y-64925205D01*
X119586102Y-65003226D01*
X119786061Y-65043000D01*
X119989939Y-65043000D01*
X120189898Y-65003226D01*
X120378256Y-64925205D01*
X120547774Y-64811937D01*
X120691937Y-64667774D01*
X120805205Y-64498256D01*
X120883226Y-64309898D01*
X120923000Y-64109939D01*
X120923000Y-63906061D01*
X120883226Y-63706102D01*
X120805205Y-63517744D01*
X120793349Y-63500000D01*
X120805205Y-63482256D01*
X120883226Y-63293898D01*
X120923000Y-63093939D01*
X120923000Y-62890061D01*
X120883226Y-62690102D01*
X120805205Y-62501744D01*
X120691937Y-62332226D01*
X120547774Y-62188063D01*
X120378256Y-62074795D01*
X120189898Y-61996774D01*
X119989939Y-61957000D01*
X119786061Y-61957000D01*
X119586102Y-61996774D01*
X119397744Y-62074795D01*
X119380000Y-62086651D01*
X119362256Y-62074795D01*
X119173898Y-61996774D01*
X118973939Y-61957000D01*
X118770061Y-61957000D01*
X118570102Y-61996774D01*
X118381744Y-62074795D01*
X118212226Y-62188063D01*
X118068063Y-62332226D01*
X117954795Y-62501744D01*
X117876774Y-62690102D01*
X117837000Y-62890061D01*
X95660000Y-62890061D01*
X95660000Y-61032279D01*
X95707670Y-60546107D01*
X95766859Y-60350061D01*
X127743000Y-60350061D01*
X127743000Y-60553939D01*
X127782774Y-60753898D01*
X127860795Y-60942256D01*
X127974063Y-61111774D01*
X128118226Y-61255937D01*
X128287744Y-61369205D01*
X128476102Y-61447226D01*
X128676061Y-61487000D01*
X128879939Y-61487000D01*
X129079898Y-61447226D01*
X129268256Y-61369205D01*
X129286000Y-61357349D01*
X129303744Y-61369205D01*
X129492102Y-61447226D01*
X129692061Y-61487000D01*
X129895939Y-61487000D01*
X130095898Y-61447226D01*
X130284256Y-61369205D01*
X130302000Y-61357349D01*
X130319744Y-61369205D01*
X130508102Y-61447226D01*
X130708061Y-61487000D01*
X130911939Y-61487000D01*
X131111898Y-61447226D01*
X131300256Y-61369205D01*
X131469774Y-61255937D01*
X131613937Y-61111774D01*
X131727205Y-60942256D01*
X131805226Y-60753898D01*
X131845000Y-60553939D01*
X131845000Y-60350061D01*
X131805226Y-60150102D01*
X131727205Y-59961744D01*
X131613937Y-59792226D01*
X131469774Y-59648063D01*
X131300256Y-59534795D01*
X131111898Y-59456774D01*
X130911939Y-59417000D01*
X130708061Y-59417000D01*
X130508102Y-59456774D01*
X130319744Y-59534795D01*
X130302000Y-59546651D01*
X130284256Y-59534795D01*
X130095898Y-59456774D01*
X129895939Y-59417000D01*
X129692061Y-59417000D01*
X129492102Y-59456774D01*
X129303744Y-59534795D01*
X129286000Y-59546651D01*
X129268256Y-59534795D01*
X129079898Y-59456774D01*
X128879939Y-59417000D01*
X128676061Y-59417000D01*
X128476102Y-59456774D01*
X128287744Y-59534795D01*
X128118226Y-59648063D01*
X127974063Y-59792226D01*
X127860795Y-59961744D01*
X127782774Y-60150102D01*
X127743000Y-60350061D01*
X95766859Y-60350061D01*
X95839489Y-60109502D01*
X96053600Y-59706815D01*
X96341848Y-59353388D01*
X96693261Y-59062673D01*
X97094439Y-58845758D01*
X97530113Y-58710894D01*
X98014344Y-58660000D01*
X134873000Y-58660000D01*
X134873000Y-70000000D01*
M02*
