M48
; DRILL file {KiCad (5.1.6)-1} date 11/07/20 12:22:46
; FORMAT={3:3/ absolute / metric / suppress leading zeros}
; #@! TF.CreationDate,2020-11-07T12:22:46+01:00
; #@! TF.GenerationSoftware,Kicad,Pcbnew,(5.1.6)-1
FMAT,2
METRIC,TZ
T1C0.400
T2C1.000
T3C1.400
T4C1.600
%
G90
G05
T1
X99568Y-69342
X99568Y-70358
X100584Y-69342
X100584Y-70358
X101600Y-81280
X101600Y-87376
X102870Y-80010
X104140Y-81280
X104140Y-87376
X105410Y-80010
X105410Y-94488
X106680Y-81280
X106680Y-87376
X107950Y-80010
X109220Y-81280
X109220Y-87376
X110490Y-90424
X111252Y-75438
X112268Y-75438
X112268Y-82550
X112522Y-94488
X113284Y-82550
X116078Y-68580
X118872Y-62992
X118872Y-64008
X118872Y-74168
X119634Y-94488
X119888Y-62992
X119888Y-64008
X122722Y-92964
X122936Y-60960
X122936Y-61976
X125984Y-68072
X125984Y-87376
X125984Y-88392
X126746Y-68834
X126746Y-94488
X127000Y-87376
X127000Y-88392
X127508Y-69596
X128778Y-60452
X129794Y-60452
X130810Y-60452
X130810Y-86106
X131826Y-67564
X131826Y-68580
X131826Y-98806
X132842Y-98806
X133858Y-73660
X133858Y-74930
X133858Y-76200
X133858Y-77470
X133858Y-98806
X139326Y-86106
X142240Y-82804
X142748Y-105918
X143256Y-82804
X144272Y-82804
X145288Y-82804
X146304Y-82804
X147320Y-82804
X148336Y-96012
X148336Y-97028
X149098Y-128270
X149352Y-96012
X149352Y-97028
X150114Y-128270
X151130Y-71120
X151130Y-72390
X151130Y-76200
X151130Y-78740
X151130Y-128270
X152146Y-128270
X153162Y-128270
X159004Y-66294
X159004Y-67310
X159004Y-68326
X164632Y-92964
X166370Y-63246
X166370Y-64262
X167386Y-63246
X167386Y-64262
X167386Y-102616
X168656Y-94488
X169672Y-81280
X169672Y-82296
X170688Y-60706
X170688Y-81280
X170688Y-82296
X171704Y-60706
X172720Y-60706
X173990Y-70104
X175260Y-60198
X175260Y-61214
X175768Y-94488
X176276Y-60198
X176276Y-61214
X177292Y-60198
X177292Y-61214
X179578Y-81280
X179578Y-87376
X180848Y-80010
X180848Y-90678
X181610Y-62230
X181610Y-68834
X182118Y-81280
X182118Y-87376
X182626Y-62230
X182626Y-68834
X182880Y-94488
X183388Y-80010
X183642Y-62230
X183642Y-68834
X184658Y-81280
X184658Y-87376
X185928Y-80010
X187198Y-81280
X187198Y-87376
X189230Y-75438
X189484Y-62484
X189484Y-63500
X189484Y-64516
X189484Y-66548
X189484Y-67564
X189484Y-68580
X189992Y-94488
X190246Y-75438
X190246Y-82550
X190500Y-62484
X190500Y-63500
X190500Y-64516
X190500Y-66548
X190500Y-67564
X190500Y-68580
X191262Y-82550
X191516Y-62484
X191516Y-63500
X191516Y-64516
X191516Y-66548
X191516Y-67564
X191516Y-68580
T2
X157734Y-64008
X160274Y-64008
X162814Y-64008
X143764Y-108204
X146304Y-108204
X143764Y-112776
X146304Y-112776
T3
X165354Y-107950
X169164Y-107950
X172974Y-107950
X101854Y-107950
X105664Y-107950
X109474Y-107950
X180594Y-107950
X184404Y-107950
X188214Y-107950
X101854Y-123444
X105664Y-123444
X109474Y-123444
X180594Y-123444
X184404Y-123444
X188214Y-123444
X165354Y-123444
X169164Y-123444
X172974Y-123444
X117094Y-123444
X120904Y-123444
X124714Y-123444
X117094Y-107950
X120904Y-107950
X124714Y-107950
T4
X153162Y-115824
X158242Y-115824
X130810Y-115824
X135890Y-115824
T0
M30
