G04 #@! TF.GenerationSoftware,KiCad,Pcbnew,(5.1.6)-1*
G04 #@! TF.CreationDate,2020-11-07T12:23:27+01:00*
G04 #@! TF.ProjectId,8-DI-ESP32-PCB,382d4449-2d45-4535-9033-322d5043422e,rev?*
G04 #@! TF.SameCoordinates,Original*
G04 #@! TF.FileFunction,Soldermask,Top*
G04 #@! TF.FilePolarity,Negative*
%FSLAX46Y46*%
G04 Gerber Fmt 4.6, Leading zero omitted, Abs format (unit mm)*
G04 Created by KiCad (PCBNEW (5.1.6)-1) date 2020-11-07 12:23:27*
%MOMM*%
%LPD*%
G01*
G04 APERTURE LIST*
%ADD10O,1.800000X1.800000*%
%ADD11R,1.800000X1.800000*%
%ADD12R,1.649400X1.090600*%
%ADD13R,1.200000X1.200000*%
%ADD14C,2.200000*%
%ADD15R,2.200000X2.200000*%
%ADD16R,2.100000X1.600000*%
%ADD17R,2.100000X3.900000*%
%ADD18R,0.900000X1.400000*%
%ADD19C,2.500000*%
%ADD20R,2.500000X2.500000*%
%ADD21R,1.100000X1.100000*%
G04 APERTURE END LIST*
D10*
X162814000Y-64008000D03*
X160274000Y-64008000D03*
D11*
X157734000Y-64008000D03*
D12*
X114808000Y-63094002D03*
X114808000Y-66294000D03*
X109557998Y-66294000D03*
X109557998Y-63094002D03*
X106426000Y-63094002D03*
X106426000Y-66294000D03*
X101175998Y-66294000D03*
X101175998Y-63094002D03*
D13*
X158496000Y-105410000D03*
X158496000Y-102610000D03*
X137668000Y-105410000D03*
X137668000Y-102610000D03*
G36*
G01*
X153012544Y-104647500D02*
X154327456Y-104647500D01*
G75*
G02*
X154595000Y-104915044I0J-267544D01*
G01*
X154595000Y-105904956D01*
G75*
G02*
X154327456Y-106172500I-267544J0D01*
G01*
X153012544Y-106172500D01*
G75*
G02*
X152745000Y-105904956I0J267544D01*
G01*
X152745000Y-104915044D01*
G75*
G02*
X153012544Y-104647500I267544J0D01*
G01*
G37*
G36*
G01*
X153012544Y-101672500D02*
X154327456Y-101672500D01*
G75*
G02*
X154595000Y-101940044I0J-267544D01*
G01*
X154595000Y-102929956D01*
G75*
G02*
X154327456Y-103197500I-267544J0D01*
G01*
X153012544Y-103197500D01*
G75*
G02*
X152745000Y-102929956I0J267544D01*
G01*
X152745000Y-101940044D01*
G75*
G02*
X153012544Y-101672500I267544J0D01*
G01*
G37*
G36*
G01*
X132184544Y-104647500D02*
X133499456Y-104647500D01*
G75*
G02*
X133767000Y-104915044I0J-267544D01*
G01*
X133767000Y-105904956D01*
G75*
G02*
X133499456Y-106172500I-267544J0D01*
G01*
X132184544Y-106172500D01*
G75*
G02*
X131917000Y-105904956I0J267544D01*
G01*
X131917000Y-104915044D01*
G75*
G02*
X132184544Y-104647500I267544J0D01*
G01*
G37*
G36*
G01*
X132184544Y-101672500D02*
X133499456Y-101672500D01*
G75*
G02*
X133767000Y-101940044I0J-267544D01*
G01*
X133767000Y-102929956D01*
G75*
G02*
X133499456Y-103197500I-267544J0D01*
G01*
X132184544Y-103197500D01*
G75*
G02*
X131917000Y-102929956I0J267544D01*
G01*
X131917000Y-101940044D01*
G75*
G02*
X132184544Y-101672500I267544J0D01*
G01*
G37*
D14*
X188214000Y-107950000D03*
X184404000Y-107950000D03*
D15*
X180594000Y-107950000D03*
D16*
X176276000Y-63232000D03*
X176276000Y-67832000D03*
X176276000Y-65532000D03*
D17*
X182576000Y-65532000D03*
G36*
G01*
X141468000Y-79001000D02*
X141468000Y-75431000D01*
G75*
G02*
X142233000Y-74666000I765000J0D01*
G01*
X145803000Y-74666000D01*
G75*
G02*
X146568000Y-75431000I0J-765000D01*
G01*
X146568000Y-79001000D01*
G75*
G02*
X145803000Y-79766000I-765000J0D01*
G01*
X142233000Y-79766000D01*
G75*
G02*
X141468000Y-79001000I0J765000D01*
G01*
G37*
G36*
G01*
X152468000Y-70066000D02*
X152468000Y-69366000D01*
G75*
G02*
X152618000Y-69216000I150000J0D01*
G01*
X154918000Y-69216000D01*
G75*
G02*
X155068000Y-69366000I0J-150000D01*
G01*
X155068000Y-70066000D01*
G75*
G02*
X154918000Y-70216000I-150000J0D01*
G01*
X152618000Y-70216000D01*
G75*
G02*
X152468000Y-70066000I0J150000D01*
G01*
G37*
G36*
G01*
X152468000Y-71336000D02*
X152468000Y-70636000D01*
G75*
G02*
X152618000Y-70486000I150000J0D01*
G01*
X154918000Y-70486000D01*
G75*
G02*
X155068000Y-70636000I0J-150000D01*
G01*
X155068000Y-71336000D01*
G75*
G02*
X154918000Y-71486000I-150000J0D01*
G01*
X152618000Y-71486000D01*
G75*
G02*
X152468000Y-71336000I0J150000D01*
G01*
G37*
G36*
G01*
X152468000Y-72606000D02*
X152468000Y-71906000D01*
G75*
G02*
X152618000Y-71756000I150000J0D01*
G01*
X154918000Y-71756000D01*
G75*
G02*
X155068000Y-71906000I0J-150000D01*
G01*
X155068000Y-72606000D01*
G75*
G02*
X154918000Y-72756000I-150000J0D01*
G01*
X152618000Y-72756000D01*
G75*
G02*
X152468000Y-72606000I0J150000D01*
G01*
G37*
G36*
G01*
X152468000Y-73876000D02*
X152468000Y-73176000D01*
G75*
G02*
X152618000Y-73026000I150000J0D01*
G01*
X154918000Y-73026000D01*
G75*
G02*
X155068000Y-73176000I0J-150000D01*
G01*
X155068000Y-73876000D01*
G75*
G02*
X154918000Y-74026000I-150000J0D01*
G01*
X152618000Y-74026000D01*
G75*
G02*
X152468000Y-73876000I0J150000D01*
G01*
G37*
G36*
G01*
X152468000Y-75146000D02*
X152468000Y-74446000D01*
G75*
G02*
X152618000Y-74296000I150000J0D01*
G01*
X154918000Y-74296000D01*
G75*
G02*
X155068000Y-74446000I0J-150000D01*
G01*
X155068000Y-75146000D01*
G75*
G02*
X154918000Y-75296000I-150000J0D01*
G01*
X152618000Y-75296000D01*
G75*
G02*
X152468000Y-75146000I0J150000D01*
G01*
G37*
G36*
G01*
X152468000Y-76416000D02*
X152468000Y-75716000D01*
G75*
G02*
X152618000Y-75566000I150000J0D01*
G01*
X154918000Y-75566000D01*
G75*
G02*
X155068000Y-75716000I0J-150000D01*
G01*
X155068000Y-76416000D01*
G75*
G02*
X154918000Y-76566000I-150000J0D01*
G01*
X152618000Y-76566000D01*
G75*
G02*
X152468000Y-76416000I0J150000D01*
G01*
G37*
G36*
G01*
X152468000Y-77686000D02*
X152468000Y-76986000D01*
G75*
G02*
X152618000Y-76836000I150000J0D01*
G01*
X154918000Y-76836000D01*
G75*
G02*
X155068000Y-76986000I0J-150000D01*
G01*
X155068000Y-77686000D01*
G75*
G02*
X154918000Y-77836000I-150000J0D01*
G01*
X152618000Y-77836000D01*
G75*
G02*
X152468000Y-77686000I0J150000D01*
G01*
G37*
G36*
G01*
X152468000Y-78956000D02*
X152468000Y-78256000D01*
G75*
G02*
X152618000Y-78106000I150000J0D01*
G01*
X154918000Y-78106000D01*
G75*
G02*
X155068000Y-78256000I0J-150000D01*
G01*
X155068000Y-78956000D01*
G75*
G02*
X154918000Y-79106000I-150000J0D01*
G01*
X152618000Y-79106000D01*
G75*
G02*
X152468000Y-78956000I0J150000D01*
G01*
G37*
G36*
G01*
X152468000Y-80226000D02*
X152468000Y-79526000D01*
G75*
G02*
X152618000Y-79376000I150000J0D01*
G01*
X154918000Y-79376000D01*
G75*
G02*
X155068000Y-79526000I0J-150000D01*
G01*
X155068000Y-80226000D01*
G75*
G02*
X154918000Y-80376000I-150000J0D01*
G01*
X152618000Y-80376000D01*
G75*
G02*
X152468000Y-80226000I0J150000D01*
G01*
G37*
G36*
G01*
X152468000Y-81496000D02*
X152468000Y-80796000D01*
G75*
G02*
X152618000Y-80646000I150000J0D01*
G01*
X154918000Y-80646000D01*
G75*
G02*
X155068000Y-80796000I0J-150000D01*
G01*
X155068000Y-81496000D01*
G75*
G02*
X154918000Y-81646000I-150000J0D01*
G01*
X152618000Y-81646000D01*
G75*
G02*
X152468000Y-81496000I0J150000D01*
G01*
G37*
G36*
G01*
X152468000Y-82766000D02*
X152468000Y-82066000D01*
G75*
G02*
X152618000Y-81916000I150000J0D01*
G01*
X154918000Y-81916000D01*
G75*
G02*
X155068000Y-82066000I0J-150000D01*
G01*
X155068000Y-82766000D01*
G75*
G02*
X154918000Y-82916000I-150000J0D01*
G01*
X152618000Y-82916000D01*
G75*
G02*
X152468000Y-82766000I0J150000D01*
G01*
G37*
G36*
G01*
X152468000Y-84036000D02*
X152468000Y-83336000D01*
G75*
G02*
X152618000Y-83186000I150000J0D01*
G01*
X154918000Y-83186000D01*
G75*
G02*
X155068000Y-83336000I0J-150000D01*
G01*
X155068000Y-84036000D01*
G75*
G02*
X154918000Y-84186000I-150000J0D01*
G01*
X152618000Y-84186000D01*
G75*
G02*
X152468000Y-84036000I0J150000D01*
G01*
G37*
G36*
G01*
X152468000Y-85306000D02*
X152468000Y-84606000D01*
G75*
G02*
X152618000Y-84456000I150000J0D01*
G01*
X154918000Y-84456000D01*
G75*
G02*
X155068000Y-84606000I0J-150000D01*
G01*
X155068000Y-85306000D01*
G75*
G02*
X154918000Y-85456000I-150000J0D01*
G01*
X152618000Y-85456000D01*
G75*
G02*
X152468000Y-85306000I0J150000D01*
G01*
G37*
G36*
G01*
X152468000Y-86576000D02*
X152468000Y-85876000D01*
G75*
G02*
X152618000Y-85726000I150000J0D01*
G01*
X154918000Y-85726000D01*
G75*
G02*
X155068000Y-85876000I0J-150000D01*
G01*
X155068000Y-86576000D01*
G75*
G02*
X154918000Y-86726000I-150000J0D01*
G01*
X152618000Y-86726000D01*
G75*
G02*
X152468000Y-86576000I0J150000D01*
G01*
G37*
G36*
G01*
X152468000Y-87846000D02*
X152468000Y-87146000D01*
G75*
G02*
X152618000Y-86996000I150000J0D01*
G01*
X154918000Y-86996000D01*
G75*
G02*
X155068000Y-87146000I0J-150000D01*
G01*
X155068000Y-87846000D01*
G75*
G02*
X154918000Y-87996000I-150000J0D01*
G01*
X152618000Y-87996000D01*
G75*
G02*
X152468000Y-87846000I0J150000D01*
G01*
G37*
G36*
G01*
X152468000Y-89116000D02*
X152468000Y-88416000D01*
G75*
G02*
X152618000Y-88266000I150000J0D01*
G01*
X154918000Y-88266000D01*
G75*
G02*
X155068000Y-88416000I0J-150000D01*
G01*
X155068000Y-89116000D01*
G75*
G02*
X154918000Y-89266000I-150000J0D01*
G01*
X152618000Y-89266000D01*
G75*
G02*
X152468000Y-89116000I0J150000D01*
G01*
G37*
G36*
G01*
X152468000Y-90386000D02*
X152468000Y-89686000D01*
G75*
G02*
X152618000Y-89536000I150000J0D01*
G01*
X154918000Y-89536000D01*
G75*
G02*
X155068000Y-89686000I0J-150000D01*
G01*
X155068000Y-90386000D01*
G75*
G02*
X154918000Y-90536000I-150000J0D01*
G01*
X152618000Y-90536000D01*
G75*
G02*
X152468000Y-90386000I0J150000D01*
G01*
G37*
G36*
G01*
X152468000Y-91656000D02*
X152468000Y-90956000D01*
G75*
G02*
X152618000Y-90806000I150000J0D01*
G01*
X154918000Y-90806000D01*
G75*
G02*
X155068000Y-90956000I0J-150000D01*
G01*
X155068000Y-91656000D01*
G75*
G02*
X154918000Y-91806000I-150000J0D01*
G01*
X152618000Y-91806000D01*
G75*
G02*
X152468000Y-91656000I0J150000D01*
G01*
G37*
G36*
G01*
X152468000Y-92926000D02*
X152468000Y-92226000D01*
G75*
G02*
X152618000Y-92076000I150000J0D01*
G01*
X154918000Y-92076000D01*
G75*
G02*
X155068000Y-92226000I0J-150000D01*
G01*
X155068000Y-92926000D01*
G75*
G02*
X154918000Y-93076000I-150000J0D01*
G01*
X152618000Y-93076000D01*
G75*
G02*
X152468000Y-92926000I0J150000D01*
G01*
G37*
G36*
G01*
X134968000Y-70066000D02*
X134968000Y-69366000D01*
G75*
G02*
X135118000Y-69216000I150000J0D01*
G01*
X137418000Y-69216000D01*
G75*
G02*
X137568000Y-69366000I0J-150000D01*
G01*
X137568000Y-70066000D01*
G75*
G02*
X137418000Y-70216000I-150000J0D01*
G01*
X135118000Y-70216000D01*
G75*
G02*
X134968000Y-70066000I0J150000D01*
G01*
G37*
G36*
G01*
X134968000Y-71336000D02*
X134968000Y-70636000D01*
G75*
G02*
X135118000Y-70486000I150000J0D01*
G01*
X137418000Y-70486000D01*
G75*
G02*
X137568000Y-70636000I0J-150000D01*
G01*
X137568000Y-71336000D01*
G75*
G02*
X137418000Y-71486000I-150000J0D01*
G01*
X135118000Y-71486000D01*
G75*
G02*
X134968000Y-71336000I0J150000D01*
G01*
G37*
G36*
G01*
X134968000Y-72606000D02*
X134968000Y-71906000D01*
G75*
G02*
X135118000Y-71756000I150000J0D01*
G01*
X137418000Y-71756000D01*
G75*
G02*
X137568000Y-71906000I0J-150000D01*
G01*
X137568000Y-72606000D01*
G75*
G02*
X137418000Y-72756000I-150000J0D01*
G01*
X135118000Y-72756000D01*
G75*
G02*
X134968000Y-72606000I0J150000D01*
G01*
G37*
G36*
G01*
X134968000Y-73876000D02*
X134968000Y-73176000D01*
G75*
G02*
X135118000Y-73026000I150000J0D01*
G01*
X137418000Y-73026000D01*
G75*
G02*
X137568000Y-73176000I0J-150000D01*
G01*
X137568000Y-73876000D01*
G75*
G02*
X137418000Y-74026000I-150000J0D01*
G01*
X135118000Y-74026000D01*
G75*
G02*
X134968000Y-73876000I0J150000D01*
G01*
G37*
G36*
G01*
X134968000Y-75146000D02*
X134968000Y-74446000D01*
G75*
G02*
X135118000Y-74296000I150000J0D01*
G01*
X137418000Y-74296000D01*
G75*
G02*
X137568000Y-74446000I0J-150000D01*
G01*
X137568000Y-75146000D01*
G75*
G02*
X137418000Y-75296000I-150000J0D01*
G01*
X135118000Y-75296000D01*
G75*
G02*
X134968000Y-75146000I0J150000D01*
G01*
G37*
G36*
G01*
X134968000Y-76416000D02*
X134968000Y-75716000D01*
G75*
G02*
X135118000Y-75566000I150000J0D01*
G01*
X137418000Y-75566000D01*
G75*
G02*
X137568000Y-75716000I0J-150000D01*
G01*
X137568000Y-76416000D01*
G75*
G02*
X137418000Y-76566000I-150000J0D01*
G01*
X135118000Y-76566000D01*
G75*
G02*
X134968000Y-76416000I0J150000D01*
G01*
G37*
G36*
G01*
X134968000Y-77686000D02*
X134968000Y-76986000D01*
G75*
G02*
X135118000Y-76836000I150000J0D01*
G01*
X137418000Y-76836000D01*
G75*
G02*
X137568000Y-76986000I0J-150000D01*
G01*
X137568000Y-77686000D01*
G75*
G02*
X137418000Y-77836000I-150000J0D01*
G01*
X135118000Y-77836000D01*
G75*
G02*
X134968000Y-77686000I0J150000D01*
G01*
G37*
G36*
G01*
X134968000Y-78956000D02*
X134968000Y-78256000D01*
G75*
G02*
X135118000Y-78106000I150000J0D01*
G01*
X137418000Y-78106000D01*
G75*
G02*
X137568000Y-78256000I0J-150000D01*
G01*
X137568000Y-78956000D01*
G75*
G02*
X137418000Y-79106000I-150000J0D01*
G01*
X135118000Y-79106000D01*
G75*
G02*
X134968000Y-78956000I0J150000D01*
G01*
G37*
G36*
G01*
X134968000Y-80226000D02*
X134968000Y-79526000D01*
G75*
G02*
X135118000Y-79376000I150000J0D01*
G01*
X137418000Y-79376000D01*
G75*
G02*
X137568000Y-79526000I0J-150000D01*
G01*
X137568000Y-80226000D01*
G75*
G02*
X137418000Y-80376000I-150000J0D01*
G01*
X135118000Y-80376000D01*
G75*
G02*
X134968000Y-80226000I0J150000D01*
G01*
G37*
G36*
G01*
X134968000Y-81496000D02*
X134968000Y-80796000D01*
G75*
G02*
X135118000Y-80646000I150000J0D01*
G01*
X137418000Y-80646000D01*
G75*
G02*
X137568000Y-80796000I0J-150000D01*
G01*
X137568000Y-81496000D01*
G75*
G02*
X137418000Y-81646000I-150000J0D01*
G01*
X135118000Y-81646000D01*
G75*
G02*
X134968000Y-81496000I0J150000D01*
G01*
G37*
G36*
G01*
X134968000Y-82766000D02*
X134968000Y-82066000D01*
G75*
G02*
X135118000Y-81916000I150000J0D01*
G01*
X137418000Y-81916000D01*
G75*
G02*
X137568000Y-82066000I0J-150000D01*
G01*
X137568000Y-82766000D01*
G75*
G02*
X137418000Y-82916000I-150000J0D01*
G01*
X135118000Y-82916000D01*
G75*
G02*
X134968000Y-82766000I0J150000D01*
G01*
G37*
G36*
G01*
X134968000Y-84036000D02*
X134968000Y-83336000D01*
G75*
G02*
X135118000Y-83186000I150000J0D01*
G01*
X137418000Y-83186000D01*
G75*
G02*
X137568000Y-83336000I0J-150000D01*
G01*
X137568000Y-84036000D01*
G75*
G02*
X137418000Y-84186000I-150000J0D01*
G01*
X135118000Y-84186000D01*
G75*
G02*
X134968000Y-84036000I0J150000D01*
G01*
G37*
G36*
G01*
X134968000Y-85306000D02*
X134968000Y-84606000D01*
G75*
G02*
X135118000Y-84456000I150000J0D01*
G01*
X137418000Y-84456000D01*
G75*
G02*
X137568000Y-84606000I0J-150000D01*
G01*
X137568000Y-85306000D01*
G75*
G02*
X137418000Y-85456000I-150000J0D01*
G01*
X135118000Y-85456000D01*
G75*
G02*
X134968000Y-85306000I0J150000D01*
G01*
G37*
G36*
G01*
X134968000Y-86576000D02*
X134968000Y-85876000D01*
G75*
G02*
X135118000Y-85726000I150000J0D01*
G01*
X137418000Y-85726000D01*
G75*
G02*
X137568000Y-85876000I0J-150000D01*
G01*
X137568000Y-86576000D01*
G75*
G02*
X137418000Y-86726000I-150000J0D01*
G01*
X135118000Y-86726000D01*
G75*
G02*
X134968000Y-86576000I0J150000D01*
G01*
G37*
G36*
G01*
X134968000Y-87846000D02*
X134968000Y-87146000D01*
G75*
G02*
X135118000Y-86996000I150000J0D01*
G01*
X137418000Y-86996000D01*
G75*
G02*
X137568000Y-87146000I0J-150000D01*
G01*
X137568000Y-87846000D01*
G75*
G02*
X137418000Y-87996000I-150000J0D01*
G01*
X135118000Y-87996000D01*
G75*
G02*
X134968000Y-87846000I0J150000D01*
G01*
G37*
G36*
G01*
X134968000Y-89116000D02*
X134968000Y-88416000D01*
G75*
G02*
X135118000Y-88266000I150000J0D01*
G01*
X137418000Y-88266000D01*
G75*
G02*
X137568000Y-88416000I0J-150000D01*
G01*
X137568000Y-89116000D01*
G75*
G02*
X137418000Y-89266000I-150000J0D01*
G01*
X135118000Y-89266000D01*
G75*
G02*
X134968000Y-89116000I0J150000D01*
G01*
G37*
G36*
G01*
X134968000Y-90386000D02*
X134968000Y-89686000D01*
G75*
G02*
X135118000Y-89536000I150000J0D01*
G01*
X137418000Y-89536000D01*
G75*
G02*
X137568000Y-89686000I0J-150000D01*
G01*
X137568000Y-90386000D01*
G75*
G02*
X137418000Y-90536000I-150000J0D01*
G01*
X135118000Y-90536000D01*
G75*
G02*
X134968000Y-90386000I0J150000D01*
G01*
G37*
G36*
G01*
X134968000Y-91656000D02*
X134968000Y-90956000D01*
G75*
G02*
X135118000Y-90806000I150000J0D01*
G01*
X137418000Y-90806000D01*
G75*
G02*
X137568000Y-90956000I0J-150000D01*
G01*
X137568000Y-91656000D01*
G75*
G02*
X137418000Y-91806000I-150000J0D01*
G01*
X135118000Y-91806000D01*
G75*
G02*
X134968000Y-91656000I0J150000D01*
G01*
G37*
G36*
G01*
X134968000Y-92926000D02*
X134968000Y-92226000D01*
G75*
G02*
X135118000Y-92076000I150000J0D01*
G01*
X137418000Y-92076000D01*
G75*
G02*
X137568000Y-92226000I0J-150000D01*
G01*
X137568000Y-92926000D01*
G75*
G02*
X137418000Y-93076000I-150000J0D01*
G01*
X135118000Y-93076000D01*
G75*
G02*
X134968000Y-92926000I0J150000D01*
G01*
G37*
D18*
X179578000Y-82600000D03*
X180858000Y-82600000D03*
X182118000Y-82600000D03*
X183388000Y-82600000D03*
X184668000Y-82600000D03*
X185938000Y-82600000D03*
X187198000Y-82600000D03*
X188478000Y-82600000D03*
X188478000Y-88900000D03*
X187198000Y-88900000D03*
X185938000Y-88900000D03*
X184668000Y-88900000D03*
X183388000Y-88900000D03*
X182118000Y-88900000D03*
X180858000Y-88900000D03*
X179578000Y-88900000D03*
X101600000Y-82600000D03*
X102880000Y-82600000D03*
X104140000Y-82600000D03*
X105410000Y-82600000D03*
X106690000Y-82600000D03*
X107960000Y-82600000D03*
X109220000Y-82600000D03*
X110500000Y-82600000D03*
X110500000Y-88900000D03*
X109220000Y-88900000D03*
X107960000Y-88900000D03*
X106690000Y-88900000D03*
X105410000Y-88900000D03*
X104140000Y-88900000D03*
X102880000Y-88900000D03*
X101600000Y-88900000D03*
G36*
G01*
X171856500Y-71582544D02*
X171856500Y-72897456D01*
G75*
G02*
X171588956Y-73165000I-267544J0D01*
G01*
X170599044Y-73165000D01*
G75*
G02*
X170331500Y-72897456I0J267544D01*
G01*
X170331500Y-71582544D01*
G75*
G02*
X170599044Y-71315000I267544J0D01*
G01*
X171588956Y-71315000D01*
G75*
G02*
X171856500Y-71582544I0J-267544D01*
G01*
G37*
G36*
G01*
X174831500Y-71582544D02*
X174831500Y-72897456D01*
G75*
G02*
X174563956Y-73165000I-267544J0D01*
G01*
X173574044Y-73165000D01*
G75*
G02*
X173306500Y-72897456I0J267544D01*
G01*
X173306500Y-71582544D01*
G75*
G02*
X173574044Y-71315000I267544J0D01*
G01*
X174563956Y-71315000D01*
G75*
G02*
X174831500Y-71582544I0J-267544D01*
G01*
G37*
G36*
G01*
X142170544Y-98281500D02*
X143485456Y-98281500D01*
G75*
G02*
X143753000Y-98549044I0J-267544D01*
G01*
X143753000Y-99538956D01*
G75*
G02*
X143485456Y-99806500I-267544J0D01*
G01*
X142170544Y-99806500D01*
G75*
G02*
X141903000Y-99538956I0J267544D01*
G01*
X141903000Y-98549044D01*
G75*
G02*
X142170544Y-98281500I267544J0D01*
G01*
G37*
G36*
G01*
X142170544Y-95306500D02*
X143485456Y-95306500D01*
G75*
G02*
X143753000Y-95574044I0J-267544D01*
G01*
X143753000Y-96563956D01*
G75*
G02*
X143485456Y-96831500I-267544J0D01*
G01*
X142170544Y-96831500D01*
G75*
G02*
X141903000Y-96563956I0J267544D01*
G01*
X141903000Y-95574044D01*
G75*
G02*
X142170544Y-95306500I267544J0D01*
G01*
G37*
G36*
G01*
X122278544Y-66293500D02*
X123593456Y-66293500D01*
G75*
G02*
X123861000Y-66561044I0J-267544D01*
G01*
X123861000Y-67550956D01*
G75*
G02*
X123593456Y-67818500I-267544J0D01*
G01*
X122278544Y-67818500D01*
G75*
G02*
X122011000Y-67550956I0J267544D01*
G01*
X122011000Y-66561044D01*
G75*
G02*
X122278544Y-66293500I267544J0D01*
G01*
G37*
G36*
G01*
X122278544Y-63318500D02*
X123593456Y-63318500D01*
G75*
G02*
X123861000Y-63586044I0J-267544D01*
G01*
X123861000Y-64575956D01*
G75*
G02*
X123593456Y-64843500I-267544J0D01*
G01*
X122278544Y-64843500D01*
G75*
G02*
X122011000Y-64575956I0J267544D01*
G01*
X122011000Y-63586044D01*
G75*
G02*
X122278544Y-63318500I267544J0D01*
G01*
G37*
G36*
G01*
X186540544Y-77723500D02*
X187855456Y-77723500D01*
G75*
G02*
X188123000Y-77991044I0J-267544D01*
G01*
X188123000Y-78980956D01*
G75*
G02*
X187855456Y-79248500I-267544J0D01*
G01*
X186540544Y-79248500D01*
G75*
G02*
X186273000Y-78980956I0J267544D01*
G01*
X186273000Y-77991044D01*
G75*
G02*
X186540544Y-77723500I267544J0D01*
G01*
G37*
G36*
G01*
X186540544Y-74748500D02*
X187855456Y-74748500D01*
G75*
G02*
X188123000Y-75016044I0J-267544D01*
G01*
X188123000Y-76005956D01*
G75*
G02*
X187855456Y-76273500I-267544J0D01*
G01*
X186540544Y-76273500D01*
G75*
G02*
X186273000Y-76005956I0J267544D01*
G01*
X186273000Y-75016044D01*
G75*
G02*
X186540544Y-74748500I267544J0D01*
G01*
G37*
G36*
G01*
X184000544Y-77723500D02*
X185315456Y-77723500D01*
G75*
G02*
X185583000Y-77991044I0J-267544D01*
G01*
X185583000Y-78980956D01*
G75*
G02*
X185315456Y-79248500I-267544J0D01*
G01*
X184000544Y-79248500D01*
G75*
G02*
X183733000Y-78980956I0J267544D01*
G01*
X183733000Y-77991044D01*
G75*
G02*
X184000544Y-77723500I267544J0D01*
G01*
G37*
G36*
G01*
X184000544Y-74748500D02*
X185315456Y-74748500D01*
G75*
G02*
X185583000Y-75016044I0J-267544D01*
G01*
X185583000Y-76005956D01*
G75*
G02*
X185315456Y-76273500I-267544J0D01*
G01*
X184000544Y-76273500D01*
G75*
G02*
X183733000Y-76005956I0J267544D01*
G01*
X183733000Y-75016044D01*
G75*
G02*
X184000544Y-74748500I267544J0D01*
G01*
G37*
G36*
G01*
X181460544Y-77723500D02*
X182775456Y-77723500D01*
G75*
G02*
X183043000Y-77991044I0J-267544D01*
G01*
X183043000Y-78980956D01*
G75*
G02*
X182775456Y-79248500I-267544J0D01*
G01*
X181460544Y-79248500D01*
G75*
G02*
X181193000Y-78980956I0J267544D01*
G01*
X181193000Y-77991044D01*
G75*
G02*
X181460544Y-77723500I267544J0D01*
G01*
G37*
G36*
G01*
X181460544Y-74748500D02*
X182775456Y-74748500D01*
G75*
G02*
X183043000Y-75016044I0J-267544D01*
G01*
X183043000Y-76005956D01*
G75*
G02*
X182775456Y-76273500I-267544J0D01*
G01*
X181460544Y-76273500D01*
G75*
G02*
X181193000Y-76005956I0J267544D01*
G01*
X181193000Y-75016044D01*
G75*
G02*
X181460544Y-74748500I267544J0D01*
G01*
G37*
G36*
G01*
X178920544Y-77723500D02*
X180235456Y-77723500D01*
G75*
G02*
X180503000Y-77991044I0J-267544D01*
G01*
X180503000Y-78980956D01*
G75*
G02*
X180235456Y-79248500I-267544J0D01*
G01*
X178920544Y-79248500D01*
G75*
G02*
X178653000Y-78980956I0J267544D01*
G01*
X178653000Y-77991044D01*
G75*
G02*
X178920544Y-77723500I267544J0D01*
G01*
G37*
G36*
G01*
X178920544Y-74748500D02*
X180235456Y-74748500D01*
G75*
G02*
X180503000Y-75016044I0J-267544D01*
G01*
X180503000Y-76005956D01*
G75*
G02*
X180235456Y-76273500I-267544J0D01*
G01*
X178920544Y-76273500D01*
G75*
G02*
X178653000Y-76005956I0J267544D01*
G01*
X178653000Y-75016044D01*
G75*
G02*
X178920544Y-74748500I267544J0D01*
G01*
G37*
G36*
G01*
X108562544Y-77687000D02*
X109877456Y-77687000D01*
G75*
G02*
X110145000Y-77954544I0J-267544D01*
G01*
X110145000Y-78944456D01*
G75*
G02*
X109877456Y-79212000I-267544J0D01*
G01*
X108562544Y-79212000D01*
G75*
G02*
X108295000Y-78944456I0J267544D01*
G01*
X108295000Y-77954544D01*
G75*
G02*
X108562544Y-77687000I267544J0D01*
G01*
G37*
G36*
G01*
X108562544Y-74712000D02*
X109877456Y-74712000D01*
G75*
G02*
X110145000Y-74979544I0J-267544D01*
G01*
X110145000Y-75969456D01*
G75*
G02*
X109877456Y-76237000I-267544J0D01*
G01*
X108562544Y-76237000D01*
G75*
G02*
X108295000Y-75969456I0J267544D01*
G01*
X108295000Y-74979544D01*
G75*
G02*
X108562544Y-74712000I267544J0D01*
G01*
G37*
G36*
G01*
X106022544Y-77723500D02*
X107337456Y-77723500D01*
G75*
G02*
X107605000Y-77991044I0J-267544D01*
G01*
X107605000Y-78980956D01*
G75*
G02*
X107337456Y-79248500I-267544J0D01*
G01*
X106022544Y-79248500D01*
G75*
G02*
X105755000Y-78980956I0J267544D01*
G01*
X105755000Y-77991044D01*
G75*
G02*
X106022544Y-77723500I267544J0D01*
G01*
G37*
G36*
G01*
X106022544Y-74748500D02*
X107337456Y-74748500D01*
G75*
G02*
X107605000Y-75016044I0J-267544D01*
G01*
X107605000Y-76005956D01*
G75*
G02*
X107337456Y-76273500I-267544J0D01*
G01*
X106022544Y-76273500D01*
G75*
G02*
X105755000Y-76005956I0J267544D01*
G01*
X105755000Y-75016044D01*
G75*
G02*
X106022544Y-74748500I267544J0D01*
G01*
G37*
G36*
G01*
X103482544Y-77723500D02*
X104797456Y-77723500D01*
G75*
G02*
X105065000Y-77991044I0J-267544D01*
G01*
X105065000Y-78980956D01*
G75*
G02*
X104797456Y-79248500I-267544J0D01*
G01*
X103482544Y-79248500D01*
G75*
G02*
X103215000Y-78980956I0J267544D01*
G01*
X103215000Y-77991044D01*
G75*
G02*
X103482544Y-77723500I267544J0D01*
G01*
G37*
G36*
G01*
X103482544Y-74748500D02*
X104797456Y-74748500D01*
G75*
G02*
X105065000Y-75016044I0J-267544D01*
G01*
X105065000Y-76005956D01*
G75*
G02*
X104797456Y-76273500I-267544J0D01*
G01*
X103482544Y-76273500D01*
G75*
G02*
X103215000Y-76005956I0J267544D01*
G01*
X103215000Y-75016044D01*
G75*
G02*
X103482544Y-74748500I267544J0D01*
G01*
G37*
G36*
G01*
X100942544Y-77723500D02*
X102257456Y-77723500D01*
G75*
G02*
X102525000Y-77991044I0J-267544D01*
G01*
X102525000Y-78980956D01*
G75*
G02*
X102257456Y-79248500I-267544J0D01*
G01*
X100942544Y-79248500D01*
G75*
G02*
X100675000Y-78980956I0J267544D01*
G01*
X100675000Y-77991044D01*
G75*
G02*
X100942544Y-77723500I267544J0D01*
G01*
G37*
G36*
G01*
X100942544Y-74748500D02*
X102257456Y-74748500D01*
G75*
G02*
X102525000Y-75016044I0J-267544D01*
G01*
X102525000Y-76005956D01*
G75*
G02*
X102257456Y-76273500I-267544J0D01*
G01*
X100942544Y-76273500D01*
G75*
G02*
X100675000Y-76005956I0J267544D01*
G01*
X100675000Y-75016044D01*
G75*
G02*
X100942544Y-74748500I267544J0D01*
G01*
G37*
G36*
G01*
X187959500Y-98193456D02*
X187959500Y-96878544D01*
G75*
G02*
X188227044Y-96611000I267544J0D01*
G01*
X189216956Y-96611000D01*
G75*
G02*
X189484500Y-96878544I0J-267544D01*
G01*
X189484500Y-98193456D01*
G75*
G02*
X189216956Y-98461000I-267544J0D01*
G01*
X188227044Y-98461000D01*
G75*
G02*
X187959500Y-98193456I0J267544D01*
G01*
G37*
G36*
G01*
X184984500Y-98193456D02*
X184984500Y-96878544D01*
G75*
G02*
X185252044Y-96611000I267544J0D01*
G01*
X186241956Y-96611000D01*
G75*
G02*
X186509500Y-96878544I0J-267544D01*
G01*
X186509500Y-98193456D01*
G75*
G02*
X186241956Y-98461000I-267544J0D01*
G01*
X185252044Y-98461000D01*
G75*
G02*
X184984500Y-98193456I0J267544D01*
G01*
G37*
G36*
G01*
X180847500Y-98193456D02*
X180847500Y-96878544D01*
G75*
G02*
X181115044Y-96611000I267544J0D01*
G01*
X182104956Y-96611000D01*
G75*
G02*
X182372500Y-96878544I0J-267544D01*
G01*
X182372500Y-98193456D01*
G75*
G02*
X182104956Y-98461000I-267544J0D01*
G01*
X181115044Y-98461000D01*
G75*
G02*
X180847500Y-98193456I0J267544D01*
G01*
G37*
G36*
G01*
X177872500Y-98193456D02*
X177872500Y-96878544D01*
G75*
G02*
X178140044Y-96611000I267544J0D01*
G01*
X179129956Y-96611000D01*
G75*
G02*
X179397500Y-96878544I0J-267544D01*
G01*
X179397500Y-98193456D01*
G75*
G02*
X179129956Y-98461000I-267544J0D01*
G01*
X178140044Y-98461000D01*
G75*
G02*
X177872500Y-98193456I0J267544D01*
G01*
G37*
G36*
G01*
X173735500Y-98193456D02*
X173735500Y-96878544D01*
G75*
G02*
X174003044Y-96611000I267544J0D01*
G01*
X174992956Y-96611000D01*
G75*
G02*
X175260500Y-96878544I0J-267544D01*
G01*
X175260500Y-98193456D01*
G75*
G02*
X174992956Y-98461000I-267544J0D01*
G01*
X174003044Y-98461000D01*
G75*
G02*
X173735500Y-98193456I0J267544D01*
G01*
G37*
G36*
G01*
X170760500Y-98193456D02*
X170760500Y-96878544D01*
G75*
G02*
X171028044Y-96611000I267544J0D01*
G01*
X172017956Y-96611000D01*
G75*
G02*
X172285500Y-96878544I0J-267544D01*
G01*
X172285500Y-98193456D01*
G75*
G02*
X172017956Y-98461000I-267544J0D01*
G01*
X171028044Y-98461000D01*
G75*
G02*
X170760500Y-98193456I0J267544D01*
G01*
G37*
G36*
G01*
X166623500Y-98193456D02*
X166623500Y-96878544D01*
G75*
G02*
X166891044Y-96611000I267544J0D01*
G01*
X167880956Y-96611000D01*
G75*
G02*
X168148500Y-96878544I0J-267544D01*
G01*
X168148500Y-98193456D01*
G75*
G02*
X167880956Y-98461000I-267544J0D01*
G01*
X166891044Y-98461000D01*
G75*
G02*
X166623500Y-98193456I0J267544D01*
G01*
G37*
G36*
G01*
X163648500Y-98193456D02*
X163648500Y-96878544D01*
G75*
G02*
X163916044Y-96611000I267544J0D01*
G01*
X164905956Y-96611000D01*
G75*
G02*
X165173500Y-96878544I0J-267544D01*
G01*
X165173500Y-98193456D01*
G75*
G02*
X164905956Y-98461000I-267544J0D01*
G01*
X163916044Y-98461000D01*
G75*
G02*
X163648500Y-98193456I0J267544D01*
G01*
G37*
G36*
G01*
X124713500Y-98193456D02*
X124713500Y-96878544D01*
G75*
G02*
X124981044Y-96611000I267544J0D01*
G01*
X125970956Y-96611000D01*
G75*
G02*
X126238500Y-96878544I0J-267544D01*
G01*
X126238500Y-98193456D01*
G75*
G02*
X125970956Y-98461000I-267544J0D01*
G01*
X124981044Y-98461000D01*
G75*
G02*
X124713500Y-98193456I0J267544D01*
G01*
G37*
G36*
G01*
X121738500Y-98193456D02*
X121738500Y-96878544D01*
G75*
G02*
X122006044Y-96611000I267544J0D01*
G01*
X122995956Y-96611000D01*
G75*
G02*
X123263500Y-96878544I0J-267544D01*
G01*
X123263500Y-98193456D01*
G75*
G02*
X122995956Y-98461000I-267544J0D01*
G01*
X122006044Y-98461000D01*
G75*
G02*
X121738500Y-98193456I0J267544D01*
G01*
G37*
G36*
G01*
X117601500Y-98193456D02*
X117601500Y-96878544D01*
G75*
G02*
X117869044Y-96611000I267544J0D01*
G01*
X118858956Y-96611000D01*
G75*
G02*
X119126500Y-96878544I0J-267544D01*
G01*
X119126500Y-98193456D01*
G75*
G02*
X118858956Y-98461000I-267544J0D01*
G01*
X117869044Y-98461000D01*
G75*
G02*
X117601500Y-98193456I0J267544D01*
G01*
G37*
G36*
G01*
X114626500Y-98193456D02*
X114626500Y-96878544D01*
G75*
G02*
X114894044Y-96611000I267544J0D01*
G01*
X115883956Y-96611000D01*
G75*
G02*
X116151500Y-96878544I0J-267544D01*
G01*
X116151500Y-98193456D01*
G75*
G02*
X115883956Y-98461000I-267544J0D01*
G01*
X114894044Y-98461000D01*
G75*
G02*
X114626500Y-98193456I0J267544D01*
G01*
G37*
G36*
G01*
X110489500Y-98193456D02*
X110489500Y-96878544D01*
G75*
G02*
X110757044Y-96611000I267544J0D01*
G01*
X111746956Y-96611000D01*
G75*
G02*
X112014500Y-96878544I0J-267544D01*
G01*
X112014500Y-98193456D01*
G75*
G02*
X111746956Y-98461000I-267544J0D01*
G01*
X110757044Y-98461000D01*
G75*
G02*
X110489500Y-98193456I0J267544D01*
G01*
G37*
G36*
G01*
X107514500Y-98193456D02*
X107514500Y-96878544D01*
G75*
G02*
X107782044Y-96611000I267544J0D01*
G01*
X108771956Y-96611000D01*
G75*
G02*
X109039500Y-96878544I0J-267544D01*
G01*
X109039500Y-98193456D01*
G75*
G02*
X108771956Y-98461000I-267544J0D01*
G01*
X107782044Y-98461000D01*
G75*
G02*
X107514500Y-98193456I0J267544D01*
G01*
G37*
G36*
G01*
X103377500Y-98193456D02*
X103377500Y-96878544D01*
G75*
G02*
X103645044Y-96611000I267544J0D01*
G01*
X104634956Y-96611000D01*
G75*
G02*
X104902500Y-96878544I0J-267544D01*
G01*
X104902500Y-98193456D01*
G75*
G02*
X104634956Y-98461000I-267544J0D01*
G01*
X103645044Y-98461000D01*
G75*
G02*
X103377500Y-98193456I0J267544D01*
G01*
G37*
G36*
G01*
X100402500Y-98193456D02*
X100402500Y-96878544D01*
G75*
G02*
X100670044Y-96611000I267544J0D01*
G01*
X101659956Y-96611000D01*
G75*
G02*
X101927500Y-96878544I0J-267544D01*
G01*
X101927500Y-98193456D01*
G75*
G02*
X101659956Y-98461000I-267544J0D01*
G01*
X100670044Y-98461000D01*
G75*
G02*
X100402500Y-98193456I0J267544D01*
G01*
G37*
D10*
X146304000Y-112776000D03*
D11*
X143764000Y-112776000D03*
D10*
X146304000Y-108204000D03*
D11*
X143764000Y-108204000D03*
D19*
X158242000Y-115824000D03*
D20*
X153162000Y-115824000D03*
D19*
X135890000Y-115824000D03*
D20*
X130810000Y-115824000D03*
D14*
X188214000Y-123444000D03*
X184404000Y-123444000D03*
D15*
X180594000Y-123444000D03*
D14*
X172974000Y-107950000D03*
X169164000Y-107950000D03*
D15*
X165354000Y-107950000D03*
D14*
X172974000Y-123444000D03*
X169164000Y-123444000D03*
D15*
X165354000Y-123444000D03*
D14*
X124714000Y-107950000D03*
X120904000Y-107950000D03*
D15*
X117094000Y-107950000D03*
D14*
X124714000Y-123444000D03*
X120904000Y-123444000D03*
D15*
X117094000Y-123444000D03*
D14*
X109474000Y-107950000D03*
X105664000Y-107950000D03*
D15*
X101854000Y-107950000D03*
D14*
X109474000Y-123444000D03*
X105664000Y-123444000D03*
D15*
X101854000Y-123444000D03*
G36*
G01*
X168133000Y-72895000D02*
X168133000Y-71585000D01*
G75*
G02*
X168403000Y-71315000I270000J0D01*
G01*
X169213000Y-71315000D01*
G75*
G02*
X169483000Y-71585000I0J-270000D01*
G01*
X169483000Y-72895000D01*
G75*
G02*
X169213000Y-73165000I-270000J0D01*
G01*
X168403000Y-73165000D01*
G75*
G02*
X168133000Y-72895000I0J270000D01*
G01*
G37*
G36*
G01*
X165333000Y-72895000D02*
X165333000Y-71585000D01*
G75*
G02*
X165603000Y-71315000I270000J0D01*
G01*
X166413000Y-71315000D01*
G75*
G02*
X166683000Y-71585000I0J-270000D01*
G01*
X166683000Y-72895000D01*
G75*
G02*
X166413000Y-73165000I-270000J0D01*
G01*
X165603000Y-73165000D01*
G75*
G02*
X165333000Y-72895000I0J270000D01*
G01*
G37*
G36*
G01*
X143483000Y-102005000D02*
X142173000Y-102005000D01*
G75*
G02*
X141903000Y-101735000I0J270000D01*
G01*
X141903000Y-100925000D01*
G75*
G02*
X142173000Y-100655000I270000J0D01*
G01*
X143483000Y-100655000D01*
G75*
G02*
X143753000Y-100925000I0J-270000D01*
G01*
X143753000Y-101735000D01*
G75*
G02*
X143483000Y-102005000I-270000J0D01*
G01*
G37*
G36*
G01*
X143483000Y-104805000D02*
X142173000Y-104805000D01*
G75*
G02*
X141903000Y-104535000I0J270000D01*
G01*
X141903000Y-103725000D01*
G75*
G02*
X142173000Y-103455000I270000J0D01*
G01*
X143483000Y-103455000D01*
G75*
G02*
X143753000Y-103725000I0J-270000D01*
G01*
X143753000Y-104535000D01*
G75*
G02*
X143483000Y-104805000I-270000J0D01*
G01*
G37*
D21*
X185968000Y-94488000D03*
X188468000Y-94488000D03*
X178856000Y-94488000D03*
X181356000Y-94488000D03*
X171744000Y-94488000D03*
X174244000Y-94488000D03*
X164632000Y-94488000D03*
X167132000Y-94488000D03*
X122722000Y-94488000D03*
X125222000Y-94488000D03*
X115610000Y-94488000D03*
X118110000Y-94488000D03*
X108498000Y-94488000D03*
X110998000Y-94488000D03*
X101346000Y-94488000D03*
X103846000Y-94488000D03*
G36*
G01*
X113383000Y-68101738D02*
X113383000Y-69058262D01*
G75*
G02*
X113111262Y-69330000I-271738J0D01*
G01*
X112404738Y-69330000D01*
G75*
G02*
X112133000Y-69058262I0J271738D01*
G01*
X112133000Y-68101738D01*
G75*
G02*
X112404738Y-67830000I271738J0D01*
G01*
X113111262Y-67830000D01*
G75*
G02*
X113383000Y-68101738I0J-271738D01*
G01*
G37*
G36*
G01*
X115433000Y-68101738D02*
X115433000Y-69058262D01*
G75*
G02*
X115161262Y-69330000I-271738J0D01*
G01*
X114454738Y-69330000D01*
G75*
G02*
X114183000Y-69058262I0J271738D01*
G01*
X114183000Y-68101738D01*
G75*
G02*
X114454738Y-67830000I271738J0D01*
G01*
X115161262Y-67830000D01*
G75*
G02*
X115433000Y-68101738I0J-271738D01*
G01*
G37*
G36*
G01*
X105001000Y-68101738D02*
X105001000Y-69058262D01*
G75*
G02*
X104729262Y-69330000I-271738J0D01*
G01*
X104022738Y-69330000D01*
G75*
G02*
X103751000Y-69058262I0J271738D01*
G01*
X103751000Y-68101738D01*
G75*
G02*
X104022738Y-67830000I271738J0D01*
G01*
X104729262Y-67830000D01*
G75*
G02*
X105001000Y-68101738I0J-271738D01*
G01*
G37*
G36*
G01*
X107051000Y-68101738D02*
X107051000Y-69058262D01*
G75*
G02*
X106779262Y-69330000I-271738J0D01*
G01*
X106072738Y-69330000D01*
G75*
G02*
X105801000Y-69058262I0J271738D01*
G01*
X105801000Y-68101738D01*
G75*
G02*
X106072738Y-67830000I271738J0D01*
G01*
X106779262Y-67830000D01*
G75*
G02*
X107051000Y-68101738I0J-271738D01*
G01*
G37*
G36*
G01*
X187528375Y-64907000D02*
X186359625Y-64907000D01*
G75*
G02*
X186094000Y-64641375I0J265625D01*
G01*
X186094000Y-62297625D01*
G75*
G02*
X186359625Y-62032000I265625J0D01*
G01*
X187528375Y-62032000D01*
G75*
G02*
X187794000Y-62297625I0J-265625D01*
G01*
X187794000Y-64641375D01*
G75*
G02*
X187528375Y-64907000I-265625J0D01*
G01*
G37*
G36*
G01*
X187528375Y-69032000D02*
X186359625Y-69032000D01*
G75*
G02*
X186094000Y-68766375I0J265625D01*
G01*
X186094000Y-66422625D01*
G75*
G02*
X186359625Y-66157000I265625J0D01*
G01*
X187528375Y-66157000D01*
G75*
G02*
X187794000Y-66422625I0J-265625D01*
G01*
X187794000Y-68766375D01*
G75*
G02*
X187528375Y-69032000I-265625J0D01*
G01*
G37*
G36*
G01*
X122457738Y-71003000D02*
X123414262Y-71003000D01*
G75*
G02*
X123686000Y-71274738I0J-271738D01*
G01*
X123686000Y-71981262D01*
G75*
G02*
X123414262Y-72253000I-271738J0D01*
G01*
X122457738Y-72253000D01*
G75*
G02*
X122186000Y-71981262I0J271738D01*
G01*
X122186000Y-71274738D01*
G75*
G02*
X122457738Y-71003000I271738J0D01*
G01*
G37*
G36*
G01*
X122457738Y-68953000D02*
X123414262Y-68953000D01*
G75*
G02*
X123686000Y-69224738I0J-271738D01*
G01*
X123686000Y-69931262D01*
G75*
G02*
X123414262Y-70203000I-271738J0D01*
G01*
X122457738Y-70203000D01*
G75*
G02*
X122186000Y-69931262I0J271738D01*
G01*
X122186000Y-69224738D01*
G75*
G02*
X122457738Y-68953000I271738J0D01*
G01*
G37*
G36*
G01*
X128369000Y-71149738D02*
X128369000Y-72106262D01*
G75*
G02*
X128097262Y-72378000I-271738J0D01*
G01*
X127390738Y-72378000D01*
G75*
G02*
X127119000Y-72106262I0J271738D01*
G01*
X127119000Y-71149738D01*
G75*
G02*
X127390738Y-70878000I271738J0D01*
G01*
X128097262Y-70878000D01*
G75*
G02*
X128369000Y-71149738I0J-271738D01*
G01*
G37*
G36*
G01*
X130419000Y-71149738D02*
X130419000Y-72106262D01*
G75*
G02*
X130147262Y-72378000I-271738J0D01*
G01*
X129440738Y-72378000D01*
G75*
G02*
X129169000Y-72106262I0J271738D01*
G01*
X129169000Y-71149738D01*
G75*
G02*
X129440738Y-70878000I271738J0D01*
G01*
X130147262Y-70878000D01*
G75*
G02*
X130419000Y-71149738I0J-271738D01*
G01*
G37*
G36*
G01*
X130378375Y-65217500D02*
X129209625Y-65217500D01*
G75*
G02*
X128944000Y-64951875I0J265625D01*
G01*
X128944000Y-62058125D01*
G75*
G02*
X129209625Y-61792500I265625J0D01*
G01*
X130378375Y-61792500D01*
G75*
G02*
X130644000Y-62058125I0J-265625D01*
G01*
X130644000Y-64951875D01*
G75*
G02*
X130378375Y-65217500I-265625J0D01*
G01*
G37*
G36*
G01*
X130378375Y-70292500D02*
X129209625Y-70292500D01*
G75*
G02*
X128944000Y-70026875I0J265625D01*
G01*
X128944000Y-67133125D01*
G75*
G02*
X129209625Y-66867500I265625J0D01*
G01*
X130378375Y-66867500D01*
G75*
G02*
X130644000Y-67133125I0J-265625D01*
G01*
X130644000Y-70026875D01*
G75*
G02*
X130378375Y-70292500I-265625J0D01*
G01*
G37*
G36*
G01*
X172288375Y-64907000D02*
X171119625Y-64907000D01*
G75*
G02*
X170854000Y-64641375I0J265625D01*
G01*
X170854000Y-62297625D01*
G75*
G02*
X171119625Y-62032000I265625J0D01*
G01*
X172288375Y-62032000D01*
G75*
G02*
X172554000Y-62297625I0J-265625D01*
G01*
X172554000Y-64641375D01*
G75*
G02*
X172288375Y-64907000I-265625J0D01*
G01*
G37*
G36*
G01*
X172288375Y-69032000D02*
X171119625Y-69032000D01*
G75*
G02*
X170854000Y-68766375I0J265625D01*
G01*
X170854000Y-66422625D01*
G75*
G02*
X171119625Y-66157000I265625J0D01*
G01*
X172288375Y-66157000D01*
G75*
G02*
X172554000Y-66422625I0J-265625D01*
G01*
X172554000Y-68766375D01*
G75*
G02*
X172288375Y-69032000I-265625J0D01*
G01*
G37*
G36*
G01*
X187297000Y-100359738D02*
X187297000Y-101316262D01*
G75*
G02*
X187025262Y-101588000I-271738J0D01*
G01*
X186318738Y-101588000D01*
G75*
G02*
X186047000Y-101316262I0J271738D01*
G01*
X186047000Y-100359738D01*
G75*
G02*
X186318738Y-100088000I271738J0D01*
G01*
X187025262Y-100088000D01*
G75*
G02*
X187297000Y-100359738I0J-271738D01*
G01*
G37*
G36*
G01*
X189347000Y-100359738D02*
X189347000Y-101316262D01*
G75*
G02*
X189075262Y-101588000I-271738J0D01*
G01*
X188368738Y-101588000D01*
G75*
G02*
X188097000Y-101316262I0J271738D01*
G01*
X188097000Y-100359738D01*
G75*
G02*
X188368738Y-100088000I271738J0D01*
G01*
X189075262Y-100088000D01*
G75*
G02*
X189347000Y-100359738I0J-271738D01*
G01*
G37*
G36*
G01*
X180185000Y-100359738D02*
X180185000Y-101316262D01*
G75*
G02*
X179913262Y-101588000I-271738J0D01*
G01*
X179206738Y-101588000D01*
G75*
G02*
X178935000Y-101316262I0J271738D01*
G01*
X178935000Y-100359738D01*
G75*
G02*
X179206738Y-100088000I271738J0D01*
G01*
X179913262Y-100088000D01*
G75*
G02*
X180185000Y-100359738I0J-271738D01*
G01*
G37*
G36*
G01*
X182235000Y-100359738D02*
X182235000Y-101316262D01*
G75*
G02*
X181963262Y-101588000I-271738J0D01*
G01*
X181256738Y-101588000D01*
G75*
G02*
X180985000Y-101316262I0J271738D01*
G01*
X180985000Y-100359738D01*
G75*
G02*
X181256738Y-100088000I271738J0D01*
G01*
X181963262Y-100088000D01*
G75*
G02*
X182235000Y-100359738I0J-271738D01*
G01*
G37*
G36*
G01*
X173073000Y-100359738D02*
X173073000Y-101316262D01*
G75*
G02*
X172801262Y-101588000I-271738J0D01*
G01*
X172094738Y-101588000D01*
G75*
G02*
X171823000Y-101316262I0J271738D01*
G01*
X171823000Y-100359738D01*
G75*
G02*
X172094738Y-100088000I271738J0D01*
G01*
X172801262Y-100088000D01*
G75*
G02*
X173073000Y-100359738I0J-271738D01*
G01*
G37*
G36*
G01*
X175123000Y-100359738D02*
X175123000Y-101316262D01*
G75*
G02*
X174851262Y-101588000I-271738J0D01*
G01*
X174144738Y-101588000D01*
G75*
G02*
X173873000Y-101316262I0J271738D01*
G01*
X173873000Y-100359738D01*
G75*
G02*
X174144738Y-100088000I271738J0D01*
G01*
X174851262Y-100088000D01*
G75*
G02*
X175123000Y-100359738I0J-271738D01*
G01*
G37*
G36*
G01*
X165961000Y-100359738D02*
X165961000Y-101316262D01*
G75*
G02*
X165689262Y-101588000I-271738J0D01*
G01*
X164982738Y-101588000D01*
G75*
G02*
X164711000Y-101316262I0J271738D01*
G01*
X164711000Y-100359738D01*
G75*
G02*
X164982738Y-100088000I271738J0D01*
G01*
X165689262Y-100088000D01*
G75*
G02*
X165961000Y-100359738I0J-271738D01*
G01*
G37*
G36*
G01*
X168011000Y-100359738D02*
X168011000Y-101316262D01*
G75*
G02*
X167739262Y-101588000I-271738J0D01*
G01*
X167032738Y-101588000D01*
G75*
G02*
X166761000Y-101316262I0J271738D01*
G01*
X166761000Y-100359738D01*
G75*
G02*
X167032738Y-100088000I271738J0D01*
G01*
X167739262Y-100088000D01*
G75*
G02*
X168011000Y-100359738I0J-271738D01*
G01*
G37*
G36*
G01*
X124051000Y-100359738D02*
X124051000Y-101316262D01*
G75*
G02*
X123779262Y-101588000I-271738J0D01*
G01*
X123072738Y-101588000D01*
G75*
G02*
X122801000Y-101316262I0J271738D01*
G01*
X122801000Y-100359738D01*
G75*
G02*
X123072738Y-100088000I271738J0D01*
G01*
X123779262Y-100088000D01*
G75*
G02*
X124051000Y-100359738I0J-271738D01*
G01*
G37*
G36*
G01*
X126101000Y-100359738D02*
X126101000Y-101316262D01*
G75*
G02*
X125829262Y-101588000I-271738J0D01*
G01*
X125122738Y-101588000D01*
G75*
G02*
X124851000Y-101316262I0J271738D01*
G01*
X124851000Y-100359738D01*
G75*
G02*
X125122738Y-100088000I271738J0D01*
G01*
X125829262Y-100088000D01*
G75*
G02*
X126101000Y-100359738I0J-271738D01*
G01*
G37*
G36*
G01*
X116939000Y-100359738D02*
X116939000Y-101316262D01*
G75*
G02*
X116667262Y-101588000I-271738J0D01*
G01*
X115960738Y-101588000D01*
G75*
G02*
X115689000Y-101316262I0J271738D01*
G01*
X115689000Y-100359738D01*
G75*
G02*
X115960738Y-100088000I271738J0D01*
G01*
X116667262Y-100088000D01*
G75*
G02*
X116939000Y-100359738I0J-271738D01*
G01*
G37*
G36*
G01*
X118989000Y-100359738D02*
X118989000Y-101316262D01*
G75*
G02*
X118717262Y-101588000I-271738J0D01*
G01*
X118010738Y-101588000D01*
G75*
G02*
X117739000Y-101316262I0J271738D01*
G01*
X117739000Y-100359738D01*
G75*
G02*
X118010738Y-100088000I271738J0D01*
G01*
X118717262Y-100088000D01*
G75*
G02*
X118989000Y-100359738I0J-271738D01*
G01*
G37*
G36*
G01*
X109827000Y-100359738D02*
X109827000Y-101316262D01*
G75*
G02*
X109555262Y-101588000I-271738J0D01*
G01*
X108848738Y-101588000D01*
G75*
G02*
X108577000Y-101316262I0J271738D01*
G01*
X108577000Y-100359738D01*
G75*
G02*
X108848738Y-100088000I271738J0D01*
G01*
X109555262Y-100088000D01*
G75*
G02*
X109827000Y-100359738I0J-271738D01*
G01*
G37*
G36*
G01*
X111877000Y-100359738D02*
X111877000Y-101316262D01*
G75*
G02*
X111605262Y-101588000I-271738J0D01*
G01*
X110898738Y-101588000D01*
G75*
G02*
X110627000Y-101316262I0J271738D01*
G01*
X110627000Y-100359738D01*
G75*
G02*
X110898738Y-100088000I271738J0D01*
G01*
X111605262Y-100088000D01*
G75*
G02*
X111877000Y-100359738I0J-271738D01*
G01*
G37*
G36*
G01*
X102715000Y-100105738D02*
X102715000Y-101062262D01*
G75*
G02*
X102443262Y-101334000I-271738J0D01*
G01*
X101736738Y-101334000D01*
G75*
G02*
X101465000Y-101062262I0J271738D01*
G01*
X101465000Y-100105738D01*
G75*
G02*
X101736738Y-99834000I271738J0D01*
G01*
X102443262Y-99834000D01*
G75*
G02*
X102715000Y-100105738I0J-271738D01*
G01*
G37*
G36*
G01*
X104765000Y-100105738D02*
X104765000Y-101062262D01*
G75*
G02*
X104493262Y-101334000I-271738J0D01*
G01*
X103786738Y-101334000D01*
G75*
G02*
X103515000Y-101062262I0J271738D01*
G01*
X103515000Y-100105738D01*
G75*
G02*
X103786738Y-99834000I271738J0D01*
G01*
X104493262Y-99834000D01*
G75*
G02*
X104765000Y-100105738I0J-271738D01*
G01*
G37*
M02*
