G04 #@! TF.GenerationSoftware,KiCad,Pcbnew,(5.1.6)-1*
G04 #@! TF.CreationDate,2020-11-07T12:23:27+01:00*
G04 #@! TF.ProjectId,8-DI-ESP32-PCB,382d4449-2d45-4535-9033-322d5043422e,rev?*
G04 #@! TF.SameCoordinates,Original*
G04 #@! TF.FileFunction,Copper,L4,Bot*
G04 #@! TF.FilePolarity,Positive*
%FSLAX46Y46*%
G04 Gerber Fmt 4.6, Leading zero omitted, Abs format (unit mm)*
G04 Created by KiCad (PCBNEW (5.1.6)-1) date 2020-11-07 12:23:27*
%MOMM*%
%LPD*%
G01*
G04 APERTURE LIST*
G04 #@! TA.AperFunction,ComponentPad*
%ADD10O,1.700000X1.700000*%
G04 #@! TD*
G04 #@! TA.AperFunction,ComponentPad*
%ADD11R,1.700000X1.700000*%
G04 #@! TD*
G04 #@! TA.AperFunction,ComponentPad*
%ADD12C,2.100000*%
G04 #@! TD*
G04 #@! TA.AperFunction,ComponentPad*
%ADD13R,2.100000X2.100000*%
G04 #@! TD*
G04 #@! TA.AperFunction,ComponentPad*
%ADD14C,2.400000*%
G04 #@! TD*
G04 #@! TA.AperFunction,ComponentPad*
%ADD15R,2.400000X2.400000*%
G04 #@! TD*
G04 #@! TA.AperFunction,ViaPad*
%ADD16C,0.800000*%
G04 #@! TD*
G04 #@! TA.AperFunction,Conductor*
%ADD17C,0.750000*%
G04 #@! TD*
G04 #@! TA.AperFunction,Conductor*
%ADD18C,0.500000*%
G04 #@! TD*
G04 #@! TA.AperFunction,Conductor*
%ADD19C,0.254000*%
G04 #@! TD*
G04 APERTURE END LIST*
D10*
X162814000Y-64008000D03*
X160274000Y-64008000D03*
D11*
X157734000Y-64008000D03*
D12*
X188214000Y-107950000D03*
X184404000Y-107950000D03*
D13*
X180594000Y-107950000D03*
D10*
X146304000Y-112776000D03*
D11*
X143764000Y-112776000D03*
D10*
X146304000Y-108204000D03*
D11*
X143764000Y-108204000D03*
D14*
X158242000Y-115824000D03*
D15*
X153162000Y-115824000D03*
D14*
X135890000Y-115824000D03*
D15*
X130810000Y-115824000D03*
D12*
X188214000Y-123444000D03*
X184404000Y-123444000D03*
D13*
X180594000Y-123444000D03*
D12*
X172974000Y-107950000D03*
X169164000Y-107950000D03*
D13*
X165354000Y-107950000D03*
D12*
X172974000Y-123444000D03*
X169164000Y-123444000D03*
D13*
X165354000Y-123444000D03*
D12*
X124714000Y-107950000D03*
X120904000Y-107950000D03*
D13*
X117094000Y-107950000D03*
D12*
X124714000Y-123444000D03*
X120904000Y-123444000D03*
D13*
X117094000Y-123444000D03*
D12*
X109474000Y-107950000D03*
X105664000Y-107950000D03*
D13*
X101854000Y-107950000D03*
D12*
X109474000Y-123444000D03*
X105664000Y-123444000D03*
D13*
X101854000Y-123444000D03*
D16*
X142748000Y-105918000D03*
X149098000Y-128270000D03*
X150114000Y-128270000D03*
X151130000Y-128270000D03*
X152146000Y-128270000D03*
X153162000Y-128270000D03*
X167386000Y-102616000D03*
X176276000Y-61214000D03*
X175260000Y-61214000D03*
X170688000Y-60706000D03*
X176276000Y-60198000D03*
X172720000Y-60706000D03*
X177292000Y-61214000D03*
X175260000Y-60198000D03*
X177292000Y-60198000D03*
X171704000Y-60706000D03*
X190500000Y-64516000D03*
X189484000Y-64516000D03*
X191516000Y-62484000D03*
X190500000Y-62484000D03*
X191516000Y-64516000D03*
X191516000Y-63500000D03*
X190500000Y-63500000D03*
X189484000Y-63500000D03*
X189484000Y-62484000D03*
X180848000Y-80010000D03*
X183388000Y-80010000D03*
X185928000Y-80010000D03*
X190246000Y-82550000D03*
X191262000Y-82550000D03*
X127508000Y-69596000D03*
X126746000Y-68834000D03*
X125984000Y-68072000D03*
X129794000Y-60452000D03*
X128778000Y-60452000D03*
X130810000Y-60452000D03*
X102870000Y-80010000D03*
X105410000Y-80010000D03*
X107950000Y-80010000D03*
X112268000Y-82550000D03*
X113284000Y-82550000D03*
X159004000Y-68326000D03*
X159004000Y-67310000D03*
X159004000Y-66294000D03*
X118872000Y-62992000D03*
X119888000Y-62992000D03*
X119888000Y-64008000D03*
X118872000Y-64008000D03*
X100584000Y-69342000D03*
X100584000Y-70358000D03*
X99568000Y-70358000D03*
X99568000Y-69342000D03*
X125984000Y-88392000D03*
X127000000Y-88392000D03*
X127000000Y-87376000D03*
X125984000Y-87376000D03*
X142240000Y-82804000D03*
X143256000Y-82804000D03*
X144272000Y-82804000D03*
X145288000Y-82804000D03*
X146304000Y-82804000D03*
X147320000Y-82804000D03*
X148336000Y-96012000D03*
X149352000Y-96012000D03*
X149352000Y-97028000D03*
X148336000Y-97028000D03*
X169672000Y-82296000D03*
X170688000Y-82296000D03*
X170688000Y-81280000D03*
X169672000Y-81280000D03*
X166370000Y-64262000D03*
X167386000Y-64262000D03*
X167386000Y-63246000D03*
X166370000Y-63246000D03*
X191516000Y-66548000D03*
X190500000Y-66548000D03*
X189484000Y-66548000D03*
X191516000Y-68580000D03*
X190500000Y-68580000D03*
X189484000Y-68580000D03*
X191516000Y-67564000D03*
X190500000Y-67564000D03*
X189484000Y-67564000D03*
X183642000Y-68834000D03*
X181610000Y-68834000D03*
X182626000Y-68834000D03*
X182626000Y-62230000D03*
X183642000Y-62230000D03*
X111252000Y-75438000D03*
X112268000Y-75438000D03*
X189230000Y-75438000D03*
X190246000Y-75438000D03*
X173990000Y-70104000D03*
X181610000Y-62230000D03*
X131826000Y-68580000D03*
X131826000Y-67564000D03*
X122936000Y-60960000D03*
X122936000Y-61976000D03*
X139326000Y-86106000D03*
X116078000Y-68580000D03*
X118872000Y-74168000D03*
X130810000Y-86106000D03*
X105410000Y-94488000D03*
X112522000Y-94488000D03*
X119634000Y-94488000D03*
X126746000Y-94488000D03*
X109220000Y-87376000D03*
X106680000Y-87376000D03*
X104140000Y-87376000D03*
X101600000Y-87376000D03*
X184658000Y-87376000D03*
X187198000Y-87376000D03*
X182118000Y-87376000D03*
X179578000Y-87376000D03*
X168656000Y-94488000D03*
X175768000Y-94488000D03*
X182880000Y-94488000D03*
X189992000Y-94488000D03*
X133858000Y-98806000D03*
X132842000Y-98806000D03*
X131826000Y-98806000D03*
X122722000Y-92964000D03*
X110490000Y-90424000D03*
X180848000Y-90678000D03*
X164632000Y-92964000D03*
X133858000Y-73660000D03*
X101600000Y-81280000D03*
X133858000Y-74930000D03*
X104140000Y-81280000D03*
X133858000Y-76200000D03*
X106680000Y-81280000D03*
X133858000Y-77470000D03*
X109220000Y-81280000D03*
X151130000Y-71120000D03*
X187198000Y-81280000D03*
X151130000Y-72390000D03*
X184658000Y-81280000D03*
X151130000Y-76200000D03*
X182118000Y-81280000D03*
X151130000Y-78740000D03*
X179578000Y-81280000D03*
D17*
X167386000Y-102616000D02*
X172593000Y-102616000D01*
X172593000Y-102616000D02*
X176403000Y-106426000D01*
X176403000Y-120015000D02*
X172974000Y-123444000D01*
X176403000Y-106426000D02*
X176403000Y-120015000D01*
D18*
X116078000Y-68580000D02*
X116078000Y-71374000D01*
X116078000Y-71374000D02*
X118872000Y-74168000D01*
X139326000Y-86106000D02*
X130810000Y-86106000D01*
X110490000Y-90424000D02*
X110490000Y-96012000D01*
X110490000Y-96012000D02*
X111760000Y-97282000D01*
X111760000Y-97282000D02*
X120650000Y-97282000D01*
X122722000Y-95210000D02*
X122722000Y-92964000D01*
X120650000Y-97282000D02*
X122722000Y-95210000D01*
X180848000Y-90678000D02*
X180848000Y-91694000D01*
X180848000Y-91694000D02*
X175514000Y-97028000D01*
X175514000Y-97028000D02*
X165862000Y-97028000D01*
X164632000Y-95798000D02*
X164632000Y-92964000D01*
X165862000Y-97028000D02*
X164632000Y-95798000D01*
X101600000Y-81280000D02*
X101600000Y-78232000D01*
X101600000Y-78232000D02*
X106426000Y-73406000D01*
X106426000Y-73406000D02*
X114046000Y-73406000D01*
X114046000Y-73406000D02*
X116586000Y-75946000D01*
X116586000Y-75946000D02*
X128270000Y-75946000D01*
X130556000Y-73660000D02*
X133858000Y-73660000D01*
X128270000Y-75946000D02*
X130556000Y-73660000D01*
X133858000Y-74930000D02*
X131572000Y-74930000D01*
X131572000Y-74930000D02*
X129032000Y-77470000D01*
X104140000Y-80021998D02*
X104140000Y-81280000D01*
X106691998Y-77470000D02*
X104140000Y-80021998D01*
X129032000Y-77470000D02*
X106691998Y-77470000D01*
X133858000Y-76200000D02*
X132588000Y-76200000D01*
X132588000Y-76200000D02*
X129794000Y-78994000D01*
X106680000Y-80021998D02*
X106680000Y-81280000D01*
X107707998Y-78994000D02*
X106680000Y-80021998D01*
X129794000Y-78994000D02*
X107707998Y-78994000D01*
X130048000Y-81280000D02*
X133858000Y-77470000D01*
X109220000Y-81280000D02*
X130048000Y-81280000D01*
X187198000Y-81280000D02*
X187198000Y-78740000D01*
X187198000Y-78740000D02*
X181610000Y-73152000D01*
X181610000Y-73152000D02*
X154178000Y-73152000D01*
X152146000Y-71120000D02*
X151130000Y-71120000D01*
X154178000Y-73152000D02*
X152146000Y-71120000D01*
X151130000Y-72390000D02*
X153416000Y-74676000D01*
X153416000Y-74676000D02*
X181356000Y-74676000D01*
X184658000Y-77978000D02*
X184658000Y-81280000D01*
X181356000Y-74676000D02*
X184658000Y-77978000D01*
X182118000Y-81280000D02*
X182118000Y-78486000D01*
X179832000Y-76200000D02*
X151130000Y-76200000D01*
X182118000Y-78486000D02*
X179832000Y-76200000D01*
X177038000Y-78740000D02*
X179578000Y-81280000D01*
X151130000Y-78740000D02*
X177038000Y-78740000D01*
D19*
G36*
X134873000Y-70000000D02*
G01*
X134875440Y-70024776D01*
X134882667Y-70048601D01*
X134894403Y-70070557D01*
X134910197Y-70089803D01*
X134929443Y-70105597D01*
X134951399Y-70117333D01*
X134975224Y-70124560D01*
X135000000Y-70127000D01*
X150822728Y-70127000D01*
X150639744Y-70202795D01*
X150470226Y-70316063D01*
X150326063Y-70460226D01*
X150212795Y-70629744D01*
X150134774Y-70818102D01*
X150095000Y-71018061D01*
X150095000Y-71221939D01*
X150134774Y-71421898D01*
X150212795Y-71610256D01*
X150309510Y-71755000D01*
X150212795Y-71899744D01*
X150134774Y-72088102D01*
X150095000Y-72288061D01*
X150095000Y-72491939D01*
X150134774Y-72691898D01*
X150212795Y-72880256D01*
X150326063Y-73049774D01*
X150470226Y-73193937D01*
X150639744Y-73307205D01*
X150828102Y-73385226D01*
X150884957Y-73396535D01*
X152759470Y-75271049D01*
X152787183Y-75304817D01*
X152799591Y-75315000D01*
X151668454Y-75315000D01*
X151620256Y-75282795D01*
X151431898Y-75204774D01*
X151231939Y-75165000D01*
X151028061Y-75165000D01*
X150828102Y-75204774D01*
X150639744Y-75282795D01*
X150470226Y-75396063D01*
X150326063Y-75540226D01*
X150212795Y-75709744D01*
X150134774Y-75898102D01*
X150095000Y-76098061D01*
X150095000Y-76301939D01*
X150134774Y-76501898D01*
X150212795Y-76690256D01*
X150326063Y-76859774D01*
X150470226Y-77003937D01*
X150639744Y-77117205D01*
X150828102Y-77195226D01*
X151028061Y-77235000D01*
X151231939Y-77235000D01*
X151431898Y-77195226D01*
X151620256Y-77117205D01*
X151668454Y-77085000D01*
X179465422Y-77085000D01*
X181233001Y-78852580D01*
X181233000Y-80741545D01*
X181200795Y-80789744D01*
X181122774Y-80978102D01*
X181083000Y-81178061D01*
X181083000Y-81381939D01*
X181122774Y-81581898D01*
X181200795Y-81770256D01*
X181314063Y-81939774D01*
X181458226Y-82083937D01*
X181627744Y-82197205D01*
X181816102Y-82275226D01*
X182016061Y-82315000D01*
X182219939Y-82315000D01*
X182419898Y-82275226D01*
X182608256Y-82197205D01*
X182777774Y-82083937D01*
X182921937Y-81939774D01*
X183035205Y-81770256D01*
X183113226Y-81581898D01*
X183153000Y-81381939D01*
X183153000Y-81178061D01*
X183113226Y-80978102D01*
X183035205Y-80789744D01*
X183003000Y-80741546D01*
X183003000Y-78529465D01*
X183007281Y-78485999D01*
X183003000Y-78442533D01*
X183003000Y-78442523D01*
X182990195Y-78312510D01*
X182939589Y-78145687D01*
X182857411Y-77991941D01*
X182746817Y-77857183D01*
X182713049Y-77829470D01*
X180488534Y-75604956D01*
X180460817Y-75571183D01*
X180448409Y-75561000D01*
X180989422Y-75561000D01*
X183773000Y-78344579D01*
X183773001Y-80741544D01*
X183740795Y-80789744D01*
X183662774Y-80978102D01*
X183623000Y-81178061D01*
X183623000Y-81381939D01*
X183662774Y-81581898D01*
X183740795Y-81770256D01*
X183854063Y-81939774D01*
X183998226Y-82083937D01*
X184167744Y-82197205D01*
X184356102Y-82275226D01*
X184556061Y-82315000D01*
X184759939Y-82315000D01*
X184959898Y-82275226D01*
X185148256Y-82197205D01*
X185317774Y-82083937D01*
X185461937Y-81939774D01*
X185575205Y-81770256D01*
X185653226Y-81581898D01*
X185693000Y-81381939D01*
X185693000Y-81178061D01*
X185653226Y-80978102D01*
X185575205Y-80789744D01*
X185543000Y-80741546D01*
X185543000Y-78336579D01*
X186313001Y-79106580D01*
X186313000Y-80741545D01*
X186280795Y-80789744D01*
X186202774Y-80978102D01*
X186163000Y-81178061D01*
X186163000Y-81381939D01*
X186202774Y-81581898D01*
X186280795Y-81770256D01*
X186394063Y-81939774D01*
X186538226Y-82083937D01*
X186707744Y-82197205D01*
X186896102Y-82275226D01*
X187096061Y-82315000D01*
X187299939Y-82315000D01*
X187499898Y-82275226D01*
X187688256Y-82197205D01*
X187857774Y-82083937D01*
X188001937Y-81939774D01*
X188115205Y-81770256D01*
X188193226Y-81581898D01*
X188233000Y-81381939D01*
X188233000Y-81178061D01*
X188193226Y-80978102D01*
X188115205Y-80789744D01*
X188083000Y-80741546D01*
X188083000Y-78783465D01*
X188087281Y-78739999D01*
X188083000Y-78696533D01*
X188083000Y-78696523D01*
X188070195Y-78566510D01*
X188019589Y-78399687D01*
X187937411Y-78245941D01*
X187855134Y-78145687D01*
X187854532Y-78144953D01*
X187854530Y-78144951D01*
X187826817Y-78111183D01*
X187793049Y-78083470D01*
X185045640Y-75336061D01*
X188195000Y-75336061D01*
X188195000Y-75539939D01*
X188234774Y-75739898D01*
X188312795Y-75928256D01*
X188426063Y-76097774D01*
X188570226Y-76241937D01*
X188739744Y-76355205D01*
X188928102Y-76433226D01*
X189128061Y-76473000D01*
X189331939Y-76473000D01*
X189531898Y-76433226D01*
X189720256Y-76355205D01*
X189738000Y-76343349D01*
X189755744Y-76355205D01*
X189944102Y-76433226D01*
X190144061Y-76473000D01*
X190347939Y-76473000D01*
X190547898Y-76433226D01*
X190736256Y-76355205D01*
X190905774Y-76241937D01*
X191049937Y-76097774D01*
X191163205Y-75928256D01*
X191241226Y-75739898D01*
X191281000Y-75539939D01*
X191281000Y-75336061D01*
X191241226Y-75136102D01*
X191163205Y-74947744D01*
X191049937Y-74778226D01*
X190905774Y-74634063D01*
X190736256Y-74520795D01*
X190547898Y-74442774D01*
X190347939Y-74403000D01*
X190144061Y-74403000D01*
X189944102Y-74442774D01*
X189755744Y-74520795D01*
X189738000Y-74532651D01*
X189720256Y-74520795D01*
X189531898Y-74442774D01*
X189331939Y-74403000D01*
X189128061Y-74403000D01*
X188928102Y-74442774D01*
X188739744Y-74520795D01*
X188570226Y-74634063D01*
X188426063Y-74778226D01*
X188312795Y-74947744D01*
X188234774Y-75136102D01*
X188195000Y-75336061D01*
X185045640Y-75336061D01*
X182266534Y-72556956D01*
X182238817Y-72523183D01*
X182104059Y-72412589D01*
X181950313Y-72330411D01*
X181783490Y-72279805D01*
X181653477Y-72267000D01*
X181653469Y-72267000D01*
X181610000Y-72262719D01*
X181566531Y-72267000D01*
X154544579Y-72267000D01*
X152802534Y-70524956D01*
X152774817Y-70491183D01*
X152640059Y-70380589D01*
X152486313Y-70298411D01*
X152319490Y-70247805D01*
X152189477Y-70235000D01*
X152189469Y-70235000D01*
X152146000Y-70230719D01*
X152102531Y-70235000D01*
X151668454Y-70235000D01*
X151620256Y-70202795D01*
X151437272Y-70127000D01*
X155000000Y-70127000D01*
X155024776Y-70124560D01*
X155048601Y-70117333D01*
X155070557Y-70105597D01*
X155089803Y-70089803D01*
X155105597Y-70070557D01*
X155117333Y-70048601D01*
X155124560Y-70024776D01*
X155126797Y-70002061D01*
X172955000Y-70002061D01*
X172955000Y-70205939D01*
X172994774Y-70405898D01*
X173072795Y-70594256D01*
X173186063Y-70763774D01*
X173330226Y-70907937D01*
X173499744Y-71021205D01*
X173688102Y-71099226D01*
X173888061Y-71139000D01*
X174091939Y-71139000D01*
X174291898Y-71099226D01*
X174480256Y-71021205D01*
X174649774Y-70907937D01*
X174793937Y-70763774D01*
X174907205Y-70594256D01*
X174985226Y-70405898D01*
X175025000Y-70205939D01*
X175025000Y-70002061D01*
X174985226Y-69802102D01*
X174907205Y-69613744D01*
X174793937Y-69444226D01*
X174649774Y-69300063D01*
X174480256Y-69186795D01*
X174291898Y-69108774D01*
X174091939Y-69069000D01*
X173888061Y-69069000D01*
X173688102Y-69108774D01*
X173499744Y-69186795D01*
X173330226Y-69300063D01*
X173186063Y-69444226D01*
X173072795Y-69613744D01*
X172994774Y-69802102D01*
X172955000Y-70002061D01*
X155126797Y-70002061D01*
X155127000Y-70000000D01*
X155127000Y-68732061D01*
X180575000Y-68732061D01*
X180575000Y-68935939D01*
X180614774Y-69135898D01*
X180692795Y-69324256D01*
X180806063Y-69493774D01*
X180950226Y-69637937D01*
X181119744Y-69751205D01*
X181308102Y-69829226D01*
X181508061Y-69869000D01*
X181711939Y-69869000D01*
X181911898Y-69829226D01*
X182100256Y-69751205D01*
X182118000Y-69739349D01*
X182135744Y-69751205D01*
X182324102Y-69829226D01*
X182524061Y-69869000D01*
X182727939Y-69869000D01*
X182927898Y-69829226D01*
X183116256Y-69751205D01*
X183134000Y-69739349D01*
X183151744Y-69751205D01*
X183340102Y-69829226D01*
X183540061Y-69869000D01*
X183743939Y-69869000D01*
X183943898Y-69829226D01*
X184132256Y-69751205D01*
X184301774Y-69637937D01*
X184445937Y-69493774D01*
X184559205Y-69324256D01*
X184637226Y-69135898D01*
X184677000Y-68935939D01*
X184677000Y-68732061D01*
X184637226Y-68532102D01*
X184559205Y-68343744D01*
X184445937Y-68174226D01*
X184301774Y-68030063D01*
X184132256Y-67916795D01*
X183943898Y-67838774D01*
X183743939Y-67799000D01*
X183540061Y-67799000D01*
X183340102Y-67838774D01*
X183151744Y-67916795D01*
X183134000Y-67928651D01*
X183116256Y-67916795D01*
X182927898Y-67838774D01*
X182727939Y-67799000D01*
X182524061Y-67799000D01*
X182324102Y-67838774D01*
X182135744Y-67916795D01*
X182118000Y-67928651D01*
X182100256Y-67916795D01*
X181911898Y-67838774D01*
X181711939Y-67799000D01*
X181508061Y-67799000D01*
X181308102Y-67838774D01*
X181119744Y-67916795D01*
X180950226Y-68030063D01*
X180806063Y-68174226D01*
X180692795Y-68343744D01*
X180614774Y-68532102D01*
X180575000Y-68732061D01*
X155127000Y-68732061D01*
X155127000Y-66446061D01*
X188449000Y-66446061D01*
X188449000Y-66649939D01*
X188488774Y-66849898D01*
X188566795Y-67038256D01*
X188578651Y-67056000D01*
X188566795Y-67073744D01*
X188488774Y-67262102D01*
X188449000Y-67462061D01*
X188449000Y-67665939D01*
X188488774Y-67865898D01*
X188566795Y-68054256D01*
X188578651Y-68072000D01*
X188566795Y-68089744D01*
X188488774Y-68278102D01*
X188449000Y-68478061D01*
X188449000Y-68681939D01*
X188488774Y-68881898D01*
X188566795Y-69070256D01*
X188680063Y-69239774D01*
X188824226Y-69383937D01*
X188993744Y-69497205D01*
X189182102Y-69575226D01*
X189382061Y-69615000D01*
X189585939Y-69615000D01*
X189785898Y-69575226D01*
X189974256Y-69497205D01*
X189992000Y-69485349D01*
X190009744Y-69497205D01*
X190198102Y-69575226D01*
X190398061Y-69615000D01*
X190601939Y-69615000D01*
X190801898Y-69575226D01*
X190990256Y-69497205D01*
X191008000Y-69485349D01*
X191025744Y-69497205D01*
X191214102Y-69575226D01*
X191414061Y-69615000D01*
X191617939Y-69615000D01*
X191817898Y-69575226D01*
X192006256Y-69497205D01*
X192175774Y-69383937D01*
X192319937Y-69239774D01*
X192433205Y-69070256D01*
X192511226Y-68881898D01*
X192551000Y-68681939D01*
X192551000Y-68478061D01*
X192511226Y-68278102D01*
X192433205Y-68089744D01*
X192421349Y-68072000D01*
X192433205Y-68054256D01*
X192511226Y-67865898D01*
X192551000Y-67665939D01*
X192551000Y-67462061D01*
X192511226Y-67262102D01*
X192433205Y-67073744D01*
X192421349Y-67056000D01*
X192433205Y-67038256D01*
X192511226Y-66849898D01*
X192551000Y-66649939D01*
X192551000Y-66446061D01*
X192511226Y-66246102D01*
X192433205Y-66057744D01*
X192319937Y-65888226D01*
X192175774Y-65744063D01*
X192006256Y-65630795D01*
X191817898Y-65552774D01*
X191617939Y-65513000D01*
X191414061Y-65513000D01*
X191214102Y-65552774D01*
X191025744Y-65630795D01*
X191008000Y-65642651D01*
X190990256Y-65630795D01*
X190801898Y-65552774D01*
X190601939Y-65513000D01*
X190398061Y-65513000D01*
X190198102Y-65552774D01*
X190009744Y-65630795D01*
X189992000Y-65642651D01*
X189974256Y-65630795D01*
X189785898Y-65552774D01*
X189585939Y-65513000D01*
X189382061Y-65513000D01*
X189182102Y-65552774D01*
X188993744Y-65630795D01*
X188824226Y-65744063D01*
X188680063Y-65888226D01*
X188566795Y-66057744D01*
X188488774Y-66246102D01*
X188449000Y-66446061D01*
X155127000Y-66446061D01*
X155127000Y-63158000D01*
X156245928Y-63158000D01*
X156245928Y-64858000D01*
X156258188Y-64982482D01*
X156294498Y-65102180D01*
X156353463Y-65212494D01*
X156432815Y-65309185D01*
X156529506Y-65388537D01*
X156639820Y-65447502D01*
X156759518Y-65483812D01*
X156884000Y-65496072D01*
X158584000Y-65496072D01*
X158708482Y-65483812D01*
X158828180Y-65447502D01*
X158938494Y-65388537D01*
X159035185Y-65309185D01*
X159114537Y-65212494D01*
X159173502Y-65102180D01*
X159195513Y-65029620D01*
X159327368Y-65161475D01*
X159570589Y-65323990D01*
X159840842Y-65435932D01*
X160127740Y-65493000D01*
X160420260Y-65493000D01*
X160707158Y-65435932D01*
X160977411Y-65323990D01*
X161220632Y-65161475D01*
X161427475Y-64954632D01*
X161549195Y-64772466D01*
X161618822Y-64889355D01*
X161813731Y-65105588D01*
X162047080Y-65279641D01*
X162309901Y-65404825D01*
X162457110Y-65449476D01*
X162687000Y-65328155D01*
X162687000Y-64135000D01*
X162941000Y-64135000D01*
X162941000Y-65328155D01*
X163170890Y-65449476D01*
X163318099Y-65404825D01*
X163580920Y-65279641D01*
X163814269Y-65105588D01*
X164009178Y-64889355D01*
X164158157Y-64639252D01*
X164255481Y-64364891D01*
X164134814Y-64135000D01*
X162941000Y-64135000D01*
X162687000Y-64135000D01*
X162667000Y-64135000D01*
X162667000Y-63881000D01*
X162687000Y-63881000D01*
X162687000Y-62687845D01*
X162941000Y-62687845D01*
X162941000Y-63881000D01*
X164134814Y-63881000D01*
X164255481Y-63651109D01*
X164158157Y-63376748D01*
X164009178Y-63126645D01*
X163814269Y-62910412D01*
X163580920Y-62736359D01*
X163318099Y-62611175D01*
X163170890Y-62566524D01*
X162941000Y-62687845D01*
X162687000Y-62687845D01*
X162457110Y-62566524D01*
X162309901Y-62611175D01*
X162047080Y-62736359D01*
X161813731Y-62910412D01*
X161618822Y-63126645D01*
X161549195Y-63243534D01*
X161427475Y-63061368D01*
X161220632Y-62854525D01*
X160977411Y-62692010D01*
X160707158Y-62580068D01*
X160420260Y-62523000D01*
X160127740Y-62523000D01*
X159840842Y-62580068D01*
X159570589Y-62692010D01*
X159327368Y-62854525D01*
X159195513Y-62986380D01*
X159173502Y-62913820D01*
X159114537Y-62803506D01*
X159035185Y-62706815D01*
X158938494Y-62627463D01*
X158828180Y-62568498D01*
X158708482Y-62532188D01*
X158584000Y-62519928D01*
X156884000Y-62519928D01*
X156759518Y-62532188D01*
X156639820Y-62568498D01*
X156529506Y-62627463D01*
X156432815Y-62706815D01*
X156353463Y-62803506D01*
X156294498Y-62913820D01*
X156258188Y-63033518D01*
X156245928Y-63158000D01*
X155127000Y-63158000D01*
X155127000Y-62128061D01*
X180575000Y-62128061D01*
X180575000Y-62331939D01*
X180614774Y-62531898D01*
X180692795Y-62720256D01*
X180806063Y-62889774D01*
X180950226Y-63033937D01*
X181119744Y-63147205D01*
X181308102Y-63225226D01*
X181508061Y-63265000D01*
X181711939Y-63265000D01*
X181911898Y-63225226D01*
X182100256Y-63147205D01*
X182118000Y-63135349D01*
X182135744Y-63147205D01*
X182324102Y-63225226D01*
X182524061Y-63265000D01*
X182727939Y-63265000D01*
X182927898Y-63225226D01*
X183116256Y-63147205D01*
X183134000Y-63135349D01*
X183151744Y-63147205D01*
X183340102Y-63225226D01*
X183540061Y-63265000D01*
X183743939Y-63265000D01*
X183943898Y-63225226D01*
X184132256Y-63147205D01*
X184301774Y-63033937D01*
X184445937Y-62889774D01*
X184559205Y-62720256D01*
X184637226Y-62531898D01*
X184677000Y-62331939D01*
X184677000Y-62128061D01*
X184637226Y-61928102D01*
X184559205Y-61739744D01*
X184445937Y-61570226D01*
X184301774Y-61426063D01*
X184132256Y-61312795D01*
X183943898Y-61234774D01*
X183743939Y-61195000D01*
X183540061Y-61195000D01*
X183340102Y-61234774D01*
X183151744Y-61312795D01*
X183134000Y-61324651D01*
X183116256Y-61312795D01*
X182927898Y-61234774D01*
X182727939Y-61195000D01*
X182524061Y-61195000D01*
X182324102Y-61234774D01*
X182135744Y-61312795D01*
X182118000Y-61324651D01*
X182100256Y-61312795D01*
X181911898Y-61234774D01*
X181711939Y-61195000D01*
X181508061Y-61195000D01*
X181308102Y-61234774D01*
X181119744Y-61312795D01*
X180950226Y-61426063D01*
X180806063Y-61570226D01*
X180692795Y-61739744D01*
X180614774Y-61928102D01*
X180575000Y-62128061D01*
X155127000Y-62128061D01*
X155127000Y-58660000D01*
X192967721Y-58660000D01*
X193259659Y-58688625D01*
X193509429Y-58764035D01*
X193739792Y-58886522D01*
X193941980Y-59051422D01*
X194108286Y-59252450D01*
X194232378Y-59481954D01*
X194309531Y-59731195D01*
X194340001Y-60021098D01*
X194340001Y-83873000D01*
X175000000Y-83873000D01*
X174975224Y-83875440D01*
X174951399Y-83882667D01*
X174929443Y-83894403D01*
X174910197Y-83910197D01*
X174894403Y-83929443D01*
X174882667Y-83951399D01*
X174875440Y-83975224D01*
X174873000Y-84000000D01*
X174873000Y-89873000D01*
X161000000Y-89873000D01*
X160975224Y-89875440D01*
X160951399Y-89882667D01*
X160929443Y-89894403D01*
X160910197Y-89910197D01*
X160894403Y-89929443D01*
X160882667Y-89951399D01*
X160875440Y-89975224D01*
X160873000Y-90000000D01*
X160873000Y-120873000D01*
X146127000Y-120873000D01*
X146127000Y-114624000D01*
X151323928Y-114624000D01*
X151323928Y-117024000D01*
X151336188Y-117148482D01*
X151372498Y-117268180D01*
X151431463Y-117378494D01*
X151510815Y-117475185D01*
X151607506Y-117554537D01*
X151717820Y-117613502D01*
X151837518Y-117649812D01*
X151962000Y-117662072D01*
X154362000Y-117662072D01*
X154486482Y-117649812D01*
X154606180Y-117613502D01*
X154716494Y-117554537D01*
X154813185Y-117475185D01*
X154892537Y-117378494D01*
X154951502Y-117268180D01*
X154987812Y-117148482D01*
X154992391Y-117101980D01*
X157143626Y-117101980D01*
X157263514Y-117386836D01*
X157587210Y-117547699D01*
X157936069Y-117642322D01*
X158296684Y-117667067D01*
X158655198Y-117620985D01*
X158997833Y-117505846D01*
X159220486Y-117386836D01*
X159340374Y-117101980D01*
X158242000Y-116003605D01*
X157143626Y-117101980D01*
X154992391Y-117101980D01*
X155000072Y-117024000D01*
X155000072Y-115878684D01*
X156398933Y-115878684D01*
X156445015Y-116237198D01*
X156560154Y-116579833D01*
X156679164Y-116802486D01*
X156964020Y-116922374D01*
X158062395Y-115824000D01*
X158421605Y-115824000D01*
X159519980Y-116922374D01*
X159804836Y-116802486D01*
X159965699Y-116478790D01*
X160060322Y-116129931D01*
X160085067Y-115769316D01*
X160038985Y-115410802D01*
X159923846Y-115068167D01*
X159804836Y-114845514D01*
X159519980Y-114725626D01*
X158421605Y-115824000D01*
X158062395Y-115824000D01*
X156964020Y-114725626D01*
X156679164Y-114845514D01*
X156518301Y-115169210D01*
X156423678Y-115518069D01*
X156398933Y-115878684D01*
X155000072Y-115878684D01*
X155000072Y-114624000D01*
X154992392Y-114546020D01*
X157143626Y-114546020D01*
X158242000Y-115644395D01*
X159340374Y-114546020D01*
X159220486Y-114261164D01*
X158896790Y-114100301D01*
X158547931Y-114005678D01*
X158187316Y-113980933D01*
X157828802Y-114027015D01*
X157486167Y-114142154D01*
X157263514Y-114261164D01*
X157143626Y-114546020D01*
X154992392Y-114546020D01*
X154987812Y-114499518D01*
X154951502Y-114379820D01*
X154892537Y-114269506D01*
X154813185Y-114172815D01*
X154716494Y-114093463D01*
X154606180Y-114034498D01*
X154486482Y-113998188D01*
X154362000Y-113985928D01*
X151962000Y-113985928D01*
X151837518Y-113998188D01*
X151717820Y-114034498D01*
X151607506Y-114093463D01*
X151510815Y-114172815D01*
X151431463Y-114269506D01*
X151372498Y-114379820D01*
X151336188Y-114499518D01*
X151323928Y-114624000D01*
X146127000Y-114624000D01*
X146127000Y-114122542D01*
X146177000Y-114096155D01*
X146177000Y-112903000D01*
X146431000Y-112903000D01*
X146431000Y-114096155D01*
X146660890Y-114217476D01*
X146808099Y-114172825D01*
X147070920Y-114047641D01*
X147304269Y-113873588D01*
X147499178Y-113657355D01*
X147648157Y-113407252D01*
X147745481Y-113132891D01*
X147624814Y-112903000D01*
X146431000Y-112903000D01*
X146177000Y-112903000D01*
X146157000Y-112903000D01*
X146157000Y-112649000D01*
X146177000Y-112649000D01*
X146177000Y-111455845D01*
X146431000Y-111455845D01*
X146431000Y-112649000D01*
X147624814Y-112649000D01*
X147745481Y-112419109D01*
X147648157Y-112144748D01*
X147499178Y-111894645D01*
X147304269Y-111678412D01*
X147070920Y-111504359D01*
X146808099Y-111379175D01*
X146660890Y-111334524D01*
X146431000Y-111455845D01*
X146177000Y-111455845D01*
X146127000Y-111429458D01*
X146127000Y-109682885D01*
X146157740Y-109689000D01*
X146450260Y-109689000D01*
X146737158Y-109631932D01*
X147007411Y-109519990D01*
X147250632Y-109357475D01*
X147457475Y-109150632D01*
X147619990Y-108907411D01*
X147731932Y-108637158D01*
X147789000Y-108350260D01*
X147789000Y-108057740D01*
X147731932Y-107770842D01*
X147619990Y-107500589D01*
X147457475Y-107257368D01*
X147250632Y-107050525D01*
X147007411Y-106888010D01*
X146737158Y-106776068D01*
X146450260Y-106719000D01*
X146157740Y-106719000D01*
X146127000Y-106725115D01*
X146127000Y-90000000D01*
X146124560Y-89975224D01*
X146117333Y-89951399D01*
X146105597Y-89929443D01*
X146089803Y-89910197D01*
X146070557Y-89894403D01*
X146048601Y-89882667D01*
X146024776Y-89875440D01*
X146000000Y-89873000D01*
X115127000Y-89873000D01*
X115127000Y-86004061D01*
X129775000Y-86004061D01*
X129775000Y-86207939D01*
X129814774Y-86407898D01*
X129892795Y-86596256D01*
X130006063Y-86765774D01*
X130150226Y-86909937D01*
X130319744Y-87023205D01*
X130508102Y-87101226D01*
X130708061Y-87141000D01*
X130911939Y-87141000D01*
X131111898Y-87101226D01*
X131300256Y-87023205D01*
X131348454Y-86991000D01*
X138787546Y-86991000D01*
X138835744Y-87023205D01*
X139024102Y-87101226D01*
X139224061Y-87141000D01*
X139427939Y-87141000D01*
X139627898Y-87101226D01*
X139816256Y-87023205D01*
X139985774Y-86909937D01*
X140129937Y-86765774D01*
X140243205Y-86596256D01*
X140321226Y-86407898D01*
X140361000Y-86207939D01*
X140361000Y-86004061D01*
X140321226Y-85804102D01*
X140243205Y-85615744D01*
X140129937Y-85446226D01*
X139985774Y-85302063D01*
X139816256Y-85188795D01*
X139627898Y-85110774D01*
X139427939Y-85071000D01*
X139224061Y-85071000D01*
X139024102Y-85110774D01*
X138835744Y-85188795D01*
X138787546Y-85221000D01*
X131348454Y-85221000D01*
X131300256Y-85188795D01*
X131111898Y-85110774D01*
X130911939Y-85071000D01*
X130708061Y-85071000D01*
X130508102Y-85110774D01*
X130319744Y-85188795D01*
X130150226Y-85302063D01*
X130006063Y-85446226D01*
X129892795Y-85615744D01*
X129814774Y-85804102D01*
X129775000Y-86004061D01*
X115127000Y-86004061D01*
X115127000Y-84000000D01*
X115124560Y-83975224D01*
X115117333Y-83951399D01*
X115105597Y-83929443D01*
X115089803Y-83910197D01*
X115070557Y-83894403D01*
X115048601Y-83882667D01*
X115024776Y-83875440D01*
X115000000Y-83873000D01*
X95660000Y-83873000D01*
X95660000Y-81178061D01*
X100565000Y-81178061D01*
X100565000Y-81381939D01*
X100604774Y-81581898D01*
X100682795Y-81770256D01*
X100796063Y-81939774D01*
X100940226Y-82083937D01*
X101109744Y-82197205D01*
X101298102Y-82275226D01*
X101498061Y-82315000D01*
X101701939Y-82315000D01*
X101901898Y-82275226D01*
X102090256Y-82197205D01*
X102259774Y-82083937D01*
X102403937Y-81939774D01*
X102517205Y-81770256D01*
X102595226Y-81581898D01*
X102635000Y-81381939D01*
X102635000Y-81178061D01*
X102595226Y-80978102D01*
X102517205Y-80789744D01*
X102485000Y-80741546D01*
X102485000Y-78598578D01*
X105747517Y-75336061D01*
X110217000Y-75336061D01*
X110217000Y-75539939D01*
X110256774Y-75739898D01*
X110334795Y-75928256D01*
X110448063Y-76097774D01*
X110592226Y-76241937D01*
X110761744Y-76355205D01*
X110950102Y-76433226D01*
X111150061Y-76473000D01*
X111353939Y-76473000D01*
X111553898Y-76433226D01*
X111742256Y-76355205D01*
X111760000Y-76343349D01*
X111777744Y-76355205D01*
X111966102Y-76433226D01*
X112166061Y-76473000D01*
X112369939Y-76473000D01*
X112569898Y-76433226D01*
X112758256Y-76355205D01*
X112927774Y-76241937D01*
X113071937Y-76097774D01*
X113185205Y-75928256D01*
X113263226Y-75739898D01*
X113303000Y-75539939D01*
X113303000Y-75336061D01*
X113263226Y-75136102D01*
X113185205Y-74947744D01*
X113071937Y-74778226D01*
X112927774Y-74634063D01*
X112758256Y-74520795D01*
X112569898Y-74442774D01*
X112369939Y-74403000D01*
X112166061Y-74403000D01*
X111966102Y-74442774D01*
X111777744Y-74520795D01*
X111760000Y-74532651D01*
X111742256Y-74520795D01*
X111553898Y-74442774D01*
X111353939Y-74403000D01*
X111150061Y-74403000D01*
X110950102Y-74442774D01*
X110761744Y-74520795D01*
X110592226Y-74634063D01*
X110448063Y-74778226D01*
X110334795Y-74947744D01*
X110256774Y-75136102D01*
X110217000Y-75336061D01*
X105747517Y-75336061D01*
X106792579Y-74291000D01*
X113679422Y-74291000D01*
X115929470Y-76541049D01*
X115957183Y-76574817D01*
X115969591Y-76585000D01*
X106735463Y-76585000D01*
X106691997Y-76580719D01*
X106648531Y-76585000D01*
X106648521Y-76585000D01*
X106518508Y-76597805D01*
X106351685Y-76648411D01*
X106197939Y-76730589D01*
X106197937Y-76730590D01*
X106197938Y-76730590D01*
X106096951Y-76813468D01*
X106096949Y-76813470D01*
X106063181Y-76841183D01*
X106035468Y-76874951D01*
X103544956Y-79365464D01*
X103511183Y-79393181D01*
X103400589Y-79527940D01*
X103318411Y-79681686D01*
X103267805Y-79848509D01*
X103255000Y-79978522D01*
X103255000Y-79978529D01*
X103250719Y-80021998D01*
X103255000Y-80065468D01*
X103255001Y-80741545D01*
X103222795Y-80789744D01*
X103144774Y-80978102D01*
X103105000Y-81178061D01*
X103105000Y-81381939D01*
X103144774Y-81581898D01*
X103222795Y-81770256D01*
X103336063Y-81939774D01*
X103480226Y-82083937D01*
X103649744Y-82197205D01*
X103838102Y-82275226D01*
X104038061Y-82315000D01*
X104241939Y-82315000D01*
X104441898Y-82275226D01*
X104630256Y-82197205D01*
X104799774Y-82083937D01*
X104943937Y-81939774D01*
X105057205Y-81770256D01*
X105135226Y-81581898D01*
X105175000Y-81381939D01*
X105175000Y-81178061D01*
X105135226Y-80978102D01*
X105057205Y-80789744D01*
X105025000Y-80741546D01*
X105025000Y-80388576D01*
X107058577Y-78355000D01*
X107091589Y-78355000D01*
X107079181Y-78365183D01*
X107051468Y-78398951D01*
X106084956Y-79365464D01*
X106051183Y-79393181D01*
X105940589Y-79527940D01*
X105858411Y-79681686D01*
X105807805Y-79848509D01*
X105795000Y-79978522D01*
X105795000Y-79978529D01*
X105790719Y-80021998D01*
X105795000Y-80065468D01*
X105795001Y-80741545D01*
X105762795Y-80789744D01*
X105684774Y-80978102D01*
X105645000Y-81178061D01*
X105645000Y-81381939D01*
X105684774Y-81581898D01*
X105762795Y-81770256D01*
X105876063Y-81939774D01*
X106020226Y-82083937D01*
X106189744Y-82197205D01*
X106378102Y-82275226D01*
X106578061Y-82315000D01*
X106781939Y-82315000D01*
X106981898Y-82275226D01*
X107170256Y-82197205D01*
X107339774Y-82083937D01*
X107483937Y-81939774D01*
X107597205Y-81770256D01*
X107675226Y-81581898D01*
X107715000Y-81381939D01*
X107715000Y-81178061D01*
X107675226Y-80978102D01*
X107597205Y-80789744D01*
X107565000Y-80741546D01*
X107565000Y-80388576D01*
X108074577Y-79879000D01*
X129750531Y-79879000D01*
X129794000Y-79883281D01*
X129837469Y-79879000D01*
X129837477Y-79879000D01*
X129967490Y-79866195D01*
X130134313Y-79815589D01*
X130288059Y-79733411D01*
X130422817Y-79622817D01*
X130450534Y-79589044D01*
X132860613Y-77178966D01*
X132851465Y-77224956D01*
X129681422Y-80395000D01*
X109758454Y-80395000D01*
X109710256Y-80362795D01*
X109521898Y-80284774D01*
X109321939Y-80245000D01*
X109118061Y-80245000D01*
X108918102Y-80284774D01*
X108729744Y-80362795D01*
X108560226Y-80476063D01*
X108416063Y-80620226D01*
X108302795Y-80789744D01*
X108224774Y-80978102D01*
X108185000Y-81178061D01*
X108185000Y-81381939D01*
X108224774Y-81581898D01*
X108302795Y-81770256D01*
X108416063Y-81939774D01*
X108560226Y-82083937D01*
X108729744Y-82197205D01*
X108918102Y-82275226D01*
X109118061Y-82315000D01*
X109321939Y-82315000D01*
X109521898Y-82275226D01*
X109710256Y-82197205D01*
X109758454Y-82165000D01*
X130004531Y-82165000D01*
X130048000Y-82169281D01*
X130091469Y-82165000D01*
X130091477Y-82165000D01*
X130221490Y-82152195D01*
X130388313Y-82101589D01*
X130542059Y-82019411D01*
X130676817Y-81908817D01*
X130704534Y-81875044D01*
X133941517Y-78638061D01*
X150095000Y-78638061D01*
X150095000Y-78841939D01*
X150134774Y-79041898D01*
X150212795Y-79230256D01*
X150326063Y-79399774D01*
X150470226Y-79543937D01*
X150639744Y-79657205D01*
X150828102Y-79735226D01*
X151028061Y-79775000D01*
X151231939Y-79775000D01*
X151431898Y-79735226D01*
X151620256Y-79657205D01*
X151668454Y-79625000D01*
X176671422Y-79625000D01*
X178571465Y-81525044D01*
X178582774Y-81581898D01*
X178660795Y-81770256D01*
X178774063Y-81939774D01*
X178918226Y-82083937D01*
X179087744Y-82197205D01*
X179276102Y-82275226D01*
X179476061Y-82315000D01*
X179679939Y-82315000D01*
X179879898Y-82275226D01*
X180068256Y-82197205D01*
X180237774Y-82083937D01*
X180381937Y-81939774D01*
X180495205Y-81770256D01*
X180573226Y-81581898D01*
X180613000Y-81381939D01*
X180613000Y-81178061D01*
X180573226Y-80978102D01*
X180495205Y-80789744D01*
X180381937Y-80620226D01*
X180237774Y-80476063D01*
X180068256Y-80362795D01*
X179879898Y-80284774D01*
X179823044Y-80273465D01*
X177694534Y-78144956D01*
X177666817Y-78111183D01*
X177532059Y-78000589D01*
X177378313Y-77918411D01*
X177211490Y-77867805D01*
X177081477Y-77855000D01*
X177081469Y-77855000D01*
X177038000Y-77850719D01*
X176994531Y-77855000D01*
X151668454Y-77855000D01*
X151620256Y-77822795D01*
X151431898Y-77744774D01*
X151231939Y-77705000D01*
X151028061Y-77705000D01*
X150828102Y-77744774D01*
X150639744Y-77822795D01*
X150470226Y-77936063D01*
X150326063Y-78080226D01*
X150212795Y-78249744D01*
X150134774Y-78438102D01*
X150095000Y-78638061D01*
X133941517Y-78638061D01*
X134103044Y-78476535D01*
X134159898Y-78465226D01*
X134348256Y-78387205D01*
X134517774Y-78273937D01*
X134661937Y-78129774D01*
X134775205Y-77960256D01*
X134853226Y-77771898D01*
X134893000Y-77571939D01*
X134893000Y-77368061D01*
X134853226Y-77168102D01*
X134775205Y-76979744D01*
X134678490Y-76835000D01*
X134775205Y-76690256D01*
X134853226Y-76501898D01*
X134893000Y-76301939D01*
X134893000Y-76098061D01*
X134853226Y-75898102D01*
X134775205Y-75709744D01*
X134678490Y-75565000D01*
X134775205Y-75420256D01*
X134853226Y-75231898D01*
X134893000Y-75031939D01*
X134893000Y-74828061D01*
X134853226Y-74628102D01*
X134775205Y-74439744D01*
X134678490Y-74295000D01*
X134775205Y-74150256D01*
X134853226Y-73961898D01*
X134893000Y-73761939D01*
X134893000Y-73558061D01*
X134853226Y-73358102D01*
X134775205Y-73169744D01*
X134661937Y-73000226D01*
X134517774Y-72856063D01*
X134348256Y-72742795D01*
X134159898Y-72664774D01*
X133959939Y-72625000D01*
X133756061Y-72625000D01*
X133556102Y-72664774D01*
X133367744Y-72742795D01*
X133319546Y-72775000D01*
X130599465Y-72775000D01*
X130555999Y-72770719D01*
X130512533Y-72775000D01*
X130512523Y-72775000D01*
X130382510Y-72787805D01*
X130215687Y-72838411D01*
X130061941Y-72920589D01*
X130061939Y-72920590D01*
X130061940Y-72920590D01*
X129960953Y-73003468D01*
X129960951Y-73003470D01*
X129927183Y-73031183D01*
X129899470Y-73064951D01*
X127903422Y-75061000D01*
X119398481Y-75061000D01*
X119531774Y-74971937D01*
X119675937Y-74827774D01*
X119789205Y-74658256D01*
X119867226Y-74469898D01*
X119907000Y-74269939D01*
X119907000Y-74066061D01*
X119867226Y-73866102D01*
X119789205Y-73677744D01*
X119675937Y-73508226D01*
X119531774Y-73364063D01*
X119362256Y-73250795D01*
X119173898Y-73172774D01*
X119117044Y-73161465D01*
X116963000Y-71007422D01*
X116963000Y-69118454D01*
X116995205Y-69070256D01*
X117073226Y-68881898D01*
X117113000Y-68681939D01*
X117113000Y-68478061D01*
X117073226Y-68278102D01*
X116995205Y-68089744D01*
X116881937Y-67920226D01*
X116737774Y-67776063D01*
X116568256Y-67662795D01*
X116379898Y-67584774D01*
X116179939Y-67545000D01*
X115976061Y-67545000D01*
X115776102Y-67584774D01*
X115587744Y-67662795D01*
X115418226Y-67776063D01*
X115274063Y-67920226D01*
X115160795Y-68089744D01*
X115082774Y-68278102D01*
X115043000Y-68478061D01*
X115043000Y-68681939D01*
X115082774Y-68881898D01*
X115160795Y-69070256D01*
X115193000Y-69118455D01*
X115193001Y-71330521D01*
X115188719Y-71374000D01*
X115205805Y-71547490D01*
X115256412Y-71714313D01*
X115338590Y-71868059D01*
X115421468Y-71969046D01*
X115421471Y-71969049D01*
X115449184Y-72002817D01*
X115482951Y-72030529D01*
X117865465Y-74413044D01*
X117876774Y-74469898D01*
X117954795Y-74658256D01*
X118068063Y-74827774D01*
X118212226Y-74971937D01*
X118345519Y-75061000D01*
X116952579Y-75061000D01*
X114702534Y-72810956D01*
X114674817Y-72777183D01*
X114540059Y-72666589D01*
X114386313Y-72584411D01*
X114219490Y-72533805D01*
X114089477Y-72521000D01*
X114089469Y-72521000D01*
X114046000Y-72516719D01*
X114002531Y-72521000D01*
X106469469Y-72521000D01*
X106426000Y-72516719D01*
X106382531Y-72521000D01*
X106382523Y-72521000D01*
X106252510Y-72533805D01*
X106085686Y-72584411D01*
X105931941Y-72666589D01*
X105830953Y-72749468D01*
X105830951Y-72749470D01*
X105797183Y-72777183D01*
X105769470Y-72810951D01*
X101004952Y-77575470D01*
X100971184Y-77603183D01*
X100943471Y-77636951D01*
X100943468Y-77636954D01*
X100860590Y-77737941D01*
X100778412Y-77891687D01*
X100727805Y-78058510D01*
X100710719Y-78232000D01*
X100715001Y-78275479D01*
X100715000Y-80741545D01*
X100682795Y-80789744D01*
X100604774Y-80978102D01*
X100565000Y-81178061D01*
X95660000Y-81178061D01*
X95660000Y-67462061D01*
X130791000Y-67462061D01*
X130791000Y-67665939D01*
X130830774Y-67865898D01*
X130908795Y-68054256D01*
X130920651Y-68072000D01*
X130908795Y-68089744D01*
X130830774Y-68278102D01*
X130791000Y-68478061D01*
X130791000Y-68681939D01*
X130830774Y-68881898D01*
X130908795Y-69070256D01*
X131022063Y-69239774D01*
X131166226Y-69383937D01*
X131335744Y-69497205D01*
X131524102Y-69575226D01*
X131724061Y-69615000D01*
X131927939Y-69615000D01*
X132127898Y-69575226D01*
X132316256Y-69497205D01*
X132485774Y-69383937D01*
X132629937Y-69239774D01*
X132743205Y-69070256D01*
X132821226Y-68881898D01*
X132861000Y-68681939D01*
X132861000Y-68478061D01*
X132821226Y-68278102D01*
X132743205Y-68089744D01*
X132731349Y-68072000D01*
X132743205Y-68054256D01*
X132821226Y-67865898D01*
X132861000Y-67665939D01*
X132861000Y-67462061D01*
X132821226Y-67262102D01*
X132743205Y-67073744D01*
X132629937Y-66904226D01*
X132485774Y-66760063D01*
X132316256Y-66646795D01*
X132127898Y-66568774D01*
X131927939Y-66529000D01*
X131724061Y-66529000D01*
X131524102Y-66568774D01*
X131335744Y-66646795D01*
X131166226Y-66760063D01*
X131022063Y-66904226D01*
X130908795Y-67073744D01*
X130830774Y-67262102D01*
X130791000Y-67462061D01*
X95660000Y-67462061D01*
X95660000Y-61032279D01*
X95677082Y-60858061D01*
X121901000Y-60858061D01*
X121901000Y-61061939D01*
X121940774Y-61261898D01*
X122018795Y-61450256D01*
X122030651Y-61468000D01*
X122018795Y-61485744D01*
X121940774Y-61674102D01*
X121901000Y-61874061D01*
X121901000Y-62077939D01*
X121940774Y-62277898D01*
X122018795Y-62466256D01*
X122132063Y-62635774D01*
X122276226Y-62779937D01*
X122445744Y-62893205D01*
X122634102Y-62971226D01*
X122834061Y-63011000D01*
X123037939Y-63011000D01*
X123237898Y-62971226D01*
X123426256Y-62893205D01*
X123595774Y-62779937D01*
X123739937Y-62635774D01*
X123853205Y-62466256D01*
X123931226Y-62277898D01*
X123971000Y-62077939D01*
X123971000Y-61874061D01*
X123931226Y-61674102D01*
X123853205Y-61485744D01*
X123841349Y-61468000D01*
X123853205Y-61450256D01*
X123931226Y-61261898D01*
X123971000Y-61061939D01*
X123971000Y-60858061D01*
X123931226Y-60658102D01*
X123853205Y-60469744D01*
X123739937Y-60300226D01*
X123595774Y-60156063D01*
X123426256Y-60042795D01*
X123237898Y-59964774D01*
X123037939Y-59925000D01*
X122834061Y-59925000D01*
X122634102Y-59964774D01*
X122445744Y-60042795D01*
X122276226Y-60156063D01*
X122132063Y-60300226D01*
X122018795Y-60469744D01*
X121940774Y-60658102D01*
X121901000Y-60858061D01*
X95677082Y-60858061D01*
X95707670Y-60546107D01*
X95839489Y-60109502D01*
X96053600Y-59706815D01*
X96341848Y-59353388D01*
X96693261Y-59062673D01*
X97094439Y-58845758D01*
X97530113Y-58710894D01*
X98014344Y-58660000D01*
X134873000Y-58660000D01*
X134873000Y-70000000D01*
G37*
X134873000Y-70000000D02*
X134875440Y-70024776D01*
X134882667Y-70048601D01*
X134894403Y-70070557D01*
X134910197Y-70089803D01*
X134929443Y-70105597D01*
X134951399Y-70117333D01*
X134975224Y-70124560D01*
X135000000Y-70127000D01*
X150822728Y-70127000D01*
X150639744Y-70202795D01*
X150470226Y-70316063D01*
X150326063Y-70460226D01*
X150212795Y-70629744D01*
X150134774Y-70818102D01*
X150095000Y-71018061D01*
X150095000Y-71221939D01*
X150134774Y-71421898D01*
X150212795Y-71610256D01*
X150309510Y-71755000D01*
X150212795Y-71899744D01*
X150134774Y-72088102D01*
X150095000Y-72288061D01*
X150095000Y-72491939D01*
X150134774Y-72691898D01*
X150212795Y-72880256D01*
X150326063Y-73049774D01*
X150470226Y-73193937D01*
X150639744Y-73307205D01*
X150828102Y-73385226D01*
X150884957Y-73396535D01*
X152759470Y-75271049D01*
X152787183Y-75304817D01*
X152799591Y-75315000D01*
X151668454Y-75315000D01*
X151620256Y-75282795D01*
X151431898Y-75204774D01*
X151231939Y-75165000D01*
X151028061Y-75165000D01*
X150828102Y-75204774D01*
X150639744Y-75282795D01*
X150470226Y-75396063D01*
X150326063Y-75540226D01*
X150212795Y-75709744D01*
X150134774Y-75898102D01*
X150095000Y-76098061D01*
X150095000Y-76301939D01*
X150134774Y-76501898D01*
X150212795Y-76690256D01*
X150326063Y-76859774D01*
X150470226Y-77003937D01*
X150639744Y-77117205D01*
X150828102Y-77195226D01*
X151028061Y-77235000D01*
X151231939Y-77235000D01*
X151431898Y-77195226D01*
X151620256Y-77117205D01*
X151668454Y-77085000D01*
X179465422Y-77085000D01*
X181233001Y-78852580D01*
X181233000Y-80741545D01*
X181200795Y-80789744D01*
X181122774Y-80978102D01*
X181083000Y-81178061D01*
X181083000Y-81381939D01*
X181122774Y-81581898D01*
X181200795Y-81770256D01*
X181314063Y-81939774D01*
X181458226Y-82083937D01*
X181627744Y-82197205D01*
X181816102Y-82275226D01*
X182016061Y-82315000D01*
X182219939Y-82315000D01*
X182419898Y-82275226D01*
X182608256Y-82197205D01*
X182777774Y-82083937D01*
X182921937Y-81939774D01*
X183035205Y-81770256D01*
X183113226Y-81581898D01*
X183153000Y-81381939D01*
X183153000Y-81178061D01*
X183113226Y-80978102D01*
X183035205Y-80789744D01*
X183003000Y-80741546D01*
X183003000Y-78529465D01*
X183007281Y-78485999D01*
X183003000Y-78442533D01*
X183003000Y-78442523D01*
X182990195Y-78312510D01*
X182939589Y-78145687D01*
X182857411Y-77991941D01*
X182746817Y-77857183D01*
X182713049Y-77829470D01*
X180488534Y-75604956D01*
X180460817Y-75571183D01*
X180448409Y-75561000D01*
X180989422Y-75561000D01*
X183773000Y-78344579D01*
X183773001Y-80741544D01*
X183740795Y-80789744D01*
X183662774Y-80978102D01*
X183623000Y-81178061D01*
X183623000Y-81381939D01*
X183662774Y-81581898D01*
X183740795Y-81770256D01*
X183854063Y-81939774D01*
X183998226Y-82083937D01*
X184167744Y-82197205D01*
X184356102Y-82275226D01*
X184556061Y-82315000D01*
X184759939Y-82315000D01*
X184959898Y-82275226D01*
X185148256Y-82197205D01*
X185317774Y-82083937D01*
X185461937Y-81939774D01*
X185575205Y-81770256D01*
X185653226Y-81581898D01*
X185693000Y-81381939D01*
X185693000Y-81178061D01*
X185653226Y-80978102D01*
X185575205Y-80789744D01*
X185543000Y-80741546D01*
X185543000Y-78336579D01*
X186313001Y-79106580D01*
X186313000Y-80741545D01*
X186280795Y-80789744D01*
X186202774Y-80978102D01*
X186163000Y-81178061D01*
X186163000Y-81381939D01*
X186202774Y-81581898D01*
X186280795Y-81770256D01*
X186394063Y-81939774D01*
X186538226Y-82083937D01*
X186707744Y-82197205D01*
X186896102Y-82275226D01*
X187096061Y-82315000D01*
X187299939Y-82315000D01*
X187499898Y-82275226D01*
X187688256Y-82197205D01*
X187857774Y-82083937D01*
X188001937Y-81939774D01*
X188115205Y-81770256D01*
X188193226Y-81581898D01*
X188233000Y-81381939D01*
X188233000Y-81178061D01*
X188193226Y-80978102D01*
X188115205Y-80789744D01*
X188083000Y-80741546D01*
X188083000Y-78783465D01*
X188087281Y-78739999D01*
X188083000Y-78696533D01*
X188083000Y-78696523D01*
X188070195Y-78566510D01*
X188019589Y-78399687D01*
X187937411Y-78245941D01*
X187855134Y-78145687D01*
X187854532Y-78144953D01*
X187854530Y-78144951D01*
X187826817Y-78111183D01*
X187793049Y-78083470D01*
X185045640Y-75336061D01*
X188195000Y-75336061D01*
X188195000Y-75539939D01*
X188234774Y-75739898D01*
X188312795Y-75928256D01*
X188426063Y-76097774D01*
X188570226Y-76241937D01*
X188739744Y-76355205D01*
X188928102Y-76433226D01*
X189128061Y-76473000D01*
X189331939Y-76473000D01*
X189531898Y-76433226D01*
X189720256Y-76355205D01*
X189738000Y-76343349D01*
X189755744Y-76355205D01*
X189944102Y-76433226D01*
X190144061Y-76473000D01*
X190347939Y-76473000D01*
X190547898Y-76433226D01*
X190736256Y-76355205D01*
X190905774Y-76241937D01*
X191049937Y-76097774D01*
X191163205Y-75928256D01*
X191241226Y-75739898D01*
X191281000Y-75539939D01*
X191281000Y-75336061D01*
X191241226Y-75136102D01*
X191163205Y-74947744D01*
X191049937Y-74778226D01*
X190905774Y-74634063D01*
X190736256Y-74520795D01*
X190547898Y-74442774D01*
X190347939Y-74403000D01*
X190144061Y-74403000D01*
X189944102Y-74442774D01*
X189755744Y-74520795D01*
X189738000Y-74532651D01*
X189720256Y-74520795D01*
X189531898Y-74442774D01*
X189331939Y-74403000D01*
X189128061Y-74403000D01*
X188928102Y-74442774D01*
X188739744Y-74520795D01*
X188570226Y-74634063D01*
X188426063Y-74778226D01*
X188312795Y-74947744D01*
X188234774Y-75136102D01*
X188195000Y-75336061D01*
X185045640Y-75336061D01*
X182266534Y-72556956D01*
X182238817Y-72523183D01*
X182104059Y-72412589D01*
X181950313Y-72330411D01*
X181783490Y-72279805D01*
X181653477Y-72267000D01*
X181653469Y-72267000D01*
X181610000Y-72262719D01*
X181566531Y-72267000D01*
X154544579Y-72267000D01*
X152802534Y-70524956D01*
X152774817Y-70491183D01*
X152640059Y-70380589D01*
X152486313Y-70298411D01*
X152319490Y-70247805D01*
X152189477Y-70235000D01*
X152189469Y-70235000D01*
X152146000Y-70230719D01*
X152102531Y-70235000D01*
X151668454Y-70235000D01*
X151620256Y-70202795D01*
X151437272Y-70127000D01*
X155000000Y-70127000D01*
X155024776Y-70124560D01*
X155048601Y-70117333D01*
X155070557Y-70105597D01*
X155089803Y-70089803D01*
X155105597Y-70070557D01*
X155117333Y-70048601D01*
X155124560Y-70024776D01*
X155126797Y-70002061D01*
X172955000Y-70002061D01*
X172955000Y-70205939D01*
X172994774Y-70405898D01*
X173072795Y-70594256D01*
X173186063Y-70763774D01*
X173330226Y-70907937D01*
X173499744Y-71021205D01*
X173688102Y-71099226D01*
X173888061Y-71139000D01*
X174091939Y-71139000D01*
X174291898Y-71099226D01*
X174480256Y-71021205D01*
X174649774Y-70907937D01*
X174793937Y-70763774D01*
X174907205Y-70594256D01*
X174985226Y-70405898D01*
X175025000Y-70205939D01*
X175025000Y-70002061D01*
X174985226Y-69802102D01*
X174907205Y-69613744D01*
X174793937Y-69444226D01*
X174649774Y-69300063D01*
X174480256Y-69186795D01*
X174291898Y-69108774D01*
X174091939Y-69069000D01*
X173888061Y-69069000D01*
X173688102Y-69108774D01*
X173499744Y-69186795D01*
X173330226Y-69300063D01*
X173186063Y-69444226D01*
X173072795Y-69613744D01*
X172994774Y-69802102D01*
X172955000Y-70002061D01*
X155126797Y-70002061D01*
X155127000Y-70000000D01*
X155127000Y-68732061D01*
X180575000Y-68732061D01*
X180575000Y-68935939D01*
X180614774Y-69135898D01*
X180692795Y-69324256D01*
X180806063Y-69493774D01*
X180950226Y-69637937D01*
X181119744Y-69751205D01*
X181308102Y-69829226D01*
X181508061Y-69869000D01*
X181711939Y-69869000D01*
X181911898Y-69829226D01*
X182100256Y-69751205D01*
X182118000Y-69739349D01*
X182135744Y-69751205D01*
X182324102Y-69829226D01*
X182524061Y-69869000D01*
X182727939Y-69869000D01*
X182927898Y-69829226D01*
X183116256Y-69751205D01*
X183134000Y-69739349D01*
X183151744Y-69751205D01*
X183340102Y-69829226D01*
X183540061Y-69869000D01*
X183743939Y-69869000D01*
X183943898Y-69829226D01*
X184132256Y-69751205D01*
X184301774Y-69637937D01*
X184445937Y-69493774D01*
X184559205Y-69324256D01*
X184637226Y-69135898D01*
X184677000Y-68935939D01*
X184677000Y-68732061D01*
X184637226Y-68532102D01*
X184559205Y-68343744D01*
X184445937Y-68174226D01*
X184301774Y-68030063D01*
X184132256Y-67916795D01*
X183943898Y-67838774D01*
X183743939Y-67799000D01*
X183540061Y-67799000D01*
X183340102Y-67838774D01*
X183151744Y-67916795D01*
X183134000Y-67928651D01*
X183116256Y-67916795D01*
X182927898Y-67838774D01*
X182727939Y-67799000D01*
X182524061Y-67799000D01*
X182324102Y-67838774D01*
X182135744Y-67916795D01*
X182118000Y-67928651D01*
X182100256Y-67916795D01*
X181911898Y-67838774D01*
X181711939Y-67799000D01*
X181508061Y-67799000D01*
X181308102Y-67838774D01*
X181119744Y-67916795D01*
X180950226Y-68030063D01*
X180806063Y-68174226D01*
X180692795Y-68343744D01*
X180614774Y-68532102D01*
X180575000Y-68732061D01*
X155127000Y-68732061D01*
X155127000Y-66446061D01*
X188449000Y-66446061D01*
X188449000Y-66649939D01*
X188488774Y-66849898D01*
X188566795Y-67038256D01*
X188578651Y-67056000D01*
X188566795Y-67073744D01*
X188488774Y-67262102D01*
X188449000Y-67462061D01*
X188449000Y-67665939D01*
X188488774Y-67865898D01*
X188566795Y-68054256D01*
X188578651Y-68072000D01*
X188566795Y-68089744D01*
X188488774Y-68278102D01*
X188449000Y-68478061D01*
X188449000Y-68681939D01*
X188488774Y-68881898D01*
X188566795Y-69070256D01*
X188680063Y-69239774D01*
X188824226Y-69383937D01*
X188993744Y-69497205D01*
X189182102Y-69575226D01*
X189382061Y-69615000D01*
X189585939Y-69615000D01*
X189785898Y-69575226D01*
X189974256Y-69497205D01*
X189992000Y-69485349D01*
X190009744Y-69497205D01*
X190198102Y-69575226D01*
X190398061Y-69615000D01*
X190601939Y-69615000D01*
X190801898Y-69575226D01*
X190990256Y-69497205D01*
X191008000Y-69485349D01*
X191025744Y-69497205D01*
X191214102Y-69575226D01*
X191414061Y-69615000D01*
X191617939Y-69615000D01*
X191817898Y-69575226D01*
X192006256Y-69497205D01*
X192175774Y-69383937D01*
X192319937Y-69239774D01*
X192433205Y-69070256D01*
X192511226Y-68881898D01*
X192551000Y-68681939D01*
X192551000Y-68478061D01*
X192511226Y-68278102D01*
X192433205Y-68089744D01*
X192421349Y-68072000D01*
X192433205Y-68054256D01*
X192511226Y-67865898D01*
X192551000Y-67665939D01*
X192551000Y-67462061D01*
X192511226Y-67262102D01*
X192433205Y-67073744D01*
X192421349Y-67056000D01*
X192433205Y-67038256D01*
X192511226Y-66849898D01*
X192551000Y-66649939D01*
X192551000Y-66446061D01*
X192511226Y-66246102D01*
X192433205Y-66057744D01*
X192319937Y-65888226D01*
X192175774Y-65744063D01*
X192006256Y-65630795D01*
X191817898Y-65552774D01*
X191617939Y-65513000D01*
X191414061Y-65513000D01*
X191214102Y-65552774D01*
X191025744Y-65630795D01*
X191008000Y-65642651D01*
X190990256Y-65630795D01*
X190801898Y-65552774D01*
X190601939Y-65513000D01*
X190398061Y-65513000D01*
X190198102Y-65552774D01*
X190009744Y-65630795D01*
X189992000Y-65642651D01*
X189974256Y-65630795D01*
X189785898Y-65552774D01*
X189585939Y-65513000D01*
X189382061Y-65513000D01*
X189182102Y-65552774D01*
X188993744Y-65630795D01*
X188824226Y-65744063D01*
X188680063Y-65888226D01*
X188566795Y-66057744D01*
X188488774Y-66246102D01*
X188449000Y-66446061D01*
X155127000Y-66446061D01*
X155127000Y-63158000D01*
X156245928Y-63158000D01*
X156245928Y-64858000D01*
X156258188Y-64982482D01*
X156294498Y-65102180D01*
X156353463Y-65212494D01*
X156432815Y-65309185D01*
X156529506Y-65388537D01*
X156639820Y-65447502D01*
X156759518Y-65483812D01*
X156884000Y-65496072D01*
X158584000Y-65496072D01*
X158708482Y-65483812D01*
X158828180Y-65447502D01*
X158938494Y-65388537D01*
X159035185Y-65309185D01*
X159114537Y-65212494D01*
X159173502Y-65102180D01*
X159195513Y-65029620D01*
X159327368Y-65161475D01*
X159570589Y-65323990D01*
X159840842Y-65435932D01*
X160127740Y-65493000D01*
X160420260Y-65493000D01*
X160707158Y-65435932D01*
X160977411Y-65323990D01*
X161220632Y-65161475D01*
X161427475Y-64954632D01*
X161549195Y-64772466D01*
X161618822Y-64889355D01*
X161813731Y-65105588D01*
X162047080Y-65279641D01*
X162309901Y-65404825D01*
X162457110Y-65449476D01*
X162687000Y-65328155D01*
X162687000Y-64135000D01*
X162941000Y-64135000D01*
X162941000Y-65328155D01*
X163170890Y-65449476D01*
X163318099Y-65404825D01*
X163580920Y-65279641D01*
X163814269Y-65105588D01*
X164009178Y-64889355D01*
X164158157Y-64639252D01*
X164255481Y-64364891D01*
X164134814Y-64135000D01*
X162941000Y-64135000D01*
X162687000Y-64135000D01*
X162667000Y-64135000D01*
X162667000Y-63881000D01*
X162687000Y-63881000D01*
X162687000Y-62687845D01*
X162941000Y-62687845D01*
X162941000Y-63881000D01*
X164134814Y-63881000D01*
X164255481Y-63651109D01*
X164158157Y-63376748D01*
X164009178Y-63126645D01*
X163814269Y-62910412D01*
X163580920Y-62736359D01*
X163318099Y-62611175D01*
X163170890Y-62566524D01*
X162941000Y-62687845D01*
X162687000Y-62687845D01*
X162457110Y-62566524D01*
X162309901Y-62611175D01*
X162047080Y-62736359D01*
X161813731Y-62910412D01*
X161618822Y-63126645D01*
X161549195Y-63243534D01*
X161427475Y-63061368D01*
X161220632Y-62854525D01*
X160977411Y-62692010D01*
X160707158Y-62580068D01*
X160420260Y-62523000D01*
X160127740Y-62523000D01*
X159840842Y-62580068D01*
X159570589Y-62692010D01*
X159327368Y-62854525D01*
X159195513Y-62986380D01*
X159173502Y-62913820D01*
X159114537Y-62803506D01*
X159035185Y-62706815D01*
X158938494Y-62627463D01*
X158828180Y-62568498D01*
X158708482Y-62532188D01*
X158584000Y-62519928D01*
X156884000Y-62519928D01*
X156759518Y-62532188D01*
X156639820Y-62568498D01*
X156529506Y-62627463D01*
X156432815Y-62706815D01*
X156353463Y-62803506D01*
X156294498Y-62913820D01*
X156258188Y-63033518D01*
X156245928Y-63158000D01*
X155127000Y-63158000D01*
X155127000Y-62128061D01*
X180575000Y-62128061D01*
X180575000Y-62331939D01*
X180614774Y-62531898D01*
X180692795Y-62720256D01*
X180806063Y-62889774D01*
X180950226Y-63033937D01*
X181119744Y-63147205D01*
X181308102Y-63225226D01*
X181508061Y-63265000D01*
X181711939Y-63265000D01*
X181911898Y-63225226D01*
X182100256Y-63147205D01*
X182118000Y-63135349D01*
X182135744Y-63147205D01*
X182324102Y-63225226D01*
X182524061Y-63265000D01*
X182727939Y-63265000D01*
X182927898Y-63225226D01*
X183116256Y-63147205D01*
X183134000Y-63135349D01*
X183151744Y-63147205D01*
X183340102Y-63225226D01*
X183540061Y-63265000D01*
X183743939Y-63265000D01*
X183943898Y-63225226D01*
X184132256Y-63147205D01*
X184301774Y-63033937D01*
X184445937Y-62889774D01*
X184559205Y-62720256D01*
X184637226Y-62531898D01*
X184677000Y-62331939D01*
X184677000Y-62128061D01*
X184637226Y-61928102D01*
X184559205Y-61739744D01*
X184445937Y-61570226D01*
X184301774Y-61426063D01*
X184132256Y-61312795D01*
X183943898Y-61234774D01*
X183743939Y-61195000D01*
X183540061Y-61195000D01*
X183340102Y-61234774D01*
X183151744Y-61312795D01*
X183134000Y-61324651D01*
X183116256Y-61312795D01*
X182927898Y-61234774D01*
X182727939Y-61195000D01*
X182524061Y-61195000D01*
X182324102Y-61234774D01*
X182135744Y-61312795D01*
X182118000Y-61324651D01*
X182100256Y-61312795D01*
X181911898Y-61234774D01*
X181711939Y-61195000D01*
X181508061Y-61195000D01*
X181308102Y-61234774D01*
X181119744Y-61312795D01*
X180950226Y-61426063D01*
X180806063Y-61570226D01*
X180692795Y-61739744D01*
X180614774Y-61928102D01*
X180575000Y-62128061D01*
X155127000Y-62128061D01*
X155127000Y-58660000D01*
X192967721Y-58660000D01*
X193259659Y-58688625D01*
X193509429Y-58764035D01*
X193739792Y-58886522D01*
X193941980Y-59051422D01*
X194108286Y-59252450D01*
X194232378Y-59481954D01*
X194309531Y-59731195D01*
X194340001Y-60021098D01*
X194340001Y-83873000D01*
X175000000Y-83873000D01*
X174975224Y-83875440D01*
X174951399Y-83882667D01*
X174929443Y-83894403D01*
X174910197Y-83910197D01*
X174894403Y-83929443D01*
X174882667Y-83951399D01*
X174875440Y-83975224D01*
X174873000Y-84000000D01*
X174873000Y-89873000D01*
X161000000Y-89873000D01*
X160975224Y-89875440D01*
X160951399Y-89882667D01*
X160929443Y-89894403D01*
X160910197Y-89910197D01*
X160894403Y-89929443D01*
X160882667Y-89951399D01*
X160875440Y-89975224D01*
X160873000Y-90000000D01*
X160873000Y-120873000D01*
X146127000Y-120873000D01*
X146127000Y-114624000D01*
X151323928Y-114624000D01*
X151323928Y-117024000D01*
X151336188Y-117148482D01*
X151372498Y-117268180D01*
X151431463Y-117378494D01*
X151510815Y-117475185D01*
X151607506Y-117554537D01*
X151717820Y-117613502D01*
X151837518Y-117649812D01*
X151962000Y-117662072D01*
X154362000Y-117662072D01*
X154486482Y-117649812D01*
X154606180Y-117613502D01*
X154716494Y-117554537D01*
X154813185Y-117475185D01*
X154892537Y-117378494D01*
X154951502Y-117268180D01*
X154987812Y-117148482D01*
X154992391Y-117101980D01*
X157143626Y-117101980D01*
X157263514Y-117386836D01*
X157587210Y-117547699D01*
X157936069Y-117642322D01*
X158296684Y-117667067D01*
X158655198Y-117620985D01*
X158997833Y-117505846D01*
X159220486Y-117386836D01*
X159340374Y-117101980D01*
X158242000Y-116003605D01*
X157143626Y-117101980D01*
X154992391Y-117101980D01*
X155000072Y-117024000D01*
X155000072Y-115878684D01*
X156398933Y-115878684D01*
X156445015Y-116237198D01*
X156560154Y-116579833D01*
X156679164Y-116802486D01*
X156964020Y-116922374D01*
X158062395Y-115824000D01*
X158421605Y-115824000D01*
X159519980Y-116922374D01*
X159804836Y-116802486D01*
X159965699Y-116478790D01*
X160060322Y-116129931D01*
X160085067Y-115769316D01*
X160038985Y-115410802D01*
X159923846Y-115068167D01*
X159804836Y-114845514D01*
X159519980Y-114725626D01*
X158421605Y-115824000D01*
X158062395Y-115824000D01*
X156964020Y-114725626D01*
X156679164Y-114845514D01*
X156518301Y-115169210D01*
X156423678Y-115518069D01*
X156398933Y-115878684D01*
X155000072Y-115878684D01*
X155000072Y-114624000D01*
X154992392Y-114546020D01*
X157143626Y-114546020D01*
X158242000Y-115644395D01*
X159340374Y-114546020D01*
X159220486Y-114261164D01*
X158896790Y-114100301D01*
X158547931Y-114005678D01*
X158187316Y-113980933D01*
X157828802Y-114027015D01*
X157486167Y-114142154D01*
X157263514Y-114261164D01*
X157143626Y-114546020D01*
X154992392Y-114546020D01*
X154987812Y-114499518D01*
X154951502Y-114379820D01*
X154892537Y-114269506D01*
X154813185Y-114172815D01*
X154716494Y-114093463D01*
X154606180Y-114034498D01*
X154486482Y-113998188D01*
X154362000Y-113985928D01*
X151962000Y-113985928D01*
X151837518Y-113998188D01*
X151717820Y-114034498D01*
X151607506Y-114093463D01*
X151510815Y-114172815D01*
X151431463Y-114269506D01*
X151372498Y-114379820D01*
X151336188Y-114499518D01*
X151323928Y-114624000D01*
X146127000Y-114624000D01*
X146127000Y-114122542D01*
X146177000Y-114096155D01*
X146177000Y-112903000D01*
X146431000Y-112903000D01*
X146431000Y-114096155D01*
X146660890Y-114217476D01*
X146808099Y-114172825D01*
X147070920Y-114047641D01*
X147304269Y-113873588D01*
X147499178Y-113657355D01*
X147648157Y-113407252D01*
X147745481Y-113132891D01*
X147624814Y-112903000D01*
X146431000Y-112903000D01*
X146177000Y-112903000D01*
X146157000Y-112903000D01*
X146157000Y-112649000D01*
X146177000Y-112649000D01*
X146177000Y-111455845D01*
X146431000Y-111455845D01*
X146431000Y-112649000D01*
X147624814Y-112649000D01*
X147745481Y-112419109D01*
X147648157Y-112144748D01*
X147499178Y-111894645D01*
X147304269Y-111678412D01*
X147070920Y-111504359D01*
X146808099Y-111379175D01*
X146660890Y-111334524D01*
X146431000Y-111455845D01*
X146177000Y-111455845D01*
X146127000Y-111429458D01*
X146127000Y-109682885D01*
X146157740Y-109689000D01*
X146450260Y-109689000D01*
X146737158Y-109631932D01*
X147007411Y-109519990D01*
X147250632Y-109357475D01*
X147457475Y-109150632D01*
X147619990Y-108907411D01*
X147731932Y-108637158D01*
X147789000Y-108350260D01*
X147789000Y-108057740D01*
X147731932Y-107770842D01*
X147619990Y-107500589D01*
X147457475Y-107257368D01*
X147250632Y-107050525D01*
X147007411Y-106888010D01*
X146737158Y-106776068D01*
X146450260Y-106719000D01*
X146157740Y-106719000D01*
X146127000Y-106725115D01*
X146127000Y-90000000D01*
X146124560Y-89975224D01*
X146117333Y-89951399D01*
X146105597Y-89929443D01*
X146089803Y-89910197D01*
X146070557Y-89894403D01*
X146048601Y-89882667D01*
X146024776Y-89875440D01*
X146000000Y-89873000D01*
X115127000Y-89873000D01*
X115127000Y-86004061D01*
X129775000Y-86004061D01*
X129775000Y-86207939D01*
X129814774Y-86407898D01*
X129892795Y-86596256D01*
X130006063Y-86765774D01*
X130150226Y-86909937D01*
X130319744Y-87023205D01*
X130508102Y-87101226D01*
X130708061Y-87141000D01*
X130911939Y-87141000D01*
X131111898Y-87101226D01*
X131300256Y-87023205D01*
X131348454Y-86991000D01*
X138787546Y-86991000D01*
X138835744Y-87023205D01*
X139024102Y-87101226D01*
X139224061Y-87141000D01*
X139427939Y-87141000D01*
X139627898Y-87101226D01*
X139816256Y-87023205D01*
X139985774Y-86909937D01*
X140129937Y-86765774D01*
X140243205Y-86596256D01*
X140321226Y-86407898D01*
X140361000Y-86207939D01*
X140361000Y-86004061D01*
X140321226Y-85804102D01*
X140243205Y-85615744D01*
X140129937Y-85446226D01*
X139985774Y-85302063D01*
X139816256Y-85188795D01*
X139627898Y-85110774D01*
X139427939Y-85071000D01*
X139224061Y-85071000D01*
X139024102Y-85110774D01*
X138835744Y-85188795D01*
X138787546Y-85221000D01*
X131348454Y-85221000D01*
X131300256Y-85188795D01*
X131111898Y-85110774D01*
X130911939Y-85071000D01*
X130708061Y-85071000D01*
X130508102Y-85110774D01*
X130319744Y-85188795D01*
X130150226Y-85302063D01*
X130006063Y-85446226D01*
X129892795Y-85615744D01*
X129814774Y-85804102D01*
X129775000Y-86004061D01*
X115127000Y-86004061D01*
X115127000Y-84000000D01*
X115124560Y-83975224D01*
X115117333Y-83951399D01*
X115105597Y-83929443D01*
X115089803Y-83910197D01*
X115070557Y-83894403D01*
X115048601Y-83882667D01*
X115024776Y-83875440D01*
X115000000Y-83873000D01*
X95660000Y-83873000D01*
X95660000Y-81178061D01*
X100565000Y-81178061D01*
X100565000Y-81381939D01*
X100604774Y-81581898D01*
X100682795Y-81770256D01*
X100796063Y-81939774D01*
X100940226Y-82083937D01*
X101109744Y-82197205D01*
X101298102Y-82275226D01*
X101498061Y-82315000D01*
X101701939Y-82315000D01*
X101901898Y-82275226D01*
X102090256Y-82197205D01*
X102259774Y-82083937D01*
X102403937Y-81939774D01*
X102517205Y-81770256D01*
X102595226Y-81581898D01*
X102635000Y-81381939D01*
X102635000Y-81178061D01*
X102595226Y-80978102D01*
X102517205Y-80789744D01*
X102485000Y-80741546D01*
X102485000Y-78598578D01*
X105747517Y-75336061D01*
X110217000Y-75336061D01*
X110217000Y-75539939D01*
X110256774Y-75739898D01*
X110334795Y-75928256D01*
X110448063Y-76097774D01*
X110592226Y-76241937D01*
X110761744Y-76355205D01*
X110950102Y-76433226D01*
X111150061Y-76473000D01*
X111353939Y-76473000D01*
X111553898Y-76433226D01*
X111742256Y-76355205D01*
X111760000Y-76343349D01*
X111777744Y-76355205D01*
X111966102Y-76433226D01*
X112166061Y-76473000D01*
X112369939Y-76473000D01*
X112569898Y-76433226D01*
X112758256Y-76355205D01*
X112927774Y-76241937D01*
X113071937Y-76097774D01*
X113185205Y-75928256D01*
X113263226Y-75739898D01*
X113303000Y-75539939D01*
X113303000Y-75336061D01*
X113263226Y-75136102D01*
X113185205Y-74947744D01*
X113071937Y-74778226D01*
X112927774Y-74634063D01*
X112758256Y-74520795D01*
X112569898Y-74442774D01*
X112369939Y-74403000D01*
X112166061Y-74403000D01*
X111966102Y-74442774D01*
X111777744Y-74520795D01*
X111760000Y-74532651D01*
X111742256Y-74520795D01*
X111553898Y-74442774D01*
X111353939Y-74403000D01*
X111150061Y-74403000D01*
X110950102Y-74442774D01*
X110761744Y-74520795D01*
X110592226Y-74634063D01*
X110448063Y-74778226D01*
X110334795Y-74947744D01*
X110256774Y-75136102D01*
X110217000Y-75336061D01*
X105747517Y-75336061D01*
X106792579Y-74291000D01*
X113679422Y-74291000D01*
X115929470Y-76541049D01*
X115957183Y-76574817D01*
X115969591Y-76585000D01*
X106735463Y-76585000D01*
X106691997Y-76580719D01*
X106648531Y-76585000D01*
X106648521Y-76585000D01*
X106518508Y-76597805D01*
X106351685Y-76648411D01*
X106197939Y-76730589D01*
X106197937Y-76730590D01*
X106197938Y-76730590D01*
X106096951Y-76813468D01*
X106096949Y-76813470D01*
X106063181Y-76841183D01*
X106035468Y-76874951D01*
X103544956Y-79365464D01*
X103511183Y-79393181D01*
X103400589Y-79527940D01*
X103318411Y-79681686D01*
X103267805Y-79848509D01*
X103255000Y-79978522D01*
X103255000Y-79978529D01*
X103250719Y-80021998D01*
X103255000Y-80065468D01*
X103255001Y-80741545D01*
X103222795Y-80789744D01*
X103144774Y-80978102D01*
X103105000Y-81178061D01*
X103105000Y-81381939D01*
X103144774Y-81581898D01*
X103222795Y-81770256D01*
X103336063Y-81939774D01*
X103480226Y-82083937D01*
X103649744Y-82197205D01*
X103838102Y-82275226D01*
X104038061Y-82315000D01*
X104241939Y-82315000D01*
X104441898Y-82275226D01*
X104630256Y-82197205D01*
X104799774Y-82083937D01*
X104943937Y-81939774D01*
X105057205Y-81770256D01*
X105135226Y-81581898D01*
X105175000Y-81381939D01*
X105175000Y-81178061D01*
X105135226Y-80978102D01*
X105057205Y-80789744D01*
X105025000Y-80741546D01*
X105025000Y-80388576D01*
X107058577Y-78355000D01*
X107091589Y-78355000D01*
X107079181Y-78365183D01*
X107051468Y-78398951D01*
X106084956Y-79365464D01*
X106051183Y-79393181D01*
X105940589Y-79527940D01*
X105858411Y-79681686D01*
X105807805Y-79848509D01*
X105795000Y-79978522D01*
X105795000Y-79978529D01*
X105790719Y-80021998D01*
X105795000Y-80065468D01*
X105795001Y-80741545D01*
X105762795Y-80789744D01*
X105684774Y-80978102D01*
X105645000Y-81178061D01*
X105645000Y-81381939D01*
X105684774Y-81581898D01*
X105762795Y-81770256D01*
X105876063Y-81939774D01*
X106020226Y-82083937D01*
X106189744Y-82197205D01*
X106378102Y-82275226D01*
X106578061Y-82315000D01*
X106781939Y-82315000D01*
X106981898Y-82275226D01*
X107170256Y-82197205D01*
X107339774Y-82083937D01*
X107483937Y-81939774D01*
X107597205Y-81770256D01*
X107675226Y-81581898D01*
X107715000Y-81381939D01*
X107715000Y-81178061D01*
X107675226Y-80978102D01*
X107597205Y-80789744D01*
X107565000Y-80741546D01*
X107565000Y-80388576D01*
X108074577Y-79879000D01*
X129750531Y-79879000D01*
X129794000Y-79883281D01*
X129837469Y-79879000D01*
X129837477Y-79879000D01*
X129967490Y-79866195D01*
X130134313Y-79815589D01*
X130288059Y-79733411D01*
X130422817Y-79622817D01*
X130450534Y-79589044D01*
X132860613Y-77178966D01*
X132851465Y-77224956D01*
X129681422Y-80395000D01*
X109758454Y-80395000D01*
X109710256Y-80362795D01*
X109521898Y-80284774D01*
X109321939Y-80245000D01*
X109118061Y-80245000D01*
X108918102Y-80284774D01*
X108729744Y-80362795D01*
X108560226Y-80476063D01*
X108416063Y-80620226D01*
X108302795Y-80789744D01*
X108224774Y-80978102D01*
X108185000Y-81178061D01*
X108185000Y-81381939D01*
X108224774Y-81581898D01*
X108302795Y-81770256D01*
X108416063Y-81939774D01*
X108560226Y-82083937D01*
X108729744Y-82197205D01*
X108918102Y-82275226D01*
X109118061Y-82315000D01*
X109321939Y-82315000D01*
X109521898Y-82275226D01*
X109710256Y-82197205D01*
X109758454Y-82165000D01*
X130004531Y-82165000D01*
X130048000Y-82169281D01*
X130091469Y-82165000D01*
X130091477Y-82165000D01*
X130221490Y-82152195D01*
X130388313Y-82101589D01*
X130542059Y-82019411D01*
X130676817Y-81908817D01*
X130704534Y-81875044D01*
X133941517Y-78638061D01*
X150095000Y-78638061D01*
X150095000Y-78841939D01*
X150134774Y-79041898D01*
X150212795Y-79230256D01*
X150326063Y-79399774D01*
X150470226Y-79543937D01*
X150639744Y-79657205D01*
X150828102Y-79735226D01*
X151028061Y-79775000D01*
X151231939Y-79775000D01*
X151431898Y-79735226D01*
X151620256Y-79657205D01*
X151668454Y-79625000D01*
X176671422Y-79625000D01*
X178571465Y-81525044D01*
X178582774Y-81581898D01*
X178660795Y-81770256D01*
X178774063Y-81939774D01*
X178918226Y-82083937D01*
X179087744Y-82197205D01*
X179276102Y-82275226D01*
X179476061Y-82315000D01*
X179679939Y-82315000D01*
X179879898Y-82275226D01*
X180068256Y-82197205D01*
X180237774Y-82083937D01*
X180381937Y-81939774D01*
X180495205Y-81770256D01*
X180573226Y-81581898D01*
X180613000Y-81381939D01*
X180613000Y-81178061D01*
X180573226Y-80978102D01*
X180495205Y-80789744D01*
X180381937Y-80620226D01*
X180237774Y-80476063D01*
X180068256Y-80362795D01*
X179879898Y-80284774D01*
X179823044Y-80273465D01*
X177694534Y-78144956D01*
X177666817Y-78111183D01*
X177532059Y-78000589D01*
X177378313Y-77918411D01*
X177211490Y-77867805D01*
X177081477Y-77855000D01*
X177081469Y-77855000D01*
X177038000Y-77850719D01*
X176994531Y-77855000D01*
X151668454Y-77855000D01*
X151620256Y-77822795D01*
X151431898Y-77744774D01*
X151231939Y-77705000D01*
X151028061Y-77705000D01*
X150828102Y-77744774D01*
X150639744Y-77822795D01*
X150470226Y-77936063D01*
X150326063Y-78080226D01*
X150212795Y-78249744D01*
X150134774Y-78438102D01*
X150095000Y-78638061D01*
X133941517Y-78638061D01*
X134103044Y-78476535D01*
X134159898Y-78465226D01*
X134348256Y-78387205D01*
X134517774Y-78273937D01*
X134661937Y-78129774D01*
X134775205Y-77960256D01*
X134853226Y-77771898D01*
X134893000Y-77571939D01*
X134893000Y-77368061D01*
X134853226Y-77168102D01*
X134775205Y-76979744D01*
X134678490Y-76835000D01*
X134775205Y-76690256D01*
X134853226Y-76501898D01*
X134893000Y-76301939D01*
X134893000Y-76098061D01*
X134853226Y-75898102D01*
X134775205Y-75709744D01*
X134678490Y-75565000D01*
X134775205Y-75420256D01*
X134853226Y-75231898D01*
X134893000Y-75031939D01*
X134893000Y-74828061D01*
X134853226Y-74628102D01*
X134775205Y-74439744D01*
X134678490Y-74295000D01*
X134775205Y-74150256D01*
X134853226Y-73961898D01*
X134893000Y-73761939D01*
X134893000Y-73558061D01*
X134853226Y-73358102D01*
X134775205Y-73169744D01*
X134661937Y-73000226D01*
X134517774Y-72856063D01*
X134348256Y-72742795D01*
X134159898Y-72664774D01*
X133959939Y-72625000D01*
X133756061Y-72625000D01*
X133556102Y-72664774D01*
X133367744Y-72742795D01*
X133319546Y-72775000D01*
X130599465Y-72775000D01*
X130555999Y-72770719D01*
X130512533Y-72775000D01*
X130512523Y-72775000D01*
X130382510Y-72787805D01*
X130215687Y-72838411D01*
X130061941Y-72920589D01*
X130061939Y-72920590D01*
X130061940Y-72920590D01*
X129960953Y-73003468D01*
X129960951Y-73003470D01*
X129927183Y-73031183D01*
X129899470Y-73064951D01*
X127903422Y-75061000D01*
X119398481Y-75061000D01*
X119531774Y-74971937D01*
X119675937Y-74827774D01*
X119789205Y-74658256D01*
X119867226Y-74469898D01*
X119907000Y-74269939D01*
X119907000Y-74066061D01*
X119867226Y-73866102D01*
X119789205Y-73677744D01*
X119675937Y-73508226D01*
X119531774Y-73364063D01*
X119362256Y-73250795D01*
X119173898Y-73172774D01*
X119117044Y-73161465D01*
X116963000Y-71007422D01*
X116963000Y-69118454D01*
X116995205Y-69070256D01*
X117073226Y-68881898D01*
X117113000Y-68681939D01*
X117113000Y-68478061D01*
X117073226Y-68278102D01*
X116995205Y-68089744D01*
X116881937Y-67920226D01*
X116737774Y-67776063D01*
X116568256Y-67662795D01*
X116379898Y-67584774D01*
X116179939Y-67545000D01*
X115976061Y-67545000D01*
X115776102Y-67584774D01*
X115587744Y-67662795D01*
X115418226Y-67776063D01*
X115274063Y-67920226D01*
X115160795Y-68089744D01*
X115082774Y-68278102D01*
X115043000Y-68478061D01*
X115043000Y-68681939D01*
X115082774Y-68881898D01*
X115160795Y-69070256D01*
X115193000Y-69118455D01*
X115193001Y-71330521D01*
X115188719Y-71374000D01*
X115205805Y-71547490D01*
X115256412Y-71714313D01*
X115338590Y-71868059D01*
X115421468Y-71969046D01*
X115421471Y-71969049D01*
X115449184Y-72002817D01*
X115482951Y-72030529D01*
X117865465Y-74413044D01*
X117876774Y-74469898D01*
X117954795Y-74658256D01*
X118068063Y-74827774D01*
X118212226Y-74971937D01*
X118345519Y-75061000D01*
X116952579Y-75061000D01*
X114702534Y-72810956D01*
X114674817Y-72777183D01*
X114540059Y-72666589D01*
X114386313Y-72584411D01*
X114219490Y-72533805D01*
X114089477Y-72521000D01*
X114089469Y-72521000D01*
X114046000Y-72516719D01*
X114002531Y-72521000D01*
X106469469Y-72521000D01*
X106426000Y-72516719D01*
X106382531Y-72521000D01*
X106382523Y-72521000D01*
X106252510Y-72533805D01*
X106085686Y-72584411D01*
X105931941Y-72666589D01*
X105830953Y-72749468D01*
X105830951Y-72749470D01*
X105797183Y-72777183D01*
X105769470Y-72810951D01*
X101004952Y-77575470D01*
X100971184Y-77603183D01*
X100943471Y-77636951D01*
X100943468Y-77636954D01*
X100860590Y-77737941D01*
X100778412Y-77891687D01*
X100727805Y-78058510D01*
X100710719Y-78232000D01*
X100715001Y-78275479D01*
X100715000Y-80741545D01*
X100682795Y-80789744D01*
X100604774Y-80978102D01*
X100565000Y-81178061D01*
X95660000Y-81178061D01*
X95660000Y-67462061D01*
X130791000Y-67462061D01*
X130791000Y-67665939D01*
X130830774Y-67865898D01*
X130908795Y-68054256D01*
X130920651Y-68072000D01*
X130908795Y-68089744D01*
X130830774Y-68278102D01*
X130791000Y-68478061D01*
X130791000Y-68681939D01*
X130830774Y-68881898D01*
X130908795Y-69070256D01*
X131022063Y-69239774D01*
X131166226Y-69383937D01*
X131335744Y-69497205D01*
X131524102Y-69575226D01*
X131724061Y-69615000D01*
X131927939Y-69615000D01*
X132127898Y-69575226D01*
X132316256Y-69497205D01*
X132485774Y-69383937D01*
X132629937Y-69239774D01*
X132743205Y-69070256D01*
X132821226Y-68881898D01*
X132861000Y-68681939D01*
X132861000Y-68478061D01*
X132821226Y-68278102D01*
X132743205Y-68089744D01*
X132731349Y-68072000D01*
X132743205Y-68054256D01*
X132821226Y-67865898D01*
X132861000Y-67665939D01*
X132861000Y-67462061D01*
X132821226Y-67262102D01*
X132743205Y-67073744D01*
X132629937Y-66904226D01*
X132485774Y-66760063D01*
X132316256Y-66646795D01*
X132127898Y-66568774D01*
X131927939Y-66529000D01*
X131724061Y-66529000D01*
X131524102Y-66568774D01*
X131335744Y-66646795D01*
X131166226Y-66760063D01*
X131022063Y-66904226D01*
X130908795Y-67073744D01*
X130830774Y-67262102D01*
X130791000Y-67462061D01*
X95660000Y-67462061D01*
X95660000Y-61032279D01*
X95677082Y-60858061D01*
X121901000Y-60858061D01*
X121901000Y-61061939D01*
X121940774Y-61261898D01*
X122018795Y-61450256D01*
X122030651Y-61468000D01*
X122018795Y-61485744D01*
X121940774Y-61674102D01*
X121901000Y-61874061D01*
X121901000Y-62077939D01*
X121940774Y-62277898D01*
X122018795Y-62466256D01*
X122132063Y-62635774D01*
X122276226Y-62779937D01*
X122445744Y-62893205D01*
X122634102Y-62971226D01*
X122834061Y-63011000D01*
X123037939Y-63011000D01*
X123237898Y-62971226D01*
X123426256Y-62893205D01*
X123595774Y-62779937D01*
X123739937Y-62635774D01*
X123853205Y-62466256D01*
X123931226Y-62277898D01*
X123971000Y-62077939D01*
X123971000Y-61874061D01*
X123931226Y-61674102D01*
X123853205Y-61485744D01*
X123841349Y-61468000D01*
X123853205Y-61450256D01*
X123931226Y-61261898D01*
X123971000Y-61061939D01*
X123971000Y-60858061D01*
X123931226Y-60658102D01*
X123853205Y-60469744D01*
X123739937Y-60300226D01*
X123595774Y-60156063D01*
X123426256Y-60042795D01*
X123237898Y-59964774D01*
X123037939Y-59925000D01*
X122834061Y-59925000D01*
X122634102Y-59964774D01*
X122445744Y-60042795D01*
X122276226Y-60156063D01*
X122132063Y-60300226D01*
X122018795Y-60469744D01*
X121940774Y-60658102D01*
X121901000Y-60858061D01*
X95677082Y-60858061D01*
X95707670Y-60546107D01*
X95839489Y-60109502D01*
X96053600Y-59706815D01*
X96341848Y-59353388D01*
X96693261Y-59062673D01*
X97094439Y-58845758D01*
X97530113Y-58710894D01*
X98014344Y-58660000D01*
X134873000Y-58660000D01*
X134873000Y-70000000D01*
G36*
X100565000Y-87274061D02*
G01*
X100565000Y-87477939D01*
X100604774Y-87677898D01*
X100682795Y-87866256D01*
X100796063Y-88035774D01*
X100940226Y-88179937D01*
X101109744Y-88293205D01*
X101298102Y-88371226D01*
X101498061Y-88411000D01*
X101701939Y-88411000D01*
X101901898Y-88371226D01*
X102090256Y-88293205D01*
X102259774Y-88179937D01*
X102403937Y-88035774D01*
X102517205Y-87866256D01*
X102595226Y-87677898D01*
X102635000Y-87477939D01*
X102635000Y-87274061D01*
X102605748Y-87127000D01*
X103134252Y-87127000D01*
X103105000Y-87274061D01*
X103105000Y-87477939D01*
X103144774Y-87677898D01*
X103222795Y-87866256D01*
X103336063Y-88035774D01*
X103480226Y-88179937D01*
X103649744Y-88293205D01*
X103838102Y-88371226D01*
X104038061Y-88411000D01*
X104241939Y-88411000D01*
X104441898Y-88371226D01*
X104630256Y-88293205D01*
X104799774Y-88179937D01*
X104943937Y-88035774D01*
X105057205Y-87866256D01*
X105135226Y-87677898D01*
X105175000Y-87477939D01*
X105175000Y-87274061D01*
X105145748Y-87127000D01*
X105674252Y-87127000D01*
X105645000Y-87274061D01*
X105645000Y-87477939D01*
X105684774Y-87677898D01*
X105762795Y-87866256D01*
X105876063Y-88035774D01*
X106020226Y-88179937D01*
X106189744Y-88293205D01*
X106378102Y-88371226D01*
X106578061Y-88411000D01*
X106781939Y-88411000D01*
X106981898Y-88371226D01*
X107170256Y-88293205D01*
X107339774Y-88179937D01*
X107483937Y-88035774D01*
X107597205Y-87866256D01*
X107675226Y-87677898D01*
X107715000Y-87477939D01*
X107715000Y-87274061D01*
X107685748Y-87127000D01*
X108214252Y-87127000D01*
X108185000Y-87274061D01*
X108185000Y-87477939D01*
X108224774Y-87677898D01*
X108302795Y-87866256D01*
X108416063Y-88035774D01*
X108560226Y-88179937D01*
X108729744Y-88293205D01*
X108918102Y-88371226D01*
X109118061Y-88411000D01*
X109321939Y-88411000D01*
X109521898Y-88371226D01*
X109710256Y-88293205D01*
X109879774Y-88179937D01*
X110023937Y-88035774D01*
X110137205Y-87866256D01*
X110215226Y-87677898D01*
X110255000Y-87477939D01*
X110255000Y-87274061D01*
X110225748Y-87127000D01*
X112873000Y-87127000D01*
X112873000Y-92000000D01*
X112875440Y-92024776D01*
X112882667Y-92048601D01*
X112894403Y-92070557D01*
X112910197Y-92089803D01*
X112929443Y-92105597D01*
X112951399Y-92117333D01*
X112975224Y-92124560D01*
X113000000Y-92127000D01*
X122111708Y-92127000D01*
X122062226Y-92160063D01*
X121918063Y-92304226D01*
X121804795Y-92473744D01*
X121726774Y-92662102D01*
X121687000Y-92862061D01*
X121687000Y-93065939D01*
X121726774Y-93265898D01*
X121804795Y-93454256D01*
X121837001Y-93502455D01*
X121837000Y-94843421D01*
X120283422Y-96397000D01*
X112126579Y-96397000D01*
X111375000Y-95645422D01*
X111375000Y-94386061D01*
X111487000Y-94386061D01*
X111487000Y-94589939D01*
X111526774Y-94789898D01*
X111604795Y-94978256D01*
X111718063Y-95147774D01*
X111862226Y-95291937D01*
X112031744Y-95405205D01*
X112220102Y-95483226D01*
X112420061Y-95523000D01*
X112623939Y-95523000D01*
X112823898Y-95483226D01*
X113012256Y-95405205D01*
X113181774Y-95291937D01*
X113325937Y-95147774D01*
X113439205Y-94978256D01*
X113517226Y-94789898D01*
X113557000Y-94589939D01*
X113557000Y-94386061D01*
X118599000Y-94386061D01*
X118599000Y-94589939D01*
X118638774Y-94789898D01*
X118716795Y-94978256D01*
X118830063Y-95147774D01*
X118974226Y-95291937D01*
X119143744Y-95405205D01*
X119332102Y-95483226D01*
X119532061Y-95523000D01*
X119735939Y-95523000D01*
X119935898Y-95483226D01*
X120124256Y-95405205D01*
X120293774Y-95291937D01*
X120437937Y-95147774D01*
X120551205Y-94978256D01*
X120629226Y-94789898D01*
X120669000Y-94589939D01*
X120669000Y-94386061D01*
X120629226Y-94186102D01*
X120551205Y-93997744D01*
X120437937Y-93828226D01*
X120293774Y-93684063D01*
X120124256Y-93570795D01*
X119935898Y-93492774D01*
X119735939Y-93453000D01*
X119532061Y-93453000D01*
X119332102Y-93492774D01*
X119143744Y-93570795D01*
X118974226Y-93684063D01*
X118830063Y-93828226D01*
X118716795Y-93997744D01*
X118638774Y-94186102D01*
X118599000Y-94386061D01*
X113557000Y-94386061D01*
X113517226Y-94186102D01*
X113439205Y-93997744D01*
X113325937Y-93828226D01*
X113181774Y-93684063D01*
X113012256Y-93570795D01*
X112823898Y-93492774D01*
X112623939Y-93453000D01*
X112420061Y-93453000D01*
X112220102Y-93492774D01*
X112031744Y-93570795D01*
X111862226Y-93684063D01*
X111718063Y-93828226D01*
X111604795Y-93997744D01*
X111526774Y-94186102D01*
X111487000Y-94386061D01*
X111375000Y-94386061D01*
X111375000Y-90962454D01*
X111407205Y-90914256D01*
X111485226Y-90725898D01*
X111525000Y-90525939D01*
X111525000Y-90322061D01*
X111485226Y-90122102D01*
X111407205Y-89933744D01*
X111293937Y-89764226D01*
X111149774Y-89620063D01*
X110980256Y-89506795D01*
X110791898Y-89428774D01*
X110591939Y-89389000D01*
X110388061Y-89389000D01*
X110188102Y-89428774D01*
X109999744Y-89506795D01*
X109830226Y-89620063D01*
X109686063Y-89764226D01*
X109572795Y-89933744D01*
X109494774Y-90122102D01*
X109455000Y-90322061D01*
X109455000Y-90525939D01*
X109494774Y-90725898D01*
X109572795Y-90914256D01*
X109605000Y-90962454D01*
X109605001Y-95968521D01*
X109600719Y-96012000D01*
X109617805Y-96185490D01*
X109668412Y-96352313D01*
X109750590Y-96506059D01*
X109833468Y-96607046D01*
X109833471Y-96607049D01*
X109861184Y-96640817D01*
X109894951Y-96668529D01*
X111103470Y-97877049D01*
X111131183Y-97910817D01*
X111164951Y-97938530D01*
X111164953Y-97938532D01*
X111236452Y-97997210D01*
X111265941Y-98021411D01*
X111419687Y-98103589D01*
X111586510Y-98154195D01*
X111716523Y-98167000D01*
X111716533Y-98167000D01*
X111759999Y-98171281D01*
X111803465Y-98167000D01*
X120606531Y-98167000D01*
X120650000Y-98171281D01*
X120693469Y-98167000D01*
X120693477Y-98167000D01*
X120823490Y-98154195D01*
X120990313Y-98103589D01*
X121144059Y-98021411D01*
X121278817Y-97910817D01*
X121306534Y-97877044D01*
X123317050Y-95866529D01*
X123350817Y-95838817D01*
X123461411Y-95704059D01*
X123478714Y-95671687D01*
X123543589Y-95550314D01*
X123594195Y-95383490D01*
X123597274Y-95352226D01*
X123607000Y-95253477D01*
X123607000Y-95253469D01*
X123611281Y-95210000D01*
X123607000Y-95166531D01*
X123607000Y-94386061D01*
X125711000Y-94386061D01*
X125711000Y-94589939D01*
X125750774Y-94789898D01*
X125828795Y-94978256D01*
X125942063Y-95147774D01*
X126086226Y-95291937D01*
X126255744Y-95405205D01*
X126444102Y-95483226D01*
X126644061Y-95523000D01*
X126847939Y-95523000D01*
X127047898Y-95483226D01*
X127236256Y-95405205D01*
X127405774Y-95291937D01*
X127549937Y-95147774D01*
X127663205Y-94978256D01*
X127741226Y-94789898D01*
X127781000Y-94589939D01*
X127781000Y-94386061D01*
X127741226Y-94186102D01*
X127663205Y-93997744D01*
X127549937Y-93828226D01*
X127405774Y-93684063D01*
X127236256Y-93570795D01*
X127047898Y-93492774D01*
X126847939Y-93453000D01*
X126644061Y-93453000D01*
X126444102Y-93492774D01*
X126255744Y-93570795D01*
X126086226Y-93684063D01*
X125942063Y-93828226D01*
X125828795Y-93997744D01*
X125750774Y-94186102D01*
X125711000Y-94386061D01*
X123607000Y-94386061D01*
X123607000Y-93502454D01*
X123639205Y-93454256D01*
X123717226Y-93265898D01*
X123757000Y-93065939D01*
X123757000Y-92862061D01*
X123717226Y-92662102D01*
X123639205Y-92473744D01*
X123525937Y-92304226D01*
X123381774Y-92160063D01*
X123332292Y-92127000D01*
X132873000Y-92127000D01*
X132873000Y-95000000D01*
X132875440Y-95024776D01*
X132882667Y-95048601D01*
X132894403Y-95070557D01*
X132910197Y-95089803D01*
X132929443Y-95105597D01*
X132951399Y-95117333D01*
X132975224Y-95124560D01*
X133000000Y-95127000D01*
X143873000Y-95127000D01*
X143873000Y-106715928D01*
X142914000Y-106715928D01*
X142789518Y-106728188D01*
X142669820Y-106764498D01*
X142559506Y-106823463D01*
X142462815Y-106902815D01*
X142383463Y-106999506D01*
X142324498Y-107109820D01*
X142288188Y-107229518D01*
X142275928Y-107354000D01*
X142275928Y-109054000D01*
X142288188Y-109178482D01*
X142324498Y-109298180D01*
X142383463Y-109408494D01*
X142462815Y-109505185D01*
X142559506Y-109584537D01*
X142669820Y-109643502D01*
X142789518Y-109679812D01*
X142914000Y-109692072D01*
X143873000Y-109692072D01*
X143873000Y-123000000D01*
X143875440Y-123024776D01*
X143882667Y-123048601D01*
X143894403Y-123070557D01*
X143910197Y-123089803D01*
X143929443Y-123105597D01*
X143951399Y-123117333D01*
X143975224Y-123124560D01*
X144000000Y-123127000D01*
X163000000Y-123127000D01*
X163024776Y-123124560D01*
X163048601Y-123117333D01*
X163070557Y-123105597D01*
X163089803Y-123089803D01*
X163105597Y-123070557D01*
X163117333Y-123048601D01*
X163124560Y-123024776D01*
X163127000Y-123000000D01*
X163127000Y-122394000D01*
X163665928Y-122394000D01*
X163665928Y-124494000D01*
X163678188Y-124618482D01*
X163714498Y-124738180D01*
X163773463Y-124848494D01*
X163852815Y-124945185D01*
X163949506Y-125024537D01*
X164059820Y-125083502D01*
X164179518Y-125119812D01*
X164304000Y-125132072D01*
X166404000Y-125132072D01*
X166528482Y-125119812D01*
X166648180Y-125083502D01*
X166758494Y-125024537D01*
X166855185Y-124945185D01*
X166934537Y-124848494D01*
X166993502Y-124738180D01*
X167029812Y-124618482D01*
X167030148Y-124615066D01*
X168172539Y-124615066D01*
X168274339Y-124884579D01*
X168572477Y-125030463D01*
X168893346Y-125115380D01*
X169224617Y-125136066D01*
X169553557Y-125091728D01*
X169867527Y-124984069D01*
X170053661Y-124884579D01*
X170155461Y-124615066D01*
X169164000Y-123623605D01*
X168172539Y-124615066D01*
X167030148Y-124615066D01*
X167042072Y-124494000D01*
X167042072Y-123504617D01*
X167471934Y-123504617D01*
X167516272Y-123833557D01*
X167623931Y-124147527D01*
X167723421Y-124333661D01*
X167992934Y-124435461D01*
X168984395Y-123444000D01*
X169343605Y-123444000D01*
X170335066Y-124435461D01*
X170604579Y-124333661D01*
X170750463Y-124035523D01*
X170835380Y-123714654D01*
X170856066Y-123383383D01*
X170811728Y-123054443D01*
X170704069Y-122740473D01*
X170604579Y-122554339D01*
X170335066Y-122452539D01*
X169343605Y-123444000D01*
X168984395Y-123444000D01*
X167992934Y-122452539D01*
X167723421Y-122554339D01*
X167577537Y-122852477D01*
X167492620Y-123173346D01*
X167471934Y-123504617D01*
X167042072Y-123504617D01*
X167042072Y-122394000D01*
X167030149Y-122272934D01*
X168172539Y-122272934D01*
X169164000Y-123264395D01*
X170155461Y-122272934D01*
X170053661Y-122003421D01*
X169755523Y-121857537D01*
X169434654Y-121772620D01*
X169103383Y-121751934D01*
X168774443Y-121796272D01*
X168460473Y-121903931D01*
X168274339Y-122003421D01*
X168172539Y-122272934D01*
X167030149Y-122272934D01*
X167029812Y-122269518D01*
X166993502Y-122149820D01*
X166934537Y-122039506D01*
X166855185Y-121942815D01*
X166758494Y-121863463D01*
X166648180Y-121804498D01*
X166528482Y-121768188D01*
X166404000Y-121755928D01*
X164304000Y-121755928D01*
X164179518Y-121768188D01*
X164059820Y-121804498D01*
X163949506Y-121863463D01*
X163852815Y-121942815D01*
X163773463Y-122039506D01*
X163714498Y-122149820D01*
X163678188Y-122269518D01*
X163665928Y-122394000D01*
X163127000Y-122394000D01*
X163127000Y-106900000D01*
X163665928Y-106900000D01*
X163665928Y-109000000D01*
X163678188Y-109124482D01*
X163714498Y-109244180D01*
X163773463Y-109354494D01*
X163852815Y-109451185D01*
X163949506Y-109530537D01*
X164059820Y-109589502D01*
X164179518Y-109625812D01*
X164304000Y-109638072D01*
X166404000Y-109638072D01*
X166528482Y-109625812D01*
X166648180Y-109589502D01*
X166758494Y-109530537D01*
X166855185Y-109451185D01*
X166934537Y-109354494D01*
X166993502Y-109244180D01*
X167029812Y-109124482D01*
X167030148Y-109121066D01*
X168172539Y-109121066D01*
X168274339Y-109390579D01*
X168572477Y-109536463D01*
X168893346Y-109621380D01*
X169224617Y-109642066D01*
X169553557Y-109597728D01*
X169867527Y-109490069D01*
X170053661Y-109390579D01*
X170155461Y-109121066D01*
X169164000Y-108129605D01*
X168172539Y-109121066D01*
X167030148Y-109121066D01*
X167042072Y-109000000D01*
X167042072Y-108010617D01*
X167471934Y-108010617D01*
X167516272Y-108339557D01*
X167623931Y-108653527D01*
X167723421Y-108839661D01*
X167992934Y-108941461D01*
X168984395Y-107950000D01*
X169343605Y-107950000D01*
X170335066Y-108941461D01*
X170604579Y-108839661D01*
X170750463Y-108541523D01*
X170835380Y-108220654D01*
X170856066Y-107889383D01*
X170841868Y-107784042D01*
X171289000Y-107784042D01*
X171289000Y-108115958D01*
X171353754Y-108441496D01*
X171480772Y-108748147D01*
X171665175Y-109024125D01*
X171899875Y-109258825D01*
X172175853Y-109443228D01*
X172482504Y-109570246D01*
X172808042Y-109635000D01*
X173139958Y-109635000D01*
X173465496Y-109570246D01*
X173772147Y-109443228D01*
X174048125Y-109258825D01*
X174282825Y-109024125D01*
X174467228Y-108748147D01*
X174594246Y-108441496D01*
X174659000Y-108115958D01*
X174659000Y-107784042D01*
X174594246Y-107458504D01*
X174467228Y-107151853D01*
X174282825Y-106875875D01*
X174048125Y-106641175D01*
X173772147Y-106456772D01*
X173465496Y-106329754D01*
X173139958Y-106265000D01*
X172808042Y-106265000D01*
X172482504Y-106329754D01*
X172175853Y-106456772D01*
X171899875Y-106641175D01*
X171665175Y-106875875D01*
X171480772Y-107151853D01*
X171353754Y-107458504D01*
X171289000Y-107784042D01*
X170841868Y-107784042D01*
X170811728Y-107560443D01*
X170704069Y-107246473D01*
X170604579Y-107060339D01*
X170335066Y-106958539D01*
X169343605Y-107950000D01*
X168984395Y-107950000D01*
X167992934Y-106958539D01*
X167723421Y-107060339D01*
X167577537Y-107358477D01*
X167492620Y-107679346D01*
X167471934Y-108010617D01*
X167042072Y-108010617D01*
X167042072Y-106900000D01*
X167030149Y-106778934D01*
X168172539Y-106778934D01*
X169164000Y-107770395D01*
X170155461Y-106778934D01*
X170053661Y-106509421D01*
X169755523Y-106363537D01*
X169434654Y-106278620D01*
X169103383Y-106257934D01*
X168774443Y-106302272D01*
X168460473Y-106409931D01*
X168274339Y-106509421D01*
X168172539Y-106778934D01*
X167030149Y-106778934D01*
X167029812Y-106775518D01*
X166993502Y-106655820D01*
X166934537Y-106545506D01*
X166855185Y-106448815D01*
X166758494Y-106369463D01*
X166648180Y-106310498D01*
X166528482Y-106274188D01*
X166404000Y-106261928D01*
X164304000Y-106261928D01*
X164179518Y-106274188D01*
X164059820Y-106310498D01*
X163949506Y-106369463D01*
X163852815Y-106448815D01*
X163773463Y-106545506D01*
X163714498Y-106655820D01*
X163678188Y-106775518D01*
X163665928Y-106900000D01*
X163127000Y-106900000D01*
X163127000Y-102514061D01*
X166351000Y-102514061D01*
X166351000Y-102717939D01*
X166390774Y-102917898D01*
X166468795Y-103106256D01*
X166582063Y-103275774D01*
X166726226Y-103419937D01*
X166895744Y-103533205D01*
X167084102Y-103611226D01*
X167284061Y-103651000D01*
X167487939Y-103651000D01*
X167613623Y-103626000D01*
X172174645Y-103626000D01*
X175393000Y-106844356D01*
X175393001Y-119596644D01*
X173215599Y-121774046D01*
X173139958Y-121759000D01*
X172808042Y-121759000D01*
X172482504Y-121823754D01*
X172175853Y-121950772D01*
X171899875Y-122135175D01*
X171665175Y-122369875D01*
X171480772Y-122645853D01*
X171353754Y-122952504D01*
X171289000Y-123278042D01*
X171289000Y-123609958D01*
X171353754Y-123935496D01*
X171480772Y-124242147D01*
X171665175Y-124518125D01*
X171899875Y-124752825D01*
X172175853Y-124937228D01*
X172482504Y-125064246D01*
X172808042Y-125129000D01*
X173139958Y-125129000D01*
X173465496Y-125064246D01*
X173772147Y-124937228D01*
X174048125Y-124752825D01*
X174282825Y-124518125D01*
X174467228Y-124242147D01*
X174594246Y-123935496D01*
X174659000Y-123609958D01*
X174659000Y-123278042D01*
X174643954Y-123202401D01*
X175452355Y-122394000D01*
X178905928Y-122394000D01*
X178905928Y-124494000D01*
X178918188Y-124618482D01*
X178954498Y-124738180D01*
X179013463Y-124848494D01*
X179092815Y-124945185D01*
X179189506Y-125024537D01*
X179299820Y-125083502D01*
X179419518Y-125119812D01*
X179544000Y-125132072D01*
X181644000Y-125132072D01*
X181768482Y-125119812D01*
X181888180Y-125083502D01*
X181998494Y-125024537D01*
X182095185Y-124945185D01*
X182174537Y-124848494D01*
X182233502Y-124738180D01*
X182269812Y-124618482D01*
X182270148Y-124615066D01*
X183412539Y-124615066D01*
X183514339Y-124884579D01*
X183812477Y-125030463D01*
X184133346Y-125115380D01*
X184464617Y-125136066D01*
X184793557Y-125091728D01*
X185107527Y-124984069D01*
X185293661Y-124884579D01*
X185395461Y-124615066D01*
X184404000Y-123623605D01*
X183412539Y-124615066D01*
X182270148Y-124615066D01*
X182282072Y-124494000D01*
X182282072Y-123504617D01*
X182711934Y-123504617D01*
X182756272Y-123833557D01*
X182863931Y-124147527D01*
X182963421Y-124333661D01*
X183232934Y-124435461D01*
X184224395Y-123444000D01*
X184583605Y-123444000D01*
X185575066Y-124435461D01*
X185844579Y-124333661D01*
X185990463Y-124035523D01*
X186075380Y-123714654D01*
X186096066Y-123383383D01*
X186081868Y-123278042D01*
X186529000Y-123278042D01*
X186529000Y-123609958D01*
X186593754Y-123935496D01*
X186720772Y-124242147D01*
X186905175Y-124518125D01*
X187139875Y-124752825D01*
X187415853Y-124937228D01*
X187722504Y-125064246D01*
X188048042Y-125129000D01*
X188379958Y-125129000D01*
X188705496Y-125064246D01*
X189012147Y-124937228D01*
X189288125Y-124752825D01*
X189522825Y-124518125D01*
X189707228Y-124242147D01*
X189834246Y-123935496D01*
X189899000Y-123609958D01*
X189899000Y-123278042D01*
X189834246Y-122952504D01*
X189707228Y-122645853D01*
X189522825Y-122369875D01*
X189288125Y-122135175D01*
X189012147Y-121950772D01*
X188705496Y-121823754D01*
X188379958Y-121759000D01*
X188048042Y-121759000D01*
X187722504Y-121823754D01*
X187415853Y-121950772D01*
X187139875Y-122135175D01*
X186905175Y-122369875D01*
X186720772Y-122645853D01*
X186593754Y-122952504D01*
X186529000Y-123278042D01*
X186081868Y-123278042D01*
X186051728Y-123054443D01*
X185944069Y-122740473D01*
X185844579Y-122554339D01*
X185575066Y-122452539D01*
X184583605Y-123444000D01*
X184224395Y-123444000D01*
X183232934Y-122452539D01*
X182963421Y-122554339D01*
X182817537Y-122852477D01*
X182732620Y-123173346D01*
X182711934Y-123504617D01*
X182282072Y-123504617D01*
X182282072Y-122394000D01*
X182270149Y-122272934D01*
X183412539Y-122272934D01*
X184404000Y-123264395D01*
X185395461Y-122272934D01*
X185293661Y-122003421D01*
X184995523Y-121857537D01*
X184674654Y-121772620D01*
X184343383Y-121751934D01*
X184014443Y-121796272D01*
X183700473Y-121903931D01*
X183514339Y-122003421D01*
X183412539Y-122272934D01*
X182270149Y-122272934D01*
X182269812Y-122269518D01*
X182233502Y-122149820D01*
X182174537Y-122039506D01*
X182095185Y-121942815D01*
X181998494Y-121863463D01*
X181888180Y-121804498D01*
X181768482Y-121768188D01*
X181644000Y-121755928D01*
X179544000Y-121755928D01*
X179419518Y-121768188D01*
X179299820Y-121804498D01*
X179189506Y-121863463D01*
X179092815Y-121942815D01*
X179013463Y-122039506D01*
X178954498Y-122149820D01*
X178918188Y-122269518D01*
X178905928Y-122394000D01*
X175452355Y-122394000D01*
X177082094Y-120764261D01*
X177120633Y-120732633D01*
X177246847Y-120578840D01*
X177340632Y-120403380D01*
X177398385Y-120212994D01*
X177413000Y-120064608D01*
X177413000Y-120064606D01*
X177417886Y-120015001D01*
X177413000Y-119965396D01*
X177413000Y-106900000D01*
X178905928Y-106900000D01*
X178905928Y-109000000D01*
X178918188Y-109124482D01*
X178954498Y-109244180D01*
X179013463Y-109354494D01*
X179092815Y-109451185D01*
X179189506Y-109530537D01*
X179299820Y-109589502D01*
X179419518Y-109625812D01*
X179544000Y-109638072D01*
X181644000Y-109638072D01*
X181768482Y-109625812D01*
X181888180Y-109589502D01*
X181998494Y-109530537D01*
X182095185Y-109451185D01*
X182174537Y-109354494D01*
X182233502Y-109244180D01*
X182269812Y-109124482D01*
X182270148Y-109121066D01*
X183412539Y-109121066D01*
X183514339Y-109390579D01*
X183812477Y-109536463D01*
X184133346Y-109621380D01*
X184464617Y-109642066D01*
X184793557Y-109597728D01*
X185107527Y-109490069D01*
X185293661Y-109390579D01*
X185395461Y-109121066D01*
X184404000Y-108129605D01*
X183412539Y-109121066D01*
X182270148Y-109121066D01*
X182282072Y-109000000D01*
X182282072Y-108010617D01*
X182711934Y-108010617D01*
X182756272Y-108339557D01*
X182863931Y-108653527D01*
X182963421Y-108839661D01*
X183232934Y-108941461D01*
X184224395Y-107950000D01*
X184583605Y-107950000D01*
X185575066Y-108941461D01*
X185844579Y-108839661D01*
X185990463Y-108541523D01*
X186075380Y-108220654D01*
X186096066Y-107889383D01*
X186081868Y-107784042D01*
X186529000Y-107784042D01*
X186529000Y-108115958D01*
X186593754Y-108441496D01*
X186720772Y-108748147D01*
X186905175Y-109024125D01*
X187139875Y-109258825D01*
X187415853Y-109443228D01*
X187722504Y-109570246D01*
X188048042Y-109635000D01*
X188379958Y-109635000D01*
X188705496Y-109570246D01*
X189012147Y-109443228D01*
X189288125Y-109258825D01*
X189522825Y-109024125D01*
X189707228Y-108748147D01*
X189834246Y-108441496D01*
X189899000Y-108115958D01*
X189899000Y-107784042D01*
X189834246Y-107458504D01*
X189707228Y-107151853D01*
X189522825Y-106875875D01*
X189288125Y-106641175D01*
X189012147Y-106456772D01*
X188705496Y-106329754D01*
X188379958Y-106265000D01*
X188048042Y-106265000D01*
X187722504Y-106329754D01*
X187415853Y-106456772D01*
X187139875Y-106641175D01*
X186905175Y-106875875D01*
X186720772Y-107151853D01*
X186593754Y-107458504D01*
X186529000Y-107784042D01*
X186081868Y-107784042D01*
X186051728Y-107560443D01*
X185944069Y-107246473D01*
X185844579Y-107060339D01*
X185575066Y-106958539D01*
X184583605Y-107950000D01*
X184224395Y-107950000D01*
X183232934Y-106958539D01*
X182963421Y-107060339D01*
X182817537Y-107358477D01*
X182732620Y-107679346D01*
X182711934Y-108010617D01*
X182282072Y-108010617D01*
X182282072Y-106900000D01*
X182270149Y-106778934D01*
X183412539Y-106778934D01*
X184404000Y-107770395D01*
X185395461Y-106778934D01*
X185293661Y-106509421D01*
X184995523Y-106363537D01*
X184674654Y-106278620D01*
X184343383Y-106257934D01*
X184014443Y-106302272D01*
X183700473Y-106409931D01*
X183514339Y-106509421D01*
X183412539Y-106778934D01*
X182270149Y-106778934D01*
X182269812Y-106775518D01*
X182233502Y-106655820D01*
X182174537Y-106545506D01*
X182095185Y-106448815D01*
X181998494Y-106369463D01*
X181888180Y-106310498D01*
X181768482Y-106274188D01*
X181644000Y-106261928D01*
X179544000Y-106261928D01*
X179419518Y-106274188D01*
X179299820Y-106310498D01*
X179189506Y-106369463D01*
X179092815Y-106448815D01*
X179013463Y-106545506D01*
X178954498Y-106655820D01*
X178918188Y-106775518D01*
X178905928Y-106900000D01*
X177413000Y-106900000D01*
X177413000Y-106475608D01*
X177417886Y-106426000D01*
X177398385Y-106228005D01*
X177340632Y-106037620D01*
X177246846Y-105862159D01*
X177152256Y-105746900D01*
X177120633Y-105708367D01*
X177082100Y-105676744D01*
X173342261Y-101936906D01*
X173310633Y-101898367D01*
X173156840Y-101772153D01*
X172981380Y-101678368D01*
X172790994Y-101620615D01*
X172642608Y-101606000D01*
X172593000Y-101601114D01*
X172543392Y-101606000D01*
X167613623Y-101606000D01*
X167487939Y-101581000D01*
X167284061Y-101581000D01*
X167084102Y-101620774D01*
X166895744Y-101698795D01*
X166726226Y-101812063D01*
X166582063Y-101956226D01*
X166468795Y-102125744D01*
X166390774Y-102314102D01*
X166351000Y-102514061D01*
X163127000Y-102514061D01*
X163127000Y-92127000D01*
X164021708Y-92127000D01*
X163972226Y-92160063D01*
X163828063Y-92304226D01*
X163714795Y-92473744D01*
X163636774Y-92662102D01*
X163597000Y-92862061D01*
X163597000Y-93065939D01*
X163636774Y-93265898D01*
X163714795Y-93454256D01*
X163747001Y-93502456D01*
X163747000Y-95754531D01*
X163742719Y-95798000D01*
X163747000Y-95841469D01*
X163747000Y-95841476D01*
X163759805Y-95971489D01*
X163810411Y-96138312D01*
X163892589Y-96292058D01*
X164003183Y-96426817D01*
X164036956Y-96454534D01*
X165205470Y-97623049D01*
X165233183Y-97656817D01*
X165266951Y-97684530D01*
X165266953Y-97684532D01*
X165367941Y-97767411D01*
X165521686Y-97849589D01*
X165650930Y-97888795D01*
X165688510Y-97900195D01*
X165818523Y-97913000D01*
X165818531Y-97913000D01*
X165862000Y-97917281D01*
X165905469Y-97913000D01*
X175470531Y-97913000D01*
X175514000Y-97917281D01*
X175557469Y-97913000D01*
X175557477Y-97913000D01*
X175687490Y-97900195D01*
X175854313Y-97849589D01*
X176008059Y-97767411D01*
X176142817Y-97656817D01*
X176170534Y-97623044D01*
X179407517Y-94386061D01*
X181845000Y-94386061D01*
X181845000Y-94589939D01*
X181884774Y-94789898D01*
X181962795Y-94978256D01*
X182076063Y-95147774D01*
X182220226Y-95291937D01*
X182389744Y-95405205D01*
X182578102Y-95483226D01*
X182778061Y-95523000D01*
X182981939Y-95523000D01*
X183181898Y-95483226D01*
X183370256Y-95405205D01*
X183539774Y-95291937D01*
X183683937Y-95147774D01*
X183797205Y-94978256D01*
X183875226Y-94789898D01*
X183915000Y-94589939D01*
X183915000Y-94386061D01*
X188957000Y-94386061D01*
X188957000Y-94589939D01*
X188996774Y-94789898D01*
X189074795Y-94978256D01*
X189188063Y-95147774D01*
X189332226Y-95291937D01*
X189501744Y-95405205D01*
X189690102Y-95483226D01*
X189890061Y-95523000D01*
X190093939Y-95523000D01*
X190293898Y-95483226D01*
X190482256Y-95405205D01*
X190651774Y-95291937D01*
X190795937Y-95147774D01*
X190909205Y-94978256D01*
X190987226Y-94789898D01*
X191027000Y-94589939D01*
X191027000Y-94386061D01*
X190987226Y-94186102D01*
X190909205Y-93997744D01*
X190795937Y-93828226D01*
X190651774Y-93684063D01*
X190482256Y-93570795D01*
X190293898Y-93492774D01*
X190093939Y-93453000D01*
X189890061Y-93453000D01*
X189690102Y-93492774D01*
X189501744Y-93570795D01*
X189332226Y-93684063D01*
X189188063Y-93828226D01*
X189074795Y-93997744D01*
X188996774Y-94186102D01*
X188957000Y-94386061D01*
X183915000Y-94386061D01*
X183875226Y-94186102D01*
X183797205Y-93997744D01*
X183683937Y-93828226D01*
X183539774Y-93684063D01*
X183370256Y-93570795D01*
X183181898Y-93492774D01*
X182981939Y-93453000D01*
X182778061Y-93453000D01*
X182578102Y-93492774D01*
X182389744Y-93570795D01*
X182220226Y-93684063D01*
X182076063Y-93828226D01*
X181962795Y-93997744D01*
X181884774Y-94186102D01*
X181845000Y-94386061D01*
X179407517Y-94386061D01*
X181443049Y-92350530D01*
X181476817Y-92322817D01*
X181587411Y-92188059D01*
X181669589Y-92034313D01*
X181720195Y-91867490D01*
X181733000Y-91737477D01*
X181733000Y-91737467D01*
X181737281Y-91694001D01*
X181733000Y-91650535D01*
X181733000Y-91216454D01*
X181765205Y-91168256D01*
X181843226Y-90979898D01*
X181883000Y-90779939D01*
X181883000Y-90576061D01*
X181843226Y-90376102D01*
X181765205Y-90187744D01*
X181651937Y-90018226D01*
X181507774Y-89874063D01*
X181338256Y-89760795D01*
X181149898Y-89682774D01*
X180949939Y-89643000D01*
X180746061Y-89643000D01*
X180546102Y-89682774D01*
X180357744Y-89760795D01*
X180188226Y-89874063D01*
X180044063Y-90018226D01*
X179930795Y-90187744D01*
X179852774Y-90376102D01*
X179813000Y-90576061D01*
X179813000Y-90779939D01*
X179852774Y-90979898D01*
X179930795Y-91168256D01*
X179963001Y-91216455D01*
X179963001Y-91327420D01*
X176803000Y-94487422D01*
X176803000Y-94386061D01*
X176763226Y-94186102D01*
X176685205Y-93997744D01*
X176571937Y-93828226D01*
X176427774Y-93684063D01*
X176258256Y-93570795D01*
X176069898Y-93492774D01*
X175869939Y-93453000D01*
X175666061Y-93453000D01*
X175466102Y-93492774D01*
X175277744Y-93570795D01*
X175108226Y-93684063D01*
X174964063Y-93828226D01*
X174850795Y-93997744D01*
X174772774Y-94186102D01*
X174733000Y-94386061D01*
X174733000Y-94589939D01*
X174772774Y-94789898D01*
X174850795Y-94978256D01*
X174964063Y-95147774D01*
X175108226Y-95291937D01*
X175277744Y-95405205D01*
X175466102Y-95483226D01*
X175666061Y-95523000D01*
X175767422Y-95523000D01*
X175147422Y-96143000D01*
X166228579Y-96143000D01*
X165517000Y-95431422D01*
X165517000Y-94386061D01*
X167621000Y-94386061D01*
X167621000Y-94589939D01*
X167660774Y-94789898D01*
X167738795Y-94978256D01*
X167852063Y-95147774D01*
X167996226Y-95291937D01*
X168165744Y-95405205D01*
X168354102Y-95483226D01*
X168554061Y-95523000D01*
X168757939Y-95523000D01*
X168957898Y-95483226D01*
X169146256Y-95405205D01*
X169315774Y-95291937D01*
X169459937Y-95147774D01*
X169573205Y-94978256D01*
X169651226Y-94789898D01*
X169691000Y-94589939D01*
X169691000Y-94386061D01*
X169651226Y-94186102D01*
X169573205Y-93997744D01*
X169459937Y-93828226D01*
X169315774Y-93684063D01*
X169146256Y-93570795D01*
X168957898Y-93492774D01*
X168757939Y-93453000D01*
X168554061Y-93453000D01*
X168354102Y-93492774D01*
X168165744Y-93570795D01*
X167996226Y-93684063D01*
X167852063Y-93828226D01*
X167738795Y-93997744D01*
X167660774Y-94186102D01*
X167621000Y-94386061D01*
X165517000Y-94386061D01*
X165517000Y-93502454D01*
X165549205Y-93454256D01*
X165627226Y-93265898D01*
X165667000Y-93065939D01*
X165667000Y-92862061D01*
X165627226Y-92662102D01*
X165549205Y-92473744D01*
X165435937Y-92304226D01*
X165291774Y-92160063D01*
X165242292Y-92127000D01*
X177000000Y-92127000D01*
X177024776Y-92124560D01*
X177048601Y-92117333D01*
X177070557Y-92105597D01*
X177089803Y-92089803D01*
X177105597Y-92070557D01*
X177117333Y-92048601D01*
X177124560Y-92024776D01*
X177127000Y-92000000D01*
X177127000Y-87127000D01*
X178572252Y-87127000D01*
X178543000Y-87274061D01*
X178543000Y-87477939D01*
X178582774Y-87677898D01*
X178660795Y-87866256D01*
X178774063Y-88035774D01*
X178918226Y-88179937D01*
X179087744Y-88293205D01*
X179276102Y-88371226D01*
X179476061Y-88411000D01*
X179679939Y-88411000D01*
X179879898Y-88371226D01*
X180068256Y-88293205D01*
X180237774Y-88179937D01*
X180381937Y-88035774D01*
X180495205Y-87866256D01*
X180573226Y-87677898D01*
X180613000Y-87477939D01*
X180613000Y-87274061D01*
X180583748Y-87127000D01*
X181112252Y-87127000D01*
X181083000Y-87274061D01*
X181083000Y-87477939D01*
X181122774Y-87677898D01*
X181200795Y-87866256D01*
X181314063Y-88035774D01*
X181458226Y-88179937D01*
X181627744Y-88293205D01*
X181816102Y-88371226D01*
X182016061Y-88411000D01*
X182219939Y-88411000D01*
X182419898Y-88371226D01*
X182608256Y-88293205D01*
X182777774Y-88179937D01*
X182921937Y-88035774D01*
X183035205Y-87866256D01*
X183113226Y-87677898D01*
X183153000Y-87477939D01*
X183153000Y-87274061D01*
X183123748Y-87127000D01*
X183652252Y-87127000D01*
X183623000Y-87274061D01*
X183623000Y-87477939D01*
X183662774Y-87677898D01*
X183740795Y-87866256D01*
X183854063Y-88035774D01*
X183998226Y-88179937D01*
X184167744Y-88293205D01*
X184356102Y-88371226D01*
X184556061Y-88411000D01*
X184759939Y-88411000D01*
X184959898Y-88371226D01*
X185148256Y-88293205D01*
X185317774Y-88179937D01*
X185461937Y-88035774D01*
X185575205Y-87866256D01*
X185653226Y-87677898D01*
X185693000Y-87477939D01*
X185693000Y-87274061D01*
X185663748Y-87127000D01*
X186192252Y-87127000D01*
X186163000Y-87274061D01*
X186163000Y-87477939D01*
X186202774Y-87677898D01*
X186280795Y-87866256D01*
X186394063Y-88035774D01*
X186538226Y-88179937D01*
X186707744Y-88293205D01*
X186896102Y-88371226D01*
X187096061Y-88411000D01*
X187299939Y-88411000D01*
X187499898Y-88371226D01*
X187688256Y-88293205D01*
X187857774Y-88179937D01*
X188001937Y-88035774D01*
X188115205Y-87866256D01*
X188193226Y-87677898D01*
X188233000Y-87477939D01*
X188233000Y-87274061D01*
X188203748Y-87127000D01*
X194340001Y-87127000D01*
X194340000Y-127967721D01*
X194311375Y-128259660D01*
X194235965Y-128509429D01*
X194113477Y-128739794D01*
X193948579Y-128941979D01*
X193747546Y-129108288D01*
X193518046Y-129232378D01*
X193268805Y-129309531D01*
X192978911Y-129340000D01*
X97032279Y-129340000D01*
X96740340Y-129311375D01*
X96490571Y-129235965D01*
X96260206Y-129113477D01*
X96058021Y-128948579D01*
X95891712Y-128747546D01*
X95767622Y-128518046D01*
X95690469Y-128268805D01*
X95660000Y-127978911D01*
X95660000Y-122394000D01*
X100165928Y-122394000D01*
X100165928Y-124494000D01*
X100178188Y-124618482D01*
X100214498Y-124738180D01*
X100273463Y-124848494D01*
X100352815Y-124945185D01*
X100449506Y-125024537D01*
X100559820Y-125083502D01*
X100679518Y-125119812D01*
X100804000Y-125132072D01*
X102904000Y-125132072D01*
X103028482Y-125119812D01*
X103148180Y-125083502D01*
X103258494Y-125024537D01*
X103355185Y-124945185D01*
X103434537Y-124848494D01*
X103493502Y-124738180D01*
X103529812Y-124618482D01*
X103530148Y-124615066D01*
X104672539Y-124615066D01*
X104774339Y-124884579D01*
X105072477Y-125030463D01*
X105393346Y-125115380D01*
X105724617Y-125136066D01*
X106053557Y-125091728D01*
X106367527Y-124984069D01*
X106553661Y-124884579D01*
X106655461Y-124615066D01*
X105664000Y-123623605D01*
X104672539Y-124615066D01*
X103530148Y-124615066D01*
X103542072Y-124494000D01*
X103542072Y-123504617D01*
X103971934Y-123504617D01*
X104016272Y-123833557D01*
X104123931Y-124147527D01*
X104223421Y-124333661D01*
X104492934Y-124435461D01*
X105484395Y-123444000D01*
X105843605Y-123444000D01*
X106835066Y-124435461D01*
X107104579Y-124333661D01*
X107250463Y-124035523D01*
X107335380Y-123714654D01*
X107356066Y-123383383D01*
X107341868Y-123278042D01*
X107789000Y-123278042D01*
X107789000Y-123609958D01*
X107853754Y-123935496D01*
X107980772Y-124242147D01*
X108165175Y-124518125D01*
X108399875Y-124752825D01*
X108675853Y-124937228D01*
X108982504Y-125064246D01*
X109308042Y-125129000D01*
X109639958Y-125129000D01*
X109965496Y-125064246D01*
X110272147Y-124937228D01*
X110548125Y-124752825D01*
X110782825Y-124518125D01*
X110967228Y-124242147D01*
X111094246Y-123935496D01*
X111159000Y-123609958D01*
X111159000Y-123278042D01*
X111094246Y-122952504D01*
X110967228Y-122645853D01*
X110798945Y-122394000D01*
X115405928Y-122394000D01*
X115405928Y-124494000D01*
X115418188Y-124618482D01*
X115454498Y-124738180D01*
X115513463Y-124848494D01*
X115592815Y-124945185D01*
X115689506Y-125024537D01*
X115799820Y-125083502D01*
X115919518Y-125119812D01*
X116044000Y-125132072D01*
X118144000Y-125132072D01*
X118268482Y-125119812D01*
X118388180Y-125083502D01*
X118498494Y-125024537D01*
X118595185Y-124945185D01*
X118674537Y-124848494D01*
X118733502Y-124738180D01*
X118769812Y-124618482D01*
X118770148Y-124615066D01*
X119912539Y-124615066D01*
X120014339Y-124884579D01*
X120312477Y-125030463D01*
X120633346Y-125115380D01*
X120964617Y-125136066D01*
X121293557Y-125091728D01*
X121607527Y-124984069D01*
X121793661Y-124884579D01*
X121895461Y-124615066D01*
X120904000Y-123623605D01*
X119912539Y-124615066D01*
X118770148Y-124615066D01*
X118782072Y-124494000D01*
X118782072Y-123504617D01*
X119211934Y-123504617D01*
X119256272Y-123833557D01*
X119363931Y-124147527D01*
X119463421Y-124333661D01*
X119732934Y-124435461D01*
X120724395Y-123444000D01*
X121083605Y-123444000D01*
X122075066Y-124435461D01*
X122344579Y-124333661D01*
X122490463Y-124035523D01*
X122575380Y-123714654D01*
X122596066Y-123383383D01*
X122581868Y-123278042D01*
X123029000Y-123278042D01*
X123029000Y-123609958D01*
X123093754Y-123935496D01*
X123220772Y-124242147D01*
X123405175Y-124518125D01*
X123639875Y-124752825D01*
X123915853Y-124937228D01*
X124222504Y-125064246D01*
X124548042Y-125129000D01*
X124879958Y-125129000D01*
X125205496Y-125064246D01*
X125512147Y-124937228D01*
X125788125Y-124752825D01*
X126022825Y-124518125D01*
X126207228Y-124242147D01*
X126334246Y-123935496D01*
X126399000Y-123609958D01*
X126399000Y-123278042D01*
X126334246Y-122952504D01*
X126207228Y-122645853D01*
X126022825Y-122369875D01*
X125788125Y-122135175D01*
X125512147Y-121950772D01*
X125205496Y-121823754D01*
X124879958Y-121759000D01*
X124548042Y-121759000D01*
X124222504Y-121823754D01*
X123915853Y-121950772D01*
X123639875Y-122135175D01*
X123405175Y-122369875D01*
X123220772Y-122645853D01*
X123093754Y-122952504D01*
X123029000Y-123278042D01*
X122581868Y-123278042D01*
X122551728Y-123054443D01*
X122444069Y-122740473D01*
X122344579Y-122554339D01*
X122075066Y-122452539D01*
X121083605Y-123444000D01*
X120724395Y-123444000D01*
X119732934Y-122452539D01*
X119463421Y-122554339D01*
X119317537Y-122852477D01*
X119232620Y-123173346D01*
X119211934Y-123504617D01*
X118782072Y-123504617D01*
X118782072Y-122394000D01*
X118770149Y-122272934D01*
X119912539Y-122272934D01*
X120904000Y-123264395D01*
X121895461Y-122272934D01*
X121793661Y-122003421D01*
X121495523Y-121857537D01*
X121174654Y-121772620D01*
X120843383Y-121751934D01*
X120514443Y-121796272D01*
X120200473Y-121903931D01*
X120014339Y-122003421D01*
X119912539Y-122272934D01*
X118770149Y-122272934D01*
X118769812Y-122269518D01*
X118733502Y-122149820D01*
X118674537Y-122039506D01*
X118595185Y-121942815D01*
X118498494Y-121863463D01*
X118388180Y-121804498D01*
X118268482Y-121768188D01*
X118144000Y-121755928D01*
X116044000Y-121755928D01*
X115919518Y-121768188D01*
X115799820Y-121804498D01*
X115689506Y-121863463D01*
X115592815Y-121942815D01*
X115513463Y-122039506D01*
X115454498Y-122149820D01*
X115418188Y-122269518D01*
X115405928Y-122394000D01*
X110798945Y-122394000D01*
X110782825Y-122369875D01*
X110548125Y-122135175D01*
X110272147Y-121950772D01*
X109965496Y-121823754D01*
X109639958Y-121759000D01*
X109308042Y-121759000D01*
X108982504Y-121823754D01*
X108675853Y-121950772D01*
X108399875Y-122135175D01*
X108165175Y-122369875D01*
X107980772Y-122645853D01*
X107853754Y-122952504D01*
X107789000Y-123278042D01*
X107341868Y-123278042D01*
X107311728Y-123054443D01*
X107204069Y-122740473D01*
X107104579Y-122554339D01*
X106835066Y-122452539D01*
X105843605Y-123444000D01*
X105484395Y-123444000D01*
X104492934Y-122452539D01*
X104223421Y-122554339D01*
X104077537Y-122852477D01*
X103992620Y-123173346D01*
X103971934Y-123504617D01*
X103542072Y-123504617D01*
X103542072Y-122394000D01*
X103530149Y-122272934D01*
X104672539Y-122272934D01*
X105664000Y-123264395D01*
X106655461Y-122272934D01*
X106553661Y-122003421D01*
X106255523Y-121857537D01*
X105934654Y-121772620D01*
X105603383Y-121751934D01*
X105274443Y-121796272D01*
X104960473Y-121903931D01*
X104774339Y-122003421D01*
X104672539Y-122272934D01*
X103530149Y-122272934D01*
X103529812Y-122269518D01*
X103493502Y-122149820D01*
X103434537Y-122039506D01*
X103355185Y-121942815D01*
X103258494Y-121863463D01*
X103148180Y-121804498D01*
X103028482Y-121768188D01*
X102904000Y-121755928D01*
X100804000Y-121755928D01*
X100679518Y-121768188D01*
X100559820Y-121804498D01*
X100449506Y-121863463D01*
X100352815Y-121942815D01*
X100273463Y-122039506D01*
X100214498Y-122149820D01*
X100178188Y-122269518D01*
X100165928Y-122394000D01*
X95660000Y-122394000D01*
X95660000Y-114624000D01*
X128971928Y-114624000D01*
X128971928Y-117024000D01*
X128984188Y-117148482D01*
X129020498Y-117268180D01*
X129079463Y-117378494D01*
X129158815Y-117475185D01*
X129255506Y-117554537D01*
X129365820Y-117613502D01*
X129485518Y-117649812D01*
X129610000Y-117662072D01*
X132010000Y-117662072D01*
X132134482Y-117649812D01*
X132254180Y-117613502D01*
X132364494Y-117554537D01*
X132461185Y-117475185D01*
X132540537Y-117378494D01*
X132599502Y-117268180D01*
X132635812Y-117148482D01*
X132640391Y-117101980D01*
X134791626Y-117101980D01*
X134911514Y-117386836D01*
X135235210Y-117547699D01*
X135584069Y-117642322D01*
X135944684Y-117667067D01*
X136303198Y-117620985D01*
X136645833Y-117505846D01*
X136868486Y-117386836D01*
X136988374Y-117101980D01*
X135890000Y-116003605D01*
X134791626Y-117101980D01*
X132640391Y-117101980D01*
X132648072Y-117024000D01*
X132648072Y-115878684D01*
X134046933Y-115878684D01*
X134093015Y-116237198D01*
X134208154Y-116579833D01*
X134327164Y-116802486D01*
X134612020Y-116922374D01*
X135710395Y-115824000D01*
X136069605Y-115824000D01*
X137167980Y-116922374D01*
X137452836Y-116802486D01*
X137613699Y-116478790D01*
X137708322Y-116129931D01*
X137733067Y-115769316D01*
X137686985Y-115410802D01*
X137571846Y-115068167D01*
X137452836Y-114845514D01*
X137167980Y-114725626D01*
X136069605Y-115824000D01*
X135710395Y-115824000D01*
X134612020Y-114725626D01*
X134327164Y-114845514D01*
X134166301Y-115169210D01*
X134071678Y-115518069D01*
X134046933Y-115878684D01*
X132648072Y-115878684D01*
X132648072Y-114624000D01*
X132640392Y-114546020D01*
X134791626Y-114546020D01*
X135890000Y-115644395D01*
X136988374Y-114546020D01*
X136868486Y-114261164D01*
X136544790Y-114100301D01*
X136195931Y-114005678D01*
X135835316Y-113980933D01*
X135476802Y-114027015D01*
X135134167Y-114142154D01*
X134911514Y-114261164D01*
X134791626Y-114546020D01*
X132640392Y-114546020D01*
X132635812Y-114499518D01*
X132599502Y-114379820D01*
X132540537Y-114269506D01*
X132461185Y-114172815D01*
X132364494Y-114093463D01*
X132254180Y-114034498D01*
X132134482Y-113998188D01*
X132010000Y-113985928D01*
X129610000Y-113985928D01*
X129485518Y-113998188D01*
X129365820Y-114034498D01*
X129255506Y-114093463D01*
X129158815Y-114172815D01*
X129079463Y-114269506D01*
X129020498Y-114379820D01*
X128984188Y-114499518D01*
X128971928Y-114624000D01*
X95660000Y-114624000D01*
X95660000Y-113626000D01*
X142275928Y-113626000D01*
X142288188Y-113750482D01*
X142324498Y-113870180D01*
X142383463Y-113980494D01*
X142462815Y-114077185D01*
X142559506Y-114156537D01*
X142669820Y-114215502D01*
X142789518Y-114251812D01*
X142914000Y-114264072D01*
X143478250Y-114261000D01*
X143637000Y-114102250D01*
X143637000Y-112903000D01*
X142437750Y-112903000D01*
X142279000Y-113061750D01*
X142275928Y-113626000D01*
X95660000Y-113626000D01*
X95660000Y-111926000D01*
X142275928Y-111926000D01*
X142279000Y-112490250D01*
X142437750Y-112649000D01*
X143637000Y-112649000D01*
X143637000Y-111449750D01*
X143478250Y-111291000D01*
X142914000Y-111287928D01*
X142789518Y-111300188D01*
X142669820Y-111336498D01*
X142559506Y-111395463D01*
X142462815Y-111474815D01*
X142383463Y-111571506D01*
X142324498Y-111681820D01*
X142288188Y-111801518D01*
X142275928Y-111926000D01*
X95660000Y-111926000D01*
X95660000Y-106900000D01*
X100165928Y-106900000D01*
X100165928Y-109000000D01*
X100178188Y-109124482D01*
X100214498Y-109244180D01*
X100273463Y-109354494D01*
X100352815Y-109451185D01*
X100449506Y-109530537D01*
X100559820Y-109589502D01*
X100679518Y-109625812D01*
X100804000Y-109638072D01*
X102904000Y-109638072D01*
X103028482Y-109625812D01*
X103148180Y-109589502D01*
X103258494Y-109530537D01*
X103355185Y-109451185D01*
X103434537Y-109354494D01*
X103493502Y-109244180D01*
X103529812Y-109124482D01*
X103530148Y-109121066D01*
X104672539Y-109121066D01*
X104774339Y-109390579D01*
X105072477Y-109536463D01*
X105393346Y-109621380D01*
X105724617Y-109642066D01*
X106053557Y-109597728D01*
X106367527Y-109490069D01*
X106553661Y-109390579D01*
X106655461Y-109121066D01*
X105664000Y-108129605D01*
X104672539Y-109121066D01*
X103530148Y-109121066D01*
X103542072Y-109000000D01*
X103542072Y-108010617D01*
X103971934Y-108010617D01*
X104016272Y-108339557D01*
X104123931Y-108653527D01*
X104223421Y-108839661D01*
X104492934Y-108941461D01*
X105484395Y-107950000D01*
X105843605Y-107950000D01*
X106835066Y-108941461D01*
X107104579Y-108839661D01*
X107250463Y-108541523D01*
X107335380Y-108220654D01*
X107356066Y-107889383D01*
X107341868Y-107784042D01*
X107789000Y-107784042D01*
X107789000Y-108115958D01*
X107853754Y-108441496D01*
X107980772Y-108748147D01*
X108165175Y-109024125D01*
X108399875Y-109258825D01*
X108675853Y-109443228D01*
X108982504Y-109570246D01*
X109308042Y-109635000D01*
X109639958Y-109635000D01*
X109965496Y-109570246D01*
X110272147Y-109443228D01*
X110548125Y-109258825D01*
X110782825Y-109024125D01*
X110967228Y-108748147D01*
X111094246Y-108441496D01*
X111159000Y-108115958D01*
X111159000Y-107784042D01*
X111094246Y-107458504D01*
X110967228Y-107151853D01*
X110798945Y-106900000D01*
X115405928Y-106900000D01*
X115405928Y-109000000D01*
X115418188Y-109124482D01*
X115454498Y-109244180D01*
X115513463Y-109354494D01*
X115592815Y-109451185D01*
X115689506Y-109530537D01*
X115799820Y-109589502D01*
X115919518Y-109625812D01*
X116044000Y-109638072D01*
X118144000Y-109638072D01*
X118268482Y-109625812D01*
X118388180Y-109589502D01*
X118498494Y-109530537D01*
X118595185Y-109451185D01*
X118674537Y-109354494D01*
X118733502Y-109244180D01*
X118769812Y-109124482D01*
X118770148Y-109121066D01*
X119912539Y-109121066D01*
X120014339Y-109390579D01*
X120312477Y-109536463D01*
X120633346Y-109621380D01*
X120964617Y-109642066D01*
X121293557Y-109597728D01*
X121607527Y-109490069D01*
X121793661Y-109390579D01*
X121895461Y-109121066D01*
X120904000Y-108129605D01*
X119912539Y-109121066D01*
X118770148Y-109121066D01*
X118782072Y-109000000D01*
X118782072Y-108010617D01*
X119211934Y-108010617D01*
X119256272Y-108339557D01*
X119363931Y-108653527D01*
X119463421Y-108839661D01*
X119732934Y-108941461D01*
X120724395Y-107950000D01*
X121083605Y-107950000D01*
X122075066Y-108941461D01*
X122344579Y-108839661D01*
X122490463Y-108541523D01*
X122575380Y-108220654D01*
X122596066Y-107889383D01*
X122581868Y-107784042D01*
X123029000Y-107784042D01*
X123029000Y-108115958D01*
X123093754Y-108441496D01*
X123220772Y-108748147D01*
X123405175Y-109024125D01*
X123639875Y-109258825D01*
X123915853Y-109443228D01*
X124222504Y-109570246D01*
X124548042Y-109635000D01*
X124879958Y-109635000D01*
X125205496Y-109570246D01*
X125512147Y-109443228D01*
X125788125Y-109258825D01*
X126022825Y-109024125D01*
X126207228Y-108748147D01*
X126334246Y-108441496D01*
X126399000Y-108115958D01*
X126399000Y-107784042D01*
X126334246Y-107458504D01*
X126207228Y-107151853D01*
X126022825Y-106875875D01*
X125788125Y-106641175D01*
X125512147Y-106456772D01*
X125205496Y-106329754D01*
X124879958Y-106265000D01*
X124548042Y-106265000D01*
X124222504Y-106329754D01*
X123915853Y-106456772D01*
X123639875Y-106641175D01*
X123405175Y-106875875D01*
X123220772Y-107151853D01*
X123093754Y-107458504D01*
X123029000Y-107784042D01*
X122581868Y-107784042D01*
X122551728Y-107560443D01*
X122444069Y-107246473D01*
X122344579Y-107060339D01*
X122075066Y-106958539D01*
X121083605Y-107950000D01*
X120724395Y-107950000D01*
X119732934Y-106958539D01*
X119463421Y-107060339D01*
X119317537Y-107358477D01*
X119232620Y-107679346D01*
X119211934Y-108010617D01*
X118782072Y-108010617D01*
X118782072Y-106900000D01*
X118770149Y-106778934D01*
X119912539Y-106778934D01*
X120904000Y-107770395D01*
X121895461Y-106778934D01*
X121793661Y-106509421D01*
X121495523Y-106363537D01*
X121174654Y-106278620D01*
X120843383Y-106257934D01*
X120514443Y-106302272D01*
X120200473Y-106409931D01*
X120014339Y-106509421D01*
X119912539Y-106778934D01*
X118770149Y-106778934D01*
X118769812Y-106775518D01*
X118733502Y-106655820D01*
X118674537Y-106545506D01*
X118595185Y-106448815D01*
X118498494Y-106369463D01*
X118388180Y-106310498D01*
X118268482Y-106274188D01*
X118144000Y-106261928D01*
X116044000Y-106261928D01*
X115919518Y-106274188D01*
X115799820Y-106310498D01*
X115689506Y-106369463D01*
X115592815Y-106448815D01*
X115513463Y-106545506D01*
X115454498Y-106655820D01*
X115418188Y-106775518D01*
X115405928Y-106900000D01*
X110798945Y-106900000D01*
X110782825Y-106875875D01*
X110548125Y-106641175D01*
X110272147Y-106456772D01*
X109965496Y-106329754D01*
X109639958Y-106265000D01*
X109308042Y-106265000D01*
X108982504Y-106329754D01*
X108675853Y-106456772D01*
X108399875Y-106641175D01*
X108165175Y-106875875D01*
X107980772Y-107151853D01*
X107853754Y-107458504D01*
X107789000Y-107784042D01*
X107341868Y-107784042D01*
X107311728Y-107560443D01*
X107204069Y-107246473D01*
X107104579Y-107060339D01*
X106835066Y-106958539D01*
X105843605Y-107950000D01*
X105484395Y-107950000D01*
X104492934Y-106958539D01*
X104223421Y-107060339D01*
X104077537Y-107358477D01*
X103992620Y-107679346D01*
X103971934Y-108010617D01*
X103542072Y-108010617D01*
X103542072Y-106900000D01*
X103530149Y-106778934D01*
X104672539Y-106778934D01*
X105664000Y-107770395D01*
X106655461Y-106778934D01*
X106553661Y-106509421D01*
X106255523Y-106363537D01*
X105934654Y-106278620D01*
X105603383Y-106257934D01*
X105274443Y-106302272D01*
X104960473Y-106409931D01*
X104774339Y-106509421D01*
X104672539Y-106778934D01*
X103530149Y-106778934D01*
X103529812Y-106775518D01*
X103493502Y-106655820D01*
X103434537Y-106545506D01*
X103355185Y-106448815D01*
X103258494Y-106369463D01*
X103148180Y-106310498D01*
X103028482Y-106274188D01*
X102904000Y-106261928D01*
X100804000Y-106261928D01*
X100679518Y-106274188D01*
X100559820Y-106310498D01*
X100449506Y-106369463D01*
X100352815Y-106448815D01*
X100273463Y-106545506D01*
X100214498Y-106655820D01*
X100178188Y-106775518D01*
X100165928Y-106900000D01*
X95660000Y-106900000D01*
X95660000Y-98704061D01*
X130791000Y-98704061D01*
X130791000Y-98907939D01*
X130830774Y-99107898D01*
X130908795Y-99296256D01*
X131022063Y-99465774D01*
X131166226Y-99609937D01*
X131335744Y-99723205D01*
X131524102Y-99801226D01*
X131724061Y-99841000D01*
X131927939Y-99841000D01*
X132127898Y-99801226D01*
X132316256Y-99723205D01*
X132334000Y-99711349D01*
X132351744Y-99723205D01*
X132540102Y-99801226D01*
X132740061Y-99841000D01*
X132943939Y-99841000D01*
X133143898Y-99801226D01*
X133332256Y-99723205D01*
X133350000Y-99711349D01*
X133367744Y-99723205D01*
X133556102Y-99801226D01*
X133756061Y-99841000D01*
X133959939Y-99841000D01*
X134159898Y-99801226D01*
X134348256Y-99723205D01*
X134517774Y-99609937D01*
X134661937Y-99465774D01*
X134775205Y-99296256D01*
X134853226Y-99107898D01*
X134893000Y-98907939D01*
X134893000Y-98704061D01*
X134853226Y-98504102D01*
X134775205Y-98315744D01*
X134661937Y-98146226D01*
X134517774Y-98002063D01*
X134348256Y-97888795D01*
X134159898Y-97810774D01*
X133959939Y-97771000D01*
X133756061Y-97771000D01*
X133556102Y-97810774D01*
X133367744Y-97888795D01*
X133350000Y-97900651D01*
X133332256Y-97888795D01*
X133143898Y-97810774D01*
X132943939Y-97771000D01*
X132740061Y-97771000D01*
X132540102Y-97810774D01*
X132351744Y-97888795D01*
X132334000Y-97900651D01*
X132316256Y-97888795D01*
X132127898Y-97810774D01*
X131927939Y-97771000D01*
X131724061Y-97771000D01*
X131524102Y-97810774D01*
X131335744Y-97888795D01*
X131166226Y-98002063D01*
X131022063Y-98146226D01*
X130908795Y-98315744D01*
X130830774Y-98504102D01*
X130791000Y-98704061D01*
X95660000Y-98704061D01*
X95660000Y-94386061D01*
X104375000Y-94386061D01*
X104375000Y-94589939D01*
X104414774Y-94789898D01*
X104492795Y-94978256D01*
X104606063Y-95147774D01*
X104750226Y-95291937D01*
X104919744Y-95405205D01*
X105108102Y-95483226D01*
X105308061Y-95523000D01*
X105511939Y-95523000D01*
X105711898Y-95483226D01*
X105900256Y-95405205D01*
X106069774Y-95291937D01*
X106213937Y-95147774D01*
X106327205Y-94978256D01*
X106405226Y-94789898D01*
X106445000Y-94589939D01*
X106445000Y-94386061D01*
X106405226Y-94186102D01*
X106327205Y-93997744D01*
X106213937Y-93828226D01*
X106069774Y-93684063D01*
X105900256Y-93570795D01*
X105711898Y-93492774D01*
X105511939Y-93453000D01*
X105308061Y-93453000D01*
X105108102Y-93492774D01*
X104919744Y-93570795D01*
X104750226Y-93684063D01*
X104606063Y-93828226D01*
X104492795Y-93997744D01*
X104414774Y-94186102D01*
X104375000Y-94386061D01*
X95660000Y-94386061D01*
X95660000Y-87127000D01*
X100594252Y-87127000D01*
X100565000Y-87274061D01*
G37*
X100565000Y-87274061D02*
X100565000Y-87477939D01*
X100604774Y-87677898D01*
X100682795Y-87866256D01*
X100796063Y-88035774D01*
X100940226Y-88179937D01*
X101109744Y-88293205D01*
X101298102Y-88371226D01*
X101498061Y-88411000D01*
X101701939Y-88411000D01*
X101901898Y-88371226D01*
X102090256Y-88293205D01*
X102259774Y-88179937D01*
X102403937Y-88035774D01*
X102517205Y-87866256D01*
X102595226Y-87677898D01*
X102635000Y-87477939D01*
X102635000Y-87274061D01*
X102605748Y-87127000D01*
X103134252Y-87127000D01*
X103105000Y-87274061D01*
X103105000Y-87477939D01*
X103144774Y-87677898D01*
X103222795Y-87866256D01*
X103336063Y-88035774D01*
X103480226Y-88179937D01*
X103649744Y-88293205D01*
X103838102Y-88371226D01*
X104038061Y-88411000D01*
X104241939Y-88411000D01*
X104441898Y-88371226D01*
X104630256Y-88293205D01*
X104799774Y-88179937D01*
X104943937Y-88035774D01*
X105057205Y-87866256D01*
X105135226Y-87677898D01*
X105175000Y-87477939D01*
X105175000Y-87274061D01*
X105145748Y-87127000D01*
X105674252Y-87127000D01*
X105645000Y-87274061D01*
X105645000Y-87477939D01*
X105684774Y-87677898D01*
X105762795Y-87866256D01*
X105876063Y-88035774D01*
X106020226Y-88179937D01*
X106189744Y-88293205D01*
X106378102Y-88371226D01*
X106578061Y-88411000D01*
X106781939Y-88411000D01*
X106981898Y-88371226D01*
X107170256Y-88293205D01*
X107339774Y-88179937D01*
X107483937Y-88035774D01*
X107597205Y-87866256D01*
X107675226Y-87677898D01*
X107715000Y-87477939D01*
X107715000Y-87274061D01*
X107685748Y-87127000D01*
X108214252Y-87127000D01*
X108185000Y-87274061D01*
X108185000Y-87477939D01*
X108224774Y-87677898D01*
X108302795Y-87866256D01*
X108416063Y-88035774D01*
X108560226Y-88179937D01*
X108729744Y-88293205D01*
X108918102Y-88371226D01*
X109118061Y-88411000D01*
X109321939Y-88411000D01*
X109521898Y-88371226D01*
X109710256Y-88293205D01*
X109879774Y-88179937D01*
X110023937Y-88035774D01*
X110137205Y-87866256D01*
X110215226Y-87677898D01*
X110255000Y-87477939D01*
X110255000Y-87274061D01*
X110225748Y-87127000D01*
X112873000Y-87127000D01*
X112873000Y-92000000D01*
X112875440Y-92024776D01*
X112882667Y-92048601D01*
X112894403Y-92070557D01*
X112910197Y-92089803D01*
X112929443Y-92105597D01*
X112951399Y-92117333D01*
X112975224Y-92124560D01*
X113000000Y-92127000D01*
X122111708Y-92127000D01*
X122062226Y-92160063D01*
X121918063Y-92304226D01*
X121804795Y-92473744D01*
X121726774Y-92662102D01*
X121687000Y-92862061D01*
X121687000Y-93065939D01*
X121726774Y-93265898D01*
X121804795Y-93454256D01*
X121837001Y-93502455D01*
X121837000Y-94843421D01*
X120283422Y-96397000D01*
X112126579Y-96397000D01*
X111375000Y-95645422D01*
X111375000Y-94386061D01*
X111487000Y-94386061D01*
X111487000Y-94589939D01*
X111526774Y-94789898D01*
X111604795Y-94978256D01*
X111718063Y-95147774D01*
X111862226Y-95291937D01*
X112031744Y-95405205D01*
X112220102Y-95483226D01*
X112420061Y-95523000D01*
X112623939Y-95523000D01*
X112823898Y-95483226D01*
X113012256Y-95405205D01*
X113181774Y-95291937D01*
X113325937Y-95147774D01*
X113439205Y-94978256D01*
X113517226Y-94789898D01*
X113557000Y-94589939D01*
X113557000Y-94386061D01*
X118599000Y-94386061D01*
X118599000Y-94589939D01*
X118638774Y-94789898D01*
X118716795Y-94978256D01*
X118830063Y-95147774D01*
X118974226Y-95291937D01*
X119143744Y-95405205D01*
X119332102Y-95483226D01*
X119532061Y-95523000D01*
X119735939Y-95523000D01*
X119935898Y-95483226D01*
X120124256Y-95405205D01*
X120293774Y-95291937D01*
X120437937Y-95147774D01*
X120551205Y-94978256D01*
X120629226Y-94789898D01*
X120669000Y-94589939D01*
X120669000Y-94386061D01*
X120629226Y-94186102D01*
X120551205Y-93997744D01*
X120437937Y-93828226D01*
X120293774Y-93684063D01*
X120124256Y-93570795D01*
X119935898Y-93492774D01*
X119735939Y-93453000D01*
X119532061Y-93453000D01*
X119332102Y-93492774D01*
X119143744Y-93570795D01*
X118974226Y-93684063D01*
X118830063Y-93828226D01*
X118716795Y-93997744D01*
X118638774Y-94186102D01*
X118599000Y-94386061D01*
X113557000Y-94386061D01*
X113517226Y-94186102D01*
X113439205Y-93997744D01*
X113325937Y-93828226D01*
X113181774Y-93684063D01*
X113012256Y-93570795D01*
X112823898Y-93492774D01*
X112623939Y-93453000D01*
X112420061Y-93453000D01*
X112220102Y-93492774D01*
X112031744Y-93570795D01*
X111862226Y-93684063D01*
X111718063Y-93828226D01*
X111604795Y-93997744D01*
X111526774Y-94186102D01*
X111487000Y-94386061D01*
X111375000Y-94386061D01*
X111375000Y-90962454D01*
X111407205Y-90914256D01*
X111485226Y-90725898D01*
X111525000Y-90525939D01*
X111525000Y-90322061D01*
X111485226Y-90122102D01*
X111407205Y-89933744D01*
X111293937Y-89764226D01*
X111149774Y-89620063D01*
X110980256Y-89506795D01*
X110791898Y-89428774D01*
X110591939Y-89389000D01*
X110388061Y-89389000D01*
X110188102Y-89428774D01*
X109999744Y-89506795D01*
X109830226Y-89620063D01*
X109686063Y-89764226D01*
X109572795Y-89933744D01*
X109494774Y-90122102D01*
X109455000Y-90322061D01*
X109455000Y-90525939D01*
X109494774Y-90725898D01*
X109572795Y-90914256D01*
X109605000Y-90962454D01*
X109605001Y-95968521D01*
X109600719Y-96012000D01*
X109617805Y-96185490D01*
X109668412Y-96352313D01*
X109750590Y-96506059D01*
X109833468Y-96607046D01*
X109833471Y-96607049D01*
X109861184Y-96640817D01*
X109894951Y-96668529D01*
X111103470Y-97877049D01*
X111131183Y-97910817D01*
X111164951Y-97938530D01*
X111164953Y-97938532D01*
X111236452Y-97997210D01*
X111265941Y-98021411D01*
X111419687Y-98103589D01*
X111586510Y-98154195D01*
X111716523Y-98167000D01*
X111716533Y-98167000D01*
X111759999Y-98171281D01*
X111803465Y-98167000D01*
X120606531Y-98167000D01*
X120650000Y-98171281D01*
X120693469Y-98167000D01*
X120693477Y-98167000D01*
X120823490Y-98154195D01*
X120990313Y-98103589D01*
X121144059Y-98021411D01*
X121278817Y-97910817D01*
X121306534Y-97877044D01*
X123317050Y-95866529D01*
X123350817Y-95838817D01*
X123461411Y-95704059D01*
X123478714Y-95671687D01*
X123543589Y-95550314D01*
X123594195Y-95383490D01*
X123597274Y-95352226D01*
X123607000Y-95253477D01*
X123607000Y-95253469D01*
X123611281Y-95210000D01*
X123607000Y-95166531D01*
X123607000Y-94386061D01*
X125711000Y-94386061D01*
X125711000Y-94589939D01*
X125750774Y-94789898D01*
X125828795Y-94978256D01*
X125942063Y-95147774D01*
X126086226Y-95291937D01*
X126255744Y-95405205D01*
X126444102Y-95483226D01*
X126644061Y-95523000D01*
X126847939Y-95523000D01*
X127047898Y-95483226D01*
X127236256Y-95405205D01*
X127405774Y-95291937D01*
X127549937Y-95147774D01*
X127663205Y-94978256D01*
X127741226Y-94789898D01*
X127781000Y-94589939D01*
X127781000Y-94386061D01*
X127741226Y-94186102D01*
X127663205Y-93997744D01*
X127549937Y-93828226D01*
X127405774Y-93684063D01*
X127236256Y-93570795D01*
X127047898Y-93492774D01*
X126847939Y-93453000D01*
X126644061Y-93453000D01*
X126444102Y-93492774D01*
X126255744Y-93570795D01*
X126086226Y-93684063D01*
X125942063Y-93828226D01*
X125828795Y-93997744D01*
X125750774Y-94186102D01*
X125711000Y-94386061D01*
X123607000Y-94386061D01*
X123607000Y-93502454D01*
X123639205Y-93454256D01*
X123717226Y-93265898D01*
X123757000Y-93065939D01*
X123757000Y-92862061D01*
X123717226Y-92662102D01*
X123639205Y-92473744D01*
X123525937Y-92304226D01*
X123381774Y-92160063D01*
X123332292Y-92127000D01*
X132873000Y-92127000D01*
X132873000Y-95000000D01*
X132875440Y-95024776D01*
X132882667Y-95048601D01*
X132894403Y-95070557D01*
X132910197Y-95089803D01*
X132929443Y-95105597D01*
X132951399Y-95117333D01*
X132975224Y-95124560D01*
X133000000Y-95127000D01*
X143873000Y-95127000D01*
X143873000Y-106715928D01*
X142914000Y-106715928D01*
X142789518Y-106728188D01*
X142669820Y-106764498D01*
X142559506Y-106823463D01*
X142462815Y-106902815D01*
X142383463Y-106999506D01*
X142324498Y-107109820D01*
X142288188Y-107229518D01*
X142275928Y-107354000D01*
X142275928Y-109054000D01*
X142288188Y-109178482D01*
X142324498Y-109298180D01*
X142383463Y-109408494D01*
X142462815Y-109505185D01*
X142559506Y-109584537D01*
X142669820Y-109643502D01*
X142789518Y-109679812D01*
X142914000Y-109692072D01*
X143873000Y-109692072D01*
X143873000Y-123000000D01*
X143875440Y-123024776D01*
X143882667Y-123048601D01*
X143894403Y-123070557D01*
X143910197Y-123089803D01*
X143929443Y-123105597D01*
X143951399Y-123117333D01*
X143975224Y-123124560D01*
X144000000Y-123127000D01*
X163000000Y-123127000D01*
X163024776Y-123124560D01*
X163048601Y-123117333D01*
X163070557Y-123105597D01*
X163089803Y-123089803D01*
X163105597Y-123070557D01*
X163117333Y-123048601D01*
X163124560Y-123024776D01*
X163127000Y-123000000D01*
X163127000Y-122394000D01*
X163665928Y-122394000D01*
X163665928Y-124494000D01*
X163678188Y-124618482D01*
X163714498Y-124738180D01*
X163773463Y-124848494D01*
X163852815Y-124945185D01*
X163949506Y-125024537D01*
X164059820Y-125083502D01*
X164179518Y-125119812D01*
X164304000Y-125132072D01*
X166404000Y-125132072D01*
X166528482Y-125119812D01*
X166648180Y-125083502D01*
X166758494Y-125024537D01*
X166855185Y-124945185D01*
X166934537Y-124848494D01*
X166993502Y-124738180D01*
X167029812Y-124618482D01*
X167030148Y-124615066D01*
X168172539Y-124615066D01*
X168274339Y-124884579D01*
X168572477Y-125030463D01*
X168893346Y-125115380D01*
X169224617Y-125136066D01*
X169553557Y-125091728D01*
X169867527Y-124984069D01*
X170053661Y-124884579D01*
X170155461Y-124615066D01*
X169164000Y-123623605D01*
X168172539Y-124615066D01*
X167030148Y-124615066D01*
X167042072Y-124494000D01*
X167042072Y-123504617D01*
X167471934Y-123504617D01*
X167516272Y-123833557D01*
X167623931Y-124147527D01*
X167723421Y-124333661D01*
X167992934Y-124435461D01*
X168984395Y-123444000D01*
X169343605Y-123444000D01*
X170335066Y-124435461D01*
X170604579Y-124333661D01*
X170750463Y-124035523D01*
X170835380Y-123714654D01*
X170856066Y-123383383D01*
X170811728Y-123054443D01*
X170704069Y-122740473D01*
X170604579Y-122554339D01*
X170335066Y-122452539D01*
X169343605Y-123444000D01*
X168984395Y-123444000D01*
X167992934Y-122452539D01*
X167723421Y-122554339D01*
X167577537Y-122852477D01*
X167492620Y-123173346D01*
X167471934Y-123504617D01*
X167042072Y-123504617D01*
X167042072Y-122394000D01*
X167030149Y-122272934D01*
X168172539Y-122272934D01*
X169164000Y-123264395D01*
X170155461Y-122272934D01*
X170053661Y-122003421D01*
X169755523Y-121857537D01*
X169434654Y-121772620D01*
X169103383Y-121751934D01*
X168774443Y-121796272D01*
X168460473Y-121903931D01*
X168274339Y-122003421D01*
X168172539Y-122272934D01*
X167030149Y-122272934D01*
X167029812Y-122269518D01*
X166993502Y-122149820D01*
X166934537Y-122039506D01*
X166855185Y-121942815D01*
X166758494Y-121863463D01*
X166648180Y-121804498D01*
X166528482Y-121768188D01*
X166404000Y-121755928D01*
X164304000Y-121755928D01*
X164179518Y-121768188D01*
X164059820Y-121804498D01*
X163949506Y-121863463D01*
X163852815Y-121942815D01*
X163773463Y-122039506D01*
X163714498Y-122149820D01*
X163678188Y-122269518D01*
X163665928Y-122394000D01*
X163127000Y-122394000D01*
X163127000Y-106900000D01*
X163665928Y-106900000D01*
X163665928Y-109000000D01*
X163678188Y-109124482D01*
X163714498Y-109244180D01*
X163773463Y-109354494D01*
X163852815Y-109451185D01*
X163949506Y-109530537D01*
X164059820Y-109589502D01*
X164179518Y-109625812D01*
X164304000Y-109638072D01*
X166404000Y-109638072D01*
X166528482Y-109625812D01*
X166648180Y-109589502D01*
X166758494Y-109530537D01*
X166855185Y-109451185D01*
X166934537Y-109354494D01*
X166993502Y-109244180D01*
X167029812Y-109124482D01*
X167030148Y-109121066D01*
X168172539Y-109121066D01*
X168274339Y-109390579D01*
X168572477Y-109536463D01*
X168893346Y-109621380D01*
X169224617Y-109642066D01*
X169553557Y-109597728D01*
X169867527Y-109490069D01*
X170053661Y-109390579D01*
X170155461Y-109121066D01*
X169164000Y-108129605D01*
X168172539Y-109121066D01*
X167030148Y-109121066D01*
X167042072Y-109000000D01*
X167042072Y-108010617D01*
X167471934Y-108010617D01*
X167516272Y-108339557D01*
X167623931Y-108653527D01*
X167723421Y-108839661D01*
X167992934Y-108941461D01*
X168984395Y-107950000D01*
X169343605Y-107950000D01*
X170335066Y-108941461D01*
X170604579Y-108839661D01*
X170750463Y-108541523D01*
X170835380Y-108220654D01*
X170856066Y-107889383D01*
X170841868Y-107784042D01*
X171289000Y-107784042D01*
X171289000Y-108115958D01*
X171353754Y-108441496D01*
X171480772Y-108748147D01*
X171665175Y-109024125D01*
X171899875Y-109258825D01*
X172175853Y-109443228D01*
X172482504Y-109570246D01*
X172808042Y-109635000D01*
X173139958Y-109635000D01*
X173465496Y-109570246D01*
X173772147Y-109443228D01*
X174048125Y-109258825D01*
X174282825Y-109024125D01*
X174467228Y-108748147D01*
X174594246Y-108441496D01*
X174659000Y-108115958D01*
X174659000Y-107784042D01*
X174594246Y-107458504D01*
X174467228Y-107151853D01*
X174282825Y-106875875D01*
X174048125Y-106641175D01*
X173772147Y-106456772D01*
X173465496Y-106329754D01*
X173139958Y-106265000D01*
X172808042Y-106265000D01*
X172482504Y-106329754D01*
X172175853Y-106456772D01*
X171899875Y-106641175D01*
X171665175Y-106875875D01*
X171480772Y-107151853D01*
X171353754Y-107458504D01*
X171289000Y-107784042D01*
X170841868Y-107784042D01*
X170811728Y-107560443D01*
X170704069Y-107246473D01*
X170604579Y-107060339D01*
X170335066Y-106958539D01*
X169343605Y-107950000D01*
X168984395Y-107950000D01*
X167992934Y-106958539D01*
X167723421Y-107060339D01*
X167577537Y-107358477D01*
X167492620Y-107679346D01*
X167471934Y-108010617D01*
X167042072Y-108010617D01*
X167042072Y-106900000D01*
X167030149Y-106778934D01*
X168172539Y-106778934D01*
X169164000Y-107770395D01*
X170155461Y-106778934D01*
X170053661Y-106509421D01*
X169755523Y-106363537D01*
X169434654Y-106278620D01*
X169103383Y-106257934D01*
X168774443Y-106302272D01*
X168460473Y-106409931D01*
X168274339Y-106509421D01*
X168172539Y-106778934D01*
X167030149Y-106778934D01*
X167029812Y-106775518D01*
X166993502Y-106655820D01*
X166934537Y-106545506D01*
X166855185Y-106448815D01*
X166758494Y-106369463D01*
X166648180Y-106310498D01*
X166528482Y-106274188D01*
X166404000Y-106261928D01*
X164304000Y-106261928D01*
X164179518Y-106274188D01*
X164059820Y-106310498D01*
X163949506Y-106369463D01*
X163852815Y-106448815D01*
X163773463Y-106545506D01*
X163714498Y-106655820D01*
X163678188Y-106775518D01*
X163665928Y-106900000D01*
X163127000Y-106900000D01*
X163127000Y-102514061D01*
X166351000Y-102514061D01*
X166351000Y-102717939D01*
X166390774Y-102917898D01*
X166468795Y-103106256D01*
X166582063Y-103275774D01*
X166726226Y-103419937D01*
X166895744Y-103533205D01*
X167084102Y-103611226D01*
X167284061Y-103651000D01*
X167487939Y-103651000D01*
X167613623Y-103626000D01*
X172174645Y-103626000D01*
X175393000Y-106844356D01*
X175393001Y-119596644D01*
X173215599Y-121774046D01*
X173139958Y-121759000D01*
X172808042Y-121759000D01*
X172482504Y-121823754D01*
X172175853Y-121950772D01*
X171899875Y-122135175D01*
X171665175Y-122369875D01*
X171480772Y-122645853D01*
X171353754Y-122952504D01*
X171289000Y-123278042D01*
X171289000Y-123609958D01*
X171353754Y-123935496D01*
X171480772Y-124242147D01*
X171665175Y-124518125D01*
X171899875Y-124752825D01*
X172175853Y-124937228D01*
X172482504Y-125064246D01*
X172808042Y-125129000D01*
X173139958Y-125129000D01*
X173465496Y-125064246D01*
X173772147Y-124937228D01*
X174048125Y-124752825D01*
X174282825Y-124518125D01*
X174467228Y-124242147D01*
X174594246Y-123935496D01*
X174659000Y-123609958D01*
X174659000Y-123278042D01*
X174643954Y-123202401D01*
X175452355Y-122394000D01*
X178905928Y-122394000D01*
X178905928Y-124494000D01*
X178918188Y-124618482D01*
X178954498Y-124738180D01*
X179013463Y-124848494D01*
X179092815Y-124945185D01*
X179189506Y-125024537D01*
X179299820Y-125083502D01*
X179419518Y-125119812D01*
X179544000Y-125132072D01*
X181644000Y-125132072D01*
X181768482Y-125119812D01*
X181888180Y-125083502D01*
X181998494Y-125024537D01*
X182095185Y-124945185D01*
X182174537Y-124848494D01*
X182233502Y-124738180D01*
X182269812Y-124618482D01*
X182270148Y-124615066D01*
X183412539Y-124615066D01*
X183514339Y-124884579D01*
X183812477Y-125030463D01*
X184133346Y-125115380D01*
X184464617Y-125136066D01*
X184793557Y-125091728D01*
X185107527Y-124984069D01*
X185293661Y-124884579D01*
X185395461Y-124615066D01*
X184404000Y-123623605D01*
X183412539Y-124615066D01*
X182270148Y-124615066D01*
X182282072Y-124494000D01*
X182282072Y-123504617D01*
X182711934Y-123504617D01*
X182756272Y-123833557D01*
X182863931Y-124147527D01*
X182963421Y-124333661D01*
X183232934Y-124435461D01*
X184224395Y-123444000D01*
X184583605Y-123444000D01*
X185575066Y-124435461D01*
X185844579Y-124333661D01*
X185990463Y-124035523D01*
X186075380Y-123714654D01*
X186096066Y-123383383D01*
X186081868Y-123278042D01*
X186529000Y-123278042D01*
X186529000Y-123609958D01*
X186593754Y-123935496D01*
X186720772Y-124242147D01*
X186905175Y-124518125D01*
X187139875Y-124752825D01*
X187415853Y-124937228D01*
X187722504Y-125064246D01*
X188048042Y-125129000D01*
X188379958Y-125129000D01*
X188705496Y-125064246D01*
X189012147Y-124937228D01*
X189288125Y-124752825D01*
X189522825Y-124518125D01*
X189707228Y-124242147D01*
X189834246Y-123935496D01*
X189899000Y-123609958D01*
X189899000Y-123278042D01*
X189834246Y-122952504D01*
X189707228Y-122645853D01*
X189522825Y-122369875D01*
X189288125Y-122135175D01*
X189012147Y-121950772D01*
X188705496Y-121823754D01*
X188379958Y-121759000D01*
X188048042Y-121759000D01*
X187722504Y-121823754D01*
X187415853Y-121950772D01*
X187139875Y-122135175D01*
X186905175Y-122369875D01*
X186720772Y-122645853D01*
X186593754Y-122952504D01*
X186529000Y-123278042D01*
X186081868Y-123278042D01*
X186051728Y-123054443D01*
X185944069Y-122740473D01*
X185844579Y-122554339D01*
X185575066Y-122452539D01*
X184583605Y-123444000D01*
X184224395Y-123444000D01*
X183232934Y-122452539D01*
X182963421Y-122554339D01*
X182817537Y-122852477D01*
X182732620Y-123173346D01*
X182711934Y-123504617D01*
X182282072Y-123504617D01*
X182282072Y-122394000D01*
X182270149Y-122272934D01*
X183412539Y-122272934D01*
X184404000Y-123264395D01*
X185395461Y-122272934D01*
X185293661Y-122003421D01*
X184995523Y-121857537D01*
X184674654Y-121772620D01*
X184343383Y-121751934D01*
X184014443Y-121796272D01*
X183700473Y-121903931D01*
X183514339Y-122003421D01*
X183412539Y-122272934D01*
X182270149Y-122272934D01*
X182269812Y-122269518D01*
X182233502Y-122149820D01*
X182174537Y-122039506D01*
X182095185Y-121942815D01*
X181998494Y-121863463D01*
X181888180Y-121804498D01*
X181768482Y-121768188D01*
X181644000Y-121755928D01*
X179544000Y-121755928D01*
X179419518Y-121768188D01*
X179299820Y-121804498D01*
X179189506Y-121863463D01*
X179092815Y-121942815D01*
X179013463Y-122039506D01*
X178954498Y-122149820D01*
X178918188Y-122269518D01*
X178905928Y-122394000D01*
X175452355Y-122394000D01*
X177082094Y-120764261D01*
X177120633Y-120732633D01*
X177246847Y-120578840D01*
X177340632Y-120403380D01*
X177398385Y-120212994D01*
X177413000Y-120064608D01*
X177413000Y-120064606D01*
X177417886Y-120015001D01*
X177413000Y-119965396D01*
X177413000Y-106900000D01*
X178905928Y-106900000D01*
X178905928Y-109000000D01*
X178918188Y-109124482D01*
X178954498Y-109244180D01*
X179013463Y-109354494D01*
X179092815Y-109451185D01*
X179189506Y-109530537D01*
X179299820Y-109589502D01*
X179419518Y-109625812D01*
X179544000Y-109638072D01*
X181644000Y-109638072D01*
X181768482Y-109625812D01*
X181888180Y-109589502D01*
X181998494Y-109530537D01*
X182095185Y-109451185D01*
X182174537Y-109354494D01*
X182233502Y-109244180D01*
X182269812Y-109124482D01*
X182270148Y-109121066D01*
X183412539Y-109121066D01*
X183514339Y-109390579D01*
X183812477Y-109536463D01*
X184133346Y-109621380D01*
X184464617Y-109642066D01*
X184793557Y-109597728D01*
X185107527Y-109490069D01*
X185293661Y-109390579D01*
X185395461Y-109121066D01*
X184404000Y-108129605D01*
X183412539Y-109121066D01*
X182270148Y-109121066D01*
X182282072Y-109000000D01*
X182282072Y-108010617D01*
X182711934Y-108010617D01*
X182756272Y-108339557D01*
X182863931Y-108653527D01*
X182963421Y-108839661D01*
X183232934Y-108941461D01*
X184224395Y-107950000D01*
X184583605Y-107950000D01*
X185575066Y-108941461D01*
X185844579Y-108839661D01*
X185990463Y-108541523D01*
X186075380Y-108220654D01*
X186096066Y-107889383D01*
X186081868Y-107784042D01*
X186529000Y-107784042D01*
X186529000Y-108115958D01*
X186593754Y-108441496D01*
X186720772Y-108748147D01*
X186905175Y-109024125D01*
X187139875Y-109258825D01*
X187415853Y-109443228D01*
X187722504Y-109570246D01*
X188048042Y-109635000D01*
X188379958Y-109635000D01*
X188705496Y-109570246D01*
X189012147Y-109443228D01*
X189288125Y-109258825D01*
X189522825Y-109024125D01*
X189707228Y-108748147D01*
X189834246Y-108441496D01*
X189899000Y-108115958D01*
X189899000Y-107784042D01*
X189834246Y-107458504D01*
X189707228Y-107151853D01*
X189522825Y-106875875D01*
X189288125Y-106641175D01*
X189012147Y-106456772D01*
X188705496Y-106329754D01*
X188379958Y-106265000D01*
X188048042Y-106265000D01*
X187722504Y-106329754D01*
X187415853Y-106456772D01*
X187139875Y-106641175D01*
X186905175Y-106875875D01*
X186720772Y-107151853D01*
X186593754Y-107458504D01*
X186529000Y-107784042D01*
X186081868Y-107784042D01*
X186051728Y-107560443D01*
X185944069Y-107246473D01*
X185844579Y-107060339D01*
X185575066Y-106958539D01*
X184583605Y-107950000D01*
X184224395Y-107950000D01*
X183232934Y-106958539D01*
X182963421Y-107060339D01*
X182817537Y-107358477D01*
X182732620Y-107679346D01*
X182711934Y-108010617D01*
X182282072Y-108010617D01*
X182282072Y-106900000D01*
X182270149Y-106778934D01*
X183412539Y-106778934D01*
X184404000Y-107770395D01*
X185395461Y-106778934D01*
X185293661Y-106509421D01*
X184995523Y-106363537D01*
X184674654Y-106278620D01*
X184343383Y-106257934D01*
X184014443Y-106302272D01*
X183700473Y-106409931D01*
X183514339Y-106509421D01*
X183412539Y-106778934D01*
X182270149Y-106778934D01*
X182269812Y-106775518D01*
X182233502Y-106655820D01*
X182174537Y-106545506D01*
X182095185Y-106448815D01*
X181998494Y-106369463D01*
X181888180Y-106310498D01*
X181768482Y-106274188D01*
X181644000Y-106261928D01*
X179544000Y-106261928D01*
X179419518Y-106274188D01*
X179299820Y-106310498D01*
X179189506Y-106369463D01*
X179092815Y-106448815D01*
X179013463Y-106545506D01*
X178954498Y-106655820D01*
X178918188Y-106775518D01*
X178905928Y-106900000D01*
X177413000Y-106900000D01*
X177413000Y-106475608D01*
X177417886Y-106426000D01*
X177398385Y-106228005D01*
X177340632Y-106037620D01*
X177246846Y-105862159D01*
X177152256Y-105746900D01*
X177120633Y-105708367D01*
X177082100Y-105676744D01*
X173342261Y-101936906D01*
X173310633Y-101898367D01*
X173156840Y-101772153D01*
X172981380Y-101678368D01*
X172790994Y-101620615D01*
X172642608Y-101606000D01*
X172593000Y-101601114D01*
X172543392Y-101606000D01*
X167613623Y-101606000D01*
X167487939Y-101581000D01*
X167284061Y-101581000D01*
X167084102Y-101620774D01*
X166895744Y-101698795D01*
X166726226Y-101812063D01*
X166582063Y-101956226D01*
X166468795Y-102125744D01*
X166390774Y-102314102D01*
X166351000Y-102514061D01*
X163127000Y-102514061D01*
X163127000Y-92127000D01*
X164021708Y-92127000D01*
X163972226Y-92160063D01*
X163828063Y-92304226D01*
X163714795Y-92473744D01*
X163636774Y-92662102D01*
X163597000Y-92862061D01*
X163597000Y-93065939D01*
X163636774Y-93265898D01*
X163714795Y-93454256D01*
X163747001Y-93502456D01*
X163747000Y-95754531D01*
X163742719Y-95798000D01*
X163747000Y-95841469D01*
X163747000Y-95841476D01*
X163759805Y-95971489D01*
X163810411Y-96138312D01*
X163892589Y-96292058D01*
X164003183Y-96426817D01*
X164036956Y-96454534D01*
X165205470Y-97623049D01*
X165233183Y-97656817D01*
X165266951Y-97684530D01*
X165266953Y-97684532D01*
X165367941Y-97767411D01*
X165521686Y-97849589D01*
X165650930Y-97888795D01*
X165688510Y-97900195D01*
X165818523Y-97913000D01*
X165818531Y-97913000D01*
X165862000Y-97917281D01*
X165905469Y-97913000D01*
X175470531Y-97913000D01*
X175514000Y-97917281D01*
X175557469Y-97913000D01*
X175557477Y-97913000D01*
X175687490Y-97900195D01*
X175854313Y-97849589D01*
X176008059Y-97767411D01*
X176142817Y-97656817D01*
X176170534Y-97623044D01*
X179407517Y-94386061D01*
X181845000Y-94386061D01*
X181845000Y-94589939D01*
X181884774Y-94789898D01*
X181962795Y-94978256D01*
X182076063Y-95147774D01*
X182220226Y-95291937D01*
X182389744Y-95405205D01*
X182578102Y-95483226D01*
X182778061Y-95523000D01*
X182981939Y-95523000D01*
X183181898Y-95483226D01*
X183370256Y-95405205D01*
X183539774Y-95291937D01*
X183683937Y-95147774D01*
X183797205Y-94978256D01*
X183875226Y-94789898D01*
X183915000Y-94589939D01*
X183915000Y-94386061D01*
X188957000Y-94386061D01*
X188957000Y-94589939D01*
X188996774Y-94789898D01*
X189074795Y-94978256D01*
X189188063Y-95147774D01*
X189332226Y-95291937D01*
X189501744Y-95405205D01*
X189690102Y-95483226D01*
X189890061Y-95523000D01*
X190093939Y-95523000D01*
X190293898Y-95483226D01*
X190482256Y-95405205D01*
X190651774Y-95291937D01*
X190795937Y-95147774D01*
X190909205Y-94978256D01*
X190987226Y-94789898D01*
X191027000Y-94589939D01*
X191027000Y-94386061D01*
X190987226Y-94186102D01*
X190909205Y-93997744D01*
X190795937Y-93828226D01*
X190651774Y-93684063D01*
X190482256Y-93570795D01*
X190293898Y-93492774D01*
X190093939Y-93453000D01*
X189890061Y-93453000D01*
X189690102Y-93492774D01*
X189501744Y-93570795D01*
X189332226Y-93684063D01*
X189188063Y-93828226D01*
X189074795Y-93997744D01*
X188996774Y-94186102D01*
X188957000Y-94386061D01*
X183915000Y-94386061D01*
X183875226Y-94186102D01*
X183797205Y-93997744D01*
X183683937Y-93828226D01*
X183539774Y-93684063D01*
X183370256Y-93570795D01*
X183181898Y-93492774D01*
X182981939Y-93453000D01*
X182778061Y-93453000D01*
X182578102Y-93492774D01*
X182389744Y-93570795D01*
X182220226Y-93684063D01*
X182076063Y-93828226D01*
X181962795Y-93997744D01*
X181884774Y-94186102D01*
X181845000Y-94386061D01*
X179407517Y-94386061D01*
X181443049Y-92350530D01*
X181476817Y-92322817D01*
X181587411Y-92188059D01*
X181669589Y-92034313D01*
X181720195Y-91867490D01*
X181733000Y-91737477D01*
X181733000Y-91737467D01*
X181737281Y-91694001D01*
X181733000Y-91650535D01*
X181733000Y-91216454D01*
X181765205Y-91168256D01*
X181843226Y-90979898D01*
X181883000Y-90779939D01*
X181883000Y-90576061D01*
X181843226Y-90376102D01*
X181765205Y-90187744D01*
X181651937Y-90018226D01*
X181507774Y-89874063D01*
X181338256Y-89760795D01*
X181149898Y-89682774D01*
X180949939Y-89643000D01*
X180746061Y-89643000D01*
X180546102Y-89682774D01*
X180357744Y-89760795D01*
X180188226Y-89874063D01*
X180044063Y-90018226D01*
X179930795Y-90187744D01*
X179852774Y-90376102D01*
X179813000Y-90576061D01*
X179813000Y-90779939D01*
X179852774Y-90979898D01*
X179930795Y-91168256D01*
X179963001Y-91216455D01*
X179963001Y-91327420D01*
X176803000Y-94487422D01*
X176803000Y-94386061D01*
X176763226Y-94186102D01*
X176685205Y-93997744D01*
X176571937Y-93828226D01*
X176427774Y-93684063D01*
X176258256Y-93570795D01*
X176069898Y-93492774D01*
X175869939Y-93453000D01*
X175666061Y-93453000D01*
X175466102Y-93492774D01*
X175277744Y-93570795D01*
X175108226Y-93684063D01*
X174964063Y-93828226D01*
X174850795Y-93997744D01*
X174772774Y-94186102D01*
X174733000Y-94386061D01*
X174733000Y-94589939D01*
X174772774Y-94789898D01*
X174850795Y-94978256D01*
X174964063Y-95147774D01*
X175108226Y-95291937D01*
X175277744Y-95405205D01*
X175466102Y-95483226D01*
X175666061Y-95523000D01*
X175767422Y-95523000D01*
X175147422Y-96143000D01*
X166228579Y-96143000D01*
X165517000Y-95431422D01*
X165517000Y-94386061D01*
X167621000Y-94386061D01*
X167621000Y-94589939D01*
X167660774Y-94789898D01*
X167738795Y-94978256D01*
X167852063Y-95147774D01*
X167996226Y-95291937D01*
X168165744Y-95405205D01*
X168354102Y-95483226D01*
X168554061Y-95523000D01*
X168757939Y-95523000D01*
X168957898Y-95483226D01*
X169146256Y-95405205D01*
X169315774Y-95291937D01*
X169459937Y-95147774D01*
X169573205Y-94978256D01*
X169651226Y-94789898D01*
X169691000Y-94589939D01*
X169691000Y-94386061D01*
X169651226Y-94186102D01*
X169573205Y-93997744D01*
X169459937Y-93828226D01*
X169315774Y-93684063D01*
X169146256Y-93570795D01*
X168957898Y-93492774D01*
X168757939Y-93453000D01*
X168554061Y-93453000D01*
X168354102Y-93492774D01*
X168165744Y-93570795D01*
X167996226Y-93684063D01*
X167852063Y-93828226D01*
X167738795Y-93997744D01*
X167660774Y-94186102D01*
X167621000Y-94386061D01*
X165517000Y-94386061D01*
X165517000Y-93502454D01*
X165549205Y-93454256D01*
X165627226Y-93265898D01*
X165667000Y-93065939D01*
X165667000Y-92862061D01*
X165627226Y-92662102D01*
X165549205Y-92473744D01*
X165435937Y-92304226D01*
X165291774Y-92160063D01*
X165242292Y-92127000D01*
X177000000Y-92127000D01*
X177024776Y-92124560D01*
X177048601Y-92117333D01*
X177070557Y-92105597D01*
X177089803Y-92089803D01*
X177105597Y-92070557D01*
X177117333Y-92048601D01*
X177124560Y-92024776D01*
X177127000Y-92000000D01*
X177127000Y-87127000D01*
X178572252Y-87127000D01*
X178543000Y-87274061D01*
X178543000Y-87477939D01*
X178582774Y-87677898D01*
X178660795Y-87866256D01*
X178774063Y-88035774D01*
X178918226Y-88179937D01*
X179087744Y-88293205D01*
X179276102Y-88371226D01*
X179476061Y-88411000D01*
X179679939Y-88411000D01*
X179879898Y-88371226D01*
X180068256Y-88293205D01*
X180237774Y-88179937D01*
X180381937Y-88035774D01*
X180495205Y-87866256D01*
X180573226Y-87677898D01*
X180613000Y-87477939D01*
X180613000Y-87274061D01*
X180583748Y-87127000D01*
X181112252Y-87127000D01*
X181083000Y-87274061D01*
X181083000Y-87477939D01*
X181122774Y-87677898D01*
X181200795Y-87866256D01*
X181314063Y-88035774D01*
X181458226Y-88179937D01*
X181627744Y-88293205D01*
X181816102Y-88371226D01*
X182016061Y-88411000D01*
X182219939Y-88411000D01*
X182419898Y-88371226D01*
X182608256Y-88293205D01*
X182777774Y-88179937D01*
X182921937Y-88035774D01*
X183035205Y-87866256D01*
X183113226Y-87677898D01*
X183153000Y-87477939D01*
X183153000Y-87274061D01*
X183123748Y-87127000D01*
X183652252Y-87127000D01*
X183623000Y-87274061D01*
X183623000Y-87477939D01*
X183662774Y-87677898D01*
X183740795Y-87866256D01*
X183854063Y-88035774D01*
X183998226Y-88179937D01*
X184167744Y-88293205D01*
X184356102Y-88371226D01*
X184556061Y-88411000D01*
X184759939Y-88411000D01*
X184959898Y-88371226D01*
X185148256Y-88293205D01*
X185317774Y-88179937D01*
X185461937Y-88035774D01*
X185575205Y-87866256D01*
X185653226Y-87677898D01*
X185693000Y-87477939D01*
X185693000Y-87274061D01*
X185663748Y-87127000D01*
X186192252Y-87127000D01*
X186163000Y-87274061D01*
X186163000Y-87477939D01*
X186202774Y-87677898D01*
X186280795Y-87866256D01*
X186394063Y-88035774D01*
X186538226Y-88179937D01*
X186707744Y-88293205D01*
X186896102Y-88371226D01*
X187096061Y-88411000D01*
X187299939Y-88411000D01*
X187499898Y-88371226D01*
X187688256Y-88293205D01*
X187857774Y-88179937D01*
X188001937Y-88035774D01*
X188115205Y-87866256D01*
X188193226Y-87677898D01*
X188233000Y-87477939D01*
X188233000Y-87274061D01*
X188203748Y-87127000D01*
X194340001Y-87127000D01*
X194340000Y-127967721D01*
X194311375Y-128259660D01*
X194235965Y-128509429D01*
X194113477Y-128739794D01*
X193948579Y-128941979D01*
X193747546Y-129108288D01*
X193518046Y-129232378D01*
X193268805Y-129309531D01*
X192978911Y-129340000D01*
X97032279Y-129340000D01*
X96740340Y-129311375D01*
X96490571Y-129235965D01*
X96260206Y-129113477D01*
X96058021Y-128948579D01*
X95891712Y-128747546D01*
X95767622Y-128518046D01*
X95690469Y-128268805D01*
X95660000Y-127978911D01*
X95660000Y-122394000D01*
X100165928Y-122394000D01*
X100165928Y-124494000D01*
X100178188Y-124618482D01*
X100214498Y-124738180D01*
X100273463Y-124848494D01*
X100352815Y-124945185D01*
X100449506Y-125024537D01*
X100559820Y-125083502D01*
X100679518Y-125119812D01*
X100804000Y-125132072D01*
X102904000Y-125132072D01*
X103028482Y-125119812D01*
X103148180Y-125083502D01*
X103258494Y-125024537D01*
X103355185Y-124945185D01*
X103434537Y-124848494D01*
X103493502Y-124738180D01*
X103529812Y-124618482D01*
X103530148Y-124615066D01*
X104672539Y-124615066D01*
X104774339Y-124884579D01*
X105072477Y-125030463D01*
X105393346Y-125115380D01*
X105724617Y-125136066D01*
X106053557Y-125091728D01*
X106367527Y-124984069D01*
X106553661Y-124884579D01*
X106655461Y-124615066D01*
X105664000Y-123623605D01*
X104672539Y-124615066D01*
X103530148Y-124615066D01*
X103542072Y-124494000D01*
X103542072Y-123504617D01*
X103971934Y-123504617D01*
X104016272Y-123833557D01*
X104123931Y-124147527D01*
X104223421Y-124333661D01*
X104492934Y-124435461D01*
X105484395Y-123444000D01*
X105843605Y-123444000D01*
X106835066Y-124435461D01*
X107104579Y-124333661D01*
X107250463Y-124035523D01*
X107335380Y-123714654D01*
X107356066Y-123383383D01*
X107341868Y-123278042D01*
X107789000Y-123278042D01*
X107789000Y-123609958D01*
X107853754Y-123935496D01*
X107980772Y-124242147D01*
X108165175Y-124518125D01*
X108399875Y-124752825D01*
X108675853Y-124937228D01*
X108982504Y-125064246D01*
X109308042Y-125129000D01*
X109639958Y-125129000D01*
X109965496Y-125064246D01*
X110272147Y-124937228D01*
X110548125Y-124752825D01*
X110782825Y-124518125D01*
X110967228Y-124242147D01*
X111094246Y-123935496D01*
X111159000Y-123609958D01*
X111159000Y-123278042D01*
X111094246Y-122952504D01*
X110967228Y-122645853D01*
X110798945Y-122394000D01*
X115405928Y-122394000D01*
X115405928Y-124494000D01*
X115418188Y-124618482D01*
X115454498Y-124738180D01*
X115513463Y-124848494D01*
X115592815Y-124945185D01*
X115689506Y-125024537D01*
X115799820Y-125083502D01*
X115919518Y-125119812D01*
X116044000Y-125132072D01*
X118144000Y-125132072D01*
X118268482Y-125119812D01*
X118388180Y-125083502D01*
X118498494Y-125024537D01*
X118595185Y-124945185D01*
X118674537Y-124848494D01*
X118733502Y-124738180D01*
X118769812Y-124618482D01*
X118770148Y-124615066D01*
X119912539Y-124615066D01*
X120014339Y-124884579D01*
X120312477Y-125030463D01*
X120633346Y-125115380D01*
X120964617Y-125136066D01*
X121293557Y-125091728D01*
X121607527Y-124984069D01*
X121793661Y-124884579D01*
X121895461Y-124615066D01*
X120904000Y-123623605D01*
X119912539Y-124615066D01*
X118770148Y-124615066D01*
X118782072Y-124494000D01*
X118782072Y-123504617D01*
X119211934Y-123504617D01*
X119256272Y-123833557D01*
X119363931Y-124147527D01*
X119463421Y-124333661D01*
X119732934Y-124435461D01*
X120724395Y-123444000D01*
X121083605Y-123444000D01*
X122075066Y-124435461D01*
X122344579Y-124333661D01*
X122490463Y-124035523D01*
X122575380Y-123714654D01*
X122596066Y-123383383D01*
X122581868Y-123278042D01*
X123029000Y-123278042D01*
X123029000Y-123609958D01*
X123093754Y-123935496D01*
X123220772Y-124242147D01*
X123405175Y-124518125D01*
X123639875Y-124752825D01*
X123915853Y-124937228D01*
X124222504Y-125064246D01*
X124548042Y-125129000D01*
X124879958Y-125129000D01*
X125205496Y-125064246D01*
X125512147Y-124937228D01*
X125788125Y-124752825D01*
X126022825Y-124518125D01*
X126207228Y-124242147D01*
X126334246Y-123935496D01*
X126399000Y-123609958D01*
X126399000Y-123278042D01*
X126334246Y-122952504D01*
X126207228Y-122645853D01*
X126022825Y-122369875D01*
X125788125Y-122135175D01*
X125512147Y-121950772D01*
X125205496Y-121823754D01*
X124879958Y-121759000D01*
X124548042Y-121759000D01*
X124222504Y-121823754D01*
X123915853Y-121950772D01*
X123639875Y-122135175D01*
X123405175Y-122369875D01*
X123220772Y-122645853D01*
X123093754Y-122952504D01*
X123029000Y-123278042D01*
X122581868Y-123278042D01*
X122551728Y-123054443D01*
X122444069Y-122740473D01*
X122344579Y-122554339D01*
X122075066Y-122452539D01*
X121083605Y-123444000D01*
X120724395Y-123444000D01*
X119732934Y-122452539D01*
X119463421Y-122554339D01*
X119317537Y-122852477D01*
X119232620Y-123173346D01*
X119211934Y-123504617D01*
X118782072Y-123504617D01*
X118782072Y-122394000D01*
X118770149Y-122272934D01*
X119912539Y-122272934D01*
X120904000Y-123264395D01*
X121895461Y-122272934D01*
X121793661Y-122003421D01*
X121495523Y-121857537D01*
X121174654Y-121772620D01*
X120843383Y-121751934D01*
X120514443Y-121796272D01*
X120200473Y-121903931D01*
X120014339Y-122003421D01*
X119912539Y-122272934D01*
X118770149Y-122272934D01*
X118769812Y-122269518D01*
X118733502Y-122149820D01*
X118674537Y-122039506D01*
X118595185Y-121942815D01*
X118498494Y-121863463D01*
X118388180Y-121804498D01*
X118268482Y-121768188D01*
X118144000Y-121755928D01*
X116044000Y-121755928D01*
X115919518Y-121768188D01*
X115799820Y-121804498D01*
X115689506Y-121863463D01*
X115592815Y-121942815D01*
X115513463Y-122039506D01*
X115454498Y-122149820D01*
X115418188Y-122269518D01*
X115405928Y-122394000D01*
X110798945Y-122394000D01*
X110782825Y-122369875D01*
X110548125Y-122135175D01*
X110272147Y-121950772D01*
X109965496Y-121823754D01*
X109639958Y-121759000D01*
X109308042Y-121759000D01*
X108982504Y-121823754D01*
X108675853Y-121950772D01*
X108399875Y-122135175D01*
X108165175Y-122369875D01*
X107980772Y-122645853D01*
X107853754Y-122952504D01*
X107789000Y-123278042D01*
X107341868Y-123278042D01*
X107311728Y-123054443D01*
X107204069Y-122740473D01*
X107104579Y-122554339D01*
X106835066Y-122452539D01*
X105843605Y-123444000D01*
X105484395Y-123444000D01*
X104492934Y-122452539D01*
X104223421Y-122554339D01*
X104077537Y-122852477D01*
X103992620Y-123173346D01*
X103971934Y-123504617D01*
X103542072Y-123504617D01*
X103542072Y-122394000D01*
X103530149Y-122272934D01*
X104672539Y-122272934D01*
X105664000Y-123264395D01*
X106655461Y-122272934D01*
X106553661Y-122003421D01*
X106255523Y-121857537D01*
X105934654Y-121772620D01*
X105603383Y-121751934D01*
X105274443Y-121796272D01*
X104960473Y-121903931D01*
X104774339Y-122003421D01*
X104672539Y-122272934D01*
X103530149Y-122272934D01*
X103529812Y-122269518D01*
X103493502Y-122149820D01*
X103434537Y-122039506D01*
X103355185Y-121942815D01*
X103258494Y-121863463D01*
X103148180Y-121804498D01*
X103028482Y-121768188D01*
X102904000Y-121755928D01*
X100804000Y-121755928D01*
X100679518Y-121768188D01*
X100559820Y-121804498D01*
X100449506Y-121863463D01*
X100352815Y-121942815D01*
X100273463Y-122039506D01*
X100214498Y-122149820D01*
X100178188Y-122269518D01*
X100165928Y-122394000D01*
X95660000Y-122394000D01*
X95660000Y-114624000D01*
X128971928Y-114624000D01*
X128971928Y-117024000D01*
X128984188Y-117148482D01*
X129020498Y-117268180D01*
X129079463Y-117378494D01*
X129158815Y-117475185D01*
X129255506Y-117554537D01*
X129365820Y-117613502D01*
X129485518Y-117649812D01*
X129610000Y-117662072D01*
X132010000Y-117662072D01*
X132134482Y-117649812D01*
X132254180Y-117613502D01*
X132364494Y-117554537D01*
X132461185Y-117475185D01*
X132540537Y-117378494D01*
X132599502Y-117268180D01*
X132635812Y-117148482D01*
X132640391Y-117101980D01*
X134791626Y-117101980D01*
X134911514Y-117386836D01*
X135235210Y-117547699D01*
X135584069Y-117642322D01*
X135944684Y-117667067D01*
X136303198Y-117620985D01*
X136645833Y-117505846D01*
X136868486Y-117386836D01*
X136988374Y-117101980D01*
X135890000Y-116003605D01*
X134791626Y-117101980D01*
X132640391Y-117101980D01*
X132648072Y-117024000D01*
X132648072Y-115878684D01*
X134046933Y-115878684D01*
X134093015Y-116237198D01*
X134208154Y-116579833D01*
X134327164Y-116802486D01*
X134612020Y-116922374D01*
X135710395Y-115824000D01*
X136069605Y-115824000D01*
X137167980Y-116922374D01*
X137452836Y-116802486D01*
X137613699Y-116478790D01*
X137708322Y-116129931D01*
X137733067Y-115769316D01*
X137686985Y-115410802D01*
X137571846Y-115068167D01*
X137452836Y-114845514D01*
X137167980Y-114725626D01*
X136069605Y-115824000D01*
X135710395Y-115824000D01*
X134612020Y-114725626D01*
X134327164Y-114845514D01*
X134166301Y-115169210D01*
X134071678Y-115518069D01*
X134046933Y-115878684D01*
X132648072Y-115878684D01*
X132648072Y-114624000D01*
X132640392Y-114546020D01*
X134791626Y-114546020D01*
X135890000Y-115644395D01*
X136988374Y-114546020D01*
X136868486Y-114261164D01*
X136544790Y-114100301D01*
X136195931Y-114005678D01*
X135835316Y-113980933D01*
X135476802Y-114027015D01*
X135134167Y-114142154D01*
X134911514Y-114261164D01*
X134791626Y-114546020D01*
X132640392Y-114546020D01*
X132635812Y-114499518D01*
X132599502Y-114379820D01*
X132540537Y-114269506D01*
X132461185Y-114172815D01*
X132364494Y-114093463D01*
X132254180Y-114034498D01*
X132134482Y-113998188D01*
X132010000Y-113985928D01*
X129610000Y-113985928D01*
X129485518Y-113998188D01*
X129365820Y-114034498D01*
X129255506Y-114093463D01*
X129158815Y-114172815D01*
X129079463Y-114269506D01*
X129020498Y-114379820D01*
X128984188Y-114499518D01*
X128971928Y-114624000D01*
X95660000Y-114624000D01*
X95660000Y-113626000D01*
X142275928Y-113626000D01*
X142288188Y-113750482D01*
X142324498Y-113870180D01*
X142383463Y-113980494D01*
X142462815Y-114077185D01*
X142559506Y-114156537D01*
X142669820Y-114215502D01*
X142789518Y-114251812D01*
X142914000Y-114264072D01*
X143478250Y-114261000D01*
X143637000Y-114102250D01*
X143637000Y-112903000D01*
X142437750Y-112903000D01*
X142279000Y-113061750D01*
X142275928Y-113626000D01*
X95660000Y-113626000D01*
X95660000Y-111926000D01*
X142275928Y-111926000D01*
X142279000Y-112490250D01*
X142437750Y-112649000D01*
X143637000Y-112649000D01*
X143637000Y-111449750D01*
X143478250Y-111291000D01*
X142914000Y-111287928D01*
X142789518Y-111300188D01*
X142669820Y-111336498D01*
X142559506Y-111395463D01*
X142462815Y-111474815D01*
X142383463Y-111571506D01*
X142324498Y-111681820D01*
X142288188Y-111801518D01*
X142275928Y-111926000D01*
X95660000Y-111926000D01*
X95660000Y-106900000D01*
X100165928Y-106900000D01*
X100165928Y-109000000D01*
X100178188Y-109124482D01*
X100214498Y-109244180D01*
X100273463Y-109354494D01*
X100352815Y-109451185D01*
X100449506Y-109530537D01*
X100559820Y-109589502D01*
X100679518Y-109625812D01*
X100804000Y-109638072D01*
X102904000Y-109638072D01*
X103028482Y-109625812D01*
X103148180Y-109589502D01*
X103258494Y-109530537D01*
X103355185Y-109451185D01*
X103434537Y-109354494D01*
X103493502Y-109244180D01*
X103529812Y-109124482D01*
X103530148Y-109121066D01*
X104672539Y-109121066D01*
X104774339Y-109390579D01*
X105072477Y-109536463D01*
X105393346Y-109621380D01*
X105724617Y-109642066D01*
X106053557Y-109597728D01*
X106367527Y-109490069D01*
X106553661Y-109390579D01*
X106655461Y-109121066D01*
X105664000Y-108129605D01*
X104672539Y-109121066D01*
X103530148Y-109121066D01*
X103542072Y-109000000D01*
X103542072Y-108010617D01*
X103971934Y-108010617D01*
X104016272Y-108339557D01*
X104123931Y-108653527D01*
X104223421Y-108839661D01*
X104492934Y-108941461D01*
X105484395Y-107950000D01*
X105843605Y-107950000D01*
X106835066Y-108941461D01*
X107104579Y-108839661D01*
X107250463Y-108541523D01*
X107335380Y-108220654D01*
X107356066Y-107889383D01*
X107341868Y-107784042D01*
X107789000Y-107784042D01*
X107789000Y-108115958D01*
X107853754Y-108441496D01*
X107980772Y-108748147D01*
X108165175Y-109024125D01*
X108399875Y-109258825D01*
X108675853Y-109443228D01*
X108982504Y-109570246D01*
X109308042Y-109635000D01*
X109639958Y-109635000D01*
X109965496Y-109570246D01*
X110272147Y-109443228D01*
X110548125Y-109258825D01*
X110782825Y-109024125D01*
X110967228Y-108748147D01*
X111094246Y-108441496D01*
X111159000Y-108115958D01*
X111159000Y-107784042D01*
X111094246Y-107458504D01*
X110967228Y-107151853D01*
X110798945Y-106900000D01*
X115405928Y-106900000D01*
X115405928Y-109000000D01*
X115418188Y-109124482D01*
X115454498Y-109244180D01*
X115513463Y-109354494D01*
X115592815Y-109451185D01*
X115689506Y-109530537D01*
X115799820Y-109589502D01*
X115919518Y-109625812D01*
X116044000Y-109638072D01*
X118144000Y-109638072D01*
X118268482Y-109625812D01*
X118388180Y-109589502D01*
X118498494Y-109530537D01*
X118595185Y-109451185D01*
X118674537Y-109354494D01*
X118733502Y-109244180D01*
X118769812Y-109124482D01*
X118770148Y-109121066D01*
X119912539Y-109121066D01*
X120014339Y-109390579D01*
X120312477Y-109536463D01*
X120633346Y-109621380D01*
X120964617Y-109642066D01*
X121293557Y-109597728D01*
X121607527Y-109490069D01*
X121793661Y-109390579D01*
X121895461Y-109121066D01*
X120904000Y-108129605D01*
X119912539Y-109121066D01*
X118770148Y-109121066D01*
X118782072Y-109000000D01*
X118782072Y-108010617D01*
X119211934Y-108010617D01*
X119256272Y-108339557D01*
X119363931Y-108653527D01*
X119463421Y-108839661D01*
X119732934Y-108941461D01*
X120724395Y-107950000D01*
X121083605Y-107950000D01*
X122075066Y-108941461D01*
X122344579Y-108839661D01*
X122490463Y-108541523D01*
X122575380Y-108220654D01*
X122596066Y-107889383D01*
X122581868Y-107784042D01*
X123029000Y-107784042D01*
X123029000Y-108115958D01*
X123093754Y-108441496D01*
X123220772Y-108748147D01*
X123405175Y-109024125D01*
X123639875Y-109258825D01*
X123915853Y-109443228D01*
X124222504Y-109570246D01*
X124548042Y-109635000D01*
X124879958Y-109635000D01*
X125205496Y-109570246D01*
X125512147Y-109443228D01*
X125788125Y-109258825D01*
X126022825Y-109024125D01*
X126207228Y-108748147D01*
X126334246Y-108441496D01*
X126399000Y-108115958D01*
X126399000Y-107784042D01*
X126334246Y-107458504D01*
X126207228Y-107151853D01*
X126022825Y-106875875D01*
X125788125Y-106641175D01*
X125512147Y-106456772D01*
X125205496Y-106329754D01*
X124879958Y-106265000D01*
X124548042Y-106265000D01*
X124222504Y-106329754D01*
X123915853Y-106456772D01*
X123639875Y-106641175D01*
X123405175Y-106875875D01*
X123220772Y-107151853D01*
X123093754Y-107458504D01*
X123029000Y-107784042D01*
X122581868Y-107784042D01*
X122551728Y-107560443D01*
X122444069Y-107246473D01*
X122344579Y-107060339D01*
X122075066Y-106958539D01*
X121083605Y-107950000D01*
X120724395Y-107950000D01*
X119732934Y-106958539D01*
X119463421Y-107060339D01*
X119317537Y-107358477D01*
X119232620Y-107679346D01*
X119211934Y-108010617D01*
X118782072Y-108010617D01*
X118782072Y-106900000D01*
X118770149Y-106778934D01*
X119912539Y-106778934D01*
X120904000Y-107770395D01*
X121895461Y-106778934D01*
X121793661Y-106509421D01*
X121495523Y-106363537D01*
X121174654Y-106278620D01*
X120843383Y-106257934D01*
X120514443Y-106302272D01*
X120200473Y-106409931D01*
X120014339Y-106509421D01*
X119912539Y-106778934D01*
X118770149Y-106778934D01*
X118769812Y-106775518D01*
X118733502Y-106655820D01*
X118674537Y-106545506D01*
X118595185Y-106448815D01*
X118498494Y-106369463D01*
X118388180Y-106310498D01*
X118268482Y-106274188D01*
X118144000Y-106261928D01*
X116044000Y-106261928D01*
X115919518Y-106274188D01*
X115799820Y-106310498D01*
X115689506Y-106369463D01*
X115592815Y-106448815D01*
X115513463Y-106545506D01*
X115454498Y-106655820D01*
X115418188Y-106775518D01*
X115405928Y-106900000D01*
X110798945Y-106900000D01*
X110782825Y-106875875D01*
X110548125Y-106641175D01*
X110272147Y-106456772D01*
X109965496Y-106329754D01*
X109639958Y-106265000D01*
X109308042Y-106265000D01*
X108982504Y-106329754D01*
X108675853Y-106456772D01*
X108399875Y-106641175D01*
X108165175Y-106875875D01*
X107980772Y-107151853D01*
X107853754Y-107458504D01*
X107789000Y-107784042D01*
X107341868Y-107784042D01*
X107311728Y-107560443D01*
X107204069Y-107246473D01*
X107104579Y-107060339D01*
X106835066Y-106958539D01*
X105843605Y-107950000D01*
X105484395Y-107950000D01*
X104492934Y-106958539D01*
X104223421Y-107060339D01*
X104077537Y-107358477D01*
X103992620Y-107679346D01*
X103971934Y-108010617D01*
X103542072Y-108010617D01*
X103542072Y-106900000D01*
X103530149Y-106778934D01*
X104672539Y-106778934D01*
X105664000Y-107770395D01*
X106655461Y-106778934D01*
X106553661Y-106509421D01*
X106255523Y-106363537D01*
X105934654Y-106278620D01*
X105603383Y-106257934D01*
X105274443Y-106302272D01*
X104960473Y-106409931D01*
X104774339Y-106509421D01*
X104672539Y-106778934D01*
X103530149Y-106778934D01*
X103529812Y-106775518D01*
X103493502Y-106655820D01*
X103434537Y-106545506D01*
X103355185Y-106448815D01*
X103258494Y-106369463D01*
X103148180Y-106310498D01*
X103028482Y-106274188D01*
X102904000Y-106261928D01*
X100804000Y-106261928D01*
X100679518Y-106274188D01*
X100559820Y-106310498D01*
X100449506Y-106369463D01*
X100352815Y-106448815D01*
X100273463Y-106545506D01*
X100214498Y-106655820D01*
X100178188Y-106775518D01*
X100165928Y-106900000D01*
X95660000Y-106900000D01*
X95660000Y-98704061D01*
X130791000Y-98704061D01*
X130791000Y-98907939D01*
X130830774Y-99107898D01*
X130908795Y-99296256D01*
X131022063Y-99465774D01*
X131166226Y-99609937D01*
X131335744Y-99723205D01*
X131524102Y-99801226D01*
X131724061Y-99841000D01*
X131927939Y-99841000D01*
X132127898Y-99801226D01*
X132316256Y-99723205D01*
X132334000Y-99711349D01*
X132351744Y-99723205D01*
X132540102Y-99801226D01*
X132740061Y-99841000D01*
X132943939Y-99841000D01*
X133143898Y-99801226D01*
X133332256Y-99723205D01*
X133350000Y-99711349D01*
X133367744Y-99723205D01*
X133556102Y-99801226D01*
X133756061Y-99841000D01*
X133959939Y-99841000D01*
X134159898Y-99801226D01*
X134348256Y-99723205D01*
X134517774Y-99609937D01*
X134661937Y-99465774D01*
X134775205Y-99296256D01*
X134853226Y-99107898D01*
X134893000Y-98907939D01*
X134893000Y-98704061D01*
X134853226Y-98504102D01*
X134775205Y-98315744D01*
X134661937Y-98146226D01*
X134517774Y-98002063D01*
X134348256Y-97888795D01*
X134159898Y-97810774D01*
X133959939Y-97771000D01*
X133756061Y-97771000D01*
X133556102Y-97810774D01*
X133367744Y-97888795D01*
X133350000Y-97900651D01*
X133332256Y-97888795D01*
X133143898Y-97810774D01*
X132943939Y-97771000D01*
X132740061Y-97771000D01*
X132540102Y-97810774D01*
X132351744Y-97888795D01*
X132334000Y-97900651D01*
X132316256Y-97888795D01*
X132127898Y-97810774D01*
X131927939Y-97771000D01*
X131724061Y-97771000D01*
X131524102Y-97810774D01*
X131335744Y-97888795D01*
X131166226Y-98002063D01*
X131022063Y-98146226D01*
X130908795Y-98315744D01*
X130830774Y-98504102D01*
X130791000Y-98704061D01*
X95660000Y-98704061D01*
X95660000Y-94386061D01*
X104375000Y-94386061D01*
X104375000Y-94589939D01*
X104414774Y-94789898D01*
X104492795Y-94978256D01*
X104606063Y-95147774D01*
X104750226Y-95291937D01*
X104919744Y-95405205D01*
X105108102Y-95483226D01*
X105308061Y-95523000D01*
X105511939Y-95523000D01*
X105711898Y-95483226D01*
X105900256Y-95405205D01*
X106069774Y-95291937D01*
X106213937Y-95147774D01*
X106327205Y-94978256D01*
X106405226Y-94789898D01*
X106445000Y-94589939D01*
X106445000Y-94386061D01*
X106405226Y-94186102D01*
X106327205Y-93997744D01*
X106213937Y-93828226D01*
X106069774Y-93684063D01*
X105900256Y-93570795D01*
X105711898Y-93492774D01*
X105511939Y-93453000D01*
X105308061Y-93453000D01*
X105108102Y-93492774D01*
X104919744Y-93570795D01*
X104750226Y-93684063D01*
X104606063Y-93828226D01*
X104492795Y-93997744D01*
X104414774Y-94186102D01*
X104375000Y-94386061D01*
X95660000Y-94386061D01*
X95660000Y-87127000D01*
X100594252Y-87127000D01*
X100565000Y-87274061D01*
M02*
