G04 #@! TF.GenerationSoftware,KiCad,Pcbnew,(5.1.6)-1*
G04 #@! TF.CreationDate,2020-11-07T12:23:27+01:00*
G04 #@! TF.ProjectId,8-DI-ESP32-PCB,382d4449-2d45-4535-9033-322d5043422e,rev?*
G04 #@! TF.SameCoordinates,Original*
G04 #@! TF.FileFunction,Legend,Top*
G04 #@! TF.FilePolarity,Positive*
%FSLAX46Y46*%
G04 Gerber Fmt 4.6, Leading zero omitted, Abs format (unit mm)*
G04 Created by KiCad (PCBNEW (5.1.6)-1) date 2020-11-07 12:23:27*
%MOMM*%
%LPD*%
G01*
G04 APERTURE LIST*
%ADD10C,0.200000*%
%ADD11C,0.120000*%
%ADD12C,0.250000*%
%ADD13C,0.152400*%
%ADD14C,0.127000*%
%ADD15C,0.150000*%
G04 APERTURE END LIST*
D10*
X120131039Y-87062571D02*
X120443539Y-88562571D01*
X121131039Y-87062571D01*
X122229253Y-88562571D02*
X121372110Y-88562571D01*
X121800682Y-88562571D02*
X121988182Y-87062571D01*
X121818539Y-87276857D01*
X121657825Y-87419714D01*
X121506039Y-87491142D01*
X122889967Y-88419714D02*
X122952467Y-88491142D01*
X122872110Y-88562571D01*
X122809610Y-88491142D01*
X122889967Y-88419714D01*
X122872110Y-88562571D01*
X124059610Y-87062571D02*
X124202467Y-87062571D01*
X124336396Y-87134000D01*
X124398896Y-87205428D01*
X124452467Y-87348285D01*
X124488182Y-87634000D01*
X124443539Y-87991142D01*
X124336396Y-88276857D01*
X124247110Y-88419714D01*
X124166753Y-88491142D01*
X124014967Y-88562571D01*
X123872110Y-88562571D01*
X123738182Y-88491142D01*
X123675682Y-88419714D01*
X123622110Y-88276857D01*
X123586396Y-87991142D01*
X123631039Y-87634000D01*
X123738182Y-87348285D01*
X123827467Y-87205428D01*
X123907825Y-87134000D01*
X124059610Y-87062571D01*
X118486339Y-84955771D02*
X118075625Y-84241485D01*
X117629196Y-84955771D02*
X117816696Y-83455771D01*
X118388125Y-83455771D01*
X118522053Y-83527200D01*
X118584553Y-83598628D01*
X118638125Y-83741485D01*
X118611339Y-83955771D01*
X118522053Y-84098628D01*
X118441696Y-84170057D01*
X118289910Y-84241485D01*
X117718482Y-84241485D01*
X119147053Y-84812914D02*
X119209553Y-84884342D01*
X119129196Y-84955771D01*
X119066696Y-84884342D01*
X119147053Y-84812914D01*
X119129196Y-84955771D01*
X121030982Y-83455771D02*
X121200625Y-84955771D01*
X121620267Y-83884342D01*
X121772053Y-84955771D01*
X122316696Y-83455771D01*
X123280982Y-84884342D02*
X123129196Y-84955771D01*
X122843482Y-84955771D01*
X122709553Y-84884342D01*
X122655982Y-84741485D01*
X122727410Y-84170057D01*
X122816696Y-84027200D01*
X122968482Y-83955771D01*
X123254196Y-83955771D01*
X123388125Y-84027200D01*
X123441696Y-84170057D01*
X123423839Y-84312914D01*
X122691696Y-84455771D01*
X123986339Y-84955771D02*
X124111339Y-83955771D01*
X124173839Y-83455771D02*
X124093482Y-83527200D01*
X124155982Y-83598628D01*
X124236339Y-83527200D01*
X124173839Y-83455771D01*
X124155982Y-83598628D01*
X124825625Y-83955771D02*
X124664910Y-85241485D01*
X124575625Y-85384342D01*
X124423839Y-85455771D01*
X124352410Y-85455771D01*
X124888125Y-83455771D02*
X124807767Y-83527200D01*
X124870267Y-83598628D01*
X124950625Y-83527200D01*
X124888125Y-83455771D01*
X124870267Y-83598628D01*
X125352410Y-84884342D02*
X125486339Y-84955771D01*
X125772053Y-84955771D01*
X125923839Y-84884342D01*
X126013125Y-84741485D01*
X126022053Y-84670057D01*
X125968482Y-84527200D01*
X125834553Y-84455771D01*
X125620267Y-84455771D01*
X125486339Y-84384342D01*
X125432767Y-84241485D01*
X125441696Y-84170057D01*
X125530982Y-84027200D01*
X125682767Y-83955771D01*
X125897053Y-83955771D01*
X126030982Y-84027200D01*
D11*
X155702000Y-120650000D02*
X155702000Y-129032000D01*
X133350000Y-120650000D02*
X133350000Y-129032000D01*
D12*
X129476666Y-124456000D02*
X132143333Y-124456000D01*
X130810000Y-125789333D02*
X130810000Y-123122666D01*
X134556666Y-124456000D02*
X137223333Y-124456000D01*
X151828666Y-124456000D02*
X154495333Y-124456000D01*
X153162000Y-125789333D02*
X153162000Y-123122666D01*
X156908666Y-124456000D02*
X159575333Y-124456000D01*
D11*
X160782000Y-120924000D02*
X160782000Y-129032000D01*
X150622000Y-120924000D02*
X150622000Y-129032000D01*
X138430000Y-120924000D02*
X138430000Y-129032000D01*
X128270000Y-120924000D02*
X128270000Y-129032000D01*
X159004000Y-65338000D02*
X159004000Y-62678000D01*
X159004000Y-65338000D02*
X164144000Y-65338000D01*
X164144000Y-65338000D02*
X164144000Y-62678000D01*
X159004000Y-62678000D02*
X164144000Y-62678000D01*
X156404000Y-62678000D02*
X157734000Y-62678000D01*
X156404000Y-64008000D02*
X156404000Y-62678000D01*
D13*
X109808099Y-63922042D02*
X109808099Y-65465960D01*
X113852913Y-62319101D02*
X110513085Y-62319101D01*
X114557899Y-65465960D02*
X114557899Y-63922042D01*
X110513085Y-67068901D02*
X113852913Y-67068901D01*
X101426099Y-63922042D02*
X101426099Y-65465960D01*
X105470913Y-62319101D02*
X102131085Y-62319101D01*
X106175899Y-65465960D02*
X106175899Y-63922042D01*
X102131085Y-67068901D02*
X105470913Y-67068901D01*
D11*
X159496000Y-101810000D02*
X159496000Y-105660000D01*
X157496000Y-101810000D02*
X157496000Y-105660000D01*
X159496000Y-101810000D02*
X157496000Y-101810000D01*
X138668000Y-101810000D02*
X138668000Y-105660000D01*
X136668000Y-101810000D02*
X136668000Y-105660000D01*
X138668000Y-101810000D02*
X136668000Y-101810000D01*
X152760000Y-103320436D02*
X152760000Y-104524564D01*
X154580000Y-103320436D02*
X154580000Y-104524564D01*
X131932000Y-103320436D02*
X131932000Y-104524564D01*
X133752000Y-103320436D02*
X133752000Y-104524564D01*
D14*
X178294000Y-110950000D02*
X178294000Y-103750000D01*
X190514000Y-103750000D02*
X190514000Y-110950000D01*
X178294000Y-103750000D02*
X190514000Y-103750000D01*
X190514000Y-110950000D02*
X178294000Y-110950000D01*
D10*
X180694000Y-111950000D02*
G75*
G03*
X180694000Y-111950000I-100000J0D01*
G01*
D11*
X181336000Y-68942000D02*
X181336000Y-67682000D01*
X181336000Y-62122000D02*
X181336000Y-63382000D01*
X177576000Y-68942000D02*
X181336000Y-68942000D01*
X175326000Y-62122000D02*
X181336000Y-62122000D01*
X178628000Y-88150000D02*
X179028000Y-88150000D01*
X179028000Y-88150000D02*
X179028000Y-89550000D01*
X178628000Y-88150000D02*
X178628000Y-83350000D01*
X189428000Y-88150000D02*
X189428000Y-83350000D01*
X100650000Y-88150000D02*
X101050000Y-88150000D01*
X101050000Y-88150000D02*
X101050000Y-89550000D01*
X100650000Y-88150000D02*
X100650000Y-83350000D01*
X111450000Y-88150000D02*
X111450000Y-83350000D01*
X173183564Y-73150000D02*
X171979436Y-73150000D01*
X173183564Y-71330000D02*
X171979436Y-71330000D01*
X143738000Y-96954436D02*
X143738000Y-98158564D01*
X141918000Y-96954436D02*
X141918000Y-98158564D01*
X123846000Y-64966436D02*
X123846000Y-66170564D01*
X122026000Y-64966436D02*
X122026000Y-66170564D01*
X188108000Y-76396436D02*
X188108000Y-77600564D01*
X186288000Y-76396436D02*
X186288000Y-77600564D01*
X185568000Y-76396436D02*
X185568000Y-77600564D01*
X183748000Y-76396436D02*
X183748000Y-77600564D01*
X183028000Y-76396436D02*
X183028000Y-77600564D01*
X181208000Y-76396436D02*
X181208000Y-77600564D01*
X180488000Y-76396436D02*
X180488000Y-77600564D01*
X178668000Y-76396436D02*
X178668000Y-77600564D01*
X110130000Y-76359936D02*
X110130000Y-77564064D01*
X108310000Y-76359936D02*
X108310000Y-77564064D01*
X107590000Y-76396436D02*
X107590000Y-77600564D01*
X105770000Y-76396436D02*
X105770000Y-77600564D01*
X105050000Y-76396436D02*
X105050000Y-77600564D01*
X103230000Y-76396436D02*
X103230000Y-77600564D01*
X102510000Y-76396436D02*
X102510000Y-77600564D01*
X100690000Y-76396436D02*
X100690000Y-77600564D01*
X186632436Y-96626000D02*
X187836564Y-96626000D01*
X186632436Y-98446000D02*
X187836564Y-98446000D01*
X179520436Y-96626000D02*
X180724564Y-96626000D01*
X179520436Y-98446000D02*
X180724564Y-98446000D01*
X172408436Y-96626000D02*
X173612564Y-96626000D01*
X172408436Y-98446000D02*
X173612564Y-98446000D01*
X165296436Y-96626000D02*
X166500564Y-96626000D01*
X165296436Y-98446000D02*
X166500564Y-98446000D01*
X123386436Y-96626000D02*
X124590564Y-96626000D01*
X123386436Y-98446000D02*
X124590564Y-98446000D01*
X116274436Y-96626000D02*
X117478564Y-96626000D01*
X116274436Y-98446000D02*
X117478564Y-98446000D01*
X109162436Y-96626000D02*
X110366564Y-96626000D01*
X109162436Y-98446000D02*
X110366564Y-98446000D01*
X102050436Y-96626000D02*
X103254564Y-96626000D01*
X102050436Y-98446000D02*
X103254564Y-98446000D01*
X147634000Y-114106000D02*
X147634000Y-111446000D01*
X145034000Y-114106000D02*
X147634000Y-114106000D01*
X145034000Y-111446000D02*
X147634000Y-111446000D01*
X145034000Y-114106000D02*
X145034000Y-111446000D01*
X143764000Y-114106000D02*
X142434000Y-114106000D01*
X142434000Y-114106000D02*
X142434000Y-112776000D01*
X147634000Y-109534000D02*
X147634000Y-106874000D01*
X145034000Y-109534000D02*
X147634000Y-109534000D01*
X145034000Y-106874000D02*
X147634000Y-106874000D01*
X145034000Y-109534000D02*
X145034000Y-106874000D01*
X143764000Y-109534000D02*
X142434000Y-109534000D01*
X142434000Y-109534000D02*
X142434000Y-108204000D01*
D14*
X150622000Y-120924000D02*
X150622000Y-110724000D01*
X160782000Y-110724000D02*
X160782000Y-120924000D01*
X150622000Y-110724000D02*
X160782000Y-110724000D01*
X160782000Y-120924000D02*
X150622000Y-120924000D01*
D10*
X153262000Y-109724000D02*
G75*
G03*
X153262000Y-109724000I-100000J0D01*
G01*
D14*
X128270000Y-120924000D02*
X128270000Y-110724000D01*
X138430000Y-110724000D02*
X138430000Y-120924000D01*
X128270000Y-110724000D02*
X138430000Y-110724000D01*
X138430000Y-120924000D02*
X128270000Y-120924000D01*
D10*
X130910000Y-109724000D02*
G75*
G03*
X130910000Y-109724000I-100000J0D01*
G01*
D14*
X178294000Y-126444000D02*
X178294000Y-119244000D01*
X190514000Y-119244000D02*
X190514000Y-126444000D01*
X178294000Y-119244000D02*
X190514000Y-119244000D01*
X190514000Y-126444000D02*
X178294000Y-126444000D01*
D10*
X180694000Y-127444000D02*
G75*
G03*
X180694000Y-127444000I-100000J0D01*
G01*
D14*
X163054000Y-110950000D02*
X163054000Y-103750000D01*
X175274000Y-103750000D02*
X175274000Y-110950000D01*
X163054000Y-103750000D02*
X175274000Y-103750000D01*
X175274000Y-110950000D02*
X163054000Y-110950000D01*
D10*
X165454000Y-111950000D02*
G75*
G03*
X165454000Y-111950000I-100000J0D01*
G01*
D14*
X163054000Y-126444000D02*
X163054000Y-119244000D01*
X175274000Y-119244000D02*
X175274000Y-126444000D01*
X163054000Y-119244000D02*
X175274000Y-119244000D01*
X175274000Y-126444000D02*
X163054000Y-126444000D01*
D10*
X165454000Y-127444000D02*
G75*
G03*
X165454000Y-127444000I-100000J0D01*
G01*
D14*
X114794000Y-110950000D02*
X114794000Y-103750000D01*
X127014000Y-103750000D02*
X127014000Y-110950000D01*
X114794000Y-103750000D02*
X127014000Y-103750000D01*
X127014000Y-110950000D02*
X114794000Y-110950000D01*
D10*
X117194000Y-111950000D02*
G75*
G03*
X117194000Y-111950000I-100000J0D01*
G01*
D14*
X114794000Y-126444000D02*
X114794000Y-119244000D01*
X127014000Y-119244000D02*
X127014000Y-126444000D01*
X114794000Y-119244000D02*
X127014000Y-119244000D01*
X127014000Y-126444000D02*
X114794000Y-126444000D01*
D10*
X117194000Y-127444000D02*
G75*
G03*
X117194000Y-127444000I-100000J0D01*
G01*
D14*
X99554000Y-110950000D02*
X99554000Y-103750000D01*
X111774000Y-103750000D02*
X111774000Y-110950000D01*
X99554000Y-103750000D02*
X111774000Y-103750000D01*
X111774000Y-110950000D02*
X99554000Y-110950000D01*
D10*
X101954000Y-111950000D02*
G75*
G03*
X101954000Y-111950000I-100000J0D01*
G01*
D14*
X99554000Y-126444000D02*
X99554000Y-119244000D01*
X111774000Y-119244000D02*
X111774000Y-126444000D01*
X99554000Y-119244000D02*
X111774000Y-119244000D01*
X111774000Y-126444000D02*
X99554000Y-126444000D01*
D10*
X101954000Y-127444000D02*
G75*
G03*
X101954000Y-127444000I-100000J0D01*
G01*
D11*
X169008000Y-71105000D02*
X165123000Y-71105000D01*
X165123000Y-71105000D02*
X165123000Y-73375000D01*
X165123000Y-73375000D02*
X169008000Y-73375000D01*
X141693000Y-101130000D02*
X141693000Y-105015000D01*
X141693000Y-105015000D02*
X143963000Y-105015000D01*
X143963000Y-105015000D02*
X143963000Y-101130000D01*
X189118000Y-95338000D02*
X189118000Y-93638000D01*
X189118000Y-93638000D02*
X185968000Y-93638000D01*
X189118000Y-95338000D02*
X185968000Y-95338000D01*
X182006000Y-95338000D02*
X182006000Y-93638000D01*
X182006000Y-93638000D02*
X178856000Y-93638000D01*
X182006000Y-95338000D02*
X178856000Y-95338000D01*
X174894000Y-95338000D02*
X174894000Y-93638000D01*
X174894000Y-93638000D02*
X171744000Y-93638000D01*
X174894000Y-95338000D02*
X171744000Y-95338000D01*
X167782000Y-95338000D02*
X167782000Y-93638000D01*
X167782000Y-93638000D02*
X164632000Y-93638000D01*
X167782000Y-95338000D02*
X164632000Y-95338000D01*
X125872000Y-95338000D02*
X125872000Y-93638000D01*
X125872000Y-93638000D02*
X122722000Y-93638000D01*
X125872000Y-95338000D02*
X122722000Y-95338000D01*
X118760000Y-95338000D02*
X118760000Y-93638000D01*
X118760000Y-93638000D02*
X115610000Y-93638000D01*
X118760000Y-95338000D02*
X115610000Y-95338000D01*
X111648000Y-95338000D02*
X111648000Y-93638000D01*
X111648000Y-93638000D02*
X108498000Y-93638000D01*
X111648000Y-95338000D02*
X108498000Y-95338000D01*
X104496000Y-95338000D02*
X104496000Y-93638000D01*
X104496000Y-93638000D02*
X101346000Y-93638000D01*
X104496000Y-95338000D02*
X101346000Y-95338000D01*
X114044252Y-69290000D02*
X113521748Y-69290000D01*
X114044252Y-67870000D02*
X113521748Y-67870000D01*
X105662252Y-69290000D02*
X105139748Y-69290000D01*
X105662252Y-67870000D02*
X105139748Y-67870000D01*
X189704000Y-62772000D02*
X188004000Y-62772000D01*
X184184000Y-62772000D02*
X185884000Y-62772000D01*
X184184000Y-67227563D02*
X184184000Y-62772000D01*
X189704000Y-67227563D02*
X189704000Y-62772000D01*
X188639563Y-68292000D02*
X188004000Y-68292000D01*
X185248437Y-68292000D02*
X185884000Y-68292000D01*
X185248437Y-68292000D02*
X184184000Y-67227563D01*
X188639563Y-68292000D02*
X189704000Y-67227563D01*
X123646000Y-70341748D02*
X123646000Y-70864252D01*
X122226000Y-70341748D02*
X122226000Y-70864252D01*
X129030252Y-72338000D02*
X128507748Y-72338000D01*
X129030252Y-70918000D02*
X128507748Y-70918000D01*
X133204000Y-62632500D02*
X130854000Y-62632500D01*
X126384000Y-62632500D02*
X128734000Y-62632500D01*
X126384000Y-68388063D02*
X126384000Y-62632500D01*
X133204000Y-68388063D02*
X133204000Y-62632500D01*
X132139563Y-69452500D02*
X130854000Y-69452500D01*
X127448437Y-69452500D02*
X128734000Y-69452500D01*
X127448437Y-69452500D02*
X126384000Y-68388063D01*
X132139563Y-69452500D02*
X133204000Y-68388063D01*
X174464000Y-62772000D02*
X172764000Y-62772000D01*
X168944000Y-62772000D02*
X170644000Y-62772000D01*
X168944000Y-67227563D02*
X168944000Y-62772000D01*
X174464000Y-67227563D02*
X174464000Y-62772000D01*
X173399563Y-68292000D02*
X172764000Y-68292000D01*
X170008437Y-68292000D02*
X170644000Y-68292000D01*
X170008437Y-68292000D02*
X168944000Y-67227563D01*
X173399563Y-68292000D02*
X174464000Y-67227563D01*
X187958252Y-101548000D02*
X187435748Y-101548000D01*
X187958252Y-100128000D02*
X187435748Y-100128000D01*
X180846252Y-101548000D02*
X180323748Y-101548000D01*
X180846252Y-100128000D02*
X180323748Y-100128000D01*
X173734252Y-101548000D02*
X173211748Y-101548000D01*
X173734252Y-100128000D02*
X173211748Y-100128000D01*
X166622252Y-101548000D02*
X166099748Y-101548000D01*
X166622252Y-100128000D02*
X166099748Y-100128000D01*
X124712252Y-101548000D02*
X124189748Y-101548000D01*
X124712252Y-100128000D02*
X124189748Y-100128000D01*
X117600252Y-101548000D02*
X117077748Y-101548000D01*
X117600252Y-100128000D02*
X117077748Y-100128000D01*
X110488252Y-101548000D02*
X109965748Y-101548000D01*
X110488252Y-100128000D02*
X109965748Y-100128000D01*
X103376252Y-101294000D02*
X102853748Y-101294000D01*
X103376252Y-99874000D02*
X102853748Y-99874000D01*
D15*
X162004476Y-66254380D02*
X162004476Y-66968666D01*
X161956857Y-67111523D01*
X161861619Y-67206761D01*
X161718761Y-67254380D01*
X161623523Y-67254380D01*
X163004476Y-67254380D02*
X162433047Y-67254380D01*
X162718761Y-67254380D02*
X162718761Y-66254380D01*
X162623523Y-66397238D01*
X162528285Y-66492476D01*
X162433047Y-66540095D01*
X163956857Y-67254380D02*
X163385428Y-67254380D01*
X163671142Y-67254380D02*
X163671142Y-66254380D01*
X163575904Y-66397238D01*
X163480666Y-66492476D01*
X163385428Y-66540095D01*
X110849665Y-65098762D02*
X110992522Y-65146381D01*
X111230618Y-65146381D01*
X111325856Y-65098762D01*
X111373475Y-65051143D01*
X111421094Y-64955905D01*
X111421094Y-64860667D01*
X111373475Y-64765429D01*
X111325856Y-64717810D01*
X111230618Y-64670191D01*
X111040141Y-64622572D01*
X110944903Y-64574953D01*
X110897284Y-64527334D01*
X110849665Y-64432096D01*
X110849665Y-64336858D01*
X110897284Y-64241620D01*
X110944903Y-64194001D01*
X111040141Y-64146381D01*
X111278237Y-64146381D01*
X111421094Y-64194001D01*
X111754427Y-64146381D02*
X111992522Y-65146381D01*
X112182999Y-64432096D01*
X112373475Y-65146381D01*
X112611570Y-64146381D01*
X112944903Y-64241620D02*
X112992522Y-64194001D01*
X113087760Y-64146381D01*
X113325856Y-64146381D01*
X113421094Y-64194001D01*
X113468713Y-64241620D01*
X113516332Y-64336858D01*
X113516332Y-64432096D01*
X113468713Y-64574953D01*
X112897284Y-65146381D01*
X113516332Y-65146381D01*
X108567094Y-68702381D02*
X108567094Y-67702381D01*
X108948046Y-67702381D01*
X109043284Y-67750001D01*
X109090903Y-67797620D01*
X109138522Y-67892858D01*
X109138522Y-68035715D01*
X109090903Y-68130953D01*
X109043284Y-68178572D01*
X108948046Y-68226191D01*
X108567094Y-68226191D01*
X110138522Y-68702381D02*
X109805189Y-68226191D01*
X109567094Y-68702381D02*
X109567094Y-67702381D01*
X109948046Y-67702381D01*
X110043284Y-67750001D01*
X110090903Y-67797620D01*
X110138522Y-67892858D01*
X110138522Y-68035715D01*
X110090903Y-68130953D01*
X110043284Y-68178572D01*
X109948046Y-68226191D01*
X109567094Y-68226191D01*
X111090903Y-67750001D02*
X110995665Y-67702381D01*
X110852808Y-67702381D01*
X110709951Y-67750001D01*
X110614713Y-67845239D01*
X110567094Y-67940477D01*
X110519475Y-68130953D01*
X110519475Y-68273810D01*
X110567094Y-68464286D01*
X110614713Y-68559524D01*
X110709951Y-68654762D01*
X110852808Y-68702381D01*
X110948046Y-68702381D01*
X111090903Y-68654762D01*
X111138522Y-68607143D01*
X111138522Y-68273810D01*
X110948046Y-68273810D01*
X102467665Y-65098762D02*
X102610522Y-65146381D01*
X102848618Y-65146381D01*
X102943856Y-65098762D01*
X102991475Y-65051143D01*
X103039094Y-64955905D01*
X103039094Y-64860667D01*
X102991475Y-64765429D01*
X102943856Y-64717810D01*
X102848618Y-64670191D01*
X102658141Y-64622572D01*
X102562903Y-64574953D01*
X102515284Y-64527334D01*
X102467665Y-64432096D01*
X102467665Y-64336858D01*
X102515284Y-64241620D01*
X102562903Y-64194001D01*
X102658141Y-64146381D01*
X102896237Y-64146381D01*
X103039094Y-64194001D01*
X103372427Y-64146381D02*
X103610522Y-65146381D01*
X103800999Y-64432096D01*
X103991475Y-65146381D01*
X104229570Y-64146381D01*
X105134332Y-65146381D02*
X104562903Y-65146381D01*
X104848618Y-65146381D02*
X104848618Y-64146381D01*
X104753379Y-64289239D01*
X104658141Y-64384477D01*
X104562903Y-64432096D01*
X100713379Y-68702381D02*
X100380046Y-68226191D01*
X100141951Y-68702381D02*
X100141951Y-67702381D01*
X100522903Y-67702381D01*
X100618141Y-67750001D01*
X100665760Y-67797620D01*
X100713379Y-67892858D01*
X100713379Y-68035715D01*
X100665760Y-68130953D01*
X100618141Y-68178572D01*
X100522903Y-68226191D01*
X100141951Y-68226191D01*
X101094332Y-68654762D02*
X101237189Y-68702381D01*
X101475284Y-68702381D01*
X101570522Y-68654762D01*
X101618141Y-68607143D01*
X101665760Y-68511905D01*
X101665760Y-68416667D01*
X101618141Y-68321429D01*
X101570522Y-68273810D01*
X101475284Y-68226191D01*
X101284808Y-68178572D01*
X101189570Y-68130953D01*
X101141951Y-68083334D01*
X101094332Y-67988096D01*
X101094332Y-67892858D01*
X101141951Y-67797620D01*
X101189570Y-67750001D01*
X101284808Y-67702381D01*
X101522903Y-67702381D01*
X101665760Y-67750001D01*
X101951475Y-67702381D02*
X102522903Y-67702381D01*
X102237189Y-68702381D02*
X102237189Y-67702381D01*
X157281714Y-101290380D02*
X157281714Y-100290380D01*
X157519809Y-100290380D01*
X157662666Y-100338000D01*
X157757904Y-100433238D01*
X157805523Y-100528476D01*
X157853142Y-100718952D01*
X157853142Y-100861809D01*
X157805523Y-101052285D01*
X157757904Y-101147523D01*
X157662666Y-101242761D01*
X157519809Y-101290380D01*
X157281714Y-101290380D01*
X158805523Y-101290380D02*
X158234095Y-101290380D01*
X158519809Y-101290380D02*
X158519809Y-100290380D01*
X158424571Y-100433238D01*
X158329333Y-100528476D01*
X158234095Y-100576095D01*
X159424571Y-100290380D02*
X159519809Y-100290380D01*
X159615047Y-100338000D01*
X159662666Y-100385619D01*
X159710285Y-100480857D01*
X159757904Y-100671333D01*
X159757904Y-100909428D01*
X159710285Y-101099904D01*
X159662666Y-101195142D01*
X159615047Y-101242761D01*
X159519809Y-101290380D01*
X159424571Y-101290380D01*
X159329333Y-101242761D01*
X159281714Y-101195142D01*
X159234095Y-101099904D01*
X159186476Y-100909428D01*
X159186476Y-100671333D01*
X159234095Y-100480857D01*
X159281714Y-100385619D01*
X159329333Y-100338000D01*
X159424571Y-100290380D01*
X136929904Y-101290380D02*
X136929904Y-100290380D01*
X137168000Y-100290380D01*
X137310857Y-100338000D01*
X137406095Y-100433238D01*
X137453714Y-100528476D01*
X137501333Y-100718952D01*
X137501333Y-100861809D01*
X137453714Y-101052285D01*
X137406095Y-101147523D01*
X137310857Y-101242761D01*
X137168000Y-101290380D01*
X136929904Y-101290380D01*
X137977523Y-101290380D02*
X138168000Y-101290380D01*
X138263238Y-101242761D01*
X138310857Y-101195142D01*
X138406095Y-101052285D01*
X138453714Y-100861809D01*
X138453714Y-100480857D01*
X138406095Y-100385619D01*
X138358476Y-100338000D01*
X138263238Y-100290380D01*
X138072761Y-100290380D01*
X137977523Y-100338000D01*
X137929904Y-100385619D01*
X137882285Y-100480857D01*
X137882285Y-100718952D01*
X137929904Y-100814190D01*
X137977523Y-100861809D01*
X138072761Y-100909428D01*
X138263238Y-100909428D01*
X138358476Y-100861809D01*
X138406095Y-100814190D01*
X138453714Y-100718952D01*
X153336666Y-100004571D02*
X153003333Y-100004571D01*
X153003333Y-100528380D02*
X153003333Y-99528380D01*
X153479523Y-99528380D01*
X153812857Y-99623619D02*
X153860476Y-99576000D01*
X153955714Y-99528380D01*
X154193809Y-99528380D01*
X154289047Y-99576000D01*
X154336666Y-99623619D01*
X154384285Y-99718857D01*
X154384285Y-99814095D01*
X154336666Y-99956952D01*
X153765238Y-100528380D01*
X154384285Y-100528380D01*
X132508666Y-100258571D02*
X132175333Y-100258571D01*
X132175333Y-100782380D02*
X132175333Y-99782380D01*
X132651523Y-99782380D01*
X133556285Y-100782380D02*
X132984857Y-100782380D01*
X133270571Y-100782380D02*
X133270571Y-99782380D01*
X133175333Y-99925238D01*
X133080095Y-100020476D01*
X132984857Y-100068095D01*
X183737333Y-111680761D02*
X183737333Y-113109333D01*
X183642095Y-113395047D01*
X183451619Y-113585523D01*
X183165904Y-113680761D01*
X182975428Y-113680761D01*
X184975428Y-112537904D02*
X184784952Y-112442666D01*
X184689714Y-112347428D01*
X184594476Y-112156952D01*
X184594476Y-112061714D01*
X184689714Y-111871238D01*
X184784952Y-111776000D01*
X184975428Y-111680761D01*
X185356380Y-111680761D01*
X185546857Y-111776000D01*
X185642095Y-111871238D01*
X185737333Y-112061714D01*
X185737333Y-112156952D01*
X185642095Y-112347428D01*
X185546857Y-112442666D01*
X185356380Y-112537904D01*
X184975428Y-112537904D01*
X184784952Y-112633142D01*
X184689714Y-112728380D01*
X184594476Y-112918857D01*
X184594476Y-113299809D01*
X184689714Y-113490285D01*
X184784952Y-113585523D01*
X184975428Y-113680761D01*
X185356380Y-113680761D01*
X185546857Y-113585523D01*
X185642095Y-113490285D01*
X185737333Y-113299809D01*
X185737333Y-112918857D01*
X185642095Y-112728380D01*
X185546857Y-112633142D01*
X185356380Y-112537904D01*
X178562095Y-60158380D02*
X178562095Y-60967904D01*
X178609714Y-61063142D01*
X178657333Y-61110761D01*
X178752571Y-61158380D01*
X178943047Y-61158380D01*
X179038285Y-61110761D01*
X179085904Y-61063142D01*
X179133523Y-60967904D01*
X179133523Y-60158380D01*
X180038285Y-60491714D02*
X180038285Y-61158380D01*
X179800190Y-60110761D02*
X179562095Y-60825047D01*
X180181142Y-60825047D01*
X144256095Y-59142380D02*
X144256095Y-59951904D01*
X144303714Y-60047142D01*
X144351333Y-60094761D01*
X144446571Y-60142380D01*
X144637047Y-60142380D01*
X144732285Y-60094761D01*
X144779904Y-60047142D01*
X144827523Y-59951904D01*
X144827523Y-59142380D01*
X145208476Y-59142380D02*
X145827523Y-59142380D01*
X145494190Y-59523333D01*
X145637047Y-59523333D01*
X145732285Y-59570952D01*
X145779904Y-59618571D01*
X145827523Y-59713809D01*
X145827523Y-59951904D01*
X145779904Y-60047142D01*
X145732285Y-60094761D01*
X145637047Y-60142380D01*
X145351333Y-60142380D01*
X145256095Y-60094761D01*
X145208476Y-60047142D01*
X176530095Y-85202380D02*
X176530095Y-86011904D01*
X176577714Y-86107142D01*
X176625333Y-86154761D01*
X176720571Y-86202380D01*
X176911047Y-86202380D01*
X177006285Y-86154761D01*
X177053904Y-86107142D01*
X177101523Y-86011904D01*
X177101523Y-85202380D01*
X177530095Y-85297619D02*
X177577714Y-85250000D01*
X177672952Y-85202380D01*
X177911047Y-85202380D01*
X178006285Y-85250000D01*
X178053904Y-85297619D01*
X178101523Y-85392857D01*
X178101523Y-85488095D01*
X178053904Y-85630952D01*
X177482476Y-86202380D01*
X178101523Y-86202380D01*
X112014095Y-85202380D02*
X112014095Y-86011904D01*
X112061714Y-86107142D01*
X112109333Y-86154761D01*
X112204571Y-86202380D01*
X112395047Y-86202380D01*
X112490285Y-86154761D01*
X112537904Y-86107142D01*
X112585523Y-86011904D01*
X112585523Y-85202380D01*
X113585523Y-86202380D02*
X113014095Y-86202380D01*
X113299809Y-86202380D02*
X113299809Y-85202380D01*
X113204571Y-85345238D01*
X113109333Y-85440476D01*
X113014095Y-85488095D01*
X171938642Y-74512380D02*
X171605309Y-74036190D01*
X171367214Y-74512380D02*
X171367214Y-73512380D01*
X171748166Y-73512380D01*
X171843404Y-73560000D01*
X171891023Y-73607619D01*
X171938642Y-73702857D01*
X171938642Y-73845714D01*
X171891023Y-73940952D01*
X171843404Y-73988571D01*
X171748166Y-74036190D01*
X171367214Y-74036190D01*
X172891023Y-74512380D02*
X172319595Y-74512380D01*
X172605309Y-74512380D02*
X172605309Y-73512380D01*
X172510071Y-73655238D01*
X172414833Y-73750476D01*
X172319595Y-73798095D01*
X173367214Y-74512380D02*
X173557690Y-74512380D01*
X173652928Y-74464761D01*
X173700547Y-74417142D01*
X173795785Y-74274285D01*
X173843404Y-74083809D01*
X173843404Y-73702857D01*
X173795785Y-73607619D01*
X173748166Y-73560000D01*
X173652928Y-73512380D01*
X173462452Y-73512380D01*
X173367214Y-73560000D01*
X173319595Y-73607619D01*
X173271976Y-73702857D01*
X173271976Y-73940952D01*
X173319595Y-74036190D01*
X173367214Y-74083809D01*
X173462452Y-74131428D01*
X173652928Y-74131428D01*
X173748166Y-74083809D01*
X173795785Y-74036190D01*
X173843404Y-73940952D01*
X144899142Y-97988380D02*
X144565809Y-97512190D01*
X144327714Y-97988380D02*
X144327714Y-96988380D01*
X144708666Y-96988380D01*
X144803904Y-97036000D01*
X144851523Y-97083619D01*
X144899142Y-97178857D01*
X144899142Y-97321714D01*
X144851523Y-97416952D01*
X144803904Y-97464571D01*
X144708666Y-97512190D01*
X144327714Y-97512190D01*
X145851523Y-97988380D02*
X145280095Y-97988380D01*
X145565809Y-97988380D02*
X145565809Y-96988380D01*
X145470571Y-97131238D01*
X145375333Y-97226476D01*
X145280095Y-97274095D01*
X146422952Y-97416952D02*
X146327714Y-97369333D01*
X146280095Y-97321714D01*
X146232476Y-97226476D01*
X146232476Y-97178857D01*
X146280095Y-97083619D01*
X146327714Y-97036000D01*
X146422952Y-96988380D01*
X146613428Y-96988380D01*
X146708666Y-97036000D01*
X146756285Y-97083619D01*
X146803904Y-97178857D01*
X146803904Y-97226476D01*
X146756285Y-97321714D01*
X146708666Y-97369333D01*
X146613428Y-97416952D01*
X146422952Y-97416952D01*
X146327714Y-97464571D01*
X146280095Y-97512190D01*
X146232476Y-97607428D01*
X146232476Y-97797904D01*
X146280095Y-97893142D01*
X146327714Y-97940761D01*
X146422952Y-97988380D01*
X146613428Y-97988380D01*
X146708666Y-97940761D01*
X146756285Y-97893142D01*
X146803904Y-97797904D01*
X146803904Y-97607428D01*
X146756285Y-97512190D01*
X146708666Y-97464571D01*
X146613428Y-97416952D01*
X119753142Y-66020880D02*
X119419809Y-65544690D01*
X119181714Y-66020880D02*
X119181714Y-65020880D01*
X119562666Y-65020880D01*
X119657904Y-65068500D01*
X119705523Y-65116119D01*
X119753142Y-65211357D01*
X119753142Y-65354214D01*
X119705523Y-65449452D01*
X119657904Y-65497071D01*
X119562666Y-65544690D01*
X119181714Y-65544690D01*
X120705523Y-66020880D02*
X120134095Y-66020880D01*
X120419809Y-66020880D02*
X120419809Y-65020880D01*
X120324571Y-65163738D01*
X120229333Y-65258976D01*
X120134095Y-65306595D01*
X121038857Y-65020880D02*
X121705523Y-65020880D01*
X121276952Y-66020880D01*
X187650380Y-73540857D02*
X187174190Y-73874190D01*
X187650380Y-74112285D02*
X186650380Y-74112285D01*
X186650380Y-73731333D01*
X186698000Y-73636095D01*
X186745619Y-73588476D01*
X186840857Y-73540857D01*
X186983714Y-73540857D01*
X187078952Y-73588476D01*
X187126571Y-73636095D01*
X187174190Y-73731333D01*
X187174190Y-74112285D01*
X187650380Y-72588476D02*
X187650380Y-73159904D01*
X187650380Y-72874190D02*
X186650380Y-72874190D01*
X186793238Y-72969428D01*
X186888476Y-73064666D01*
X186936095Y-73159904D01*
X186650380Y-71731333D02*
X186650380Y-71921809D01*
X186698000Y-72017047D01*
X186745619Y-72064666D01*
X186888476Y-72159904D01*
X187078952Y-72207523D01*
X187459904Y-72207523D01*
X187555142Y-72159904D01*
X187602761Y-72112285D01*
X187650380Y-72017047D01*
X187650380Y-71826571D01*
X187602761Y-71731333D01*
X187555142Y-71683714D01*
X187459904Y-71636095D01*
X187221809Y-71636095D01*
X187126571Y-71683714D01*
X187078952Y-71731333D01*
X187031333Y-71826571D01*
X187031333Y-72017047D01*
X187078952Y-72112285D01*
X187126571Y-72159904D01*
X187221809Y-72207523D01*
X185110380Y-73540857D02*
X184634190Y-73874190D01*
X185110380Y-74112285D02*
X184110380Y-74112285D01*
X184110380Y-73731333D01*
X184158000Y-73636095D01*
X184205619Y-73588476D01*
X184300857Y-73540857D01*
X184443714Y-73540857D01*
X184538952Y-73588476D01*
X184586571Y-73636095D01*
X184634190Y-73731333D01*
X184634190Y-74112285D01*
X185110380Y-72588476D02*
X185110380Y-73159904D01*
X185110380Y-72874190D02*
X184110380Y-72874190D01*
X184253238Y-72969428D01*
X184348476Y-73064666D01*
X184396095Y-73159904D01*
X184110380Y-71683714D02*
X184110380Y-72159904D01*
X184586571Y-72207523D01*
X184538952Y-72159904D01*
X184491333Y-72064666D01*
X184491333Y-71826571D01*
X184538952Y-71731333D01*
X184586571Y-71683714D01*
X184681809Y-71636095D01*
X184919904Y-71636095D01*
X185015142Y-71683714D01*
X185062761Y-71731333D01*
X185110380Y-71826571D01*
X185110380Y-72064666D01*
X185062761Y-72159904D01*
X185015142Y-72207523D01*
X182570380Y-73540857D02*
X182094190Y-73874190D01*
X182570380Y-74112285D02*
X181570380Y-74112285D01*
X181570380Y-73731333D01*
X181618000Y-73636095D01*
X181665619Y-73588476D01*
X181760857Y-73540857D01*
X181903714Y-73540857D01*
X181998952Y-73588476D01*
X182046571Y-73636095D01*
X182094190Y-73731333D01*
X182094190Y-74112285D01*
X182570380Y-72588476D02*
X182570380Y-73159904D01*
X182570380Y-72874190D02*
X181570380Y-72874190D01*
X181713238Y-72969428D01*
X181808476Y-73064666D01*
X181856095Y-73159904D01*
X181903714Y-71731333D02*
X182570380Y-71731333D01*
X181522761Y-71969428D02*
X182237047Y-72207523D01*
X182237047Y-71588476D01*
X180030380Y-73540857D02*
X179554190Y-73874190D01*
X180030380Y-74112285D02*
X179030380Y-74112285D01*
X179030380Y-73731333D01*
X179078000Y-73636095D01*
X179125619Y-73588476D01*
X179220857Y-73540857D01*
X179363714Y-73540857D01*
X179458952Y-73588476D01*
X179506571Y-73636095D01*
X179554190Y-73731333D01*
X179554190Y-74112285D01*
X180030380Y-72588476D02*
X180030380Y-73159904D01*
X180030380Y-72874190D02*
X179030380Y-72874190D01*
X179173238Y-72969428D01*
X179268476Y-73064666D01*
X179316095Y-73159904D01*
X179030380Y-72255142D02*
X179030380Y-71636095D01*
X179411333Y-71969428D01*
X179411333Y-71826571D01*
X179458952Y-71731333D01*
X179506571Y-71683714D01*
X179601809Y-71636095D01*
X179839904Y-71636095D01*
X179935142Y-71683714D01*
X179982761Y-71731333D01*
X180030380Y-71826571D01*
X180030380Y-72112285D01*
X179982761Y-72207523D01*
X179935142Y-72255142D01*
X109672380Y-73540857D02*
X109196190Y-73874190D01*
X109672380Y-74112285D02*
X108672380Y-74112285D01*
X108672380Y-73731333D01*
X108720000Y-73636095D01*
X108767619Y-73588476D01*
X108862857Y-73540857D01*
X109005714Y-73540857D01*
X109100952Y-73588476D01*
X109148571Y-73636095D01*
X109196190Y-73731333D01*
X109196190Y-74112285D01*
X109672380Y-72588476D02*
X109672380Y-73159904D01*
X109672380Y-72874190D02*
X108672380Y-72874190D01*
X108815238Y-72969428D01*
X108910476Y-73064666D01*
X108958095Y-73159904D01*
X108767619Y-72207523D02*
X108720000Y-72159904D01*
X108672380Y-72064666D01*
X108672380Y-71826571D01*
X108720000Y-71731333D01*
X108767619Y-71683714D01*
X108862857Y-71636095D01*
X108958095Y-71636095D01*
X109100952Y-71683714D01*
X109672380Y-72255142D01*
X109672380Y-71636095D01*
X107132380Y-73540857D02*
X106656190Y-73874190D01*
X107132380Y-74112285D02*
X106132380Y-74112285D01*
X106132380Y-73731333D01*
X106180000Y-73636095D01*
X106227619Y-73588476D01*
X106322857Y-73540857D01*
X106465714Y-73540857D01*
X106560952Y-73588476D01*
X106608571Y-73636095D01*
X106656190Y-73731333D01*
X106656190Y-74112285D01*
X107132380Y-72588476D02*
X107132380Y-73159904D01*
X107132380Y-72874190D02*
X106132380Y-72874190D01*
X106275238Y-72969428D01*
X106370476Y-73064666D01*
X106418095Y-73159904D01*
X107132380Y-71636095D02*
X107132380Y-72207523D01*
X107132380Y-71921809D02*
X106132380Y-71921809D01*
X106275238Y-72017047D01*
X106370476Y-72112285D01*
X106418095Y-72207523D01*
X104592380Y-73540857D02*
X104116190Y-73874190D01*
X104592380Y-74112285D02*
X103592380Y-74112285D01*
X103592380Y-73731333D01*
X103640000Y-73636095D01*
X103687619Y-73588476D01*
X103782857Y-73540857D01*
X103925714Y-73540857D01*
X104020952Y-73588476D01*
X104068571Y-73636095D01*
X104116190Y-73731333D01*
X104116190Y-74112285D01*
X104592380Y-72588476D02*
X104592380Y-73159904D01*
X104592380Y-72874190D02*
X103592380Y-72874190D01*
X103735238Y-72969428D01*
X103830476Y-73064666D01*
X103878095Y-73159904D01*
X103592380Y-71969428D02*
X103592380Y-71874190D01*
X103640000Y-71778952D01*
X103687619Y-71731333D01*
X103782857Y-71683714D01*
X103973333Y-71636095D01*
X104211428Y-71636095D01*
X104401904Y-71683714D01*
X104497142Y-71731333D01*
X104544761Y-71778952D01*
X104592380Y-71874190D01*
X104592380Y-71969428D01*
X104544761Y-72064666D01*
X104497142Y-72112285D01*
X104401904Y-72159904D01*
X104211428Y-72207523D01*
X103973333Y-72207523D01*
X103782857Y-72159904D01*
X103687619Y-72112285D01*
X103640000Y-72064666D01*
X103592380Y-71969428D01*
X102052380Y-73572666D02*
X101576190Y-73906000D01*
X102052380Y-74144095D02*
X101052380Y-74144095D01*
X101052380Y-73763142D01*
X101100000Y-73667904D01*
X101147619Y-73620285D01*
X101242857Y-73572666D01*
X101385714Y-73572666D01*
X101480952Y-73620285D01*
X101528571Y-73667904D01*
X101576190Y-73763142D01*
X101576190Y-74144095D01*
X102052380Y-73096476D02*
X102052380Y-72906000D01*
X102004761Y-72810761D01*
X101957142Y-72763142D01*
X101814285Y-72667904D01*
X101623809Y-72620285D01*
X101242857Y-72620285D01*
X101147619Y-72667904D01*
X101100000Y-72715523D01*
X101052380Y-72810761D01*
X101052380Y-73001238D01*
X101100000Y-73096476D01*
X101147619Y-73144095D01*
X101242857Y-73191714D01*
X101480952Y-73191714D01*
X101576190Y-73144095D01*
X101623809Y-73096476D01*
X101671428Y-73001238D01*
X101671428Y-72810761D01*
X101623809Y-72715523D01*
X101576190Y-72667904D01*
X101480952Y-72620285D01*
X183475333Y-97988380D02*
X183142000Y-97512190D01*
X182903904Y-97988380D02*
X182903904Y-96988380D01*
X183284857Y-96988380D01*
X183380095Y-97036000D01*
X183427714Y-97083619D01*
X183475333Y-97178857D01*
X183475333Y-97321714D01*
X183427714Y-97416952D01*
X183380095Y-97464571D01*
X183284857Y-97512190D01*
X182903904Y-97512190D01*
X184046761Y-97416952D02*
X183951523Y-97369333D01*
X183903904Y-97321714D01*
X183856285Y-97226476D01*
X183856285Y-97178857D01*
X183903904Y-97083619D01*
X183951523Y-97036000D01*
X184046761Y-96988380D01*
X184237238Y-96988380D01*
X184332476Y-97036000D01*
X184380095Y-97083619D01*
X184427714Y-97178857D01*
X184427714Y-97226476D01*
X184380095Y-97321714D01*
X184332476Y-97369333D01*
X184237238Y-97416952D01*
X184046761Y-97416952D01*
X183951523Y-97464571D01*
X183903904Y-97512190D01*
X183856285Y-97607428D01*
X183856285Y-97797904D01*
X183903904Y-97893142D01*
X183951523Y-97940761D01*
X184046761Y-97988380D01*
X184237238Y-97988380D01*
X184332476Y-97940761D01*
X184380095Y-97893142D01*
X184427714Y-97797904D01*
X184427714Y-97607428D01*
X184380095Y-97512190D01*
X184332476Y-97464571D01*
X184237238Y-97416952D01*
X176399833Y-97988380D02*
X176066500Y-97512190D01*
X175828404Y-97988380D02*
X175828404Y-96988380D01*
X176209357Y-96988380D01*
X176304595Y-97036000D01*
X176352214Y-97083619D01*
X176399833Y-97178857D01*
X176399833Y-97321714D01*
X176352214Y-97416952D01*
X176304595Y-97464571D01*
X176209357Y-97512190D01*
X175828404Y-97512190D01*
X176733166Y-96988380D02*
X177399833Y-96988380D01*
X176971261Y-97988380D01*
X169251333Y-97988380D02*
X168918000Y-97512190D01*
X168679904Y-97988380D02*
X168679904Y-96988380D01*
X169060857Y-96988380D01*
X169156095Y-97036000D01*
X169203714Y-97083619D01*
X169251333Y-97178857D01*
X169251333Y-97321714D01*
X169203714Y-97416952D01*
X169156095Y-97464571D01*
X169060857Y-97512190D01*
X168679904Y-97512190D01*
X170108476Y-96988380D02*
X169918000Y-96988380D01*
X169822761Y-97036000D01*
X169775142Y-97083619D01*
X169679904Y-97226476D01*
X169632285Y-97416952D01*
X169632285Y-97797904D01*
X169679904Y-97893142D01*
X169727523Y-97940761D01*
X169822761Y-97988380D01*
X170013238Y-97988380D01*
X170108476Y-97940761D01*
X170156095Y-97893142D01*
X170203714Y-97797904D01*
X170203714Y-97559809D01*
X170156095Y-97464571D01*
X170108476Y-97416952D01*
X170013238Y-97369333D01*
X169822761Y-97369333D01*
X169727523Y-97416952D01*
X169679904Y-97464571D01*
X169632285Y-97559809D01*
X162139333Y-97988380D02*
X161806000Y-97512190D01*
X161567904Y-97988380D02*
X161567904Y-96988380D01*
X161948857Y-96988380D01*
X162044095Y-97036000D01*
X162091714Y-97083619D01*
X162139333Y-97178857D01*
X162139333Y-97321714D01*
X162091714Y-97416952D01*
X162044095Y-97464571D01*
X161948857Y-97512190D01*
X161567904Y-97512190D01*
X163044095Y-96988380D02*
X162567904Y-96988380D01*
X162520285Y-97464571D01*
X162567904Y-97416952D01*
X162663142Y-97369333D01*
X162901238Y-97369333D01*
X162996476Y-97416952D01*
X163044095Y-97464571D01*
X163091714Y-97559809D01*
X163091714Y-97797904D01*
X163044095Y-97893142D01*
X162996476Y-97940761D01*
X162901238Y-97988380D01*
X162663142Y-97988380D01*
X162567904Y-97940761D01*
X162520285Y-97893142D01*
X120302333Y-97988380D02*
X119969000Y-97512190D01*
X119730904Y-97988380D02*
X119730904Y-96988380D01*
X120111857Y-96988380D01*
X120207095Y-97036000D01*
X120254714Y-97083619D01*
X120302333Y-97178857D01*
X120302333Y-97321714D01*
X120254714Y-97416952D01*
X120207095Y-97464571D01*
X120111857Y-97512190D01*
X119730904Y-97512190D01*
X121159476Y-97321714D02*
X121159476Y-97988380D01*
X120921380Y-96940761D02*
X120683285Y-97655047D01*
X121302333Y-97655047D01*
X113153833Y-97988380D02*
X112820500Y-97512190D01*
X112582404Y-97988380D02*
X112582404Y-96988380D01*
X112963357Y-96988380D01*
X113058595Y-97036000D01*
X113106214Y-97083619D01*
X113153833Y-97178857D01*
X113153833Y-97321714D01*
X113106214Y-97416952D01*
X113058595Y-97464571D01*
X112963357Y-97512190D01*
X112582404Y-97512190D01*
X113487166Y-96988380D02*
X114106214Y-96988380D01*
X113772880Y-97369333D01*
X113915738Y-97369333D01*
X114010976Y-97416952D01*
X114058595Y-97464571D01*
X114106214Y-97559809D01*
X114106214Y-97797904D01*
X114058595Y-97893142D01*
X114010976Y-97940761D01*
X113915738Y-97988380D01*
X113630023Y-97988380D01*
X113534785Y-97940761D01*
X113487166Y-97893142D01*
X106005333Y-97988380D02*
X105672000Y-97512190D01*
X105433904Y-97988380D02*
X105433904Y-96988380D01*
X105814857Y-96988380D01*
X105910095Y-97036000D01*
X105957714Y-97083619D01*
X106005333Y-97178857D01*
X106005333Y-97321714D01*
X105957714Y-97416952D01*
X105910095Y-97464571D01*
X105814857Y-97512190D01*
X105433904Y-97512190D01*
X106386285Y-97083619D02*
X106433904Y-97036000D01*
X106529142Y-96988380D01*
X106767238Y-96988380D01*
X106862476Y-97036000D01*
X106910095Y-97083619D01*
X106957714Y-97178857D01*
X106957714Y-97274095D01*
X106910095Y-97416952D01*
X106338666Y-97988380D01*
X106957714Y-97988380D01*
X98893333Y-97988380D02*
X98560000Y-97512190D01*
X98321904Y-97988380D02*
X98321904Y-96988380D01*
X98702857Y-96988380D01*
X98798095Y-97036000D01*
X98845714Y-97083619D01*
X98893333Y-97178857D01*
X98893333Y-97321714D01*
X98845714Y-97416952D01*
X98798095Y-97464571D01*
X98702857Y-97512190D01*
X98321904Y-97512190D01*
X99845714Y-97988380D02*
X99274285Y-97988380D01*
X99560000Y-97988380D02*
X99560000Y-96988380D01*
X99464761Y-97131238D01*
X99369523Y-97226476D01*
X99274285Y-97274095D01*
X139882666Y-112228380D02*
X139882666Y-112942666D01*
X139835047Y-113085523D01*
X139739809Y-113180761D01*
X139596952Y-113228380D01*
X139501714Y-113228380D01*
X140358857Y-113228380D02*
X140358857Y-112228380D01*
X140739809Y-112228380D01*
X140835047Y-112276000D01*
X140882666Y-112323619D01*
X140930285Y-112418857D01*
X140930285Y-112561714D01*
X140882666Y-112656952D01*
X140835047Y-112704571D01*
X140739809Y-112752190D01*
X140358857Y-112752190D01*
X141311238Y-112323619D02*
X141358857Y-112276000D01*
X141454095Y-112228380D01*
X141692190Y-112228380D01*
X141787428Y-112276000D01*
X141835047Y-112323619D01*
X141882666Y-112418857D01*
X141882666Y-112514095D01*
X141835047Y-112656952D01*
X141263619Y-113228380D01*
X141882666Y-113228380D01*
X139882666Y-107656380D02*
X139882666Y-108370666D01*
X139835047Y-108513523D01*
X139739809Y-108608761D01*
X139596952Y-108656380D01*
X139501714Y-108656380D01*
X140358857Y-108656380D02*
X140358857Y-107656380D01*
X140739809Y-107656380D01*
X140835047Y-107704000D01*
X140882666Y-107751619D01*
X140930285Y-107846857D01*
X140930285Y-107989714D01*
X140882666Y-108084952D01*
X140835047Y-108132571D01*
X140739809Y-108180190D01*
X140358857Y-108180190D01*
X141882666Y-108656380D02*
X141311238Y-108656380D01*
X141596952Y-108656380D02*
X141596952Y-107656380D01*
X141501714Y-107799238D01*
X141406476Y-107894476D01*
X141311238Y-107942095D01*
X145954952Y-119046761D02*
X145954952Y-120475333D01*
X145859714Y-120761047D01*
X145669238Y-120951523D01*
X145383523Y-121046761D01*
X145193047Y-121046761D01*
X147954952Y-121046761D02*
X146812095Y-121046761D01*
X147383523Y-121046761D02*
X147383523Y-119046761D01*
X147193047Y-119332476D01*
X147002571Y-119522952D01*
X146812095Y-119618190D01*
X149193047Y-119046761D02*
X149383523Y-119046761D01*
X149574000Y-119142000D01*
X149669238Y-119237238D01*
X149764476Y-119427714D01*
X149859714Y-119808666D01*
X149859714Y-120284857D01*
X149764476Y-120665809D01*
X149669238Y-120856285D01*
X149574000Y-120951523D01*
X149383523Y-121046761D01*
X149193047Y-121046761D01*
X149002571Y-120951523D01*
X148907333Y-120856285D01*
X148812095Y-120665809D01*
X148716857Y-120284857D01*
X148716857Y-119808666D01*
X148812095Y-119427714D01*
X148907333Y-119237238D01*
X149002571Y-119142000D01*
X149193047Y-119046761D01*
X140049333Y-119046761D02*
X140049333Y-120475333D01*
X139954095Y-120761047D01*
X139763619Y-120951523D01*
X139477904Y-121046761D01*
X139287428Y-121046761D01*
X141096952Y-121046761D02*
X141477904Y-121046761D01*
X141668380Y-120951523D01*
X141763619Y-120856285D01*
X141954095Y-120570571D01*
X142049333Y-120189619D01*
X142049333Y-119427714D01*
X141954095Y-119237238D01*
X141858857Y-119142000D01*
X141668380Y-119046761D01*
X141287428Y-119046761D01*
X141096952Y-119142000D01*
X141001714Y-119237238D01*
X140906476Y-119427714D01*
X140906476Y-119903904D01*
X141001714Y-120094380D01*
X141096952Y-120189619D01*
X141287428Y-120284857D01*
X141668380Y-120284857D01*
X141858857Y-120189619D01*
X141954095Y-120094380D01*
X142049333Y-119903904D01*
X183737333Y-116259761D02*
X183737333Y-117688333D01*
X183642095Y-117974047D01*
X183451619Y-118164523D01*
X183165904Y-118259761D01*
X182975428Y-118259761D01*
X184499238Y-116259761D02*
X185832571Y-116259761D01*
X184975428Y-118259761D01*
X168497333Y-111680761D02*
X168497333Y-113109333D01*
X168402095Y-113395047D01*
X168211619Y-113585523D01*
X167925904Y-113680761D01*
X167735428Y-113680761D01*
X170306857Y-111680761D02*
X169925904Y-111680761D01*
X169735428Y-111776000D01*
X169640190Y-111871238D01*
X169449714Y-112156952D01*
X169354476Y-112537904D01*
X169354476Y-113299809D01*
X169449714Y-113490285D01*
X169544952Y-113585523D01*
X169735428Y-113680761D01*
X170116380Y-113680761D01*
X170306857Y-113585523D01*
X170402095Y-113490285D01*
X170497333Y-113299809D01*
X170497333Y-112823619D01*
X170402095Y-112633142D01*
X170306857Y-112537904D01*
X170116380Y-112442666D01*
X169735428Y-112442666D01*
X169544952Y-112537904D01*
X169449714Y-112633142D01*
X169354476Y-112823619D01*
X168497333Y-116506761D02*
X168497333Y-117935333D01*
X168402095Y-118221047D01*
X168211619Y-118411523D01*
X167925904Y-118506761D01*
X167735428Y-118506761D01*
X170402095Y-116506761D02*
X169449714Y-116506761D01*
X169354476Y-117459142D01*
X169449714Y-117363904D01*
X169640190Y-117268666D01*
X170116380Y-117268666D01*
X170306857Y-117363904D01*
X170402095Y-117459142D01*
X170497333Y-117649619D01*
X170497333Y-118125809D01*
X170402095Y-118316285D01*
X170306857Y-118411523D01*
X170116380Y-118506761D01*
X169640190Y-118506761D01*
X169449714Y-118411523D01*
X169354476Y-118316285D01*
X120237333Y-111680761D02*
X120237333Y-113109333D01*
X120142095Y-113395047D01*
X119951619Y-113585523D01*
X119665904Y-113680761D01*
X119475428Y-113680761D01*
X122046857Y-112347428D02*
X122046857Y-113680761D01*
X121570666Y-111585523D02*
X121094476Y-113014095D01*
X122332571Y-113014095D01*
X120237333Y-116506761D02*
X120237333Y-117935333D01*
X120142095Y-118221047D01*
X119951619Y-118411523D01*
X119665904Y-118506761D01*
X119475428Y-118506761D01*
X120999238Y-116506761D02*
X122237333Y-116506761D01*
X121570666Y-117268666D01*
X121856380Y-117268666D01*
X122046857Y-117363904D01*
X122142095Y-117459142D01*
X122237333Y-117649619D01*
X122237333Y-118125809D01*
X122142095Y-118316285D01*
X122046857Y-118411523D01*
X121856380Y-118506761D01*
X121284952Y-118506761D01*
X121094476Y-118411523D01*
X120999238Y-118316285D01*
X104997333Y-111680761D02*
X104997333Y-113109333D01*
X104902095Y-113395047D01*
X104711619Y-113585523D01*
X104425904Y-113680761D01*
X104235428Y-113680761D01*
X105854476Y-111871238D02*
X105949714Y-111776000D01*
X106140190Y-111680761D01*
X106616380Y-111680761D01*
X106806857Y-111776000D01*
X106902095Y-111871238D01*
X106997333Y-112061714D01*
X106997333Y-112252190D01*
X106902095Y-112537904D01*
X105759238Y-113680761D01*
X106997333Y-113680761D01*
X104997333Y-116506761D02*
X104997333Y-117935333D01*
X104902095Y-118221047D01*
X104711619Y-118411523D01*
X104425904Y-118506761D01*
X104235428Y-118506761D01*
X106997333Y-118506761D02*
X105854476Y-118506761D01*
X106425904Y-118506761D02*
X106425904Y-116506761D01*
X106235428Y-116792476D01*
X106044952Y-116982952D01*
X105854476Y-117078190D01*
X166171714Y-74620380D02*
X166171714Y-73620380D01*
X166409809Y-73620380D01*
X166552666Y-73668000D01*
X166647904Y-73763238D01*
X166695523Y-73858476D01*
X166743142Y-74048952D01*
X166743142Y-74191809D01*
X166695523Y-74382285D01*
X166647904Y-74477523D01*
X166552666Y-74572761D01*
X166409809Y-74620380D01*
X166171714Y-74620380D01*
X167695523Y-74620380D02*
X167124095Y-74620380D01*
X167409809Y-74620380D02*
X167409809Y-73620380D01*
X167314571Y-73763238D01*
X167219333Y-73858476D01*
X167124095Y-73906095D01*
X168076476Y-73715619D02*
X168124095Y-73668000D01*
X168219333Y-73620380D01*
X168457428Y-73620380D01*
X168552666Y-73668000D01*
X168600285Y-73715619D01*
X168647904Y-73810857D01*
X168647904Y-73906095D01*
X168600285Y-74048952D01*
X168028857Y-74620380D01*
X168647904Y-74620380D01*
X144327714Y-103182380D02*
X144327714Y-102182380D01*
X144565809Y-102182380D01*
X144708666Y-102230000D01*
X144803904Y-102325238D01*
X144851523Y-102420476D01*
X144899142Y-102610952D01*
X144899142Y-102753809D01*
X144851523Y-102944285D01*
X144803904Y-103039523D01*
X144708666Y-103134761D01*
X144565809Y-103182380D01*
X144327714Y-103182380D01*
X145851523Y-103182380D02*
X145280095Y-103182380D01*
X145565809Y-103182380D02*
X145565809Y-102182380D01*
X145470571Y-102325238D01*
X145375333Y-102420476D01*
X145280095Y-102468095D01*
X146803904Y-103182380D02*
X146232476Y-103182380D01*
X146518190Y-103182380D02*
X146518190Y-102182380D01*
X146422952Y-102325238D01*
X146327714Y-102420476D01*
X146232476Y-102468095D01*
X183177904Y-94940380D02*
X183177904Y-93940380D01*
X183416000Y-93940380D01*
X183558857Y-93988000D01*
X183654095Y-94083238D01*
X183701714Y-94178476D01*
X183749333Y-94368952D01*
X183749333Y-94511809D01*
X183701714Y-94702285D01*
X183654095Y-94797523D01*
X183558857Y-94892761D01*
X183416000Y-94940380D01*
X183177904Y-94940380D01*
X184320761Y-94368952D02*
X184225523Y-94321333D01*
X184177904Y-94273714D01*
X184130285Y-94178476D01*
X184130285Y-94130857D01*
X184177904Y-94035619D01*
X184225523Y-93988000D01*
X184320761Y-93940380D01*
X184511238Y-93940380D01*
X184606476Y-93988000D01*
X184654095Y-94035619D01*
X184701714Y-94130857D01*
X184701714Y-94178476D01*
X184654095Y-94273714D01*
X184606476Y-94321333D01*
X184511238Y-94368952D01*
X184320761Y-94368952D01*
X184225523Y-94416571D01*
X184177904Y-94464190D01*
X184130285Y-94559428D01*
X184130285Y-94749904D01*
X184177904Y-94845142D01*
X184225523Y-94892761D01*
X184320761Y-94940380D01*
X184511238Y-94940380D01*
X184606476Y-94892761D01*
X184654095Y-94845142D01*
X184701714Y-94749904D01*
X184701714Y-94559428D01*
X184654095Y-94464190D01*
X184606476Y-94416571D01*
X184511238Y-94368952D01*
X176065904Y-94940380D02*
X176065904Y-93940380D01*
X176304000Y-93940380D01*
X176446857Y-93988000D01*
X176542095Y-94083238D01*
X176589714Y-94178476D01*
X176637333Y-94368952D01*
X176637333Y-94511809D01*
X176589714Y-94702285D01*
X176542095Y-94797523D01*
X176446857Y-94892761D01*
X176304000Y-94940380D01*
X176065904Y-94940380D01*
X176970666Y-93940380D02*
X177637333Y-93940380D01*
X177208761Y-94940380D01*
X168973904Y-94940380D02*
X168973904Y-93940380D01*
X169212000Y-93940380D01*
X169354857Y-93988000D01*
X169450095Y-94083238D01*
X169497714Y-94178476D01*
X169545333Y-94368952D01*
X169545333Y-94511809D01*
X169497714Y-94702285D01*
X169450095Y-94797523D01*
X169354857Y-94892761D01*
X169212000Y-94940380D01*
X168973904Y-94940380D01*
X170402476Y-93940380D02*
X170212000Y-93940380D01*
X170116761Y-93988000D01*
X170069142Y-94035619D01*
X169973904Y-94178476D01*
X169926285Y-94368952D01*
X169926285Y-94749904D01*
X169973904Y-94845142D01*
X170021523Y-94892761D01*
X170116761Y-94940380D01*
X170307238Y-94940380D01*
X170402476Y-94892761D01*
X170450095Y-94845142D01*
X170497714Y-94749904D01*
X170497714Y-94511809D01*
X170450095Y-94416571D01*
X170402476Y-94368952D01*
X170307238Y-94321333D01*
X170116761Y-94321333D01*
X170021523Y-94368952D01*
X169973904Y-94416571D01*
X169926285Y-94511809D01*
X161821904Y-94940380D02*
X161821904Y-93940380D01*
X162060000Y-93940380D01*
X162202857Y-93988000D01*
X162298095Y-94083238D01*
X162345714Y-94178476D01*
X162393333Y-94368952D01*
X162393333Y-94511809D01*
X162345714Y-94702285D01*
X162298095Y-94797523D01*
X162202857Y-94892761D01*
X162060000Y-94940380D01*
X161821904Y-94940380D01*
X163298095Y-93940380D02*
X162821904Y-93940380D01*
X162774285Y-94416571D01*
X162821904Y-94368952D01*
X162917142Y-94321333D01*
X163155238Y-94321333D01*
X163250476Y-94368952D01*
X163298095Y-94416571D01*
X163345714Y-94511809D01*
X163345714Y-94749904D01*
X163298095Y-94845142D01*
X163250476Y-94892761D01*
X163155238Y-94940380D01*
X162917142Y-94940380D01*
X162821904Y-94892761D01*
X162774285Y-94845142D01*
X119931904Y-94940380D02*
X119931904Y-93940380D01*
X120170000Y-93940380D01*
X120312857Y-93988000D01*
X120408095Y-94083238D01*
X120455714Y-94178476D01*
X120503333Y-94368952D01*
X120503333Y-94511809D01*
X120455714Y-94702285D01*
X120408095Y-94797523D01*
X120312857Y-94892761D01*
X120170000Y-94940380D01*
X119931904Y-94940380D01*
X121360476Y-94273714D02*
X121360476Y-94940380D01*
X121122380Y-93892761D02*
X120884285Y-94607047D01*
X121503333Y-94607047D01*
X112839904Y-94940380D02*
X112839904Y-93940380D01*
X113078000Y-93940380D01*
X113220857Y-93988000D01*
X113316095Y-94083238D01*
X113363714Y-94178476D01*
X113411333Y-94368952D01*
X113411333Y-94511809D01*
X113363714Y-94702285D01*
X113316095Y-94797523D01*
X113220857Y-94892761D01*
X113078000Y-94940380D01*
X112839904Y-94940380D01*
X113744666Y-93940380D02*
X114363714Y-93940380D01*
X114030380Y-94321333D01*
X114173238Y-94321333D01*
X114268476Y-94368952D01*
X114316095Y-94416571D01*
X114363714Y-94511809D01*
X114363714Y-94749904D01*
X114316095Y-94845142D01*
X114268476Y-94892761D01*
X114173238Y-94940380D01*
X113887523Y-94940380D01*
X113792285Y-94892761D01*
X113744666Y-94845142D01*
X105687904Y-94940380D02*
X105687904Y-93940380D01*
X105926000Y-93940380D01*
X106068857Y-93988000D01*
X106164095Y-94083238D01*
X106211714Y-94178476D01*
X106259333Y-94368952D01*
X106259333Y-94511809D01*
X106211714Y-94702285D01*
X106164095Y-94797523D01*
X106068857Y-94892761D01*
X105926000Y-94940380D01*
X105687904Y-94940380D01*
X106640285Y-94035619D02*
X106687904Y-93988000D01*
X106783142Y-93940380D01*
X107021238Y-93940380D01*
X107116476Y-93988000D01*
X107164095Y-94035619D01*
X107211714Y-94130857D01*
X107211714Y-94226095D01*
X107164095Y-94368952D01*
X106592666Y-94940380D01*
X107211714Y-94940380D01*
X98575904Y-94940380D02*
X98575904Y-93940380D01*
X98814000Y-93940380D01*
X98956857Y-93988000D01*
X99052095Y-94083238D01*
X99099714Y-94178476D01*
X99147333Y-94368952D01*
X99147333Y-94511809D01*
X99099714Y-94702285D01*
X99052095Y-94797523D01*
X98956857Y-94892761D01*
X98814000Y-94940380D01*
X98575904Y-94940380D01*
X100099714Y-94940380D02*
X99528285Y-94940380D01*
X99814000Y-94940380D02*
X99814000Y-93940380D01*
X99718761Y-94083238D01*
X99623523Y-94178476D01*
X99528285Y-94226095D01*
X113149142Y-70715142D02*
X113101523Y-70762761D01*
X112958666Y-70810380D01*
X112863428Y-70810380D01*
X112720571Y-70762761D01*
X112625333Y-70667523D01*
X112577714Y-70572285D01*
X112530095Y-70381809D01*
X112530095Y-70238952D01*
X112577714Y-70048476D01*
X112625333Y-69953238D01*
X112720571Y-69858000D01*
X112863428Y-69810380D01*
X112958666Y-69810380D01*
X113101523Y-69858000D01*
X113149142Y-69905619D01*
X114101523Y-70810380D02*
X113530095Y-70810380D01*
X113815809Y-70810380D02*
X113815809Y-69810380D01*
X113720571Y-69953238D01*
X113625333Y-70048476D01*
X113530095Y-70096095D01*
X115006285Y-69810380D02*
X114530095Y-69810380D01*
X114482476Y-70286571D01*
X114530095Y-70238952D01*
X114625333Y-70191333D01*
X114863428Y-70191333D01*
X114958666Y-70238952D01*
X115006285Y-70286571D01*
X115053904Y-70381809D01*
X115053904Y-70619904D01*
X115006285Y-70715142D01*
X114958666Y-70762761D01*
X114863428Y-70810380D01*
X114625333Y-70810380D01*
X114530095Y-70762761D01*
X114482476Y-70715142D01*
X104767142Y-70715142D02*
X104719523Y-70762761D01*
X104576666Y-70810380D01*
X104481428Y-70810380D01*
X104338571Y-70762761D01*
X104243333Y-70667523D01*
X104195714Y-70572285D01*
X104148095Y-70381809D01*
X104148095Y-70238952D01*
X104195714Y-70048476D01*
X104243333Y-69953238D01*
X104338571Y-69858000D01*
X104481428Y-69810380D01*
X104576666Y-69810380D01*
X104719523Y-69858000D01*
X104767142Y-69905619D01*
X105719523Y-70810380D02*
X105148095Y-70810380D01*
X105433809Y-70810380D02*
X105433809Y-69810380D01*
X105338571Y-69953238D01*
X105243333Y-70048476D01*
X105148095Y-70096095D01*
X106576666Y-70143714D02*
X106576666Y-70810380D01*
X106338571Y-69762761D02*
X106100476Y-70477047D01*
X106719523Y-70477047D01*
X186301142Y-61063142D02*
X186253523Y-61110761D01*
X186110666Y-61158380D01*
X186015428Y-61158380D01*
X185872571Y-61110761D01*
X185777333Y-61015523D01*
X185729714Y-60920285D01*
X185682095Y-60729809D01*
X185682095Y-60586952D01*
X185729714Y-60396476D01*
X185777333Y-60301238D01*
X185872571Y-60206000D01*
X186015428Y-60158380D01*
X186110666Y-60158380D01*
X186253523Y-60206000D01*
X186301142Y-60253619D01*
X187253523Y-61158380D02*
X186682095Y-61158380D01*
X186967809Y-61158380D02*
X186967809Y-60158380D01*
X186872571Y-60301238D01*
X186777333Y-60396476D01*
X186682095Y-60444095D01*
X187586857Y-60158380D02*
X188205904Y-60158380D01*
X187872571Y-60539333D01*
X188015428Y-60539333D01*
X188110666Y-60586952D01*
X188158285Y-60634571D01*
X188205904Y-60729809D01*
X188205904Y-60967904D01*
X188158285Y-61063142D01*
X188110666Y-61110761D01*
X188015428Y-61158380D01*
X187729714Y-61158380D01*
X187634476Y-61110761D01*
X187586857Y-61063142D01*
X119753142Y-70969142D02*
X119705523Y-71016761D01*
X119562666Y-71064380D01*
X119467428Y-71064380D01*
X119324571Y-71016761D01*
X119229333Y-70921523D01*
X119181714Y-70826285D01*
X119134095Y-70635809D01*
X119134095Y-70492952D01*
X119181714Y-70302476D01*
X119229333Y-70207238D01*
X119324571Y-70112000D01*
X119467428Y-70064380D01*
X119562666Y-70064380D01*
X119705523Y-70112000D01*
X119753142Y-70159619D01*
X120705523Y-71064380D02*
X120134095Y-71064380D01*
X120419809Y-71064380D02*
X120419809Y-70064380D01*
X120324571Y-70207238D01*
X120229333Y-70302476D01*
X120134095Y-70350095D01*
X121086476Y-70159619D02*
X121134095Y-70112000D01*
X121229333Y-70064380D01*
X121467428Y-70064380D01*
X121562666Y-70112000D01*
X121610285Y-70159619D01*
X121657904Y-70254857D01*
X121657904Y-70350095D01*
X121610285Y-70492952D01*
X121038857Y-71064380D01*
X121657904Y-71064380D01*
X128126142Y-73763142D02*
X128078523Y-73810761D01*
X127935666Y-73858380D01*
X127840428Y-73858380D01*
X127697571Y-73810761D01*
X127602333Y-73715523D01*
X127554714Y-73620285D01*
X127507095Y-73429809D01*
X127507095Y-73286952D01*
X127554714Y-73096476D01*
X127602333Y-73001238D01*
X127697571Y-72906000D01*
X127840428Y-72858380D01*
X127935666Y-72858380D01*
X128078523Y-72906000D01*
X128126142Y-72953619D01*
X129078523Y-73858380D02*
X128507095Y-73858380D01*
X128792809Y-73858380D02*
X128792809Y-72858380D01*
X128697571Y-73001238D01*
X128602333Y-73096476D01*
X128507095Y-73144095D01*
X130030904Y-73858380D02*
X129459476Y-73858380D01*
X129745190Y-73858380D02*
X129745190Y-72858380D01*
X129649952Y-73001238D01*
X129554714Y-73096476D01*
X129459476Y-73144095D01*
X126611142Y-61571142D02*
X126563523Y-61618761D01*
X126420666Y-61666380D01*
X126325428Y-61666380D01*
X126182571Y-61618761D01*
X126087333Y-61523523D01*
X126039714Y-61428285D01*
X125992095Y-61237809D01*
X125992095Y-61094952D01*
X126039714Y-60904476D01*
X126087333Y-60809238D01*
X126182571Y-60714000D01*
X126325428Y-60666380D01*
X126420666Y-60666380D01*
X126563523Y-60714000D01*
X126611142Y-60761619D01*
X127563523Y-61666380D02*
X126992095Y-61666380D01*
X127277809Y-61666380D02*
X127277809Y-60666380D01*
X127182571Y-60809238D01*
X127087333Y-60904476D01*
X126992095Y-60952095D01*
X128182571Y-60666380D02*
X128277809Y-60666380D01*
X128373047Y-60714000D01*
X128420666Y-60761619D01*
X128468285Y-60856857D01*
X128515904Y-61047333D01*
X128515904Y-61285428D01*
X128468285Y-61475904D01*
X128420666Y-61571142D01*
X128373047Y-61618761D01*
X128277809Y-61666380D01*
X128182571Y-61666380D01*
X128087333Y-61618761D01*
X128039714Y-61571142D01*
X127992095Y-61475904D01*
X127944476Y-61285428D01*
X127944476Y-61047333D01*
X127992095Y-60856857D01*
X128039714Y-60761619D01*
X128087333Y-60714000D01*
X128182571Y-60666380D01*
X171537333Y-61063142D02*
X171489714Y-61110761D01*
X171346857Y-61158380D01*
X171251619Y-61158380D01*
X171108761Y-61110761D01*
X171013523Y-61015523D01*
X170965904Y-60920285D01*
X170918285Y-60729809D01*
X170918285Y-60586952D01*
X170965904Y-60396476D01*
X171013523Y-60301238D01*
X171108761Y-60206000D01*
X171251619Y-60158380D01*
X171346857Y-60158380D01*
X171489714Y-60206000D01*
X171537333Y-60253619D01*
X172013523Y-61158380D02*
X172204000Y-61158380D01*
X172299238Y-61110761D01*
X172346857Y-61063142D01*
X172442095Y-60920285D01*
X172489714Y-60729809D01*
X172489714Y-60348857D01*
X172442095Y-60253619D01*
X172394476Y-60206000D01*
X172299238Y-60158380D01*
X172108761Y-60158380D01*
X172013523Y-60206000D01*
X171965904Y-60253619D01*
X171918285Y-60348857D01*
X171918285Y-60586952D01*
X171965904Y-60682190D01*
X172013523Y-60729809D01*
X172108761Y-60777428D01*
X172299238Y-60777428D01*
X172394476Y-60729809D01*
X172442095Y-60682190D01*
X172489714Y-60586952D01*
X184491333Y-101195142D02*
X184443714Y-101242761D01*
X184300857Y-101290380D01*
X184205619Y-101290380D01*
X184062761Y-101242761D01*
X183967523Y-101147523D01*
X183919904Y-101052285D01*
X183872285Y-100861809D01*
X183872285Y-100718952D01*
X183919904Y-100528476D01*
X183967523Y-100433238D01*
X184062761Y-100338000D01*
X184205619Y-100290380D01*
X184300857Y-100290380D01*
X184443714Y-100338000D01*
X184491333Y-100385619D01*
X185062761Y-100718952D02*
X184967523Y-100671333D01*
X184919904Y-100623714D01*
X184872285Y-100528476D01*
X184872285Y-100480857D01*
X184919904Y-100385619D01*
X184967523Y-100338000D01*
X185062761Y-100290380D01*
X185253238Y-100290380D01*
X185348476Y-100338000D01*
X185396095Y-100385619D01*
X185443714Y-100480857D01*
X185443714Y-100528476D01*
X185396095Y-100623714D01*
X185348476Y-100671333D01*
X185253238Y-100718952D01*
X185062761Y-100718952D01*
X184967523Y-100766571D01*
X184919904Y-100814190D01*
X184872285Y-100909428D01*
X184872285Y-101099904D01*
X184919904Y-101195142D01*
X184967523Y-101242761D01*
X185062761Y-101290380D01*
X185253238Y-101290380D01*
X185348476Y-101242761D01*
X185396095Y-101195142D01*
X185443714Y-101099904D01*
X185443714Y-100909428D01*
X185396095Y-100814190D01*
X185348476Y-100766571D01*
X185253238Y-100718952D01*
X177370333Y-101195142D02*
X177322714Y-101242761D01*
X177179857Y-101290380D01*
X177084619Y-101290380D01*
X176941761Y-101242761D01*
X176846523Y-101147523D01*
X176798904Y-101052285D01*
X176751285Y-100861809D01*
X176751285Y-100718952D01*
X176798904Y-100528476D01*
X176846523Y-100433238D01*
X176941761Y-100338000D01*
X177084619Y-100290380D01*
X177179857Y-100290380D01*
X177322714Y-100338000D01*
X177370333Y-100385619D01*
X177703666Y-100290380D02*
X178370333Y-100290380D01*
X177941761Y-101290380D01*
X170267333Y-101195142D02*
X170219714Y-101242761D01*
X170076857Y-101290380D01*
X169981619Y-101290380D01*
X169838761Y-101242761D01*
X169743523Y-101147523D01*
X169695904Y-101052285D01*
X169648285Y-100861809D01*
X169648285Y-100718952D01*
X169695904Y-100528476D01*
X169743523Y-100433238D01*
X169838761Y-100338000D01*
X169981619Y-100290380D01*
X170076857Y-100290380D01*
X170219714Y-100338000D01*
X170267333Y-100385619D01*
X171124476Y-100290380D02*
X170934000Y-100290380D01*
X170838761Y-100338000D01*
X170791142Y-100385619D01*
X170695904Y-100528476D01*
X170648285Y-100718952D01*
X170648285Y-101099904D01*
X170695904Y-101195142D01*
X170743523Y-101242761D01*
X170838761Y-101290380D01*
X171029238Y-101290380D01*
X171124476Y-101242761D01*
X171172095Y-101195142D01*
X171219714Y-101099904D01*
X171219714Y-100861809D01*
X171172095Y-100766571D01*
X171124476Y-100718952D01*
X171029238Y-100671333D01*
X170838761Y-100671333D01*
X170743523Y-100718952D01*
X170695904Y-100766571D01*
X170648285Y-100861809D01*
X163155333Y-101195142D02*
X163107714Y-101242761D01*
X162964857Y-101290380D01*
X162869619Y-101290380D01*
X162726761Y-101242761D01*
X162631523Y-101147523D01*
X162583904Y-101052285D01*
X162536285Y-100861809D01*
X162536285Y-100718952D01*
X162583904Y-100528476D01*
X162631523Y-100433238D01*
X162726761Y-100338000D01*
X162869619Y-100290380D01*
X162964857Y-100290380D01*
X163107714Y-100338000D01*
X163155333Y-100385619D01*
X164060095Y-100290380D02*
X163583904Y-100290380D01*
X163536285Y-100766571D01*
X163583904Y-100718952D01*
X163679142Y-100671333D01*
X163917238Y-100671333D01*
X164012476Y-100718952D01*
X164060095Y-100766571D01*
X164107714Y-100861809D01*
X164107714Y-101099904D01*
X164060095Y-101195142D01*
X164012476Y-101242761D01*
X163917238Y-101290380D01*
X163679142Y-101290380D01*
X163583904Y-101242761D01*
X163536285Y-101195142D01*
X121236333Y-101195142D02*
X121188714Y-101242761D01*
X121045857Y-101290380D01*
X120950619Y-101290380D01*
X120807761Y-101242761D01*
X120712523Y-101147523D01*
X120664904Y-101052285D01*
X120617285Y-100861809D01*
X120617285Y-100718952D01*
X120664904Y-100528476D01*
X120712523Y-100433238D01*
X120807761Y-100338000D01*
X120950619Y-100290380D01*
X121045857Y-100290380D01*
X121188714Y-100338000D01*
X121236333Y-100385619D01*
X122093476Y-100623714D02*
X122093476Y-101290380D01*
X121855380Y-100242761D02*
X121617285Y-100957047D01*
X122236333Y-100957047D01*
X114133333Y-101195142D02*
X114085714Y-101242761D01*
X113942857Y-101290380D01*
X113847619Y-101290380D01*
X113704761Y-101242761D01*
X113609523Y-101147523D01*
X113561904Y-101052285D01*
X113514285Y-100861809D01*
X113514285Y-100718952D01*
X113561904Y-100528476D01*
X113609523Y-100433238D01*
X113704761Y-100338000D01*
X113847619Y-100290380D01*
X113942857Y-100290380D01*
X114085714Y-100338000D01*
X114133333Y-100385619D01*
X114466666Y-100290380D02*
X115085714Y-100290380D01*
X114752380Y-100671333D01*
X114895238Y-100671333D01*
X114990476Y-100718952D01*
X115038095Y-100766571D01*
X115085714Y-100861809D01*
X115085714Y-101099904D01*
X115038095Y-101195142D01*
X114990476Y-101242761D01*
X114895238Y-101290380D01*
X114609523Y-101290380D01*
X114514285Y-101242761D01*
X114466666Y-101195142D01*
X107021333Y-101195142D02*
X106973714Y-101242761D01*
X106830857Y-101290380D01*
X106735619Y-101290380D01*
X106592761Y-101242761D01*
X106497523Y-101147523D01*
X106449904Y-101052285D01*
X106402285Y-100861809D01*
X106402285Y-100718952D01*
X106449904Y-100528476D01*
X106497523Y-100433238D01*
X106592761Y-100338000D01*
X106735619Y-100290380D01*
X106830857Y-100290380D01*
X106973714Y-100338000D01*
X107021333Y-100385619D01*
X107402285Y-100385619D02*
X107449904Y-100338000D01*
X107545142Y-100290380D01*
X107783238Y-100290380D01*
X107878476Y-100338000D01*
X107926095Y-100385619D01*
X107973714Y-100480857D01*
X107973714Y-100576095D01*
X107926095Y-100718952D01*
X107354666Y-101290380D01*
X107973714Y-101290380D01*
X99909333Y-100941142D02*
X99861714Y-100988761D01*
X99718857Y-101036380D01*
X99623619Y-101036380D01*
X99480761Y-100988761D01*
X99385523Y-100893523D01*
X99337904Y-100798285D01*
X99290285Y-100607809D01*
X99290285Y-100464952D01*
X99337904Y-100274476D01*
X99385523Y-100179238D01*
X99480761Y-100084000D01*
X99623619Y-100036380D01*
X99718857Y-100036380D01*
X99861714Y-100084000D01*
X99909333Y-100131619D01*
X100861714Y-101036380D02*
X100290285Y-101036380D01*
X100576000Y-101036380D02*
X100576000Y-100036380D01*
X100480761Y-100179238D01*
X100385523Y-100274476D01*
X100290285Y-100322095D01*
M02*
