G04 #@! TF.GenerationSoftware,KiCad,Pcbnew,(5.1.6)-1*
G04 #@! TF.CreationDate,2020-11-07T12:23:27+01:00*
G04 #@! TF.ProjectId,8-DI-ESP32-PCB,382d4449-2d45-4535-9033-322d5043422e,rev?*
G04 #@! TF.SameCoordinates,Original*
G04 #@! TF.FileFunction,Legend,Bot*
G04 #@! TF.FilePolarity,Positive*
%FSLAX46Y46*%
G04 Gerber Fmt 4.6, Leading zero omitted, Abs format (unit mm)*
G04 Created by KiCad (PCBNEW (5.1.6)-1) date 2020-11-07 12:23:27*
%MOMM*%
%LPD*%
G01*
G04 APERTURE LIST*
%ADD10C,0.200000*%
G04 APERTURE END LIST*
D10*
X153791260Y-125240171D02*
X153603760Y-123740171D01*
X153032332Y-123740171D01*
X152898403Y-123811600D01*
X152835903Y-123883028D01*
X152782332Y-124025885D01*
X152809117Y-124240171D01*
X152898403Y-124383028D01*
X152978760Y-124454457D01*
X153130546Y-124525885D01*
X153701975Y-124525885D01*
X152291260Y-125240171D02*
X152166260Y-124240171D01*
X152201975Y-124525885D02*
X152112689Y-124383028D01*
X152032332Y-124311600D01*
X151880546Y-124240171D01*
X151737689Y-124240171D01*
X151148403Y-125240171D02*
X151282332Y-125168742D01*
X151344832Y-125097314D01*
X151398403Y-124954457D01*
X151344832Y-124525885D01*
X151255546Y-124383028D01*
X151175189Y-124311600D01*
X151023403Y-124240171D01*
X150809117Y-124240171D01*
X150675189Y-124311600D01*
X150612689Y-124383028D01*
X150559117Y-124525885D01*
X150612689Y-124954457D01*
X150701975Y-125097314D01*
X150782332Y-125168742D01*
X150934117Y-125240171D01*
X151148403Y-125240171D01*
X149362689Y-125240171D02*
X149175189Y-123740171D01*
X149353760Y-125168742D02*
X149505546Y-125240171D01*
X149791260Y-125240171D01*
X149925189Y-125168742D01*
X149987689Y-125097314D01*
X150041260Y-124954457D01*
X149987689Y-124525885D01*
X149898403Y-124383028D01*
X149818046Y-124311600D01*
X149666260Y-124240171D01*
X149380546Y-124240171D01*
X149246617Y-124311600D01*
X148630546Y-125097314D02*
X148568046Y-125168742D01*
X148648403Y-125240171D01*
X148710903Y-125168742D01*
X148630546Y-125097314D01*
X148648403Y-125240171D01*
X146148403Y-125240171D02*
X145960903Y-123740171D01*
X146139475Y-125168742D02*
X146291260Y-125240171D01*
X146576975Y-125240171D01*
X146710903Y-125168742D01*
X146773403Y-125097314D01*
X146826975Y-124954457D01*
X146773403Y-124525885D01*
X146684117Y-124383028D01*
X146603760Y-124311600D01*
X146451975Y-124240171D01*
X146166260Y-124240171D01*
X146032332Y-124311600D01*
X144791260Y-125240171D02*
X144693046Y-124454457D01*
X144746617Y-124311600D01*
X144880546Y-124240171D01*
X145166260Y-124240171D01*
X145318046Y-124311600D01*
X144782332Y-125168742D02*
X144934117Y-125240171D01*
X145291260Y-125240171D01*
X145425189Y-125168742D01*
X145478760Y-125025885D01*
X145460903Y-124883028D01*
X145371617Y-124740171D01*
X145219832Y-124668742D01*
X144862689Y-124668742D01*
X144710903Y-124597314D01*
X144166260Y-124240171D02*
X143594832Y-124240171D01*
X143889475Y-123740171D02*
X144050189Y-125025885D01*
X143996617Y-125168742D01*
X143862689Y-125240171D01*
X143719832Y-125240171D01*
X142639475Y-125168742D02*
X142791260Y-125240171D01*
X143076975Y-125240171D01*
X143210903Y-125168742D01*
X143264475Y-125025885D01*
X143193046Y-124454457D01*
X143103760Y-124311600D01*
X142951975Y-124240171D01*
X142666260Y-124240171D01*
X142532332Y-124311600D01*
X142478760Y-124454457D01*
X142496617Y-124597314D01*
X143228760Y-124740171D01*
X141916260Y-125097314D02*
X141853760Y-125168742D01*
X141934117Y-125240171D01*
X141996617Y-125168742D01*
X141916260Y-125097314D01*
X141934117Y-125240171D01*
X141818046Y-124311600D02*
X141755546Y-124383028D01*
X141835903Y-124454457D01*
X141898403Y-124383028D01*
X141818046Y-124311600D01*
X141835903Y-124454457D01*
X139291260Y-125240171D02*
X140148403Y-125240171D01*
X139719832Y-125240171D02*
X139532332Y-123740171D01*
X139701975Y-123954457D01*
X139862689Y-124097314D01*
X140014475Y-124168742D01*
X137862689Y-125240171D02*
X138719832Y-125240171D01*
X138291260Y-125240171D02*
X138103760Y-123740171D01*
X138273403Y-123954457D01*
X138434117Y-124097314D01*
X138585903Y-124168742D01*
X137148403Y-124668742D02*
X136005546Y-124668742D01*
X135264475Y-123883028D02*
X135184117Y-123811600D01*
X135032332Y-123740171D01*
X134675189Y-123740171D01*
X134541260Y-123811600D01*
X134478760Y-123883028D01*
X134425189Y-124025885D01*
X134443046Y-124168742D01*
X134541260Y-124383028D01*
X135505546Y-125240171D01*
X134576975Y-125240171D01*
X133460903Y-123740171D02*
X133318046Y-123740171D01*
X133184117Y-123811600D01*
X133121617Y-123883028D01*
X133068046Y-124025885D01*
X133032332Y-124311600D01*
X133076975Y-124668742D01*
X133184117Y-124954457D01*
X133273403Y-125097314D01*
X133353760Y-125168742D01*
X133505546Y-125240171D01*
X133648403Y-125240171D01*
X133782332Y-125168742D01*
X133844832Y-125097314D01*
X133898403Y-124954457D01*
X133934117Y-124668742D01*
X133889475Y-124311600D01*
X133782332Y-124025885D01*
X133693046Y-123883028D01*
X133612689Y-123811600D01*
X133460903Y-123740171D01*
M02*
